solid ascii
  facet normal 3.239563e-015 -1.459103e-015 -1.000000e+000
    outer loop
      vertex   7.517638e+000 -4.726430e+001 1.000000e+001
      vertex   6.282841e+000 -5.000585e+001 1.000000e+001
      vertex   7.000000e+000 -4.719615e+001 1.000000e+001
    endloop
  endfacet
  facet normal 0.000000e+000 0.000000e+000 -1.000000e+000
    outer loop
      vertex   7.517638e+000 -4.726430e+001 1.000000e+001
      vertex   8.000000e+000 -4.746410e+001 1.000000e+001
      vertex   6.282841e+000 -5.000585e+001 1.000000e+001
    endloop
  endfacet
  facet normal 0.000000e+000 0.000000e+000 -1.000000e+000
    outer loop
      vertex   6.282841e+000 -5.000585e+001 1.000000e+001
      vertex   8.000000e+000 -4.746410e+001 1.000000e+001
      vertex   8.414214e+000 -4.778194e+001 1.000000e+001
    endloop
  endfacet
  facet normal 0.000000e+000 0.000000e+000 -1.000000e+000
    outer loop
      vertex   8.732051e+000 -4.819615e+001 1.000000e+001
      vertex   6.282841e+000 -5.000585e+001 1.000000e+001
      vertex   8.414214e+000 -4.778194e+001 1.000000e+001
    endloop
  endfacet
  facet normal 0.000000e+000 0.000000e+000 -1.000000e+000
    outer loop
      vertex   8.732051e+000 -4.819615e+001 1.000000e+001
      vertex   8.931852e+000 -4.867851e+001 1.000000e+001
      vertex   6.282841e+000 -5.000585e+001 1.000000e+001
    endloop
  endfacet
  facet normal -1.613085e-015 3.219291e-015 -1.000000e+000
    outer loop
      vertex   6.282841e+000 -5.000585e+001 1.000000e+001
      vertex   8.931852e+000 -4.867851e+001 1.000000e+001
      vertex   9.000000e+000 -4.919615e+001 1.000000e+001
    endloop
  endfacet
  facet normal -6.330542e-016 -1.952713e-016 -1.000000e+000
    outer loop
      vertex   6.576696e+000 -5.043686e+001 1.000000e+001
      vertex   9.000000e+000 -4.919615e+001 1.000000e+001
      vertex   6.730454e+000 -5.093533e+001 1.000000e+001
    endloop
  endfacet
  facet normal -5.433610e-016 -3.704573e-016 -1.000000e+000
    outer loop
      vertex   6.576696e+000 -5.043686e+001 1.000000e+001
      vertex   6.282841e+000 -5.000585e+001 1.000000e+001
      vertex   9.000000e+000 -4.919615e+001 1.000000e+001
    endloop
  endfacet
  facet normal -7.826926e-016 0.000000e+000 -1.000000e+000
    outer loop
      vertex   6.730454e+000 -5.093533e+001 1.000000e+001
      vertex   9.000000e+000 -4.919615e+001 1.000000e+001
      vertex   6.730454e+000 -5.145698e+001 1.000000e+001
    endloop
  endfacet
  facet normal -4.609598e-016 -3.229740e-016 -1.000000e+000
    outer loop
      vertex   6.730454e+000 -5.145698e+001 1.000000e+001
      vertex   9.000000e+000 -4.919615e+001 1.000000e+001
      vertex   9.000000e+000 -5.469615e+001 1.000000e+001
    endloop
  endfacet
  facet normal 0.000000e+000 0.000000e+000 -1.000000e+000
    outer loop
      vertex   6.576696e+000 -5.195545e+001 1.000000e+001
      vertex   9.000000e+000 -5.469615e+001 1.000000e+001
      vertex   6.282841e+000 -5.238645e+001 1.000000e+001
    endloop
  endfacet
  facet normal 0.000000e+000 0.000000e+000 -1.000000e+000
    outer loop
      vertex   6.576696e+000 -5.195545e+001 1.000000e+001
      vertex   6.730454e+000 -5.145698e+001 1.000000e+001
      vertex   9.000000e+000 -5.469615e+001 1.000000e+001
    endloop
  endfacet
  facet normal 0.000000e+000 0.000000e+000 -1.000000e+000
    outer loop
      vertex   1.500000e+000 -5.469615e+001 1.000000e+001
      vertex   4.869222e+000 -5.294126e+001 1.000000e+001
      vertex   9.000000e+000 -5.469615e+001 1.000000e+001
    endloop
  endfacet
  facet normal 0.000000e+000 0.000000e+000 -1.000000e+000
    outer loop
      vertex   1.500000e+000 -5.469615e+001 1.000000e+001
      vertex   4.360653e+000 -5.282518e+001 1.000000e+001
      vertex   4.869222e+000 -5.294126e+001 1.000000e+001
    endloop
  endfacet
  facet normal 0.000000e+000 0.000000e+000 -1.000000e+000
    outer loop
      vertex   1.500000e+000 -5.469615e+001 1.000000e+001
      vertex   3.908893e+000 -5.256436e+001 1.000000e+001
      vertex   4.360653e+000 -5.282518e+001 1.000000e+001
    endloop
  endfacet
  facet normal 0.000000e+000 0.000000e+000 -1.000000e+000
    outer loop
      vertex   1.500000e+000 -5.469615e+001 1.000000e+001
      vertex   3.554082e+000 -5.218196e+001 1.000000e+001
      vertex   3.908893e+000 -5.256436e+001 1.000000e+001
    endloop
  endfacet
  facet normal 0.000000e+000 0.000000e+000 -1.000000e+000
    outer loop
      vertex   1.500000e+000 -5.469615e+001 1.000000e+001
      vertex   3.327748e+000 -5.171197e+001 1.000000e+001
      vertex   3.554082e+000 -5.218196e+001 1.000000e+001
    endloop
  endfacet
  facet normal 0.000000e+000 0.000000e+000 -1.000000e+000
    outer loop
      vertex   1.500000e+000 -5.469615e+001 1.000000e+001
      vertex   3.250000e+000 -5.119615e+001 1.000000e+001
      vertex   3.327748e+000 -5.171197e+001 1.000000e+001
    endloop
  endfacet
  facet normal 0.000000e+000 0.000000e+000 -1.000000e+000
    outer loop
      vertex   1.500000e+000 -5.469615e+001 1.000000e+001
      vertex   1.500000e+000 -4.719615e+001 1.000000e+001
      vertex   3.250000e+000 -5.119615e+001 1.000000e+001
    endloop
  endfacet
  facet normal 0.000000e+000 0.000000e+000 -1.000000e+000
    outer loop
      vertex   3.250000e+000 -5.119615e+001 1.000000e+001
      vertex   1.500000e+000 -4.719615e+001 1.000000e+001
      vertex   3.327748e+000 -5.068033e+001 1.000000e+001
    endloop
  endfacet
  facet normal 0.000000e+000 0.000000e+000 -1.000000e+000
    outer loop
      vertex   3.327748e+000 -5.068033e+001 1.000000e+001
      vertex   1.500000e+000 -4.719615e+001 1.000000e+001
      vertex   3.554082e+000 -5.021034e+001 1.000000e+001
    endloop
  endfacet
  facet normal 0.000000e+000 0.000000e+000 -1.000000e+000
    outer loop
      vertex   3.554082e+000 -5.021034e+001 1.000000e+001
      vertex   1.500000e+000 -4.719615e+001 1.000000e+001
      vertex   3.908893e+000 -4.982795e+001 1.000000e+001
    endloop
  endfacet
  facet normal 0.000000e+000 0.000000e+000 -1.000000e+000
    outer loop
      vertex   3.908893e+000 -4.982795e+001 1.000000e+001
      vertex   1.500000e+000 -4.719615e+001 1.000000e+001
      vertex   4.360653e+000 -4.956712e+001 1.000000e+001
    endloop
  endfacet
  facet normal 0.000000e+000 0.000000e+000 -1.000000e+000
    outer loop
      vertex   4.360653e+000 -4.956712e+001 1.000000e+001
      vertex   1.500000e+000 -4.719615e+001 1.000000e+001
      vertex   4.869222e+000 -4.945105e+001 1.000000e+001
    endloop
  endfacet
  facet normal -3.229740e-016 -4.825821e-016 -1.000000e+000
    outer loop
      vertex   4.869222e+000 -4.945105e+001 1.000000e+001
      vertex   1.500000e+000 -4.719615e+001 1.000000e+001
      vertex   7.000000e+000 -4.719615e+001 1.000000e+001
    endloop
  endfacet
  facet normal -2.382680e-016 -6.070969e-016 -1.000000e+000
    outer loop
      vertex   5.389412e+000 -4.949003e+001 1.000000e+001
      vertex   7.000000e+000 -4.719615e+001 1.000000e+001
      vertex   5.875000e+000 -4.968061e+001 1.000000e+001
    endloop
  endfacet
  facet normal -5.513171e-017 -7.356815e-016 -1.000000e+000
    outer loop
      vertex   5.389412e+000 -4.949003e+001 1.000000e+001
      vertex   4.869222e+000 -4.945105e+001 1.000000e+001
      vertex   7.000000e+000 -4.719615e+001 1.000000e+001
    endloop
  endfacet
  facet normal 0.000000e+000 0.000000e+000 -1.000000e+000
    outer loop
      vertex   4.869222e+000 -5.294126e+001 1.000000e+001
      vertex   5.389412e+000 -5.290228e+001 1.000000e+001
      vertex   9.000000e+000 -5.469615e+001 1.000000e+001
    endloop
  endfacet
  facet normal 0.000000e+000 0.000000e+000 -1.000000e+000
    outer loop
      vertex   9.000000e+000 -5.469615e+001 1.000000e+001
      vertex   5.389412e+000 -5.290228e+001 1.000000e+001
      vertex   5.875000e+000 -5.271170e+001 1.000000e+001
    endloop
  endfacet
  facet normal 0.000000e+000 0.000000e+000 -1.000000e+000
    outer loop
      vertex   6.282841e+000 -5.238645e+001 1.000000e+001
      vertex   9.000000e+000 -5.469615e+001 1.000000e+001
      vertex   5.875000e+000 -5.271170e+001 1.000000e+001
    endloop
  endfacet
  facet normal -4.189117e-016 -5.252987e-016 -1.000000e+000
    outer loop
      vertex   6.282841e+000 -5.000585e+001 1.000000e+001
      vertex   5.875000e+000 -4.968061e+001 1.000000e+001
      vertex   7.000000e+000 -4.719615e+001 1.000000e+001
    endloop
  endfacet
  facet normal 0.000000e+000 1.000000e+000 0.000000e+000
    outer loop
      vertex   9.000000e+000 -5.469615e+001 1.000000e+001
      vertex   9.000000e+000 -5.469615e+001 0.000000e+000
      vertex   1.500000e+000 -5.469615e+001 1.000000e+001
    endloop
  endfacet
  facet normal 0.000000e+000 1.000000e+000 0.000000e+000
    outer loop
      vertex   1.500000e+000 -5.469615e+001 1.000000e+001
      vertex   9.000000e+000 -5.469615e+001 0.000000e+000
      vertex   1.500000e+000 -5.469615e+001 0.000000e+000
    endloop
  endfacet
  facet normal 1.000000e+000 0.000000e+000 0.000000e+000
    outer loop
      vertex   1.500000e+000 -5.469615e+001 1.000000e+001
      vertex   1.500000e+000 -5.469615e+001 0.000000e+000
      vertex   1.500000e+000 -4.719615e+001 1.000000e+001
    endloop
  endfacet
  facet normal 1.000000e+000 0.000000e+000 0.000000e+000
    outer loop
      vertex   1.500000e+000 -4.719615e+001 1.000000e+001
      vertex   1.500000e+000 -5.469615e+001 0.000000e+000
      vertex   1.500000e+000 -4.719615e+001 0.000000e+000
    endloop
  endfacet
  facet normal 1.000000e+000 7.105427e-016 0.000000e+000
    outer loop
      vertex   9.000000e+000 -5.469615e+001 0.000000e+000
      vertex   9.000000e+000 -5.469615e+001 1.000000e+001
      vertex   9.000000e+000 -5.719615e+001 0.000000e+000
    endloop
  endfacet
  facet normal 1.000000e+000 7.751375e-016 -1.614870e-017
    outer loop
      vertex   9.000000e+000 -5.719615e+001 0.000000e+000
      vertex   9.000000e+000 -5.469615e+001 1.000000e+001
      vertex   9.000000e+000 -5.469615e+001 1.200000e+002
    endloop
  endfacet
  facet normal 1.000000e+000 0.000000e+000 0.000000e+000
    outer loop
      vertex   9.000000e+000 -5.719615e+001 1.300000e+002
      vertex   9.000000e+000 -5.469615e+001 1.200000e+002
      vertex   9.000000e+000 -5.469615e+001 1.300000e+002
    endloop
  endfacet
  facet normal 1.000000e+000 0.000000e+000 0.000000e+000
    outer loop
      vertex   9.000000e+000 -5.719615e+001 1.300000e+002
      vertex   9.000000e+000 -5.719615e+001 0.000000e+000
      vertex   9.000000e+000 -5.469615e+001 1.200000e+002
    endloop
  endfacet
  facet normal 1.000000e+000 -5.215609e-033 -1.614870e-017
    outer loop
      vertex   9.000000e+000 -5.469615e+001 1.000000e+001
      vertex   9.000000e+000 -4.919615e+001 1.000000e+001
      vertex   9.000000e+000 -5.469615e+001 1.200000e+002
    endloop
  endfacet
  facet normal 1.000000e+000 4.172487e-032 -1.614870e-017
    outer loop
      vertex   9.000000e+000 -5.469615e+001 1.200000e+002
      vertex   9.000000e+000 -4.919615e+001 1.000000e+001
      vertex   9.000000e+000 -4.919615e+001 1.200000e+002
    endloop
  endfacet
  facet normal 9.914449e-001 1.305262e-001 -1.606910e-017
    outer loop
      vertex   9.000000e+000 -4.919615e+001 1.000000e+001
      vertex   8.931852e+000 -4.867851e+001 1.000000e+001
      vertex   9.000000e+000 -4.919615e+001 1.200000e+002
    endloop
  endfacet
  facet normal 9.914449e-001 1.305262e-001 0.000000e+000
    outer loop
      vertex   9.000000e+000 -4.919615e+001 1.200000e+002
      vertex   8.931852e+000 -4.867851e+001 1.000000e+001
      vertex   8.931852e+000 -4.867851e+001 1.200000e+002
    endloop
  endfacet
  facet normal 9.238795e-001 3.826834e-001 0.000000e+000
    outer loop
      vertex   8.931852e+000 -4.867851e+001 1.200000e+002
      vertex   8.931852e+000 -4.867851e+001 1.000000e+001
      vertex   8.732051e+000 -4.819615e+001 1.000000e+001
    endloop
  endfacet
  facet normal 7.933533e-001 6.087614e-001 0.000000e+000
    outer loop
      vertex   8.732051e+000 -4.819615e+001 1.200000e+002
      vertex   8.732051e+000 -4.819615e+001 1.000000e+001
      vertex   8.414214e+000 -4.778194e+001 1.200000e+002
    endloop
  endfacet
  facet normal 9.238795e-001 3.826834e-001 0.000000e+000
    outer loop
      vertex   8.732051e+000 -4.819615e+001 1.200000e+002
      vertex   8.931852e+000 -4.867851e+001 1.200000e+002
      vertex   8.732051e+000 -4.819615e+001 1.000000e+001
    endloop
  endfacet
  facet normal 7.933533e-001 6.087614e-001 0.000000e+000
    outer loop
      vertex   8.732051e+000 -4.819615e+001 1.000000e+001
      vertex   8.414214e+000 -4.778194e+001 1.000000e+001
      vertex   8.414214e+000 -4.778194e+001 1.200000e+002
    endloop
  endfacet
  facet normal 6.087614e-001 7.933533e-001 0.000000e+000
    outer loop
      vertex   8.414214e+000 -4.778194e+001 1.200000e+002
      vertex   8.414214e+000 -4.778194e+001 1.000000e+001
      vertex   8.000000e+000 -4.746410e+001 1.200000e+002
    endloop
  endfacet
  facet normal 6.087614e-001 7.933533e-001 0.000000e+000
    outer loop
      vertex   8.000000e+000 -4.746410e+001 1.200000e+002
      vertex   8.414214e+000 -4.778194e+001 1.000000e+001
      vertex   8.000000e+000 -4.746410e+001 1.000000e+001
    endloop
  endfacet
  facet normal 3.826834e-001 9.238795e-001 0.000000e+000
    outer loop
      vertex   7.517638e+000 -4.726430e+001 1.000000e+001
      vertex   8.000000e+000 -4.746410e+001 1.200000e+002
      vertex   8.000000e+000 -4.746410e+001 1.000000e+001
    endloop
  endfacet
  facet normal 3.826834e-001 9.238795e-001 0.000000e+000
    outer loop
      vertex   7.517638e+000 -4.726430e+001 1.000000e+001
      vertex   7.517638e+000 -4.726430e+001 1.200000e+002
      vertex   8.000000e+000 -4.746410e+001 1.200000e+002
    endloop
  endfacet
  facet normal 1.305262e-001 9.914449e-001 0.000000e+000
    outer loop
      vertex   7.517638e+000 -4.726430e+001 1.000000e+001
      vertex   7.000000e+000 -4.719615e+001 1.000000e+001
      vertex   7.517638e+000 -4.726430e+001 1.200000e+002
    endloop
  endfacet
  facet normal 1.305262e-001 9.914449e-001 0.000000e+000
    outer loop
      vertex   7.517638e+000 -4.726430e+001 1.200000e+002
      vertex   7.000000e+000 -4.719615e+001 1.000000e+001
      vertex   7.000000e+000 -4.719615e+001 1.200000e+002
    endloop
  endfacet
  facet normal 0.000000e+000 1.000000e+000 0.000000e+000
    outer loop
      vertex   1.500000e+000 -5.469615e+001 1.200000e+002
      vertex   1.500000e+000 -5.469615e+001 1.300000e+002
      vertex   9.000000e+000 -5.469615e+001 1.200000e+002
    endloop
  endfacet
  facet normal 0.000000e+000 1.000000e+000 0.000000e+000
    outer loop
      vertex   9.000000e+000 -5.469615e+001 1.200000e+002
      vertex   1.500000e+000 -5.469615e+001 1.300000e+002
      vertex   9.000000e+000 -5.469615e+001 1.300000e+002
    endloop
  endfacet
  facet normal 1.000000e+000 2.072416e-016 0.000000e+000
    outer loop
      vertex   1.500000e+000 -4.719615e+001 1.200000e+002
      vertex   1.500000e+000 -4.719615e+001 1.300000e+002
      vertex   1.500000e+000 -5.469615e+001 1.200000e+002
    endloop
  endfacet
  facet normal 1.000000e+000 2.072416e-016 0.000000e+000
    outer loop
      vertex   1.500000e+000 -5.469615e+001 1.200000e+002
      vertex   1.500000e+000 -4.719615e+001 1.300000e+002
      vertex   1.500000e+000 -5.469615e+001 1.300000e+002
    endloop
  endfacet
  facet normal -1.564728e-014 2.539326e-014 1.000000e+000
    outer loop
      vertex   8.931852e+000 -4.867851e+001 1.200000e+002
      vertex   6.445918e+000 -5.021034e+001 1.200000e+002
      vertex   9.000000e+000 -4.919615e+001 1.200000e+002
    endloop
  endfacet
  facet normal 0.000000e+000 0.000000e+000 1.000000e+000
    outer loop
      vertex   8.931852e+000 -4.867851e+001 1.200000e+002
      vertex   8.732051e+000 -4.819615e+001 1.200000e+002
      vertex   6.445918e+000 -5.021034e+001 1.200000e+002
    endloop
  endfacet
  facet normal 0.000000e+000 0.000000e+000 1.000000e+000
    outer loop
      vertex   6.445918e+000 -5.021034e+001 1.200000e+002
      vertex   8.732051e+000 -4.819615e+001 1.200000e+002
      vertex   6.091107e+000 -4.982795e+001 1.200000e+002
    endloop
  endfacet
  facet normal 0.000000e+000 0.000000e+000 1.000000e+000
    outer loop
      vertex   6.091107e+000 -4.982795e+001 1.200000e+002
      vertex   8.732051e+000 -4.819615e+001 1.200000e+002
      vertex   8.414214e+000 -4.778194e+001 1.200000e+002
    endloop
  endfacet
  facet normal 0.000000e+000 0.000000e+000 1.000000e+000
    outer loop
      vertex   8.000000e+000 -4.746410e+001 1.200000e+002
      vertex   6.091107e+000 -4.982795e+001 1.200000e+002
      vertex   8.414214e+000 -4.778194e+001 1.200000e+002
    endloop
  endfacet
  facet normal 0.000000e+000 0.000000e+000 1.000000e+000
    outer loop
      vertex   8.000000e+000 -4.746410e+001 1.200000e+002
      vertex   7.517638e+000 -4.726430e+001 1.200000e+002
      vertex   6.091107e+000 -4.982795e+001 1.200000e+002
    endloop
  endfacet
  facet normal 2.557938e-014 -1.423355e-014 1.000000e+000
    outer loop
      vertex   6.091107e+000 -4.982795e+001 1.200000e+002
      vertex   7.517638e+000 -4.726430e+001 1.200000e+002
      vertex   7.000000e+000 -4.719615e+001 1.200000e+002
    endloop
  endfacet
  facet normal -1.209583e-015 -5.299530e-015 1.000000e+000
    outer loop
      vertex   5.639347e+000 -4.956712e+001 1.200000e+002
      vertex   7.000000e+000 -4.719615e+001 1.200000e+002
      vertex   5.130778e+000 -4.945105e+001 1.200000e+002
    endloop
  endfacet
  facet normal -2.599248e-015 -4.502029e-015 1.000000e+000
    outer loop
      vertex   5.639347e+000 -4.956712e+001 1.200000e+002
      vertex   6.091107e+000 -4.982795e+001 1.200000e+002
      vertex   7.000000e+000 -4.719615e+001 1.200000e+002
    endloop
  endfacet
  facet normal 5.035696e-016 -6.719670e-015 1.000000e+000
    outer loop
      vertex   5.130778e+000 -4.945105e+001 1.200000e+002
      vertex   7.000000e+000 -4.719615e+001 1.200000e+002
      vertex   4.610588e+000 -4.949003e+001 1.200000e+002
    endloop
  endfacet
  facet normal -2.583792e-015 -3.503726e-015 1.000000e+000
    outer loop
      vertex   4.610588e+000 -4.949003e+001 1.200000e+002
      vertex   7.000000e+000 -4.719615e+001 1.200000e+002
      vertex   1.500000e+000 -4.719615e+001 1.200000e+002
    endloop
  endfacet
  facet normal 0.000000e+000 0.000000e+000 1.000000e+000
    outer loop
      vertex   4.125000e+000 -4.968061e+001 1.200000e+002
      vertex   1.500000e+000 -4.719615e+001 1.200000e+002
      vertex   3.717159e+000 -5.000585e+001 1.200000e+002
    endloop
  endfacet
  facet normal 0.000000e+000 0.000000e+000 1.000000e+000
    outer loop
      vertex   4.125000e+000 -4.968061e+001 1.200000e+002
      vertex   4.610588e+000 -4.949003e+001 1.200000e+002
      vertex   1.500000e+000 -4.719615e+001 1.200000e+002
    endloop
  endfacet
  facet normal 0.000000e+000 0.000000e+000 1.000000e+000
    outer loop
      vertex   1.500000e+000 -5.469615e+001 1.200000e+002
      vertex   3.269546e+000 -5.093533e+001 1.200000e+002
      vertex   1.500000e+000 -4.719615e+001 1.200000e+002
    endloop
  endfacet
  facet normal 0.000000e+000 0.000000e+000 1.000000e+000
    outer loop
      vertex   1.500000e+000 -5.469615e+001 1.200000e+002
      vertex   3.269546e+000 -5.145698e+001 1.200000e+002
      vertex   3.269546e+000 -5.093533e+001 1.200000e+002
    endloop
  endfacet
  facet normal 0.000000e+000 0.000000e+000 1.000000e+000
    outer loop
      vertex   1.500000e+000 -5.469615e+001 1.200000e+002
      vertex   3.423304e+000 -5.195545e+001 1.200000e+002
      vertex   3.269546e+000 -5.145698e+001 1.200000e+002
    endloop
  endfacet
  facet normal 0.000000e+000 0.000000e+000 1.000000e+000
    outer loop
      vertex   1.500000e+000 -5.469615e+001 1.200000e+002
      vertex   3.717159e+000 -5.238645e+001 1.200000e+002
      vertex   3.423304e+000 -5.195545e+001 1.200000e+002
    endloop
  endfacet
  facet normal 0.000000e+000 0.000000e+000 1.000000e+000
    outer loop
      vertex   1.500000e+000 -5.469615e+001 1.200000e+002
      vertex   4.125000e+000 -5.271170e+001 1.200000e+002
      vertex   3.717159e+000 -5.238645e+001 1.200000e+002
    endloop
  endfacet
  facet normal 0.000000e+000 0.000000e+000 1.000000e+000
    outer loop
      vertex   1.500000e+000 -5.469615e+001 1.200000e+002
      vertex   4.610588e+000 -5.290228e+001 1.200000e+002
      vertex   4.125000e+000 -5.271170e+001 1.200000e+002
    endloop
  endfacet
  facet normal 0.000000e+000 0.000000e+000 1.000000e+000
    outer loop
      vertex   1.500000e+000 -5.469615e+001 1.200000e+002
      vertex   5.130778e+000 -5.294126e+001 1.200000e+002
      vertex   4.610588e+000 -5.290228e+001 1.200000e+002
    endloop
  endfacet
  facet normal 0.000000e+000 0.000000e+000 1.000000e+000
    outer loop
      vertex   1.500000e+000 -5.469615e+001 1.200000e+002
      vertex   9.000000e+000 -5.469615e+001 1.200000e+002
      vertex   5.130778e+000 -5.294126e+001 1.200000e+002
    endloop
  endfacet
  facet normal 0.000000e+000 0.000000e+000 1.000000e+000
    outer loop
      vertex   5.130778e+000 -5.294126e+001 1.200000e+002
      vertex   9.000000e+000 -5.469615e+001 1.200000e+002
      vertex   5.639347e+000 -5.282518e+001 1.200000e+002
    endloop
  endfacet
  facet normal 0.000000e+000 0.000000e+000 1.000000e+000
    outer loop
      vertex   5.639347e+000 -5.282518e+001 1.200000e+002
      vertex   9.000000e+000 -5.469615e+001 1.200000e+002
      vertex   6.091107e+000 -5.256436e+001 1.200000e+002
    endloop
  endfacet
  facet normal 0.000000e+000 0.000000e+000 1.000000e+000
    outer loop
      vertex   6.091107e+000 -5.256436e+001 1.200000e+002
      vertex   9.000000e+000 -5.469615e+001 1.200000e+002
      vertex   6.445918e+000 -5.218196e+001 1.200000e+002
    endloop
  endfacet
  facet normal 0.000000e+000 0.000000e+000 1.000000e+000
    outer loop
      vertex   6.445918e+000 -5.218196e+001 1.200000e+002
      vertex   9.000000e+000 -5.469615e+001 1.200000e+002
      vertex   6.672252e+000 -5.171197e+001 1.200000e+002
    endloop
  endfacet
  facet normal -3.312428e-015 -2.583792e-015 1.000000e+000
    outer loop
      vertex   6.672252e+000 -5.171197e+001 1.200000e+002
      vertex   9.000000e+000 -5.469615e+001 1.200000e+002
      vertex   9.000000e+000 -4.919615e+001 1.200000e+002
    endloop
  endfacet
  facet normal -2.159551e-014 2.429494e-014 1.000000e+000
    outer loop
      vertex   6.750000e+000 -5.119615e+001 1.200000e+002
      vertex   9.000000e+000 -4.919615e+001 1.200000e+002
      vertex   6.672252e+000 -5.068033e+001 1.200000e+002
    endloop
  endfacet
  facet normal 2.827740e-014 -3.181208e-014 1.000000e+000
    outer loop
      vertex   6.750000e+000 -5.119615e+001 1.200000e+002
      vertex   6.672252e+000 -5.171197e+001 1.200000e+002
      vertex   9.000000e+000 -4.919615e+001 1.200000e+002
    endloop
  endfacet
  facet normal 0.000000e+000 0.000000e+000 1.000000e+000
    outer loop
      vertex   3.269546e+000 -5.093533e+001 1.200000e+002
      vertex   3.423304e+000 -5.043686e+001 1.200000e+002
      vertex   1.500000e+000 -4.719615e+001 1.200000e+002
    endloop
  endfacet
  facet normal 0.000000e+000 0.000000e+000 1.000000e+000
    outer loop
      vertex   1.500000e+000 -4.719615e+001 1.200000e+002
      vertex   3.423304e+000 -5.043686e+001 1.200000e+002
      vertex   3.717159e+000 -5.000585e+001 1.200000e+002
    endloop
  endfacet
  facet normal -4.670797e-015 -2.249337e-015 1.000000e+000
    outer loop
      vertex   6.445918e+000 -5.021034e+001 1.200000e+002
      vertex   6.672252e+000 -5.068033e+001 1.200000e+002
      vertex   9.000000e+000 -4.919615e+001 1.200000e+002
    endloop
  endfacet
  facet normal 0.000000e+000 0.000000e+000 1.000000e+000
    outer loop
      vertex   9.000000e+000 -5.719615e+001 1.300000e+002
      vertex   9.000000e+000 -5.469615e+001 1.300000e+002
      vertex   7.000000e+000 -5.719615e+001 1.300000e+002
    endloop
  endfacet
  facet normal 0.000000e+000 0.000000e+000 1.000000e+000
    outer loop
      vertex   7.000000e+000 -5.719615e+001 1.300000e+002
      vertex   9.000000e+000 -5.469615e+001 1.300000e+002
      vertex   1.500000e+000 -5.469615e+001 1.300000e+002
    endloop
  endfacet
  facet normal 0.000000e+000 0.000000e+000 1.000000e+000
    outer loop
      vertex   2.615615e+000 -5.735684e+001 1.300000e+002
      vertex   1.500000e+000 -5.469615e+001 1.300000e+002
      vertex   1.518122e+000 -5.657813e+001 1.300000e+002
    endloop
  endfacet
  facet normal 0.000000e+000 0.000000e+000 1.000000e+000
    outer loop
      vertex   2.615615e+000 -5.735684e+001 1.300000e+002
      vertex   7.000000e+000 -5.719615e+001 1.300000e+002
      vertex   1.500000e+000 -5.469615e+001 1.300000e+002
    endloop
  endfacet
  facet normal 0.000000e+000 0.000000e+000 1.000000e+000
    outer loop
      vertex   2.615615e+000 -5.735684e+001 1.300000e+002
      vertex   3.793395e+000 -5.800778e+001 1.300000e+002
      vertex   7.000000e+000 -5.719615e+001 1.300000e+002
    endloop
  endfacet
  facet normal 0.000000e+000 0.000000e+000 1.000000e+000
    outer loop
      vertex   7.000000e+000 -5.719615e+001 1.300000e+002
      vertex   3.793395e+000 -5.800778e+001 1.300000e+002
      vertex   5.036651e+000 -5.852275e+001 1.300000e+002
    endloop
  endfacet
  facet normal 0.000000e+000 0.000000e+000 1.000000e+000
    outer loop
      vertex   7.000000e+000 -5.819615e+001 1.300000e+002
      vertex   5.036651e+000 -5.852275e+001 1.300000e+002
      vertex   6.329749e+000 -5.889529e+001 1.300000e+002
    endloop
  endfacet
  facet normal 0.000000e+000 0.000000e+000 1.000000e+000
    outer loop
      vertex   7.656426e+000 -5.912070e+001 1.300000e+002
      vertex   7.000000e+000 -5.819615e+001 1.300000e+002
      vertex   6.329749e+000 -5.889529e+001 1.300000e+002
    endloop
  endfacet
  facet normal 0.000000e+000 0.000000e+000 1.000000e+000
    outer loop
      vertex   7.656426e+000 -5.912070e+001 1.300000e+002
      vertex   9.000000e+000 -5.819615e+001 1.300000e+002
      vertex   7.000000e+000 -5.819615e+001 1.300000e+002
    endloop
  endfacet
  facet normal 0.000000e+000 0.000000e+000 1.000000e+000
    outer loop
      vertex   7.656426e+000 -5.912070e+001 1.300000e+002
      vertex   9.000000e+000 -5.919615e+001 1.300000e+002
      vertex   9.000000e+000 -5.819615e+001 1.300000e+002
    endloop
  endfacet
  facet normal 0.000000e+000 0.000000e+000 1.000000e+000
    outer loop
      vertex   1.500000e+000 -4.719615e+001 1.300000e+002
      vertex   -1.000000e+000 -4.919615e+001 1.300000e+002
      vertex   1.500000e+000 -5.469615e+001 1.300000e+002
    endloop
  endfacet
  facet normal 0.000000e+000 0.000000e+000 1.000000e+000
    outer loop
      vertex   1.500000e+000 -4.719615e+001 1.300000e+002
      vertex   -1.000000e+000 -4.719615e+001 1.300000e+002
      vertex   -1.000000e+000 -4.919615e+001 1.300000e+002
    endloop
  endfacet
  facet normal 0.000000e+000 0.000000e+000 1.000000e+000
    outer loop
      vertex   -2.000000e+000 -4.919615e+001 1.300000e+002
      vertex   -2.326600e+000 -5.115950e+001 1.300000e+002
      vertex   -1.000000e+000 -4.919615e+001 1.300000e+002
    endloop
  endfacet
  facet normal 0.000000e+000 0.000000e+000 1.000000e+000
    outer loop
      vertex   -2.000000e+000 -4.919615e+001 1.300000e+002
      vertex   -2.699135e+000 -4.986640e+001 1.300000e+002
      vertex   -2.326600e+000 -5.115950e+001 1.300000e+002
    endloop
  endfacet
  facet normal 0.000000e+000 0.000000e+000 1.000000e+000
    outer loop
      vertex   -2.000000e+000 -4.919615e+001 1.300000e+002
      vertex   -2.924547e+000 -4.853973e+001 1.300000e+002
      vertex   -2.699135e+000 -4.986640e+001 1.300000e+002
    endloop
  endfacet
  facet normal 0.000000e+000 0.000000e+000 1.000000e+000
    outer loop
      vertex   -2.000000e+000 -4.919615e+001 1.300000e+002
      vertex   -2.000000e+000 -4.719615e+001 1.300000e+002
      vertex   -2.924547e+000 -4.853973e+001 1.300000e+002
    endloop
  endfacet
  facet normal 0.000000e+000 0.000000e+000 1.000000e+000
    outer loop
      vertex   -2.924547e+000 -4.853973e+001 1.300000e+002
      vertex   -2.000000e+000 -4.719615e+001 1.300000e+002
      vertex   -3.000000e+000 -4.719615e+001 1.300000e+002
    endloop
  endfacet
  facet normal 0.000000e+000 0.000000e+000 1.000000e+000
    outer loop
      vertex   -2.326600e+000 -5.115950e+001 1.300000e+002
      vertex   -1.811626e+000 -5.240276e+001 1.300000e+002
      vertex   -1.000000e+000 -4.919615e+001 1.300000e+002
    endloop
  endfacet
  facet normal 0.000000e+000 0.000000e+000 1.000000e+000
    outer loop
      vertex   -1.000000e+000 -4.919615e+001 1.300000e+002
      vertex   -1.811626e+000 -5.240276e+001 1.300000e+002
      vertex   -1.160690e+000 -5.358054e+001 1.300000e+002
    endloop
  endfacet
  facet normal 0.000000e+000 0.000000e+000 1.000000e+000
    outer loop
      vertex   1.500000e+000 -5.469615e+001 1.300000e+002
      vertex   -1.160690e+000 -5.358054e+001 1.300000e+002
      vertex   -3.819778e-001 -5.467803e+001 1.300000e+002
    endloop
  endfacet
  facet normal 0.000000e+000 0.000000e+000 1.000000e+000
    outer loop
      vertex   5.147186e-001 -5.568143e+001 1.300000e+002
      vertex   1.500000e+000 -5.469615e+001 1.300000e+002
      vertex   -3.819778e-001 -5.467803e+001 1.300000e+002
    endloop
  endfacet
  facet normal 0.000000e+000 0.000000e+000 1.000000e+000
    outer loop
      vertex   5.147186e-001 -5.568143e+001 1.300000e+002
      vertex   1.518122e+000 -5.657813e+001 1.300000e+002
      vertex   1.500000e+000 -5.469615e+001 1.300000e+002
    endloop
  endfacet
  facet normal 0.000000e+000 0.000000e+000 1.000000e+000
    outer loop
      vertex   -1.000000e+000 -4.919615e+001 1.300000e+002
      vertex   -1.160690e+000 -5.358054e+001 1.300000e+002
      vertex   1.500000e+000 -5.469615e+001 1.300000e+002
    endloop
  endfacet
  facet normal 0.000000e+000 0.000000e+000 1.000000e+000
    outer loop
      vertex   7.000000e+000 -5.719615e+001 1.300000e+002
      vertex   5.036651e+000 -5.852275e+001 1.300000e+002
      vertex   7.000000e+000 -5.819615e+001 1.300000e+002
    endloop
  endfacet
  facet normal 0.000000e+000 1.000000e+000 0.000000e+000
    outer loop
      vertex   1.500000e+000 -4.719615e+001 0.000000e+000
      vertex   -1.000000e+000 -4.719615e+001 0.000000e+000
      vertex   1.500000e+000 -4.719615e+001 1.000000e+001
    endloop
  endfacet
  facet normal 0.000000e+000 1.000000e+000 0.000000e+000
    outer loop
      vertex   1.500000e+000 -4.719615e+001 1.000000e+001
      vertex   -1.000000e+000 -4.719615e+001 0.000000e+000
      vertex   1.500000e+000 -4.719615e+001 1.200000e+002
    endloop
  endfacet
  facet normal 0.000000e+000 1.000000e+000 0.000000e+000
    outer loop
      vertex   7.000000e+000 -4.719615e+001 1.000000e+001
      vertex   1.500000e+000 -4.719615e+001 1.200000e+002
      vertex   7.000000e+000 -4.719615e+001 1.200000e+002
    endloop
  endfacet
  facet normal 0.000000e+000 1.000000e+000 0.000000e+000
    outer loop
      vertex   7.000000e+000 -4.719615e+001 1.000000e+001
      vertex   1.500000e+000 -4.719615e+001 1.000000e+001
      vertex   1.500000e+000 -4.719615e+001 1.200000e+002
    endloop
  endfacet
  facet normal 0.000000e+000 1.000000e+000 0.000000e+000
    outer loop
      vertex   -1.000000e+000 -4.719615e+001 0.000000e+000
      vertex   -1.000000e+000 -4.719615e+001 1.300000e+002
      vertex   1.500000e+000 -4.719615e+001 1.200000e+002
    endloop
  endfacet
  facet normal 0.000000e+000 1.000000e+000 0.000000e+000
    outer loop
      vertex   1.500000e+000 -4.719615e+001 1.200000e+002
      vertex   -1.000000e+000 -4.719615e+001 1.300000e+002
      vertex   1.500000e+000 -4.719615e+001 1.300000e+002
    endloop
  endfacet
  facet normal 0.000000e+000 0.000000e+000 -1.000000e+000
    outer loop
      vertex   9.000000e+000 -5.469615e+001 0.000000e+000
      vertex   7.000000e+000 -5.719615e+001 0.000000e+000
      vertex   1.500000e+000 -5.469615e+001 0.000000e+000
    endloop
  endfacet
  facet normal 0.000000e+000 0.000000e+000 -1.000000e+000
    outer loop
      vertex   9.000000e+000 -5.469615e+001 0.000000e+000
      vertex   9.000000e+000 -5.719615e+001 0.000000e+000
      vertex   7.000000e+000 -5.719615e+001 0.000000e+000
    endloop
  endfacet
  facet normal 0.000000e+000 0.000000e+000 -1.000000e+000
    outer loop
      vertex   7.000000e+000 -5.819615e+001 0.000000e+000
      vertex   5.036651e+000 -5.852275e+001 0.000000e+000
      vertex   7.000000e+000 -5.719615e+001 0.000000e+000
    endloop
  endfacet
  facet normal 0.000000e+000 0.000000e+000 -1.000000e+000
    outer loop
      vertex   7.000000e+000 -5.819615e+001 0.000000e+000
      vertex   6.329749e+000 -5.889529e+001 0.000000e+000
      vertex   5.036651e+000 -5.852275e+001 0.000000e+000
    endloop
  endfacet
  facet normal 0.000000e+000 0.000000e+000 -1.000000e+000
    outer loop
      vertex   7.000000e+000 -5.819615e+001 0.000000e+000
      vertex   7.656426e+000 -5.912070e+001 0.000000e+000
      vertex   6.329749e+000 -5.889529e+001 0.000000e+000
    endloop
  endfacet
  facet normal 0.000000e+000 0.000000e+000 -1.000000e+000
    outer loop
      vertex   7.000000e+000 -5.819615e+001 0.000000e+000
      vertex   9.000000e+000 -5.819615e+001 0.000000e+000
      vertex   7.656426e+000 -5.912070e+001 0.000000e+000
    endloop
  endfacet
  facet normal 0.000000e+000 0.000000e+000 -1.000000e+000
    outer loop
      vertex   7.656426e+000 -5.912070e+001 0.000000e+000
      vertex   9.000000e+000 -5.819615e+001 0.000000e+000
      vertex   9.000000e+000 -5.919615e+001 0.000000e+000
    endloop
  endfacet
  facet normal 0.000000e+000 0.000000e+000 -1.000000e+000
    outer loop
      vertex   5.036651e+000 -5.852275e+001 0.000000e+000
      vertex   3.793395e+000 -5.800778e+001 0.000000e+000
      vertex   7.000000e+000 -5.719615e+001 0.000000e+000
    endloop
  endfacet
  facet normal 0.000000e+000 0.000000e+000 -1.000000e+000
    outer loop
      vertex   7.000000e+000 -5.719615e+001 0.000000e+000
      vertex   3.793395e+000 -5.800778e+001 0.000000e+000
      vertex   2.615615e+000 -5.735684e+001 0.000000e+000
    endloop
  endfacet
  facet normal 0.000000e+000 0.000000e+000 -1.000000e+000
    outer loop
      vertex   1.500000e+000 -5.469615e+001 0.000000e+000
      vertex   2.615615e+000 -5.735684e+001 0.000000e+000
      vertex   1.518122e+000 -5.657813e+001 0.000000e+000
    endloop
  endfacet
  facet normal 0.000000e+000 0.000000e+000 -1.000000e+000
    outer loop
      vertex   5.147186e-001 -5.568143e+001 0.000000e+000
      vertex   1.500000e+000 -5.469615e+001 0.000000e+000
      vertex   1.518122e+000 -5.657813e+001 0.000000e+000
    endloop
  endfacet
  facet normal 0.000000e+000 0.000000e+000 -1.000000e+000
    outer loop
      vertex   5.147186e-001 -5.568143e+001 0.000000e+000
      vertex   -3.819778e-001 -5.467803e+001 0.000000e+000
      vertex   1.500000e+000 -5.469615e+001 0.000000e+000
    endloop
  endfacet
  facet normal 0.000000e+000 0.000000e+000 -1.000000e+000
    outer loop
      vertex   1.500000e+000 -5.469615e+001 0.000000e+000
      vertex   -3.819778e-001 -5.467803e+001 0.000000e+000
      vertex   -1.160690e+000 -5.358054e+001 0.000000e+000
    endloop
  endfacet
  facet normal 0.000000e+000 0.000000e+000 -1.000000e+000
    outer loop
      vertex   -1.000000e+000 -4.919615e+001 0.000000e+000
      vertex   -1.160690e+000 -5.358054e+001 0.000000e+000
      vertex   -1.811626e+000 -5.240276e+001 0.000000e+000
    endloop
  endfacet
  facet normal 0.000000e+000 0.000000e+000 -1.000000e+000
    outer loop
      vertex   -2.326600e+000 -5.115950e+001 0.000000e+000
      vertex   -1.000000e+000 -4.919615e+001 0.000000e+000
      vertex   -1.811626e+000 -5.240276e+001 0.000000e+000
    endloop
  endfacet
  facet normal 0.000000e+000 0.000000e+000 -1.000000e+000
    outer loop
      vertex   -2.326600e+000 -5.115950e+001 0.000000e+000
      vertex   -2.000000e+000 -4.919615e+001 0.000000e+000
      vertex   -1.000000e+000 -4.919615e+001 0.000000e+000
    endloop
  endfacet
  facet normal 0.000000e+000 0.000000e+000 -1.000000e+000
    outer loop
      vertex   -2.326600e+000 -5.115950e+001 0.000000e+000
      vertex   -2.699135e+000 -4.986640e+001 0.000000e+000
      vertex   -2.000000e+000 -4.919615e+001 0.000000e+000
    endloop
  endfacet
  facet normal 0.000000e+000 0.000000e+000 -1.000000e+000
    outer loop
      vertex   -2.000000e+000 -4.919615e+001 0.000000e+000
      vertex   -2.699135e+000 -4.986640e+001 0.000000e+000
      vertex   -2.924547e+000 -4.853973e+001 0.000000e+000
    endloop
  endfacet
  facet normal 0.000000e+000 0.000000e+000 -1.000000e+000
    outer loop
      vertex   -2.000000e+000 -4.719615e+001 0.000000e+000
      vertex   -2.924547e+000 -4.853973e+001 0.000000e+000
      vertex   -3.000000e+000 -4.719615e+001 0.000000e+000
    endloop
  endfacet
  facet normal 0.000000e+000 0.000000e+000 -1.000000e+000
    outer loop
      vertex   -2.000000e+000 -4.719615e+001 0.000000e+000
      vertex   -2.000000e+000 -4.919615e+001 0.000000e+000
      vertex   -2.924547e+000 -4.853973e+001 0.000000e+000
    endloop
  endfacet
  facet normal 0.000000e+000 0.000000e+000 -1.000000e+000
    outer loop
      vertex   7.000000e+000 -5.719615e+001 0.000000e+000
      vertex   2.615615e+000 -5.735684e+001 0.000000e+000
      vertex   1.500000e+000 -5.469615e+001 0.000000e+000
    endloop
  endfacet
  facet normal 0.000000e+000 0.000000e+000 -1.000000e+000
    outer loop
      vertex   1.500000e+000 -5.469615e+001 0.000000e+000
      vertex   -1.160690e+000 -5.358054e+001 0.000000e+000
      vertex   -1.000000e+000 -4.919615e+001 0.000000e+000
    endloop
  endfacet
  facet normal 0.000000e+000 0.000000e+000 -1.000000e+000
    outer loop
      vertex   1.500000e+000 -4.719615e+001 0.000000e+000
      vertex   -1.000000e+000 -4.919615e+001 0.000000e+000
      vertex   -1.000000e+000 -4.719615e+001 0.000000e+000
    endloop
  endfacet
  facet normal 0.000000e+000 0.000000e+000 -1.000000e+000
    outer loop
      vertex   1.500000e+000 -4.719615e+001 0.000000e+000
      vertex   1.500000e+000 -5.469615e+001 0.000000e+000
      vertex   -1.000000e+000 -4.919615e+001 0.000000e+000
    endloop
  endfacet
  facet normal 9.888308e-001 -1.490423e-001 1.776914e-004
    outer loop
      vertex   3.327748e+000 -5.068033e+001 1.000000e+001
      vertex   3.269546e+000 -5.093533e+001 1.200000e+002
      vertex   3.250000e+000 -5.119615e+001 1.000000e+001
    endloop
  endfacet
  facet normal 9.555728e-001 -2.947552e-001 -1.776914e-004
    outer loop
      vertex   3.327748e+000 -5.068033e+001 1.000000e+001
      vertex   3.423304e+000 -5.043686e+001 1.200000e+002
      vertex   3.269546e+000 -5.093533e+001 1.200000e+002
    endloop
  endfacet
  facet normal 9.009689e-001 -4.338837e-001 1.776914e-004
    outer loop
      vertex   3.327748e+000 -5.068033e+001 1.000000e+001
      vertex   3.554082e+000 -5.021034e+001 1.000000e+001
      vertex   3.423304e+000 -5.043686e+001 1.200000e+002
    endloop
  endfacet
  facet normal 8.262388e-001 -5.633200e-001 -1.776914e-004
    outer loop
      vertex   3.423304e+000 -5.043686e+001 1.200000e+002
      vertex   3.554082e+000 -5.021034e+001 1.000000e+001
      vertex   3.717159e+000 -5.000585e+001 1.200000e+002
    endloop
  endfacet
  facet normal 7.330519e-001 -6.801727e-001 1.776914e-004
    outer loop
      vertex   3.717159e+000 -5.000585e+001 1.200000e+002
      vertex   3.554082e+000 -5.021034e+001 1.000000e+001
      vertex   3.908893e+000 -4.982795e+001 1.000000e+001
    endloop
  endfacet
  facet normal 5.000000e-001 -8.660254e-001 1.776914e-004
    outer loop
      vertex   4.125000e+000 -4.968061e+001 1.200000e+002
      vertex   3.908893e+000 -4.982795e+001 1.000000e+001
      vertex   4.360653e+000 -4.956712e+001 1.000000e+001
    endloop
  endfacet
  facet normal 2.225209e-001 -9.749279e-001 1.776914e-004
    outer loop
      vertex   4.610588e+000 -4.949003e+001 1.200000e+002
      vertex   4.360653e+000 -4.956712e+001 1.000000e+001
      vertex   4.869222e+000 -4.945105e+001 1.000000e+001
    endloop
  endfacet
  facet normal -7.473009e-002 -9.972038e-001 1.776914e-004
    outer loop
      vertex   5.130778e+000 -4.945105e+001 1.200000e+002
      vertex   4.869222e+000 -4.945105e+001 1.000000e+001
      vertex   5.389412e+000 -4.949003e+001 1.000000e+001
    endloop
  endfacet
  facet normal -3.653410e-001 -9.308737e-001 1.776914e-004
    outer loop
      vertex   5.639347e+000 -4.956712e+001 1.200000e+002
      vertex   5.389412e+000 -4.949003e+001 1.000000e+001
      vertex   5.875000e+000 -4.968061e+001 1.000000e+001
    endloop
  endfacet
  facet normal -6.234898e-001 -7.818315e-001 1.776914e-004
    outer loop
      vertex   6.091107e+000 -4.982795e+001 1.200000e+002
      vertex   5.875000e+000 -4.968061e+001 1.000000e+001
      vertex   6.282841e+000 -5.000585e+001 1.000000e+001
    endloop
  endfacet
  facet normal -8.262388e-001 -5.633200e-001 1.776914e-004
    outer loop
      vertex   6.445918e+000 -5.021034e+001 1.200000e+002
      vertex   6.282841e+000 -5.000585e+001 1.000000e+001
      vertex   6.576696e+000 -5.043686e+001 1.000000e+001
    endloop
  endfacet
  facet normal -9.555728e-001 -2.947552e-001 1.776914e-004
    outer loop
      vertex   6.672252e+000 -5.068033e+001 1.200000e+002
      vertex   6.576696e+000 -5.043686e+001 1.000000e+001
      vertex   6.730454e+000 -5.093533e+001 1.000000e+001
    endloop
  endfacet
  facet normal -1.000000e+000 0.000000e+000 1.776914e-004
    outer loop
      vertex   6.750000e+000 -5.119615e+001 1.200000e+002
      vertex   6.730454e+000 -5.093533e+001 1.000000e+001
      vertex   6.730454e+000 -5.145698e+001 1.000000e+001
    endloop
  endfacet
  facet normal -9.555728e-001 2.947552e-001 1.776914e-004
    outer loop
      vertex   6.672252e+000 -5.171197e+001 1.200000e+002
      vertex   6.730454e+000 -5.145698e+001 1.000000e+001
      vertex   6.576696e+000 -5.195545e+001 1.000000e+001
    endloop
  endfacet
  facet normal -8.262388e-001 5.633200e-001 1.776914e-004
    outer loop
      vertex   6.445918e+000 -5.218196e+001 1.200000e+002
      vertex   6.576696e+000 -5.195545e+001 1.000000e+001
      vertex   6.282841e+000 -5.238645e+001 1.000000e+001
    endloop
  endfacet
  facet normal -6.234898e-001 7.818315e-001 1.776914e-004
    outer loop
      vertex   6.091107e+000 -5.256436e+001 1.200000e+002
      vertex   6.282841e+000 -5.238645e+001 1.000000e+001
      vertex   5.875000e+000 -5.271170e+001 1.000000e+001
    endloop
  endfacet
  facet normal -3.653410e-001 9.308737e-001 1.776914e-004
    outer loop
      vertex   5.639347e+000 -5.282518e+001 1.200000e+002
      vertex   5.875000e+000 -5.271170e+001 1.000000e+001
      vertex   5.389412e+000 -5.290228e+001 1.000000e+001
    endloop
  endfacet
  facet normal -7.473009e-002 9.972038e-001 1.776914e-004
    outer loop
      vertex   5.130778e+000 -5.294126e+001 1.200000e+002
      vertex   5.389412e+000 -5.290228e+001 1.000000e+001
      vertex   4.869222e+000 -5.294126e+001 1.000000e+001
    endloop
  endfacet
  facet normal 2.225209e-001 9.749279e-001 1.776914e-004
    outer loop
      vertex   4.610588e+000 -5.290228e+001 1.200000e+002
      vertex   4.869222e+000 -5.294126e+001 1.000000e+001
      vertex   4.360653e+000 -5.282518e+001 1.000000e+001
    endloop
  endfacet
  facet normal 5.000000e-001 8.660254e-001 1.776914e-004
    outer loop
      vertex   4.125000e+000 -5.271170e+001 1.200000e+002
      vertex   4.360653e+000 -5.282518e+001 1.000000e+001
      vertex   3.908893e+000 -5.256436e+001 1.000000e+001
    endloop
  endfacet
  facet normal 7.330519e-001 6.801727e-001 1.776914e-004
    outer loop
      vertex   3.717159e+000 -5.238645e+001 1.200000e+002
      vertex   3.908893e+000 -5.256436e+001 1.000000e+001
      vertex   3.554082e+000 -5.218196e+001 1.000000e+001
    endloop
  endfacet
  facet normal 9.009689e-001 4.338837e-001 1.776914e-004
    outer loop
      vertex   3.423304e+000 -5.195545e+001 1.200000e+002
      vertex   3.554082e+000 -5.218196e+001 1.000000e+001
      vertex   3.327748e+000 -5.171197e+001 1.000000e+001
    endloop
  endfacet
  facet normal 9.888308e-001 1.490423e-001 1.776914e-004
    outer loop
      vertex   3.269546e+000 -5.145698e+001 1.200000e+002
      vertex   3.327748e+000 -5.171197e+001 1.000000e+001
      vertex   3.250000e+000 -5.119615e+001 1.000000e+001
    endloop
  endfacet
  facet normal 1.000000e+000 0.000000e+000 -1.776914e-004
    outer loop
      vertex   3.269546e+000 -5.093533e+001 1.200000e+002
      vertex   3.269546e+000 -5.145698e+001 1.200000e+002
      vertex   3.250000e+000 -5.119615e+001 1.000000e+001
    endloop
  endfacet
  facet normal 6.234898e-001 -7.818315e-001 -1.776914e-004
    outer loop
      vertex   3.717159e+000 -5.000585e+001 1.200000e+002
      vertex   3.908893e+000 -4.982795e+001 1.000000e+001
      vertex   4.125000e+000 -4.968061e+001 1.200000e+002
    endloop
  endfacet
  facet normal 3.653410e-001 -9.308737e-001 -1.776914e-004
    outer loop
      vertex   4.125000e+000 -4.968061e+001 1.200000e+002
      vertex   4.360653e+000 -4.956712e+001 1.000000e+001
      vertex   4.610588e+000 -4.949003e+001 1.200000e+002
    endloop
  endfacet
  facet normal 7.473009e-002 -9.972038e-001 -1.776914e-004
    outer loop
      vertex   4.610588e+000 -4.949003e+001 1.200000e+002
      vertex   4.869222e+000 -4.945105e+001 1.000000e+001
      vertex   5.130778e+000 -4.945105e+001 1.200000e+002
    endloop
  endfacet
  facet normal -2.225209e-001 -9.749279e-001 -1.776914e-004
    outer loop
      vertex   5.130778e+000 -4.945105e+001 1.200000e+002
      vertex   5.389412e+000 -4.949003e+001 1.000000e+001
      vertex   5.639347e+000 -4.956712e+001 1.200000e+002
    endloop
  endfacet
  facet normal -5.000000e-001 -8.660254e-001 -1.776914e-004
    outer loop
      vertex   5.639347e+000 -4.956712e+001 1.200000e+002
      vertex   5.875000e+000 -4.968061e+001 1.000000e+001
      vertex   6.091107e+000 -4.982795e+001 1.200000e+002
    endloop
  endfacet
  facet normal -7.330519e-001 -6.801727e-001 -1.776914e-004
    outer loop
      vertex   6.091107e+000 -4.982795e+001 1.200000e+002
      vertex   6.282841e+000 -5.000585e+001 1.000000e+001
      vertex   6.445918e+000 -5.021034e+001 1.200000e+002
    endloop
  endfacet
  facet normal -9.009689e-001 -4.338837e-001 -1.776914e-004
    outer loop
      vertex   6.445918e+000 -5.021034e+001 1.200000e+002
      vertex   6.576696e+000 -5.043686e+001 1.000000e+001
      vertex   6.672252e+000 -5.068033e+001 1.200000e+002
    endloop
  endfacet
  facet normal -9.888308e-001 -1.490423e-001 -1.776914e-004
    outer loop
      vertex   6.672252e+000 -5.068033e+001 1.200000e+002
      vertex   6.730454e+000 -5.093533e+001 1.000000e+001
      vertex   6.750000e+000 -5.119615e+001 1.200000e+002
    endloop
  endfacet
  facet normal -9.888308e-001 1.490423e-001 -1.776914e-004
    outer loop
      vertex   6.750000e+000 -5.119615e+001 1.200000e+002
      vertex   6.730454e+000 -5.145698e+001 1.000000e+001
      vertex   6.672252e+000 -5.171197e+001 1.200000e+002
    endloop
  endfacet
  facet normal -9.009689e-001 4.338837e-001 -1.776914e-004
    outer loop
      vertex   6.672252e+000 -5.171197e+001 1.200000e+002
      vertex   6.576696e+000 -5.195545e+001 1.000000e+001
      vertex   6.445918e+000 -5.218196e+001 1.200000e+002
    endloop
  endfacet
  facet normal -7.330519e-001 6.801727e-001 -1.776914e-004
    outer loop
      vertex   6.445918e+000 -5.218196e+001 1.200000e+002
      vertex   6.282841e+000 -5.238645e+001 1.000000e+001
      vertex   6.091107e+000 -5.256436e+001 1.200000e+002
    endloop
  endfacet
  facet normal -5.000000e-001 8.660254e-001 -1.776914e-004
    outer loop
      vertex   6.091107e+000 -5.256436e+001 1.200000e+002
      vertex   5.875000e+000 -5.271170e+001 1.000000e+001
      vertex   5.639347e+000 -5.282518e+001 1.200000e+002
    endloop
  endfacet
  facet normal -2.225209e-001 9.749279e-001 -1.776914e-004
    outer loop
      vertex   5.639347e+000 -5.282518e+001 1.200000e+002
      vertex   5.389412e+000 -5.290228e+001 1.000000e+001
      vertex   5.130778e+000 -5.294126e+001 1.200000e+002
    endloop
  endfacet
  facet normal 7.473009e-002 9.972038e-001 -1.776914e-004
    outer loop
      vertex   5.130778e+000 -5.294126e+001 1.200000e+002
      vertex   4.869222e+000 -5.294126e+001 1.000000e+001
      vertex   4.610588e+000 -5.290228e+001 1.200000e+002
    endloop
  endfacet
  facet normal 3.653410e-001 9.308737e-001 -1.776914e-004
    outer loop
      vertex   4.610588e+000 -5.290228e+001 1.200000e+002
      vertex   4.360653e+000 -5.282518e+001 1.000000e+001
      vertex   4.125000e+000 -5.271170e+001 1.200000e+002
    endloop
  endfacet
  facet normal 6.234898e-001 7.818315e-001 -1.776914e-004
    outer loop
      vertex   4.125000e+000 -5.271170e+001 1.200000e+002
      vertex   3.908893e+000 -5.256436e+001 1.000000e+001
      vertex   3.717159e+000 -5.238645e+001 1.200000e+002
    endloop
  endfacet
  facet normal 8.262388e-001 5.633200e-001 -1.776914e-004
    outer loop
      vertex   3.717159e+000 -5.238645e+001 1.200000e+002
      vertex   3.554082e+000 -5.218196e+001 1.000000e+001
      vertex   3.423304e+000 -5.195545e+001 1.200000e+002
    endloop
  endfacet
  facet normal 9.555728e-001 2.947552e-001 -1.776914e-004
    outer loop
      vertex   3.423304e+000 -5.195545e+001 1.200000e+002
      vertex   3.327748e+000 -5.171197e+001 1.000000e+001
      vertex   3.269546e+000 -5.145698e+001 1.200000e+002
    endloop
  endfacet
  facet normal -7.105427e-015 -1.000000e+000 0.000000e+000
    outer loop
      vertex   7.000000e+000 -5.719615e+001 1.300000e+002
      vertex   7.000000e+000 -5.719615e+001 0.000000e+000
      vertex   9.000000e+000 -5.719615e+001 1.300000e+002
    endloop
  endfacet
  facet normal -7.105427e-015 -1.000000e+000 0.000000e+000
    outer loop
      vertex   9.000000e+000 -5.719615e+001 1.300000e+002
      vertex   7.000000e+000 -5.719615e+001 0.000000e+000
      vertex   9.000000e+000 -5.719615e+001 0.000000e+000
    endloop
  endfacet
  facet normal 1.000000e+000 0.000000e+000 0.000000e+000
    outer loop
      vertex   7.000000e+000 -5.819615e+001 1.300000e+002
      vertex   7.000000e+000 -5.819615e+001 0.000000e+000
      vertex   7.000000e+000 -5.719615e+001 1.300000e+002
    endloop
  endfacet
  facet normal 1.000000e+000 0.000000e+000 0.000000e+000
    outer loop
      vertex   7.000000e+000 -5.719615e+001 1.300000e+002
      vertex   7.000000e+000 -5.819615e+001 0.000000e+000
      vertex   7.000000e+000 -5.719615e+001 0.000000e+000
    endloop
  endfacet
  facet normal 3.552714e-015 1.000000e+000 0.000000e+000
    outer loop
      vertex   9.000000e+000 -5.819615e+001 1.300000e+002
      vertex   9.000000e+000 -5.819615e+001 0.000000e+000
      vertex   7.000000e+000 -5.819615e+001 1.300000e+002
    endloop
  endfacet
  facet normal 3.552714e-015 1.000000e+000 0.000000e+000
    outer loop
      vertex   7.000000e+000 -5.819615e+001 1.300000e+002
      vertex   9.000000e+000 -5.819615e+001 0.000000e+000
      vertex   7.000000e+000 -5.819615e+001 0.000000e+000
    endloop
  endfacet
  facet normal 1.000000e+000 0.000000e+000 0.000000e+000
    outer loop
      vertex   9.000000e+000 -5.919615e+001 1.300000e+002
      vertex   9.000000e+000 -5.919615e+001 0.000000e+000
      vertex   9.000000e+000 -5.819615e+001 1.300000e+002
    endloop
  endfacet
  facet normal 1.000000e+000 0.000000e+000 0.000000e+000
    outer loop
      vertex   9.000000e+000 -5.819615e+001 1.300000e+002
      vertex   9.000000e+000 -5.919615e+001 0.000000e+000
      vertex   9.000000e+000 -5.819615e+001 0.000000e+000
    endloop
  endfacet
  facet normal -5.607045e-002 -9.984268e-001 0.000000e+000
    outer loop
      vertex   9.000000e+000 -5.919615e+001 1.300000e+002
      vertex   7.656426e+000 -5.912070e+001 1.300000e+002
      vertex   9.000000e+000 -5.919615e+001 0.000000e+000
    endloop
  endfacet
  facet normal -5.607045e-002 -9.984268e-001 0.000000e+000
    outer loop
      vertex   9.000000e+000 -5.919615e+001 0.000000e+000
      vertex   7.656426e+000 -5.912070e+001 1.300000e+002
      vertex   7.656426e+000 -5.912070e+001 0.000000e+000
    endloop
  endfacet
  facet normal -1.675062e-001 -9.858710e-001 0.000000e+000
    outer loop
      vertex   7.656426e+000 -5.912070e+001 0.000000e+000
      vertex   7.656426e+000 -5.912070e+001 1.300000e+002
      vertex   6.329749e+000 -5.889529e+001 1.300000e+002
    endloop
  endfacet
  facet normal -2.768355e-001 -9.609173e-001 0.000000e+000
    outer loop
      vertex   6.329749e+000 -5.889529e+001 0.000000e+000
      vertex   6.329749e+000 -5.889529e+001 1.300000e+002
      vertex   5.036651e+000 -5.852275e+001 1.300000e+002
    endloop
  endfacet
  facet normal -3.826834e-001 -9.238795e-001 0.000000e+000
    outer loop
      vertex   5.036651e+000 -5.852275e+001 0.000000e+000
      vertex   5.036651e+000 -5.852275e+001 1.300000e+002
      vertex   3.793395e+000 -5.800778e+001 1.300000e+002
    endloop
  endfacet
  facet normal -4.837189e-001 -8.752234e-001 0.000000e+000
    outer loop
      vertex   3.793395e+000 -5.800778e+001 0.000000e+000
      vertex   3.793395e+000 -5.800778e+001 1.300000e+002
      vertex   2.615615e+000 -5.735684e+001 1.300000e+002
    endloop
  endfacet
  facet normal -5.786713e-001 -8.155609e-001 0.000000e+000
    outer loop
      vertex   2.615615e+000 -5.735684e+001 0.000000e+000
      vertex   2.615615e+000 -5.735684e+001 1.300000e+002
      vertex   1.518122e+000 -5.657813e+001 1.300000e+002
    endloop
  endfacet
  facet normal -6.663466e-001 -7.456422e-001 0.000000e+000
    outer loop
      vertex   1.518122e+000 -5.657813e+001 0.000000e+000
      vertex   1.518122e+000 -5.657813e+001 1.300000e+002
      vertex   5.147186e-001 -5.568143e+001 1.300000e+002
    endloop
  endfacet
  facet normal -7.456422e-001 -6.663466e-001 0.000000e+000
    outer loop
      vertex   5.147186e-001 -5.568143e+001 0.000000e+000
      vertex   5.147186e-001 -5.568143e+001 1.300000e+002
      vertex   -3.819778e-001 -5.467803e+001 1.300000e+002
    endloop
  endfacet
  facet normal -8.155609e-001 -5.786713e-001 0.000000e+000
    outer loop
      vertex   -3.819778e-001 -5.467803e+001 0.000000e+000
      vertex   -3.819778e-001 -5.467803e+001 1.300000e+002
      vertex   -1.160690e+000 -5.358054e+001 1.300000e+002
    endloop
  endfacet
  facet normal -8.752234e-001 -4.837189e-001 0.000000e+000
    outer loop
      vertex   -1.160690e+000 -5.358054e+001 0.000000e+000
      vertex   -1.160690e+000 -5.358054e+001 1.300000e+002
      vertex   -1.811626e+000 -5.240276e+001 1.300000e+002
    endloop
  endfacet
  facet normal -9.238795e-001 -3.826834e-001 0.000000e+000
    outer loop
      vertex   -1.811626e+000 -5.240276e+001 0.000000e+000
      vertex   -1.811626e+000 -5.240276e+001 1.300000e+002
      vertex   -2.326600e+000 -5.115950e+001 1.300000e+002
    endloop
  endfacet
  facet normal -9.609173e-001 -2.768355e-001 0.000000e+000
    outer loop
      vertex   -2.326600e+000 -5.115950e+001 0.000000e+000
      vertex   -2.326600e+000 -5.115950e+001 1.300000e+002
      vertex   -2.699135e+000 -4.986640e+001 1.300000e+002
    endloop
  endfacet
  facet normal -9.858710e-001 -1.675062e-001 0.000000e+000
    outer loop
      vertex   -2.699135e+000 -4.986640e+001 0.000000e+000
      vertex   -2.699135e+000 -4.986640e+001 1.300000e+002
      vertex   -2.924547e+000 -4.853973e+001 1.300000e+002
    endloop
  endfacet
  facet normal -9.984268e-001 -5.607045e-002 0.000000e+000
    outer loop
      vertex   -2.924547e+000 -4.853973e+001 0.000000e+000
      vertex   -2.924547e+000 -4.853973e+001 1.300000e+002
      vertex   -3.000000e+000 -4.719615e+001 0.000000e+000
    endloop
  endfacet
  facet normal -9.858710e-001 -1.675062e-001 0.000000e+000
    outer loop
      vertex   -2.924547e+000 -4.853973e+001 0.000000e+000
      vertex   -2.699135e+000 -4.986640e+001 0.000000e+000
      vertex   -2.924547e+000 -4.853973e+001 1.300000e+002
    endloop
  endfacet
  facet normal -1.675062e-001 -9.858710e-001 0.000000e+000
    outer loop
      vertex   7.656426e+000 -5.912070e+001 0.000000e+000
      vertex   6.329749e+000 -5.889529e+001 1.300000e+002
      vertex   6.329749e+000 -5.889529e+001 0.000000e+000
    endloop
  endfacet
  facet normal -2.768355e-001 -9.609173e-001 0.000000e+000
    outer loop
      vertex   6.329749e+000 -5.889529e+001 0.000000e+000
      vertex   5.036651e+000 -5.852275e+001 1.300000e+002
      vertex   5.036651e+000 -5.852275e+001 0.000000e+000
    endloop
  endfacet
  facet normal -3.826834e-001 -9.238795e-001 0.000000e+000
    outer loop
      vertex   5.036651e+000 -5.852275e+001 0.000000e+000
      vertex   3.793395e+000 -5.800778e+001 1.300000e+002
      vertex   3.793395e+000 -5.800778e+001 0.000000e+000
    endloop
  endfacet
  facet normal -4.837189e-001 -8.752234e-001 0.000000e+000
    outer loop
      vertex   3.793395e+000 -5.800778e+001 0.000000e+000
      vertex   2.615615e+000 -5.735684e+001 1.300000e+002
      vertex   2.615615e+000 -5.735684e+001 0.000000e+000
    endloop
  endfacet
  facet normal -5.786713e-001 -8.155609e-001 0.000000e+000
    outer loop
      vertex   2.615615e+000 -5.735684e+001 0.000000e+000
      vertex   1.518122e+000 -5.657813e+001 1.300000e+002
      vertex   1.518122e+000 -5.657813e+001 0.000000e+000
    endloop
  endfacet
  facet normal -6.663466e-001 -7.456422e-001 0.000000e+000
    outer loop
      vertex   1.518122e+000 -5.657813e+001 0.000000e+000
      vertex   5.147186e-001 -5.568143e+001 1.300000e+002
      vertex   5.147186e-001 -5.568143e+001 0.000000e+000
    endloop
  endfacet
  facet normal -7.456422e-001 -6.663466e-001 0.000000e+000
    outer loop
      vertex   5.147186e-001 -5.568143e+001 0.000000e+000
      vertex   -3.819778e-001 -5.467803e+001 1.300000e+002
      vertex   -3.819778e-001 -5.467803e+001 0.000000e+000
    endloop
  endfacet
  facet normal -8.155609e-001 -5.786713e-001 0.000000e+000
    outer loop
      vertex   -3.819778e-001 -5.467803e+001 0.000000e+000
      vertex   -1.160690e+000 -5.358054e+001 1.300000e+002
      vertex   -1.160690e+000 -5.358054e+001 0.000000e+000
    endloop
  endfacet
  facet normal -8.752234e-001 -4.837189e-001 0.000000e+000
    outer loop
      vertex   -1.160690e+000 -5.358054e+001 0.000000e+000
      vertex   -1.811626e+000 -5.240276e+001 1.300000e+002
      vertex   -1.811626e+000 -5.240276e+001 0.000000e+000
    endloop
  endfacet
  facet normal -9.238795e-001 -3.826834e-001 0.000000e+000
    outer loop
      vertex   -1.811626e+000 -5.240276e+001 0.000000e+000
      vertex   -2.326600e+000 -5.115950e+001 1.300000e+002
      vertex   -2.326600e+000 -5.115950e+001 0.000000e+000
    endloop
  endfacet
  facet normal -9.609173e-001 -2.768355e-001 0.000000e+000
    outer loop
      vertex   -2.326600e+000 -5.115950e+001 0.000000e+000
      vertex   -2.699135e+000 -4.986640e+001 1.300000e+002
      vertex   -2.699135e+000 -4.986640e+001 0.000000e+000
    endloop
  endfacet
  facet normal -9.984268e-001 -5.607045e-002 0.000000e+000
    outer loop
      vertex   -2.924547e+000 -4.853973e+001 1.300000e+002
      vertex   -3.000000e+000 -4.719615e+001 1.300000e+002
      vertex   -3.000000e+000 -4.719615e+001 0.000000e+000
    endloop
  endfacet
  facet normal 0.000000e+000 1.000000e+000 0.000000e+000
    outer loop
      vertex   -2.000000e+000 -4.719615e+001 1.300000e+002
      vertex   -2.000000e+000 -4.719615e+001 0.000000e+000
      vertex   -3.000000e+000 -4.719615e+001 1.300000e+002
    endloop
  endfacet
  facet normal 0.000000e+000 1.000000e+000 0.000000e+000
    outer loop
      vertex   -3.000000e+000 -4.719615e+001 1.300000e+002
      vertex   -2.000000e+000 -4.719615e+001 0.000000e+000
      vertex   -3.000000e+000 -4.719615e+001 0.000000e+000
    endloop
  endfacet
  facet normal 1.000000e+000 -3.996803e-015 0.000000e+000
    outer loop
      vertex   -2.000000e+000 -4.919615e+001 1.300000e+002
      vertex   -2.000000e+000 -4.919615e+001 0.000000e+000
      vertex   -2.000000e+000 -4.719615e+001 1.300000e+002
    endloop
  endfacet
  facet normal 1.000000e+000 -3.996803e-015 0.000000e+000
    outer loop
      vertex   -2.000000e+000 -4.719615e+001 1.300000e+002
      vertex   -2.000000e+000 -4.919615e+001 0.000000e+000
      vertex   -2.000000e+000 -4.719615e+001 0.000000e+000
    endloop
  endfacet
  facet normal 0.000000e+000 1.000000e+000 0.000000e+000
    outer loop
      vertex   -1.000000e+000 -4.919615e+001 1.300000e+002
      vertex   -1.000000e+000 -4.919615e+001 0.000000e+000
      vertex   -2.000000e+000 -4.919615e+001 1.300000e+002
    endloop
  endfacet
  facet normal 0.000000e+000 1.000000e+000 0.000000e+000
    outer loop
      vertex   -2.000000e+000 -4.919615e+001 1.300000e+002
      vertex   -1.000000e+000 -4.919615e+001 0.000000e+000
      vertex   -2.000000e+000 -4.919615e+001 0.000000e+000
    endloop
  endfacet
  facet normal -1.000000e+000 4.107825e-015 0.000000e+000
    outer loop
      vertex   -1.000000e+000 -4.719615e+001 1.300000e+002
      vertex   -1.000000e+000 -4.719615e+001 0.000000e+000
      vertex   -1.000000e+000 -4.919615e+001 1.300000e+002
    endloop
  endfacet
  facet normal -1.000000e+000 4.107825e-015 0.000000e+000
    outer loop
      vertex   -1.000000e+000 -4.919615e+001 1.300000e+002
      vertex   -1.000000e+000 -4.719615e+001 0.000000e+000
      vertex   -1.000000e+000 -4.919615e+001 0.000000e+000
    endloop
  endfacet
endsolid
