<?xml version="1.0" standalone="no"?>
 <!DOCTYPE svg PUBLIC "-//W3C//DTD SVG 1.1//EN" 
 "http://www.w3.org/Graphics/SVG/1.1/DTD/svg11.dtd"> 
<svg xmlns="http://www.w3.org/2000/svg" version="1.1" 
    width="29.7002cm" height="21.0007cm" viewBox="0 0 116929 82679 ">
<title>SVG Picture created as AC_control-AC_control.svg date 2017/09/25 21:29:27 </title>
  <desc>Picture generated by Eeschema-SVG </desc>
<g style="fill:#000000; fill-opacity:1;stroke:#000000; stroke-opacity:1;
stroke-linecap:round; stroke-linejoin:round; "
 transform="translate(0 0) scale(1 1)">
</g>
<g style="fill:#000000; fill-opacity:0.0; 
stroke:#000000; stroke-width:60; stroke-opacity:1; 
stroke-linecap:round; stroke-linejoin:round;">
</g>
<g style="fill:#008400; fill-opacity:0.0; 
stroke:#008400; stroke-width:60; stroke-opacity:1; 
stroke-linecap:round; stroke-linejoin:round;">
<path d="M56800 40800
L56800 41900
" />
<path d="M52300 35300
L52300 36400
" />
<path d="M56800 35300
L56800 37800
" />
<path d="M55800 46900
L58300 46900
" />
<path d="M56800 45900
L56800 44900
" />
<path d="M58300 45900
L56800 45900
" />
<path d="M48300 44400
L55300 44400
" />
<path d="M52300 42400
L52300 39400
" />
<path d="M48300 42400
L52300 42400
" />
<path d="M36800 42400
L38300 42400
" />
<path d="M41300 42400
L42300 42400
" />
<path d="M41300 44400
L42300 44400
" />
<path d="M68800 37400
L72300 37400
" />
<path d="M72300 36400
L68800 36400
" />
<path d="M70300 40900
L68800 40900
" />
<path d="M74800 40900
L73300 40900
" />
<path d="M68800 41900
L77800 41900
" />
<path d="M70300 26500
L69300 26500
" />
<path d="M74300 26500
L73300 26500
" />
<path d="M71300 28500
L69300 28500
" />
<path d="M53800 22500
L53800 27500
" />
<path d="M45800 22500
L53800 22500
" />
<path d="M45800 27500
L47800 27500
" />
<path d="M56800 30500
L50800 30500
" />
<path d="M56800 28500
L56800 30500
" />
<path d="M60800 26500
L61300 26500
" />
<path d="M56800 26500
L57800 26500
" />
<path d="M56800 24500
L56800 26500
" />
<path d="M50800 24500
L56800 24500
" />
</g>
<g style="fill:#008400; fill-opacity:0.0; 
stroke:#008400; stroke-width:0; stroke-opacity:1; 
stroke-linecap:round; stroke-linejoin:round;">
</g>
<g style="fill:#008400; fill-opacity:1.0; 
stroke:#008400; stroke-width:100; stroke-opacity:1; 
stroke-linecap:round; stroke-linejoin:round;">
<circle cx="56800" cy="35300" r="200" /> 
</g>
<g style="fill:#008400; fill-opacity:1.0; 
stroke:#008400; stroke-width:60; stroke-opacity:1; 
stroke-linecap:round; stroke-linejoin:round;">
</g>
<g style="fill:#008400; fill-opacity:0.0; 
stroke:#008400; stroke-width:60; stroke-opacity:1; 
stroke-linecap:round; stroke-linejoin:round;">
<path d="M52300 35300
L58800 35300
" />
<path d="M61300 28500
L56800 28500
" />
</g>
<g style="fill:#840000; fill-opacity:0.0; 
stroke:#840000; stroke-width:60; stroke-opacity:1; 
stroke-linecap:round; stroke-linejoin:round;">
<path d="M59300 35020
L59330 35000
L59390 34970
L59530 34970
L59590 35000
L59610 35020
L59640 35080
L59640 35140
L59610 35220
L59270 35570
L59640 35570
" />
<path d="M59870 35020
L59900 35000
L59960 34970
L60100 34970
L60160 35000
L60190 35020
L60210 35080
L60210 35140
L60190 35220
L59840 35570
L60210 35570
" />
<path d="M60590 34970
L60640 34970
L60700 35000
L60730 35020
L60760 35080
L60790 35200
L60790 35340
L60760 35450
L60730 35510
L60700 35540
L60640 35570
L60590 35570
L60530 35540
L60500 35510
L60470 35450
L60440 35340
L60440 35200
L60470 35080
L60500 35020
L60530 35000
L60590 34970
" />
<path d="M61240 35250
L61040 35250
" />
<path d="M61040 35570
L61040 34970
L61330 34970
" />
</g>
<g style="fill:#840000; fill-opacity:0.0; 
stroke:#840000; stroke-width:100; stroke-opacity:1; 
stroke-linecap:round; stroke-linejoin:round;">
<polyline fill="none;"
points="58800,35300
59100,35810
61560,35810
61560,35300
61560,34790
59100,34790
58800,35300
" /> 
</g>
<g style="fill:#840000; fill-opacity:0.0; 
stroke:#840000; stroke-width:60; stroke-opacity:1; 
stroke-linecap:round; stroke-linejoin:round;">
<path d="M53180 46620
L53210 46600
L53260 46570
L53410 46570
L53460 46600
L53490 46620
L53520 46680
L53520 46740
L53490 46820
L53150 47170
L53520 47170
" />
<path d="M53750 46620
L53780 46600
L53830 46570
L53980 46570
L54030 46600
L54060 46620
L54090 46680
L54090 46740
L54060 46820
L53720 47170
L54090 47170
" />
<path d="M54460 46570
L54520 46570
L54580 46600
L54610 46620
L54630 46680
L54660 46800
L54660 46940
L54630 47050
L54610 47110
L54580 47140
L54520 47170
L54460 47170
L54410 47140
L54380 47110
L54350 47050
L54320 46940
L54320 46800
L54350 46680
L54380 46620
L54410 46600
L54460 46570
" />
<path d="M54920 47170
L54920 46570
L55260 47170
L55260 46570
" />
</g>
<g style="fill:#840000; fill-opacity:0.0; 
stroke:#840000; stroke-width:100; stroke-opacity:1; 
stroke-linecap:round; stroke-linejoin:round;">
<polyline fill="none;"
points="55800,46900
55500,46390
52930,46390
52930,46900
52930,47410
55500,47410
55800,46900
" /> 
</g>
<g style="fill:#840000; fill-opacity:0.0; 
stroke:#840000; stroke-width:60; stroke-opacity:1; 
stroke-linecap:round; stroke-linejoin:round;">
<path d="M35120 42670
L34920 42380
" />
<path d="M34780 42670
L34780 42070
L35010 42070
L35060 42100
L35090 42120
L35120 42180
L35120 42270
L35090 42320
L35060 42350
L35010 42380
L34780 42380
" />
<path d="M35580 42350
L35660 42380
L35690 42410
L35720 42470
L35720 42550
L35690 42610
L35660 42640
L35610 42670
L35380 42670
L35380 42070
L35580 42070
L35630 42100
L35660 42120
L35690 42180
L35690 42240
L35660 42300
L35630 42320
L35580 42350
L35380 42350
" />
<path d="M36290 42670
L35950 42670
" />
<path d="M36120 42670
L36120 42070
L36060 42150
L36010 42210
L35950 42240
" />
</g>
<g style="fill:#840000; fill-opacity:0.0; 
stroke:#840000; stroke-width:100; stroke-opacity:1; 
stroke-linecap:round; stroke-linejoin:round;">
<polyline fill="none;"
points="36800,42400
36500,41890
34500,41890
34500,42400
34500,42910
36500,42910
36800,42400
" /> 
</g>
<g style="fill:#840000; fill-opacity:0.0; 
stroke:#840000; stroke-width:60; stroke-opacity:1; 
stroke-linecap:round; stroke-linejoin:round;">
<path d="M72800 37120
L72830 37100
L72890 37070
L73030 37070
L73090 37100
L73110 37120
L73140 37180
L73140 37240
L73110 37320
L72770 37670
L73140 37670
" />
<path d="M73370 37120
L73400 37100
L73460 37070
L73600 37070
L73660 37100
L73690 37120
L73710 37180
L73710 37240
L73690 37320
L73340 37670
L73710 37670
" />
<path d="M74090 37070
L74140 37070
L74200 37100
L74230 37120
L74260 37180
L74290 37300
L74290 37440
L74260 37550
L74230 37610
L74200 37640
L74140 37670
L74090 37670
L74030 37640
L74000 37610
L73970 37550
L73940 37440
L73940 37300
L73970 37180
L74000 37120
L74030 37100
L74090 37070
" />
<path d="M74740 37350
L74540 37350
" />
<path d="M74540 37670
L74540 37070
L74830 37070
" />
</g>
<g style="fill:#840000; fill-opacity:0.0; 
stroke:#840000; stroke-width:100; stroke-opacity:1; 
stroke-linecap:round; stroke-linejoin:round;">
<polyline fill="none;"
points="72300,37400
72600,37910
75060,37910
75060,37400
75060,36890
72600,36890
72300,37400
" /> 
</g>
<g style="fill:#840000; fill-opacity:0.0; 
stroke:#840000; stroke-width:60; stroke-opacity:1; 
stroke-linecap:round; stroke-linejoin:round;">
<path d="M72800 36120
L72830 36100
L72890 36070
L73030 36070
L73090 36100
L73110 36120
L73140 36180
L73140 36240
L73110 36320
L72770 36670
L73140 36670
" />
<path d="M73370 36120
L73400 36100
L73460 36070
L73600 36070
L73660 36100
L73690 36120
L73710 36180
L73710 36240
L73690 36320
L73340 36670
L73710 36670
" />
<path d="M74090 36070
L74140 36070
L74200 36100
L74230 36120
L74260 36180
L74290 36300
L74290 36440
L74260 36550
L74230 36610
L74200 36640
L74140 36670
L74090 36670
L74030 36640
L74000 36610
L73970 36550
L73940 36440
L73940 36300
L73970 36180
L74000 36120
L74030 36100
L74090 36070
" />
<path d="M74540 36670
L74540 36070
L74890 36670
L74890 36070
" />
</g>
<g style="fill:#840000; fill-opacity:0.0; 
stroke:#840000; stroke-width:100; stroke-opacity:1; 
stroke-linecap:round; stroke-linejoin:round;">
<polyline fill="none;"
points="72300,36400
72600,36910
75170,36910
75170,36400
75170,35890
72600,35890
72300,36400
" /> 
</g>
<g style="fill:#840000; fill-opacity:0.0; 
stroke:#840000; stroke-width:60; stroke-opacity:1; 
stroke-linecap:round; stroke-linejoin:round;">
<path d="M78300 41620
L78330 41600
L78390 41570
L78530 41570
L78590 41600
L78610 41620
L78640 41680
L78640 41740
L78610 41820
L78270 42170
L78640 42170
" />
<path d="M78870 41620
L78900 41600
L78960 41570
L79100 41570
L79160 41600
L79190 41620
L79210 41680
L79210 41740
L79190 41820
L78840 42170
L79210 42170
" />
<path d="M79590 41570
L79640 41570
L79700 41600
L79730 41620
L79760 41680
L79790 41800
L79790 41940
L79760 42050
L79730 42110
L79700 42140
L79640 42170
L79590 42170
L79530 42140
L79500 42110
L79470 42050
L79440 41940
L79440 41800
L79470 41680
L79500 41620
L79530 41600
L79590 41570
" />
<path d="M80040 42170
L80040 41570
L80390 42170
L80390 41570
" />
</g>
<g style="fill:#840000; fill-opacity:0.0; 
stroke:#840000; stroke-width:100; stroke-opacity:1; 
stroke-linecap:round; stroke-linejoin:round;">
<polyline fill="none;"
points="77800,41900
78100,42410
80670,42410
80670,41900
80670,41390
78100,41390
77800,41900
" /> 
</g>
<g style="fill:#840000; fill-opacity:0.0; 
stroke:#840000; stroke-width:60; stroke-opacity:1; 
stroke-linecap:round; stroke-linejoin:round;">
<path d="M75300 40620
L75330 40600
L75390 40570
L75530 40570
L75590 40600
L75610 40620
L75640 40680
L75640 40740
L75610 40820
L75270 41170
L75640 41170
" />
<path d="M75870 40620
L75900 40600
L75960 40570
L76100 40570
L76160 40600
L76190 40620
L76210 40680
L76210 40740
L76190 40820
L75840 41170
L76210 41170
" />
<path d="M76590 40570
L76640 40570
L76700 40600
L76730 40620
L76760 40680
L76790 40800
L76790 40940
L76760 41050
L76730 41110
L76700 41140
L76640 41170
L76590 41170
L76530 41140
L76500 41110
L76470 41050
L76440 40940
L76440 40800
L76470 40680
L76500 40620
L76530 40600
L76590 40570
" />
<path d="M77240 40850
L77040 40850
" />
<path d="M77040 41170
L77040 40570
L77330 40570
" />
</g>
<g style="fill:#840000; fill-opacity:0.0; 
stroke:#840000; stroke-width:100; stroke-opacity:1; 
stroke-linecap:round; stroke-linejoin:round;">
<polyline fill="none;"
points="74800,40900
75100,41410
77560,41410
77560,40900
77560,40390
75100,40390
74800,40900
" /> 
</g>
<g style="fill:#840000; fill-opacity:0.0; 
stroke:#840000; stroke-width:60; stroke-opacity:1; 
stroke-linecap:round; stroke-linejoin:round;">
<path d="M75030 26450
L74830 26450
" />
<path d="M74830 26770
L74830 26170
L75110 26170
" />
<path d="M75310 26600
L75600 26600
" />
<path d="M75260 26770
L75460 26170
L75660 26770
" />
<path d="M75830 26740
L75910 26770
L76060 26770
L76110 26740
L76140 26710
L76170 26650
L76170 26600
L76140 26540
L76110 26510
L76060 26480
L75940 26450
L75890 26420
L75860 26400
L75830 26340
L75830 26280
L75860 26220
L75890 26200
L75940 26170
L76090 26170
L76170 26200
" />
<path d="M76430 26450
L76630 26450
" />
<path d="M76710 26770
L76430 26770
L76430 26170
L76710 26170
" />
<path d="M76830 26820
L77290 26820
" />
<path d="M77540 26170
L77600 26170
L77660 26200
L77690 26220
L77710 26280
L77740 26400
L77740 26540
L77710 26650
L77690 26710
L77660 26740
L77600 26770
L77540 26770
L77490 26740
L77460 26710
L77430 26650
L77400 26540
L77400 26400
L77430 26280
L77460 26220
L77490 26200
L77540 26170
" />
</g>
<g style="fill:#840000; fill-opacity:0.0; 
stroke:#840000; stroke-width:100; stroke-opacity:1; 
stroke-linecap:round; stroke-linejoin:round;">
<polyline fill="none;"
points="74300,26500
74600,27010
78000,27010
78000,26500
78000,25990
74600,25990
74300,26500
" /> 
</g>
<g style="fill:#840000; fill-opacity:0.0; 
stroke:#840000; stroke-width:0; stroke-opacity:1; 
stroke-linecap:round; stroke-linejoin:round;">
</g>
<g style="fill:#840000; fill-opacity:0.0; 
stroke:#840000; stroke-width:100; stroke-opacity:1; 
stroke-linecap:round; stroke-linejoin:round;">
<rect x="70800" y="26100" width="2000" height="800" rx="0" />
</g>
<g style="fill:#840000; fill-opacity:0.0; 
stroke:#840000; stroke-width:60; stroke-opacity:1; 
stroke-linecap:round; stroke-linejoin:round;">
<path d="M72800 26500
L73300 26500
" />
<path d="M70800 26500
L70300 26500
" />
</g>
<g style="fill:#008484; fill-opacity:0.0; 
stroke:#008484; stroke-width:60; stroke-opacity:1; 
stroke-linecap:round; stroke-linejoin:round;">
<path d="M71470 27540
L71310 27300
" />
<path d="M71190 27540
L71190 27040
L71380 27040
L71430 27070
L71450 27090
L71470 27140
L71470 27210
L71450 27260
L71430 27280
L71380 27300
L71190 27300
" />
<path d="M71660 27090
L71690 27070
L71740 27040
L71850 27040
L71900 27070
L71930 27090
L71950 27140
L71950 27180
L71930 27260
L71640 27540
L71950 27540
" />
<path d="M72260 27040
L72310 27040
L72350 27070
L72380 27090
L72400 27140
L72430 27230
L72430 27350
L72400 27450
L72380 27490
L72350 27520
L72310 27540
L72260 27540
L72210 27520
L72190 27490
L72160 27450
L72140 27350
L72140 27230
L72160 27140
L72190 27090
L72210 27070
L72260 27040
" />
<path d="M70930 26290
L70950 26270
L71000 26240
L71120 26240
L71160 26270
L71190 26290
L71210 26340
L71210 26380
L71190 26460
L70900 26740
L71210 26740
" />
<path d="M71400 26290
L71430 26270
L71470 26240
L71590 26240
L71640 26270
L71660 26290
L71690 26340
L71690 26380
L71660 26460
L71380 26740
L71690 26740
" />
<path d="M72000 26240
L72050 26240
L72090 26270
L72120 26290
L72140 26340
L72160 26430
L72160 26550
L72140 26650
L72120 26690
L72090 26720
L72050 26740
L72000 26740
L71950 26720
L71930 26690
L71900 26650
L71880 26550
L71880 26430
L71900 26340
L71930 26290
L71950 26270
L72000 26240
" />
<path d="M72660 26740
L72500 26500
" />
<path d="M72380 26740
L72380 26240
L72570 26240
L72620 26270
L72640 26290
L72660 26340
L72660 26410
L72640 26460
L72620 26480
L72570 26500
L72380 26500
" />
</g>
<g style="fill:#008484; fill-opacity:0.0; 
stroke:#008484; stroke-width:0; stroke-opacity:1; 
stroke-linecap:round; stroke-linejoin:round;">
</g>
<g style="fill:#840000; fill-opacity:0.0; 
stroke:#840000; stroke-width:0; stroke-opacity:1; 
stroke-linecap:round; stroke-linejoin:round;">
</g>
<g style="fill:#840000; fill-opacity:0.0; 
stroke:#840000; stroke-width:60; stroke-opacity:1; 
stroke-linecap:round; stroke-linejoin:round;">
<polyline fill="none;"
points="71300,28500
71800,28500
71800,28000
72300,28500
71800,29000
71800,28500
" /> 
</g>
<g style="fill:#008484; fill-opacity:0.0; 
stroke:#008484; stroke-width:60; stroke-opacity:1; 
stroke-linecap:round; stroke-linejoin:round;">
<path d="M72570 28880
L72540 28920
L72540 29000
L72570 29070
L72610 29110
L72660 29140
L72760 29160
L72830 29160
L72920 29140
L72970 29110
L73020 29070
L73040 29000
L73040 28950
L73020 28880
L72990 28850
L72830 28850
L72830 28950
" />
<path d="M73040 28640
L72540 28640
L73040 28350
L72540 28350
" />
<path d="M73040 28110
L72540 28110
L72540 28000
L72570 27920
L72610 27880
L72660 27850
L72760 27830
L72830 27830
L72920 27850
L72970 27880
L73020 27920
L73040 28000
L73040 28110
" />
</g>
<g style="fill:#840000; fill-opacity:0.0; 
stroke:#840000; stroke-width:60; stroke-opacity:1; 
stroke-linecap:round; stroke-linejoin:round;">
<path d="M43180 22220
L43210 22200
L43260 22170
L43410 22170
L43460 22200
L43490 22220
L43520 22280
L43520 22340
L43490 22420
L43150 22770
L43520 22770
" />
<path d="M43750 22220
L43780 22200
L43830 22170
L43980 22170
L44030 22200
L44060 22220
L44090 22280
L44090 22340
L44060 22420
L43720 22770
L44090 22770
" />
<path d="M44460 22170
L44520 22170
L44580 22200
L44610 22220
L44630 22280
L44660 22400
L44660 22540
L44630 22650
L44610 22710
L44580 22740
L44520 22770
L44460 22770
L44410 22740
L44380 22710
L44350 22650
L44320 22540
L44320 22400
L44350 22280
L44380 22220
L44410 22200
L44460 22170
" />
<path d="M44920 22770
L44920 22170
L45260 22770
L45260 22170
" />
</g>
<g style="fill:#840000; fill-opacity:0.0; 
stroke:#840000; stroke-width:100; stroke-opacity:1; 
stroke-linecap:round; stroke-linejoin:round;">
<polyline fill="none;"
points="45800,22500
45500,21990
42930,21990
42930,22500
42930,23010
45500,23010
45800,22500
" /> 
</g>
<g style="fill:#840000; fill-opacity:0.0; 
stroke:#840000; stroke-width:60; stroke-opacity:1; 
stroke-linecap:round; stroke-linejoin:round;">
<path d="M43290 27220
L43320 27200
L43380 27170
L43520 27170
L43580 27200
L43610 27220
L43630 27280
L43630 27340
L43610 27420
L43260 27770
L43630 27770
" />
<path d="M43860 27220
L43890 27200
L43950 27170
L44090 27170
L44150 27200
L44180 27220
L44210 27280
L44210 27340
L44180 27420
L43830 27770
L44210 27770
" />
<path d="M44580 27170
L44630 27170
L44690 27200
L44720 27220
L44750 27280
L44780 27400
L44780 27540
L44750 27650
L44720 27710
L44690 27740
L44630 27770
L44580 27770
L44520 27740
L44490 27710
L44460 27650
L44430 27540
L44430 27400
L44460 27280
L44490 27220
L44520 27200
L44580 27170
" />
<path d="M45230 27450
L45030 27450
" />
<path d="M45030 27770
L45030 27170
L45320 27170
" />
</g>
<g style="fill:#840000; fill-opacity:0.0; 
stroke:#840000; stroke-width:100; stroke-opacity:1; 
stroke-linecap:round; stroke-linejoin:round;">
<polyline fill="none;"
points="45800,27500
45500,26990
43040,26990
43040,27500
43040,28010
45500,28010
45800,27500
" /> 
</g>
<g style="fill:#840000; fill-opacity:0.0; 
stroke:#840000; stroke-width:0; stroke-opacity:1; 
stroke-linecap:round; stroke-linejoin:round;">
</g>
<g style="fill:#840000; fill-opacity:0.0; 
stroke:#840000; stroke-width:100; stroke-opacity:1; 
stroke-linecap:round; stroke-linejoin:round;">
<rect x="70800" y="40600" width="2000" height="600" rx="0" />
</g>
<g style="fill:#840000; fill-opacity:0.0; 
stroke:#840000; stroke-width:60; stroke-opacity:1; 
stroke-linecap:round; stroke-linejoin:round;">
<polyline fill="none;"
points="72800,40900
70800,40900
" /> 
<path d="M72800 40900
L73300 40900
" />
<path d="M70800 40900
L70300 40900
" />
</g>
<g style="fill:#008484; fill-opacity:0.0; 
stroke:#008484; stroke-width:60; stroke-opacity:1; 
stroke-linecap:round; stroke-linejoin:round;">
<path d="M71030 40080
L70860 40080
" />
<path d="M70860 40340
L70860 39840
L71100 39840
" />
<path d="M71550 40340
L71270 40340
" />
<path d="M71410 40340
L71410 39840
L71360 39910
L71310 39960
L71270 39980
" />
<path d="M70990 41480
L70820 41480
" />
<path d="M70820 41740
L70820 41240
L71060 41240
" />
<path d="M71460 41410
L71460 41740
" />
<path d="M71250 41410
L71250 41670
L71270 41720
L71320 41740
L71390 41740
L71440 41720
L71460 41690
" />
<path d="M71680 41720
L71720 41740
L71820 41740
L71870 41720
L71890 41670
L71890 41650
L71870 41600
L71820 41570
L71750 41570
L71700 41550
L71680 41500
L71680 41480
L71700 41430
L71750 41410
L71820 41410
L71870 41430
" />
<path d="M72300 41720
L72250 41740
L72150 41740
L72100 41720
L72080 41670
L72080 41480
L72100 41430
L72150 41410
L72250 41410
L72300 41430
L72320 41480
L72320 41530
L72080 41570
" />
<path d="M72800 41740
L72510 41740
" />
<path d="M72650 41740
L72650 41240
L72600 41310
L72560 41360
L72510 41380
" />
</g>
<g style="fill:#008484; fill-opacity:0.0; 
stroke:#008484; stroke-width:0; stroke-opacity:1; 
stroke-linecap:round; stroke-linejoin:round;">
</g>
<g style="fill:#840000; fill-opacity:0.0; 
stroke:#840000; stroke-width:0; stroke-opacity:1; 
stroke-linecap:round; stroke-linejoin:round;">
</g>
<g style="fill:#840000; fill-opacity:0.0; 
stroke:#840000; stroke-width:60; stroke-opacity:1; 
stroke-linecap:round; stroke-linejoin:round;">
<rect x="66700" y="40850" width="600" height="100" rx="0" />
<rect x="66700" y="41850" width="600" height="100" rx="0" />
<rect x="66300" y="40400" width="1000" height="2000" rx="0" />
<path d="M67300 41900
L68800 41900
" />
<path d="M68190 41770
L67900 41770
" />
<path d="M68050 41770
L68050 41270
L68000 41340
L67950 41390
L67900 41410
" />
<path d="M67300 40900
L68800 40900
" />
<path d="M67900 40320
L67930 40300
L67970 40270
L68090 40270
L68140 40300
L68160 40320
L68190 40370
L68190 40410
L68160 40490
L67880 40770
L68190 40770
" />
</g>
<g style="fill:#008484; fill-opacity:0.0; 
stroke:#008484; stroke-width:60; stroke-opacity:1; 
stroke-linecap:round; stroke-linejoin:round;">
<path d="M66450 40040
L66430 40070
L66350 40090
L66310 40090
L66240 40070
L66190 40020
L66160 39970
L66140 39880
L66140 39810
L66160 39710
L66190 39660
L66240 39620
L66310 39590
L66350 39590
L66430 39620
L66450 39640
" />
<path d="M66660 40090
L66660 39590
L66950 40090
L66950 39590
" />
<path d="M67140 39590
L67450 39590
L67280 39780
L67350 39780
L67400 39810
L67430 39830
L67450 39880
L67450 40000
L67430 40040
L67400 40070
L67350 40090
L67210 40090
L67160 40070
L67140 40040
" />
<path d="M65920 42590
L66200 42590
" />
<path d="M66060 43090
L66060 42590
" />
<path d="M66370 43090
L66370 42760
" />
<path d="M66370 42850
L66390 42810
L66420 42780
L66460 42760
L66510 42760
" />
<path d="M66890 43090
L66890 42830
L66870 42780
L66820 42760
L66730 42760
L66680 42780
" />
<path d="M66890 43070
L66840 43090
L66730 43090
L66680 43070
L66650 43020
L66650 42970
L66680 42920
L66730 42900
L66840 42900
L66890 42880
" />
<path d="M67110 43070
L67150 43090
L67250 43090
L67300 43070
L67320 43020
L67320 43000
L67300 42950
L67250 42920
L67180 42920
L67130 42900
L67110 42850
L67110 42830
L67130 42780
L67180 42760
L67250 42760
L67300 42780
" />
<path d="M67460 42760
L67650 42760
" />
<path d="M67540 43090
L67540 42660
L67560 42620
L67610 42590
L67650 42590
" />
</g>
<g style="fill:#008484; fill-opacity:0.0; 
stroke:#008484; stroke-width:0; stroke-opacity:1; 
stroke-linecap:round; stroke-linejoin:round;">
</g>
<g style="fill:#840000; fill-opacity:0.0; 
stroke:#840000; stroke-width:0; stroke-opacity:1; 
stroke-linecap:round; stroke-linejoin:round;">
</g>
<g style="fill:#FFFFBF; fill-opacity:0.0; 
stroke:#FFFFBF; stroke-width:0; stroke-opacity:1; 
stroke-linecap:round; stroke-linejoin:round;">
</g>
<g style="fill:#FFFFBF; fill-opacity:0.6; 
stroke:#FFFFBF; stroke-width:0; stroke-opacity:1; 
stroke-linecap:round; stroke-linejoin:round;">
<rect x="43300" y="41900" width="4000" height="3000" rx="0" />
</g>
<g style="fill:#840000; fill-opacity:0.6; 
stroke:#840000; stroke-width:0; stroke-opacity:1; 
stroke-linecap:round; stroke-linejoin:round;">
</g>
<g style="fill:#840000; fill-opacity:0.0; 
stroke:#840000; stroke-width:100; stroke-opacity:1; 
stroke-linecap:round; stroke-linejoin:round;">
<rect x="43300" y="41900" width="4000" height="3000" rx="0" />
</g>
<g style="fill:#840000; fill-opacity:0.0; 
stroke:#840000; stroke-width:60; stroke-opacity:1; 
stroke-linecap:round; stroke-linejoin:round;">
<circle cx="46200" cy="44400" r="50" /> 
<circle cx="46200" cy="42400" r="50" /> 
</g>
<g style="fill:#840000; fill-opacity:0.0; 
stroke:#840000; stroke-width:100; stroke-opacity:1; 
stroke-linecap:round; stroke-linejoin:round;">
<polyline fill="none;"
points="43800,43650
44300,43650
" /> 
</g>
<g style="fill:#840000; fill-opacity:0.0; 
stroke:#840000; stroke-width:60; stroke-opacity:1; 
stroke-linecap:round; stroke-linejoin:round;">
<polyline fill="none;"
points="45350,43850
45350,42400
" /> 
<polyline fill="none;"
points="45350,42400
46200,42400
" /> 
</g>
<g style="fill:#840000; fill-opacity:0.0; 
stroke:#840000; stroke-width:100; stroke-opacity:1; 
stroke-linecap:round; stroke-linejoin:round;">
<polyline fill="none;"
points="46050,43150
46750,43150
" /> 
</g>
<g style="fill:#840000; fill-opacity:0.0; 
stroke:#840000; stroke-width:60; stroke-opacity:1; 
stroke-linecap:round; stroke-linejoin:round;">
<polyline fill="none;"
points="46200,44400
45800,44400
" /> 
<polyline fill="none;"
points="46200,44400
46200,43650
" /> 
<polyline fill="none;"
points="46200,44400
47300,44400
" /> 
<polyline fill="none;"
points="46200,42400
46200,43150
" /> 
<polyline fill="none;"
points="46200,42400
47300,42400
" /> 
</g>
<g style="fill:#840000; fill-opacity:0.0; 
stroke:#840000; stroke-width:100; stroke-opacity:1; 
stroke-linecap:round; stroke-linejoin:round;">
<polyline fill="none;"
points="46350,43650
45650,43650
" /> 
</g>
<g style="fill:#840000; fill-opacity:0.0; 
stroke:#840000; stroke-width:60; stroke-opacity:1; 
stroke-linecap:round; stroke-linejoin:round;">
<polyline fill="none;"
points="43300,42400
44050,42400
44050,43150
" /> 
<polyline fill="none;"
points="44050,43650
44050,44400
43300,44400
" /> 
<polyline fill="none;"
points="46050,43650
45900,43950
45800,43950
" /> 
</g>
<g style="fill:#840000; fill-opacity:1.0; 
stroke:#840000; stroke-width:100; stroke-opacity:1; 
stroke-linecap:round; stroke-linejoin:round;">
<polyline style="fill-rule:evenodd;"
points="44050,43650
43800,43150
44300,43150
44050,43650
" /> 
</g>
<g style="fill:#840000; fill-opacity:0.0; 
stroke:#840000; stroke-width:60; stroke-opacity:1; 
stroke-linecap:round; stroke-linejoin:round;">
<polyline fill="none;"
points="45050,44000
45200,44000
45050,44400
45200,44400
" /> 
<polyline fill="none;"
points="45300,44050
45350,44000
45400,44000
45450,44050
" /> 
</g>
<g style="fill:#840000; fill-opacity:1.0; 
stroke:#840000; stroke-width:100; stroke-opacity:1; 
stroke-linecap:round; stroke-linejoin:round;">
<polyline style="fill-rule:evenodd;"
points="45900,43650
46150,43150
45650,43150
45900,43650
" /> 
<polyline style="fill-rule:evenodd;"
points="46500,43150
46250,43650
46750,43650
46500,43150
" /> 
</g>
<g style="fill:#840000; fill-opacity:0.0; 
stroke:#840000; stroke-width:60; stroke-opacity:1; 
stroke-linecap:round; stroke-linejoin:round;">
<polyline fill="none;"
points="44550,43600
45050,43600
44900,43650
44900,43550
45050,43600
" /> 
<polyline fill="none;"
points="44550,43200
45050,43200
44900,43250
44900,43150
45050,43200
" /> 
<polyline fill="none;"
points="44950,43850
44950,44550
45800,44550
45800,43850
44950,43850
" /> 
<polyline fill="none;"
points="45450,44350
45400,44400
45350,44400
45300,44350
45300,44050
" /> 
<polyline fill="none;"
points="45550,44000
45550,44400
45650,44400
45700,44350
45700,44050
45650,44000
45550,44000
" /> 
<path d="M43300 42400
L42300 42400
" />
<path d="M42940 42270
L42650 42270
" />
<path d="M42800 42270
L42800 41770
L42750 41840
L42700 41890
L42650 41910
" />
<path d="M43300 44400
L42300 44400
" />
<path d="M42650 43820
L42680 43800
L42720 43770
L42840 43770
L42890 43800
L42910 43820
L42940 43870
L42940 43910
L42910 43990
L42630 44270
L42940 44270
" />
<path d="M47300 44400
L48300 44400
" />
<path d="M47890 43940
L47890 44270
" />
<path d="M47770 43750
L47650 44100
L47960 44100
" />
<path d="M47300 42400
L48300 42400
" />
<path d="M47890 41770
L47800 41770
L47750 41800
L47720 41820
L47680 41890
L47650 41990
L47650 42180
L47680 42220
L47700 42250
L47750 42270
L47840 42270
L47890 42250
L47910 42220
L47940 42180
L47940 42060
L47910 42010
L47890 41990
L47840 41960
L47750 41960
L47700 41990
L47680 42010
L47650 42060
" />
</g>
<g style="fill:#008484; fill-opacity:0.0; 
stroke:#008484; stroke-width:60; stroke-opacity:1; 
stroke-linecap:round; stroke-linejoin:round;">
<path d="M43440 41140
L43440 41550
L43470 41590
L43490 41620
L43540 41640
L43630 41640
L43680 41620
L43710 41590
L43730 41550
L43730 41140
" />
<path d="M43940 41190
L43970 41170
L44020 41140
L44130 41140
L44180 41170
L44210 41190
L44230 41240
L44230 41280
L44210 41360
L43920 41640
L44230 41640
" />
<path d="M42530 45140
L42630 45140
L42680 45170
L42720 45210
L42750 45310
L42750 45470
L42720 45570
L42680 45620
L42630 45640
L42530 45640
L42490 45620
L42440 45570
L42420 45470
L42420 45310
L42440 45210
L42490 45170
L42530 45140
" />
<path d="M42960 45310
L42960 45810
" />
<path d="M42960 45330
L43010 45310
L43110 45310
L43150 45330
L43180 45360
L43200 45400
L43200 45550
L43180 45590
L43150 45620
L43110 45640
L43010 45640
L42960 45620
" />
<path d="M43340 45310
L43530 45310
" />
<path d="M43420 45140
L43420 45570
L43440 45620
L43490 45640
L43530 45640
" />
<path d="M43770 45640
L43720 45620
L43700 45590
L43680 45550
L43680 45400
L43700 45360
L43720 45330
L43770 45310
L43840 45310
L43890 45330
L43920 45360
L43940 45400
L43940 45550
L43920 45590
L43890 45620
L43840 45640
L43770 45640
" />
<path d="M44460 45140
L44750 45140
" />
<path d="M44610 45640
L44610 45140
" />
<path d="M45200 45640
L45030 45400
" />
<path d="M44920 45640
L44920 45140
L45110 45140
L45150 45170
L45180 45190
L45200 45240
L45200 45310
L45180 45360
L45150 45380
L45110 45400
L44920 45400
" />
<path d="M45420 45640
L45420 45140
" />
<path d="M45630 45500
L45870 45500
" />
<path d="M45580 45640
L45750 45140
L45920 45640
" />
<path d="M46370 45590
L46340 45620
L46270 45640
L46220 45640
L46150 45620
L46110 45570
L46080 45520
L46060 45430
L46060 45360
L46080 45260
L46110 45210
L46150 45170
L46220 45140
L46270 45140
L46340 45170
L46370 45190
" />
<path d="M46960 45640
L46960 45140
L47080 45140
L47150 45170
L47200 45210
L47220 45260
L47250 45360
L47250 45430
L47220 45520
L47200 45570
L47150 45620
L47080 45640
L46960 45640
" />
<path d="M47460 45640
L47460 45310
" />
<path d="M47460 45140
L47440 45170
L47460 45190
L47490 45170
L47460 45140
L47460 45190
" />
<path d="M47700 45310
L47700 45810
" />
<path d="M47700 45330
L47750 45310
L47840 45310
L47890 45330
L47920 45360
L47940 45400
L47940 45550
L47920 45590
L47890 45620
L47840 45640
L47750 45640
L47700 45620
" />
<path d="M48370 45140
L48270 45140
L48220 45170
L48200 45190
L48150 45260
L48130 45360
L48130 45550
L48150 45590
L48180 45620
L48220 45640
L48320 45640
L48370 45620
L48390 45590
L48420 45550
L48420 45430
L48390 45380
L48370 45360
L48320 45330
L48220 45330
L48180 45360
L48150 45380
L48130 45430
" />
</g>
<g style="fill:#008484; fill-opacity:0.0; 
stroke:#008484; stroke-width:0; stroke-opacity:1; 
stroke-linecap:round; stroke-linejoin:round;">
</g>
<g style="fill:#840000; fill-opacity:0.0; 
stroke:#840000; stroke-width:0; stroke-opacity:1; 
stroke-linecap:round; stroke-linejoin:round;">
</g>
<g style="fill:#FFFFBF; fill-opacity:0.0; 
stroke:#FFFFBF; stroke-width:0; stroke-opacity:1; 
stroke-linecap:round; stroke-linejoin:round;">
</g>
<g style="fill:#FFFFBF; fill-opacity:0.6; 
stroke:#FFFFBF; stroke-width:0; stroke-opacity:1; 
stroke-linecap:round; stroke-linejoin:round;">
<rect x="62300" y="26000" width="6000" height="3000" rx="0" />
</g>
<g style="fill:#840000; fill-opacity:0.6; 
stroke:#840000; stroke-width:0; stroke-opacity:1; 
stroke-linecap:round; stroke-linejoin:round;">
</g>
<g style="fill:#840000; fill-opacity:0.0; 
stroke:#840000; stroke-width:100; stroke-opacity:1; 
stroke-linecap:round; stroke-linejoin:round;">
<rect x="62300" y="26000" width="6000" height="3000" rx="0" />
</g>
<g style="fill:#840000; fill-opacity:0.0; 
stroke:#840000; stroke-width:60; stroke-opacity:1; 
stroke-linecap:round; stroke-linejoin:round;">
<circle cx="66000" cy="27650" r="50" /> 
<circle cx="66900" cy="28500" r="50" /> 
<circle cx="66900" cy="26500" r="50" /> 
<circle cx="67300" cy="28500" r="50" /> 
<circle cx="67300" cy="26500" r="50" /> 
</g>
<g style="fill:#840000; fill-opacity:0.0; 
stroke:#840000; stroke-width:100; stroke-opacity:1; 
stroke-linecap:round; stroke-linejoin:round;">
<polyline fill="none;"
points="63800,27750
64300,27750
" /> 
</g>
<g style="fill:#840000; fill-opacity:0.0; 
stroke:#840000; stroke-width:60; stroke-opacity:1; 
stroke-linecap:round; stroke-linejoin:round;">
<polyline fill="none;"
points="65500,27100
66000,27600
" /> 
<polyline fill="none;"
points="65500,27000
66000,26500
" /> 
</g>
<g style="fill:#840000; fill-opacity:0.0; 
stroke:#840000; stroke-width:140; stroke-opacity:1; 
stroke-linecap:round; stroke-linejoin:round;">
<polyline fill="none;"
points="65500,26650
65500,27450
" /> 
</g>
<g style="fill:#840000; fill-opacity:0.0; 
stroke:#840000; stroke-width:60; stroke-opacity:1; 
stroke-linecap:round; stroke-linejoin:round;">
<polyline fill="none;"
points="66000,26500
68300,26500
" /> 
<polyline fill="none;"
points="66400,27700
66900,28200
" /> 
<polyline fill="none;"
points="66400,27650
66000,27650
" /> 
<polyline fill="none;"
points="66400,27600
66900,27100
" /> 
<polyline fill="none;"
points="66900,28500
68300,28500
" /> 
<polyline fill="none;"
points="66900,28200
66900,28500
" /> 
<polyline fill="none;"
points="66900,27100
66900,26500
" /> 
</g>
<g style="fill:#840000; fill-opacity:0.0; 
stroke:#840000; stroke-width:100; stroke-opacity:1; 
stroke-linecap:round; stroke-linejoin:round;">
<polyline fill="none;"
points="67050,27250
67550,27250
" /> 
</g>
<g style="fill:#840000; fill-opacity:0.0; 
stroke:#840000; stroke-width:60; stroke-opacity:1; 
stroke-linecap:round; stroke-linejoin:round;">
<polyline fill="none;"
points="67300,27750
67300,28500
" /> 
<polyline fill="none;"
points="67300,27250
67300,26500
" /> 
<polyline fill="none;"
points="62300,26500
64050,26500
64050,27250
" /> 
<polyline fill="none;"
points="64050,27750
64050,28500
62300,28500
" /> 
</g>
<g style="fill:#840000; fill-opacity:0.0; 
stroke:#840000; stroke-width:140; stroke-opacity:1; 
stroke-linecap:round; stroke-linejoin:round;">
<polyline fill="none;"
points="66400,27250
66400,28050
66400,28050
" /> 
</g>
<g style="fill:#840000; fill-opacity:1.0; 
stroke:#840000; stroke-width:100; stroke-opacity:1; 
stroke-linecap:round; stroke-linejoin:round;">
<polyline style="fill-rule:evenodd;"
points="64050,27750
63800,27250
64300,27250
64050,27750
" /> 
</g>
<g style="fill:#840000; fill-opacity:0.0; 
stroke:#840000; stroke-width:60; stroke-opacity:1; 
stroke-linecap:round; stroke-linejoin:round;">
<polyline fill="none;"
points="65900,27500
65800,27300
65700,27400
65900,27500
" /> 
<polyline fill="none;"
points="66800,28100
66700,27900
66600,28000
66800,28100
" /> 
</g>
<g style="fill:#840000; fill-opacity:1.0; 
stroke:#840000; stroke-width:100; stroke-opacity:1; 
stroke-linecap:round; stroke-linejoin:round;">
<polyline style="fill-rule:evenodd;"
points="67300,27250
67050,27750
67550,27750
67300,27250
" /> 
</g>
<g style="fill:#840000; fill-opacity:0.0; 
stroke:#840000; stroke-width:60; stroke-opacity:1; 
stroke-linecap:round; stroke-linejoin:round;">
<polyline fill="none;"
points="64600,27500
65100,27500
64950,27550
64950,27450
65100,27500
" /> 
<polyline fill="none;"
points="64600,27100
65100,27100
64950,27150
64950,27050
65100,27100
" /> 
<polyline fill="none;"
points="66000,27600
66000,28500
66200,28500
66250,28400
66300,28600
66350,28400
66400,28600
66450,28400
66500,28600
66550,28400
66600,28500
66900,28500
" /> 
<path d="M62300 26500
L61300 26500
" />
<path d="M61940 26370
L61650 26370
" />
<path d="M61800 26370
L61800 25870
L61750 25940
L61700 25990
L61650 26010
" />
<path d="M62300 28500
L61300 28500
" />
<path d="M61650 27920
L61680 27900
L61720 27870
L61840 27870
L61890 27900
L61910 27920
L61940 27970
L61940 28010
L61910 28090
L61630 28370
L61940 28370
" />
<path d="M68300 28500
L69300 28500
" />
<path d="M68630 27870
L68960 27870
L68750 28370
" />
<path d="M68300 26500
L69300 26500
" />
<path d="M68750 26090
L68700 26060
L68680 26040
L68650 25990
L68650 25970
L68680 25920
L68700 25900
L68750 25870
L68840 25870
L68890 25900
L68910 25920
L68940 25970
L68940 25990
L68910 26040
L68890 26060
L68840 26090
L68750 26090
L68700 26110
L68680 26130
L68650 26180
L68650 26280
L68680 26320
L68700 26350
L68750 26370
L68840 26370
L68890 26350
L68910 26320
L68940 26280
L68940 26180
L68910 26130
L68890 26110
L68840 26090
" />
</g>
<g style="fill:#008484; fill-opacity:0.0; 
stroke:#008484; stroke-width:60; stroke-opacity:1; 
stroke-linecap:round; stroke-linejoin:round;">
<path d="M65360 23870
L65360 24350
L65390 24410
L65420 24440
L65480 24470
L65590 24470
L65650 24440
L65680 24410
L65700 24350
L65700 23870
" />
<path d="M65930 23870
L66300 23870
L66100 24100
L66190 24100
L66250 24120
L66280 24150
L66300 24210
L66300 24350
L66280 24410
L66250 24440
L66190 24470
L66020 24470
L65960 24440
L65930 24410
" />
<path d="M66530 24300
L66820 24300
" />
<path d="M66480 24470
L66680 23870
L66880 24470
" />
</g>
<g style="fill:#008484; fill-opacity:0.0; 
stroke:#008484; stroke-width:0; stroke-opacity:1; 
stroke-linecap:round; stroke-linejoin:round;">
</g>
<g style="fill:#840000; fill-opacity:0.0; 
stroke:#840000; stroke-width:0; stroke-opacity:1; 
stroke-linecap:round; stroke-linejoin:round;">
</g>
<g style="fill:#840000; fill-opacity:0.0; 
stroke:#840000; stroke-width:60; stroke-opacity:1; 
stroke-linecap:round; stroke-linejoin:round;">
<rect x="66700" y="36350" width="600" height="100" rx="0" />
<rect x="66700" y="37350" width="600" height="100" rx="0" />
<rect x="66300" y="35900" width="1000" height="2000" rx="0" />
<path d="M67300 37400
L68800 37400
" />
<path d="M68190 37270
L67900 37270
" />
<path d="M68050 37270
L68050 36770
L68000 36840
L67950 36890
L67900 36910
" />
<path d="M67300 36400
L68800 36400
" />
<path d="M67900 35820
L67930 35800
L67970 35770
L68090 35770
L68140 35800
L68160 35820
L68190 35870
L68190 35910
L68160 35990
L67880 36270
L68190 36270
" />
</g>
<g style="fill:#008484; fill-opacity:0.0; 
stroke:#008484; stroke-width:60; stroke-opacity:1; 
stroke-linecap:round; stroke-linejoin:round;">
<path d="M66450 35540
L66430 35570
L66350 35590
L66310 35590
L66240 35570
L66190 35520
L66160 35470
L66140 35380
L66140 35310
L66160 35210
L66190 35160
L66240 35120
L66310 35090
L66350 35090
L66430 35120
L66450 35140
" />
<path d="M66660 35590
L66660 35090
L66950 35590
L66950 35090
" />
<path d="M67160 35140
L67190 35120
L67240 35090
L67350 35090
L67400 35120
L67430 35140
L67450 35190
L67450 35230
L67430 35310
L67140 35590
L67450 35590
" />
<path d="M66110 38140
L66130 38120
L66180 38090
L66300 38090
L66340 38120
L66370 38140
L66390 38190
L66390 38230
L66370 38310
L66080 38590
L66390 38590
" />
<path d="M66580 38140
L66610 38120
L66650 38090
L66770 38090
L66820 38120
L66840 38140
L66870 38190
L66870 38230
L66840 38310
L66560 38590
L66870 38590
" />
<path d="M67180 38090
L67230 38090
L67270 38120
L67300 38140
L67320 38190
L67340 38280
L67340 38400
L67320 38500
L67300 38540
L67270 38570
L67230 38590
L67180 38590
L67130 38570
L67110 38540
L67080 38500
L67060 38400
L67060 38280
L67080 38190
L67110 38140
L67130 38120
L67180 38090
" />
<path d="M67490 38090
L67650 38590
L67820 38090
" />
<path d="M67990 38590
L67990 38260
" />
<path d="M67990 38090
L67960 38120
L67990 38140
L68010 38120
L67990 38090
L67990 38140
" />
<path d="M68230 38260
L68230 38590
" />
<path d="M68230 38310
L68250 38280
L68300 38260
L68370 38260
L68420 38280
L68440 38330
L68440 38590
" />
</g>
<g style="fill:#008484; fill-opacity:0.0; 
stroke:#008484; stroke-width:0; stroke-opacity:1; 
stroke-linecap:round; stroke-linejoin:round;">
</g>
<g style="fill:#840000; fill-opacity:0.0; 
stroke:#840000; stroke-width:0; stroke-opacity:1; 
stroke-linecap:round; stroke-linejoin:round;">
</g>
<g style="fill:#840000; fill-opacity:0.0; 
stroke:#840000; stroke-width:60; stroke-opacity:1; 
stroke-linecap:round; stroke-linejoin:round;">
<rect x="59800" y="46850" width="600" height="100" rx="0" />
<rect x="59800" y="45850" width="600" height="100" rx="0" />
<rect x="59800" y="45400" width="1000" height="2000" rx="0" />
<path d="M59800 45900
L58300 45900
" />
<path d="M59190 45770
L58900 45770
" />
<path d="M59050 45770
L59050 45270
L59000 45340
L58950 45390
L58900 45410
" />
<path d="M59800 46900
L58300 46900
" />
<path d="M58900 46320
L58930 46300
L58970 46270
L59090 46270
L59140 46300
L59160 46320
L59190 46370
L59190 46410
L59160 46490
L58880 46770
L59190 46770
" />
</g>
<g style="fill:#008484; fill-opacity:0.0; 
stroke:#008484; stroke-width:60; stroke-opacity:1; 
stroke-linecap:round; stroke-linejoin:round;">
<path d="M60810 46310
L60780 46340
L60700 46370
L60640 46370
L60550 46340
L60500 46280
L60470 46220
L60440 46110
L60440 46020
L60470 45910
L60500 45850
L60550 45800
L60640 45770
L60700 45770
L60780 45800
L60810 45820
" />
<path d="M61070 46370
L61070 45770
L61410 46370
L61410 45770
" />
<path d="M62010 46370
L61670 46370
" />
<path d="M61840 46370
L61840 45770
L61780 45850
L61730 45910
L61670 45940
" />
</g>
<g style="fill:#008484; fill-opacity:0.0; 
stroke:#008484; stroke-width:0; stroke-opacity:1; 
stroke-linecap:round; stroke-linejoin:round;">
</g>
<g style="fill:#840000; fill-opacity:0.0; 
stroke:#840000; stroke-width:0; stroke-opacity:1; 
stroke-linecap:round; stroke-linejoin:round;">
</g>
<g style="fill:#840000; fill-opacity:0.0; 
stroke:#840000; stroke-width:100; stroke-opacity:1; 
stroke-linecap:round; stroke-linejoin:round;">
<rect x="51900" y="36900" width="800" height="2000" rx="0" />
</g>
<g style="fill:#840000; fill-opacity:0.0; 
stroke:#840000; stroke-width:60; stroke-opacity:1; 
stroke-linecap:round; stroke-linejoin:round;">
<path d="M52300 36900
L52300 36400
" />
<path d="M52300 38900
L52300 39400
" />
</g>
<g style="fill:#008484; fill-opacity:0.0; 
stroke:#008484; stroke-width:60; stroke-opacity:1; 
stroke-linecap:round; stroke-linejoin:round;">
<path d="M53340 38210
L53100 38370
" />
<path d="M53340 38490
L52840 38490
L52840 38300
L52870 38250
L52890 38230
L52940 38210
L53010 38210
L53060 38230
L53080 38250
L53100 38300
L53100 38490
" />
<path d="M53340 37730
L53340 38020
" />
<path d="M53340 37870
L52840 37870
L52910 37920
L52960 37970
L52980 38020
" />
<path d="M53060 37440
L53030 37490
L53010 37520
L52960 37540
L52940 37540
L52890 37520
L52870 37490
L52840 37440
L52840 37350
L52870 37300
L52890 37280
L52940 37250
L52960 37250
L53010 37280
L53030 37300
L53060 37350
L53060 37440
L53080 37490
L53100 37520
L53150 37540
L53250 37540
L53290 37520
L53320 37490
L53340 37440
L53340 37350
L53320 37300
L53290 37280
L53250 37250
L53150 37250
L53100 37280
L53080 37300
L53060 37350
" />
</g>
<g style="fill:#008484; fill-opacity:0.0; 
stroke:#008484; stroke-width:0; stroke-opacity:1; 
stroke-linecap:round; stroke-linejoin:round;">
</g>
<g style="fill:#840000; fill-opacity:0.0; 
stroke:#840000; stroke-width:0; stroke-opacity:1; 
stroke-linecap:round; stroke-linejoin:round;">
</g>
<g style="fill:#840000; fill-opacity:0.0; 
stroke:#840000; stroke-width:100; stroke-opacity:1; 
stroke-linecap:round; stroke-linejoin:round;">
<rect x="38800" y="42000" width="2000" height="800" rx="0" />
</g>
<g style="fill:#840000; fill-opacity:0.0; 
stroke:#840000; stroke-width:60; stroke-opacity:1; 
stroke-linecap:round; stroke-linejoin:round;">
<path d="M40800 42400
L41300 42400
" />
<path d="M38800 42400
L38300 42400
" />
</g>
<g style="fill:#008484; fill-opacity:0.0; 
stroke:#008484; stroke-width:60; stroke-opacity:1; 
stroke-linecap:round; stroke-linejoin:round;">
<path d="M39470 43440
L39310 43200
" />
<path d="M39190 43440
L39190 42940
L39380 42940
L39430 42970
L39450 42990
L39470 43040
L39470 43110
L39450 43160
L39430 43180
L39380 43200
L39190 43200
" />
<path d="M39950 43440
L39660 43440
" />
<path d="M39810 43440
L39810 42940
L39760 43010
L39710 43060
L39660 43080
" />
<path d="M40120 42940
L40450 42940
L40240 43440
" />
<path d="M38900 42140
L39210 42140
L39050 42330
L39120 42330
L39160 42360
L39190 42380
L39210 42430
L39210 42550
L39190 42590
L39160 42620
L39120 42640
L38970 42640
L38930 42620
L38900 42590
" />
<path d="M39380 42140
L39690 42140
L39520 42330
L39590 42330
L39640 42360
L39660 42380
L39690 42430
L39690 42550
L39660 42590
L39640 42620
L39590 42640
L39450 42640
L39400 42620
L39380 42590
" />
<path d="M40000 42140
L40050 42140
L40090 42170
L40120 42190
L40140 42240
L40160 42330
L40160 42450
L40140 42550
L40120 42590
L40090 42620
L40050 42640
L40000 42640
L39950 42620
L39930 42590
L39900 42550
L39880 42450
L39880 42330
L39900 42240
L39930 42190
L39950 42170
L40000 42140
" />
<path d="M40660 42640
L40500 42400
" />
<path d="M40380 42640
L40380 42140
L40570 42140
L40620 42170
L40640 42190
L40660 42240
L40660 42310
L40640 42360
L40620 42380
L40570 42400
L40380 42400
" />
</g>
<g style="fill:#008484; fill-opacity:0.0; 
stroke:#008484; stroke-width:0; stroke-opacity:1; 
stroke-linecap:round; stroke-linejoin:round;">
</g>
<g style="fill:#840000; fill-opacity:0.0; 
stroke:#840000; stroke-width:0; stroke-opacity:1; 
stroke-linecap:round; stroke-linejoin:round;">
</g>
<g style="fill:#840000; fill-opacity:0.0; 
stroke:#840000; stroke-width:80; stroke-opacity:1; 
stroke-linecap:round; stroke-linejoin:round;">
<polyline fill="none;"
points="55800,43900
57800,43900
" /> 
<polyline fill="none;"
points="55800,42900
57800,42900
" /> 
</g>
<g style="fill:#840000; fill-opacity:0.0; 
stroke:#840000; stroke-width:60; stroke-opacity:1; 
stroke-linecap:round; stroke-linejoin:round;">
<polyline fill="none;"
points="56300,44400
56550,43900
" /> 
</g>
<g style="fill:#840000; fill-opacity:0.0; 
stroke:#840000; stroke-width:80; stroke-opacity:1; 
stroke-linecap:round; stroke-linejoin:round;">
<polyline fill="none;"
points="55800,42900
56300,43900
56800,42900
" /> 
<polyline fill="none;"
points="56800,43900
57300,42900
57800,43900
" /> 
</g>
<g style="fill:#840000; fill-opacity:0.0; 
stroke:#840000; stroke-width:60; stroke-opacity:1; 
stroke-linecap:round; stroke-linejoin:round;">
<path d="M56800 42900
L56800 41900
" />
<path d="M57370 42250
L57370 42540
" />
<path d="M57370 42400
L56870 42400
L56940 42440
L56990 42490
L57010 42540
" />
<path d="M56800 43900
L56800 44900
" />
<path d="M56920 44540
L56900 44510
L56870 44470
L56870 44350
L56900 44300
L56920 44280
L56970 44250
L57010 44250
L57090 44280
L57370 44560
L57370 44250
" />
<path d="M56300 44400
L55300 44400
" />
<path d="M55630 44470
L55940 44470
L55770 44660
L55840 44660
L55890 44690
L55910 44710
L55940 44760
L55940 44880
L55910 44920
L55890 44950
L55840 44970
L55700 44970
L55650 44950
L55630 44920
" />
</g>
<g style="fill:#008484; fill-opacity:0.0; 
stroke:#008484; stroke-width:60; stroke-opacity:1; 
stroke-linecap:round; stroke-linejoin:round;">
<path d="M57370 42640
L57660 42640
" />
<path d="M57520 43140
L57520 42640
" />
<path d="M58110 43140
L57950 42900
" />
<path d="M57830 43140
L57830 42640
L58020 42640
L58060 42670
L58090 42690
L58110 42740
L58110 42810
L58090 42860
L58060 42880
L58020 42900
L57830 42900
" />
<path d="M58590 43140
L58300 43140
" />
<path d="M58450 43140
L58450 42640
L58400 42710
L58350 42760
L58300 42780
" />
</g>
<g style="fill:#008484; fill-opacity:0.0; 
stroke:#008484; stroke-width:0; stroke-opacity:1; 
stroke-linecap:round; stroke-linejoin:round;">
</g>
<g style="fill:#840000; fill-opacity:0.0; 
stroke:#840000; stroke-width:0; stroke-opacity:1; 
stroke-linecap:round; stroke-linejoin:round;">
</g>
<g style="fill:#840000; fill-opacity:0.0; 
stroke:#840000; stroke-width:60; stroke-opacity:1; 
stroke-linecap:round; stroke-linejoin:round;">
<path d="M56799.6 38300 A250 250 0.0 0 0 56799.6 38800 " />
<path d="M56799.6 38800 A250 250 0.0 0 0 56799.6 39300 " />
<path d="M56799.6 39300 A250 250 0.0 0 0 56799.6 39800 " />
<path d="M56799.6 39800 A250 250 0.0 0 0 56799.6 40300 " />
<polyline fill="none;"
points="56400,40300
56400,38300
" /> 
<polyline fill="none;"
points="56200,38300
56200,40300
" /> 
<path d="M56800 40300
L56800 40800
" />
<path d="M56800 38300
L56800 37800
" />
</g>
<g style="fill:#008484; fill-opacity:0.0; 
stroke:#008484; stroke-width:60; stroke-opacity:1; 
stroke-linecap:round; stroke-linejoin:round;">
<path d="M57490 39380
L57490 39620
L56990 39620
" />
<path d="M57490 38950
L57490 39240
" />
<path d="M57490 39090
L56990 39090
L57060 39140
L57110 39190
L57130 39240
" />
</g>
<g style="fill:#008484; fill-opacity:0.0; 
stroke:#008484; stroke-width:0; stroke-opacity:1; 
stroke-linecap:round; stroke-linejoin:round;">
</g>
<g style="fill:#840000; fill-opacity:0.0; 
stroke:#840000; stroke-width:0; stroke-opacity:1; 
stroke-linecap:round; stroke-linejoin:round;">
</g>
<g style="fill:#840000; fill-opacity:0.0; 
stroke:#840000; stroke-width:100; stroke-opacity:1; 
stroke-linecap:round; stroke-linejoin:round;">
<rect x="58300" y="26100" width="2000" height="800" rx="0" />
</g>
<g style="fill:#840000; fill-opacity:0.0; 
stroke:#840000; stroke-width:60; stroke-opacity:1; 
stroke-linecap:round; stroke-linejoin:round;">
<path d="M60300 26500
L60800 26500
" />
<path d="M58300 26500
L57800 26500
" />
</g>
<g style="fill:#008484; fill-opacity:0.0; 
stroke:#008484; stroke-width:60; stroke-opacity:1; 
stroke-linecap:round; stroke-linejoin:round;">
<path d="M58970 27540
L58810 27300
" />
<path d="M58690 27540
L58690 27040
L58880 27040
L58930 27070
L58950 27090
L58970 27140
L58970 27210
L58950 27260
L58930 27280
L58880 27300
L58690 27300
" />
<path d="M59450 27540
L59160 27540
" />
<path d="M59310 27540
L59310 27040
L59260 27110
L59210 27160
L59160 27180
" />
<path d="M59690 27540
L59780 27540
L59830 27520
L59850 27490
L59900 27420
L59930 27330
L59930 27140
L59900 27090
L59880 27070
L59830 27040
L59740 27040
L59690 27070
L59660 27090
L59640 27140
L59640 27260
L59660 27300
L59690 27330
L59740 27350
L59830 27350
L59880 27330
L59900 27300
L59930 27260
" />
<path d="M58930 26240
L58690 26240
L58660 26480
L58690 26460
L58740 26430
L58850 26430
L58900 26460
L58930 26480
L58950 26530
L58950 26650
L58930 26690
L58900 26720
L58850 26740
L58740 26740
L58690 26720
L58660 26690
" />
<path d="M59380 26240
L59280 26240
L59240 26270
L59210 26290
L59160 26360
L59140 26460
L59140 26650
L59160 26690
L59190 26720
L59240 26740
L59330 26740
L59380 26720
L59400 26690
L59430 26650
L59430 26530
L59400 26480
L59380 26460
L59330 26430
L59240 26430
L59190 26460
L59160 26480
L59140 26530
" />
<path d="M59640 26740
L59640 26240
" />
<path d="M59930 26740
L59710 26460
" />
<path d="M59930 26240
L59640 26530
" />
</g>
<g style="fill:#008484; fill-opacity:0.0; 
stroke:#008484; stroke-width:0; stroke-opacity:1; 
stroke-linecap:round; stroke-linejoin:round;">
</g>
<g style="fill:#840000; fill-opacity:0.0; 
stroke:#840000; stroke-width:0; stroke-opacity:1; 
stroke-linecap:round; stroke-linejoin:round;">
</g>
<g style="fill:#840000; fill-opacity:0.0; 
stroke:#840000; stroke-width:60; stroke-opacity:1; 
stroke-linecap:round; stroke-linejoin:round;">
<polyline fill="none;"
points="49300,28500
49800,28000
" /> 
<polyline fill="none;"
points="51800,28000
52300,28500
" /> 
<polyline fill="none;"
points="51300,26500
51800,26000
" /> 
<polyline fill="none;"
points="50300,26500
49800,26000
" /> 
<polyline fill="none;"
points="49800,29000
50300,28500
49550,28250
49800,29000
" /> 
<polyline fill="none;"
points="51300,28500
51800,29000
52050,28250
51300,28500
" /> 
<polyline fill="none;"
points="49800,27000
49300,26500
50050,26250
49800,27000
" /> 
<polyline fill="none;"
points="51550,26250
51800,27000
52300,26500
51550,26250
" /> 
<polyline fill="none;"
points="50800,29500
52800,27500
50800,25500
48800,27500
50800,29500
" /> 
<path d="M50800 25500
L50800 24500
" />
</g>
<g style="fill:#008484; fill-opacity:0.0; 
stroke:#008484; stroke-width:60; stroke-opacity:1; 
stroke-linecap:round; stroke-linejoin:round;">
<path d="M50830 26520
L50830 26140
" />
<path d="M51020 26330
L50640 26330
" />
</g>
<g style="fill:#840000; fill-opacity:0.0; 
stroke:#840000; stroke-width:60; stroke-opacity:1; 
stroke-linecap:round; stroke-linejoin:round;">
<path d="M50670 24850
L50670 25140
" />
<path d="M50670 25000
L50170 25000
L50240 25040
L50290 25090
L50310 25140
" />
<path d="M48800 27500
L47800 27500
" />
<path d="M48150 26920
L48180 26900
L48220 26870
L48340 26870
L48390 26900
L48410 26920
L48440 26970
L48440 27010
L48410 27090
L48130 27370
L48440 27370
" />
<path d="M52800 27500
L53800 27500
" />
<path d="M53130 26870
L53440 26870
L53270 27060
L53340 27060
L53390 27090
L53410 27110
L53440 27160
L53440 27280
L53410 27320
L53390 27350
L53340 27370
L53200 27370
L53150 27350
L53130 27320
" />
<path d="M50800 29500
L50800 30500
" />
</g>
<g style="fill:#008484; fill-opacity:0.0; 
stroke:#008484; stroke-width:60; stroke-opacity:1; 
stroke-linecap:round; stroke-linejoin:round;">
<path d="M50830 28850
L50830 28470
" />
</g>
<g style="fill:#840000; fill-opacity:0.0; 
stroke:#840000; stroke-width:60; stroke-opacity:1; 
stroke-linecap:round; stroke-linejoin:round;">
<path d="M50340 29900
L50670 29900
" />
<path d="M50150 30020
L50500 30140
L50500 29830
" />
</g>
<g style="fill:#008484; fill-opacity:0.0; 
stroke:#008484; stroke-width:60; stroke-opacity:1; 
stroke-linecap:round; stroke-linejoin:round;">
<path d="M47680 24190
L47680 23690
L47870 23690
L47910 23720
L47940 23740
L47960 23790
L47960 23860
L47940 23910
L47910 23930
L47870 23950
L47680 23950
" />
<path d="M48460 24190
L48300 23950
" />
<path d="M48180 24190
L48180 23690
L48370 23690
L48410 23720
L48440 23740
L48460 23790
L48460 23860
L48440 23910
L48410 23930
L48370 23950
L48180 23950
" />
<path d="M48940 24190
L48650 24190
" />
<path d="M48800 24190
L48800 23690
L48750 23760
L48700 23810
L48650 23830
" />
<path d="M51040 29990
L51040 29490
L51230 29490
L51280 29520
L51300 29540
L51330 29590
L51330 29660
L51300 29710
L51280 29730
L51230 29750
L51040 29750
" />
<path d="M51610 29990
L51570 29970
L51540 29940
L51520 29900
L51520 29750
L51540 29710
L51570 29680
L51610 29660
L51690 29660
L51730 29680
L51760 29710
L51780 29750
L51780 29900
L51760 29940
L51730 29970
L51690 29990
L51610 29990
" />
<path d="M52000 29660
L52000 29990
" />
<path d="M52000 29710
L52020 29680
L52070 29660
L52140 29660
L52190 29680
L52210 29730
L52210 29990
" />
<path d="M52380 29660
L52570 29660
" />
<path d="M52450 29490
L52450 29920
L52470 29970
L52520 29990
L52570 29990
" />
<path d="M53020 29990
L52850 29750
" />
<path d="M52730 29990
L52730 29490
L52920 29490
L52970 29520
L53000 29540
L53020 29590
L53020 29660
L53000 29710
L52970 29730
L52920 29750
L52730 29750
" />
<path d="M53450 29990
L53450 29730
L53420 29680
L53380 29660
L53280 29660
L53230 29680
" />
<path d="M53450 29970
L53400 29990
L53280 29990
L53230 29970
L53210 29920
L53210 29870
L53230 29820
L53280 29800
L53400 29800
L53450 29780
" />
<path d="M53900 29990
L53900 29490
" />
<path d="M53900 29970
L53850 29990
L53760 29990
L53710 29970
L53690 29940
L53660 29900
L53660 29750
L53690 29710
L53710 29680
L53760 29660
L53850 29660
L53900 29680
" />
<path d="M54350 29990
L54350 29490
" />
<path d="M54350 29970
L54300 29990
L54210 29990
L54160 29970
L54140 29940
L54110 29900
L54110 29750
L54140 29710
L54160 29680
L54210 29660
L54300 29660
L54350 29680
" />
<path d="M54590 29990
L54590 29660
" />
<path d="M54590 29750
L54610 29710
L54640 29680
L54690 29660
L54730 29660
" />
<path d="M55260 29540
L55280 29520
L55330 29490
L55450 29490
L55500 29520
L55520 29540
L55540 29590
L55540 29630
L55520 29710
L55230 29990
L55540 29990
" />
<path d="M55730 29850
L55970 29850
" />
<path d="M55690 29990
L55850 29490
L56020 29990
" />
</g>
<g style="fill:#008484; fill-opacity:0.0; 
stroke:#008484; stroke-width:0; stroke-opacity:1; 
stroke-linecap:round; stroke-linejoin:round;">
</g>
<g style="fill:#840000; fill-opacity:0.0; 
stroke:#840000; stroke-width:0; stroke-opacity:1; 
stroke-linecap:round; stroke-linejoin:round;">
</g>
<g style="fill:#840000; fill-opacity:0.0; 
stroke:#840000; stroke-width:60; stroke-opacity:1; 
stroke-linecap:round; stroke-linejoin:round;">
<polyline fill="none;"
points="41300,44400
40800,44400
40800,44900
40300,44400
40800,43900
40800,44400
" /> 
</g>
<g style="fill:#008484; fill-opacity:0.0; 
stroke:#008484; stroke-width:60; stroke-opacity:1; 
stroke-linecap:round; stroke-linejoin:round;">
<path d="M39520 44780
L39490 44820
L39490 44900
L39520 44970
L39560 45010
L39610 45040
L39710 45060
L39780 45060
L39870 45040
L39920 45010
L39970 44970
L39990 44900
L39990 44850
L39970 44780
L39940 44750
L39780 44750
L39780 44850
" />
<path d="M39990 44540
L39490 44540
L39990 44250
L39490 44250
" />
<path d="M39990 44010
L39490 44010
L39490 43900
L39520 43820
L39560 43780
L39610 43750
L39710 43730
L39780 43730
L39870 43750
L39920 43780
L39970 43820
L39990 43900
L39990 44010
" />
</g>
<g style="fill:#0000BF; fill-opacity:0.0; 
stroke:#0000BF; stroke-width:60; stroke-opacity:1; 
stroke-linecap:round; stroke-linejoin:round;">
<path d="M55810 32310
L55780 32340
L55700 32370
L55640 32370
L55550 32340
L55500 32280
L55470 32220
L55440 32110
L55440 32020
L55470 31910
L55500 31850
L55550 31800
L55640 31770
L55700 31770
L55780 31800
L55810 31820
" />
<path d="M56150 32370
L56100 32340
L56070 32310
L56040 32250
L56040 32080
L56070 32020
L56100 32000
L56150 31970
L56240 31970
L56300 32000
L56330 32020
L56350 32080
L56350 32250
L56330 32310
L56300 32340
L56240 32370
L56150 32370
" />
<path d="M56610 31970
L56610 32370
" />
<path d="M56610 32020
L56640 32000
L56700 31970
L56780 31970
L56840 32000
L56870 32050
L56870 32370
" />
<path d="M57070 31970
L57300 31970
" />
<path d="M57150 31770
L57150 32280
L57180 32340
L57240 32370
L57300 32370
" />
<path d="M57500 32370
L57500 31970
" />
<path d="M57500 32080
L57530 32020
L57550 32000
L57610 31970
L57670 31970
" />
<path d="M57950 32370
L57900 32340
L57870 32310
L57840 32250
L57840 32080
L57870 32020
L57900 32000
L57950 31970
L58040 31970
L58100 32000
L58130 32020
L58150 32080
L58150 32250
L58130 32310
L58100 32340
L58040 32370
L57950 32370
" />
<path d="M58500 32370
L58440 32340
L58410 32280
L58410 31770
" />
<path d="M58810 32370
L58750 32340
L58730 32280
L58730 31770
" />
<path d="M59130 32370
L59070 32340
L59040 32310
L59010 32250
L59010 32080
L59040 32020
L59070 32000
L59130 31970
L59210 31970
L59270 32000
L59300 32020
L59330 32080
L59330 32250
L59300 32310
L59270 32340
L59210 32370
L59130 32370
" />
<path d="M60240 32050
L60040 32050
" />
<path d="M60040 32370
L60040 31770
L60330 31770
" />
<path d="M60810 32370
L60810 32050
L60780 32000
L60730 31970
L60610 31970
L60550 32000
" />
<path d="M60810 32340
L60750 32370
L60610 32370
L60550 32340
L60530 32280
L60530 32220
L60550 32170
L60610 32140
L60750 32140
L60810 32110
" />
<path d="M61070 32340
L61130 32370
L61240 32370
L61300 32340
L61330 32280
L61330 32250
L61300 32200
L61240 32170
L61150 32170
L61100 32140
L61070 32080
L61070 32050
L61100 32000
L61150 31970
L61240 31970
L61300 32000
" />
<path d="M61810 32340
L61750 32370
L61640 32370
L61580 32340
L61550 32280
L61550 32050
L61580 32000
L61640 31970
L61750 31970
L61810 32000
L61840 32050
L61840 32110
L61550 32170
" />
</g> 
</svg>
