%TF.GenerationSoftware,KiCad,Pcbnew,4.0.5+dfsg1-4*%
%TF.CreationDate,2018-12-31T14:04:09+01:00*%
%TF.ProjectId,HotAirGun,486F7441697247756E2E6B696361645F,rev?*%
%TF.FileFunction,Legend,Bot*%
%FSLAX46Y46*%
G04 Gerber Fmt 4.6, Leading zero omitted, Abs format (unit mm)*
G04 Created by KiCad (PCBNEW 4.0.5+dfsg1-4) date Mon Dec 31 14:04:09 2018*
%MOMM*%
%LPD*%
G01*
G04 APERTURE LIST*
%ADD10C,0.100000*%
%ADD11C,0.150000*%
%ADD12C,0.010000*%
G04 APERTURE END LIST*
D10*
D11*
X183650000Y-111419000D02*
X184650000Y-111419000D01*
X184650000Y-110069000D02*
X183650000Y-110069000D01*
X183650000Y-113959000D02*
X184650000Y-113959000D01*
X184650000Y-112609000D02*
X183650000Y-112609000D01*
X183650000Y-116499000D02*
X184650000Y-116499000D01*
X184650000Y-115149000D02*
X183650000Y-115149000D01*
X205065000Y-77097000D02*
X205065000Y-78097000D01*
X206415000Y-78097000D02*
X206415000Y-77097000D01*
X204970000Y-94829000D02*
X203970000Y-94829000D01*
X203970000Y-96179000D02*
X204970000Y-96179000D01*
X185319000Y-121539000D02*
X185319000Y-119989000D01*
X183769000Y-119989000D02*
X185319000Y-119989000D01*
X185039000Y-122809000D02*
X182499000Y-122809000D01*
X182499000Y-122809000D02*
X182499000Y-120269000D01*
X182499000Y-120269000D02*
X179959000Y-120269000D01*
X179959000Y-120269000D02*
X179959000Y-125349000D01*
X179959000Y-125349000D02*
X185039000Y-125349000D01*
X185039000Y-125349000D02*
X185039000Y-122809000D01*
X193294000Y-70104000D02*
X193294000Y-82804000D01*
X193294000Y-82804000D02*
X195834000Y-82804000D01*
X195834000Y-82804000D02*
X195834000Y-70104000D01*
X193014000Y-67284000D02*
X193014000Y-68834000D01*
X193294000Y-70104000D02*
X195834000Y-70104000D01*
X196114000Y-68834000D02*
X196114000Y-67284000D01*
X196114000Y-67284000D02*
X193014000Y-67284000D01*
X195580000Y-112014000D02*
X195580000Y-117094000D01*
X195860000Y-109194000D02*
X194310000Y-109194000D01*
X193040000Y-109474000D02*
X193040000Y-112014000D01*
X193040000Y-112014000D02*
X195580000Y-112014000D01*
X195580000Y-117094000D02*
X190500000Y-117094000D01*
X190500000Y-117094000D02*
X190500000Y-112014000D01*
X195860000Y-109194000D02*
X195860000Y-110744000D01*
X190500000Y-109474000D02*
X193040000Y-109474000D01*
X190500000Y-112014000D02*
X190500000Y-109474000D01*
X186944904Y-130484112D02*
G75*
G02X183920000Y-130469000I-1524904J-2484888D01*
G01*
X186920000Y-130469000D02*
X183920000Y-130469000D01*
X187937936Y-132969000D02*
G75*
G03X187937936Y-132969000I-2517936J0D01*
G01*
X174617000Y-82129000D02*
X173617000Y-82129000D01*
X173617000Y-83479000D02*
X174617000Y-83479000D01*
D12*
G36*
X202623246Y-106872976D02*
X202631299Y-106974911D01*
X202653074Y-107194764D01*
X202679103Y-107417699D01*
X202706129Y-107617768D01*
X202730898Y-107769020D01*
X202731053Y-107769835D01*
X202757444Y-107918211D01*
X202766977Y-108012079D01*
X202759586Y-108070178D01*
X202735207Y-108111249D01*
X202729848Y-108117357D01*
X202674996Y-108226615D01*
X202681613Y-108346349D01*
X202742803Y-108455840D01*
X202851666Y-108534371D01*
X202871228Y-108542039D01*
X202926939Y-108590614D01*
X202936983Y-108626613D01*
X202952151Y-108701808D01*
X202988921Y-108800516D01*
X202991539Y-108806269D01*
X203030989Y-108897174D01*
X203086908Y-109032565D01*
X203148750Y-109186804D01*
X203163883Y-109225261D01*
X203225391Y-109367556D01*
X203310701Y-109545202D01*
X203411379Y-109742614D01*
X203518993Y-109944205D01*
X203625107Y-110134391D01*
X203721290Y-110297585D01*
X203799108Y-110418202D01*
X203834810Y-110465202D01*
X203906124Y-110556705D01*
X203959074Y-110634284D01*
X204009412Y-110704592D01*
X204094045Y-110813080D01*
X204198197Y-110941016D01*
X204247106Y-110999479D01*
X204356108Y-111132407D01*
X204422107Y-111225627D01*
X204453373Y-111294370D01*
X204458176Y-111353866D01*
X204454105Y-111380698D01*
X204462838Y-111500070D01*
X204532952Y-111591089D01*
X204652539Y-111642018D01*
X204726037Y-111648781D01*
X204816529Y-111660616D01*
X204909265Y-111703186D01*
X205024870Y-111787090D01*
X205073597Y-111827377D01*
X205518288Y-112172110D01*
X205996738Y-112487935D01*
X206490737Y-112764371D01*
X206982075Y-112990941D01*
X207303446Y-113110538D01*
X207441313Y-113161621D01*
X207525968Y-113210099D01*
X207577545Y-113269713D01*
X207599171Y-113312371D01*
X207655183Y-113401622D01*
X207736444Y-113439772D01*
X207778145Y-113445581D01*
X207908379Y-113431861D01*
X207973926Y-113394131D01*
X208063520Y-113349442D01*
X208167675Y-113353870D01*
X208598082Y-113420864D01*
X209045497Y-113465157D01*
X209495328Y-113486812D01*
X209932982Y-113485890D01*
X210343867Y-113462454D01*
X210713390Y-113416566D01*
X211026959Y-113348286D01*
X211049972Y-113341627D01*
X211141998Y-113321866D01*
X211196482Y-113338727D01*
X211232018Y-113380025D01*
X211294676Y-113434013D01*
X211392297Y-113446880D01*
X211422875Y-113444994D01*
X211525727Y-113423305D01*
X211588376Y-113365192D01*
X211616568Y-113312266D01*
X211661032Y-113240090D01*
X211728105Y-113186170D01*
X211838021Y-113136821D01*
X211917160Y-113108983D01*
X212301235Y-112960588D01*
X212708637Y-112768638D01*
X213120520Y-112544197D01*
X213518036Y-112298327D01*
X213882338Y-112042091D01*
X214194577Y-111786553D01*
X214238376Y-111746534D01*
X214340025Y-111668863D01*
X214435493Y-111641911D01*
X214489350Y-111643069D01*
X214621952Y-111625681D01*
X214717518Y-111557522D01*
X214761845Y-111452431D01*
X214758617Y-111380698D01*
X214754518Y-111320209D01*
X214773414Y-111256973D01*
X214823567Y-111175665D01*
X214913237Y-111060962D01*
X214963566Y-111000455D01*
X215092045Y-110839640D01*
X215234759Y-110648922D01*
X215366461Y-110462342D01*
X215401663Y-110409816D01*
X215498463Y-110263080D01*
X215586285Y-110130170D01*
X215652625Y-110030000D01*
X215676549Y-109994030D01*
X215726236Y-109908685D01*
X215790288Y-109784380D01*
X215842493Y-109674651D01*
X215915290Y-109516294D01*
X215992945Y-109349075D01*
X216036899Y-109255355D01*
X216100118Y-109110134D01*
X216168042Y-108937081D01*
X216212237Y-108813519D01*
X216264552Y-108673790D01*
X216314552Y-108586210D01*
X216376727Y-108529685D01*
X216426464Y-108501620D01*
X216534560Y-108418865D01*
X216570448Y-108315960D01*
X216533596Y-108195337D01*
X216503574Y-108149600D01*
X216461704Y-108087152D01*
X216443644Y-108030464D01*
X216447678Y-107954994D01*
X216472089Y-107836200D01*
X216479435Y-107804353D01*
X216546263Y-107433157D01*
X216588763Y-107013989D01*
X216606101Y-106570261D01*
X216597444Y-106125382D01*
X216561956Y-105702763D01*
X216555997Y-105655734D01*
X216530055Y-105474141D01*
X216501819Y-105301013D01*
X216475743Y-105162789D01*
X216464860Y-105114842D01*
X216442673Y-105006847D01*
X216448870Y-104939240D01*
X216487812Y-104881203D01*
X216499767Y-104868189D01*
X216566159Y-104753372D01*
X216564191Y-104637796D01*
X216498461Y-104538722D01*
X216396550Y-104480604D01*
X216332101Y-104442221D01*
X216332101Y-104584876D01*
X216399234Y-104597008D01*
X216423793Y-104648580D01*
X216426036Y-104697598D01*
X216415926Y-104778157D01*
X216372950Y-104807628D01*
X216332101Y-104810320D01*
X216264968Y-104798188D01*
X216240409Y-104746616D01*
X216238166Y-104697598D01*
X216248276Y-104617039D01*
X216291252Y-104587568D01*
X216332101Y-104584876D01*
X216332101Y-104442221D01*
X216317661Y-104433620D01*
X216264457Y-104345521D01*
X216242164Y-104279389D01*
X216188470Y-104122397D01*
X216110415Y-103928832D01*
X216013814Y-103710091D01*
X215904483Y-103477568D01*
X215788237Y-103242658D01*
X215670890Y-103016758D01*
X215558258Y-102811263D01*
X215456155Y-102637569D01*
X215370397Y-102507071D01*
X215306798Y-102431164D01*
X215294080Y-102421445D01*
X215248332Y-102374327D01*
X215192583Y-102294500D01*
X215192060Y-102293640D01*
X215135658Y-102213310D01*
X215047576Y-102101077D01*
X214946543Y-101980774D01*
X214943173Y-101976906D01*
X214840743Y-101851605D01*
X214782585Y-101755714D01*
X214757465Y-101667980D01*
X214753729Y-101618495D01*
X214731330Y-101473210D01*
X214668917Y-101388489D01*
X214560289Y-101357789D01*
X214545479Y-101358064D01*
X214545479Y-101454191D01*
X214604488Y-101491181D01*
X214650646Y-101573318D01*
X214632292Y-101644955D01*
X214555217Y-101684961D01*
X214551203Y-101685575D01*
X214459459Y-101672305D01*
X214418618Y-101607019D01*
X214424137Y-101539825D01*
X214471786Y-101465066D01*
X214545479Y-101454191D01*
X214545479Y-101358064D01*
X214507713Y-101358768D01*
X214427022Y-101357226D01*
X214352813Y-101332779D01*
X214264885Y-101275335D01*
X214147957Y-101179040D01*
X214004212Y-101059485D01*
X213848236Y-100938894D01*
X213664224Y-100805568D01*
X213436375Y-100647807D01*
X213363536Y-100598317D01*
X213206320Y-100501302D01*
X212998302Y-100386519D01*
X212758681Y-100263529D01*
X212506656Y-100141894D01*
X212261427Y-100031175D01*
X212047742Y-99943069D01*
X211862313Y-99867538D01*
X211734883Y-99804750D01*
X211651270Y-99746543D01*
X211597292Y-99684753D01*
X211596263Y-99683187D01*
X211497921Y-99584331D01*
X211428433Y-99568291D01*
X211428433Y-99664069D01*
X211497021Y-99685099D01*
X211516536Y-99709654D01*
X211535736Y-99782898D01*
X211508707Y-99838762D01*
X211482450Y-99866585D01*
X211414377Y-99905004D01*
X211350941Y-99886734D01*
X211289868Y-99838587D01*
X211284681Y-99773035D01*
X211301210Y-99722121D01*
X211350770Y-99677127D01*
X211428433Y-99664069D01*
X211428433Y-99568291D01*
X211382758Y-99557747D01*
X211256694Y-99604787D01*
X211255656Y-99605465D01*
X211208744Y-99631754D01*
X211156698Y-99645274D01*
X211083258Y-99645823D01*
X210972165Y-99633199D01*
X210807160Y-99607202D01*
X210759973Y-99599326D01*
X210507763Y-99567521D01*
X210202225Y-99545550D01*
X209862986Y-99533403D01*
X209509672Y-99531069D01*
X209462232Y-99532088D01*
X209462232Y-99592515D01*
X209750874Y-99598342D01*
X209813018Y-99600131D01*
X210054392Y-99609011D01*
X210282866Y-99620502D01*
X210482813Y-99633583D01*
X210638610Y-99647234D01*
X210733580Y-99660221D01*
X210872029Y-99687693D01*
X211001828Y-99712326D01*
X211043565Y-99719851D01*
X211126645Y-99747973D01*
X211165324Y-99787807D01*
X211165681Y-99791736D01*
X211187821Y-99856274D01*
X211233706Y-99926239D01*
X211332616Y-99995143D01*
X211452816Y-100004601D01*
X211568155Y-99953449D01*
X211582028Y-99941746D01*
X211631293Y-99902818D01*
X211679011Y-99892285D01*
X211751287Y-99910043D01*
X211834407Y-99940756D01*
X211966396Y-99988978D01*
X212091009Y-100031026D01*
X212129764Y-100042948D01*
X212214000Y-100075528D01*
X212348341Y-100136426D01*
X212517085Y-100217678D01*
X212704529Y-100311317D01*
X212894968Y-100409380D01*
X213072701Y-100503902D01*
X213222024Y-100586919D01*
X213326184Y-100649776D01*
X213657154Y-100879005D01*
X214014709Y-101151787D01*
X214073583Y-101198752D01*
X214195947Y-101299397D01*
X214268757Y-101369284D01*
X214302541Y-101422792D01*
X214307827Y-101474298D01*
X214301690Y-101510264D01*
X214307396Y-101647613D01*
X214339985Y-101714679D01*
X214399436Y-101780013D01*
X214479496Y-101801381D01*
X214541561Y-101799715D01*
X214623034Y-101800329D01*
X214689625Y-101824201D01*
X214762821Y-101883564D01*
X214850337Y-101975507D01*
X214960983Y-102103822D01*
X215084217Y-102258101D01*
X215211305Y-102426005D01*
X215333512Y-102595194D01*
X215442103Y-102753327D01*
X215528342Y-102888066D01*
X215583495Y-102987070D01*
X215599409Y-103033702D01*
X215619061Y-103073151D01*
X215667301Y-103146746D01*
X215676644Y-103159997D01*
X215731670Y-103252665D01*
X215805202Y-103397596D01*
X215889207Y-103576746D01*
X215975651Y-103772072D01*
X216056502Y-103965531D01*
X216123726Y-104139079D01*
X216161647Y-104249379D01*
X216197040Y-104368831D01*
X216208396Y-104441501D01*
X216195373Y-104491921D01*
X216157632Y-104544624D01*
X216157537Y-104544740D01*
X216106343Y-104628224D01*
X216087870Y-104693400D01*
X216114246Y-104787129D01*
X216177853Y-104872103D01*
X216255415Y-104920081D01*
X216277155Y-104923042D01*
X216310373Y-104926345D01*
X216336507Y-104943417D01*
X216358957Y-104985002D01*
X216381126Y-105061845D01*
X216406415Y-105184690D01*
X216438227Y-105364282D01*
X216462818Y-105509430D01*
X216514663Y-105939250D01*
X216535286Y-106407529D01*
X216524690Y-106884371D01*
X216482879Y-107339883D01*
X216462614Y-107478071D01*
X216425902Y-107701660D01*
X216397531Y-107861630D01*
X216374234Y-107968610D01*
X216352745Y-108033226D01*
X216329796Y-108066108D01*
X216309186Y-108074875D01*
X216309186Y-108173059D01*
X216365318Y-108176717D01*
X216415822Y-108228117D01*
X216421009Y-108304546D01*
X216386400Y-108375692D01*
X216322708Y-108410640D01*
X216257689Y-108404351D01*
X216238843Y-108346733D01*
X216238741Y-108335492D01*
X216257945Y-108225630D01*
X216309186Y-108173059D01*
X216309186Y-108074875D01*
X216302120Y-108077881D01*
X216277809Y-108079255D01*
X216188676Y-108111378D01*
X216127757Y-108191532D01*
X216102966Y-108295393D01*
X216122216Y-108398637D01*
X216157389Y-108449365D01*
X216191598Y-108492208D01*
X216208394Y-108543490D01*
X216205331Y-108613651D01*
X216179966Y-108713127D01*
X216129854Y-108852357D01*
X216052553Y-109041779D01*
X215977399Y-109218098D01*
X215732197Y-109730546D01*
X215448965Y-110221682D01*
X215139134Y-110673244D01*
X214833563Y-111045633D01*
X214741454Y-111140731D01*
X214671024Y-111189293D01*
X214598122Y-111204340D01*
X214549265Y-111202850D01*
X214549265Y-111298891D01*
X214594561Y-111315780D01*
X214651636Y-111377553D01*
X214650322Y-111450954D01*
X214597444Y-111510264D01*
X214537944Y-111529162D01*
X214459931Y-111524724D01*
X214429317Y-111477683D01*
X214433919Y-111385764D01*
X214472990Y-111312849D01*
X214549265Y-111298891D01*
X214549265Y-111202850D01*
X214542341Y-111202638D01*
X214437923Y-111206196D01*
X214371814Y-111245840D01*
X214339163Y-111288871D01*
X214294542Y-111415344D01*
X214300750Y-111483686D01*
X214305722Y-111530627D01*
X214291415Y-111579255D01*
X214250584Y-111637064D01*
X214175984Y-111711552D01*
X214060371Y-111810215D01*
X213896500Y-111940551D01*
X213748410Y-112055252D01*
X213377972Y-112313800D01*
X212950991Y-112565377D01*
X212486014Y-112800082D01*
X212001589Y-113008013D01*
X211869310Y-113058485D01*
X211759342Y-113096205D01*
X211687735Y-113105831D01*
X211623195Y-113087464D01*
X211568183Y-113059473D01*
X211434836Y-113012514D01*
X211434836Y-113113508D01*
X211509030Y-113133222D01*
X211517670Y-113140514D01*
X211535547Y-113203637D01*
X211501166Y-113277719D01*
X211457584Y-113316159D01*
X211383436Y-113327817D01*
X211320309Y-113287295D01*
X211292862Y-113216312D01*
X211299829Y-113177198D01*
X211351692Y-113130425D01*
X211434836Y-113113508D01*
X211434836Y-113012514D01*
X211422417Y-113008140D01*
X211304970Y-113025336D01*
X211217943Y-113110609D01*
X211203255Y-113138111D01*
X211169994Y-113196623D01*
X211125902Y-113237057D01*
X211053616Y-113267788D01*
X210935778Y-113297190D01*
X210827515Y-113319360D01*
X210303002Y-113396762D01*
X209748987Y-113430081D01*
X209191033Y-113419343D01*
X208654699Y-113364573D01*
X208384177Y-113316927D01*
X208227314Y-113282560D01*
X208127212Y-113252524D01*
X208066566Y-113218462D01*
X208028067Y-113172017D01*
X208008863Y-113135690D01*
X207945859Y-113047494D01*
X207852608Y-113011244D01*
X207827477Y-113008195D01*
X207794053Y-113011454D01*
X207794053Y-113114166D01*
X207890381Y-113130107D01*
X207927998Y-113185058D01*
X207926511Y-113244129D01*
X207890646Y-113306144D01*
X207821598Y-113320823D01*
X207749335Y-113304301D01*
X207719036Y-113240424D01*
X207715774Y-113217494D01*
X207717465Y-113142296D01*
X207758735Y-113116066D01*
X207794053Y-113114166D01*
X207794053Y-113011454D01*
X207700994Y-113020530D01*
X207633939Y-113057614D01*
X207557553Y-113091437D01*
X207441399Y-113085495D01*
X207278449Y-113038433D01*
X207061677Y-112948898D01*
X207055735Y-112946207D01*
X206918178Y-112883917D01*
X206750980Y-112808364D01*
X206608738Y-112744200D01*
X206280049Y-112578596D01*
X205927717Y-112370577D01*
X205575775Y-112135816D01*
X205248253Y-111889989D01*
X205069837Y-111740516D01*
X204972278Y-111648099D01*
X204924136Y-111580011D01*
X204913725Y-111516834D01*
X204917681Y-111487680D01*
X204908583Y-111364655D01*
X204873784Y-111289215D01*
X204818503Y-111225581D01*
X204746710Y-111202079D01*
X204704886Y-111202747D01*
X204704886Y-111298891D01*
X204750182Y-111315780D01*
X204807257Y-111377553D01*
X204805944Y-111450954D01*
X204753065Y-111510264D01*
X204693565Y-111529162D01*
X204615553Y-111524724D01*
X204584938Y-111477683D01*
X204589541Y-111385764D01*
X204628611Y-111312849D01*
X204704886Y-111298891D01*
X204704886Y-111202747D01*
X204658629Y-111203487D01*
X204578703Y-111205442D01*
X204517898Y-111189655D01*
X204457780Y-111144361D01*
X204379916Y-111057796D01*
X204324304Y-110990120D01*
X203962937Y-110514137D01*
X203649922Y-110035807D01*
X203392261Y-109566638D01*
X203216441Y-109169386D01*
X203153148Y-109007540D01*
X203092789Y-108855492D01*
X203045642Y-108739060D01*
X203034521Y-108712347D01*
X203000187Y-108619005D01*
X203001149Y-108558226D01*
X203039865Y-108494978D01*
X203050758Y-108480976D01*
X203119488Y-108352107D01*
X203114205Y-108235324D01*
X203035229Y-108131685D01*
X202923582Y-108061102D01*
X202899464Y-108032642D01*
X202899464Y-108159758D01*
X202943819Y-108189158D01*
X202959836Y-108209970D01*
X203003618Y-108279671D01*
X203003256Y-108329913D01*
X202978872Y-108374150D01*
X202919911Y-108412274D01*
X202849620Y-108398532D01*
X202800109Y-108342376D01*
X202794267Y-108319814D01*
X202811886Y-108233468D01*
X202845301Y-108190107D01*
X202899464Y-108159758D01*
X202899464Y-108032642D01*
X202869012Y-107996707D01*
X202821100Y-107867260D01*
X202780313Y-107682602D01*
X202747121Y-107452575D01*
X202721993Y-107187018D01*
X202705399Y-106895772D01*
X202697806Y-106588680D01*
X202699685Y-106275581D01*
X202711504Y-105966316D01*
X202733732Y-105670727D01*
X202766839Y-105398654D01*
X202790120Y-105261208D01*
X202822010Y-105101003D01*
X202847258Y-105001024D01*
X202871502Y-104947359D01*
X202900381Y-104926097D01*
X202927163Y-104923042D01*
X203027636Y-104891790D01*
X203093249Y-104812267D01*
X203117434Y-104705817D01*
X203093625Y-104593787D01*
X203048828Y-104527583D01*
X202972804Y-104446659D01*
X203102618Y-104111847D01*
X203199501Y-103866343D01*
X203282501Y-103668323D01*
X203362421Y-103494298D01*
X203450069Y-103320774D01*
X203556249Y-103124263D01*
X203560226Y-103117057D01*
X203633849Y-102990847D01*
X203729519Y-102836911D01*
X203837565Y-102669675D01*
X203948314Y-102503565D01*
X204052096Y-102353006D01*
X204139238Y-102232426D01*
X204200070Y-102156249D01*
X204213557Y-102142568D01*
X204247681Y-102105590D01*
X204313809Y-102029417D01*
X204375981Y-101956184D01*
X204461878Y-101860615D01*
X204528023Y-101812083D01*
X204599176Y-101797077D01*
X204663740Y-101799179D01*
X204769632Y-101797141D01*
X204835232Y-101762570D01*
X204872738Y-101714679D01*
X204917324Y-101583760D01*
X204911557Y-101512651D01*
X204905661Y-101462563D01*
X204918678Y-101415984D01*
X204960003Y-101361515D01*
X205039031Y-101287756D01*
X205165156Y-101183309D01*
X205218222Y-101140560D01*
X205606736Y-100843053D01*
X205974821Y-100594372D01*
X206344877Y-100381597D01*
X206739303Y-100191806D01*
X207162623Y-100018871D01*
X207338229Y-99952532D01*
X207457274Y-99910785D01*
X207533337Y-99891248D01*
X207579996Y-99891538D01*
X207610830Y-99909272D01*
X207634568Y-99936072D01*
X207721283Y-99993543D01*
X207829464Y-100002460D01*
X207935534Y-99969957D01*
X208015915Y-99903172D01*
X208047042Y-99811232D01*
X208051276Y-99780069D01*
X208071066Y-99755328D01*
X208117038Y-99734009D01*
X208199824Y-99713109D01*
X208330050Y-99689627D01*
X208518346Y-99660560D01*
X208648225Y-99641440D01*
X208837977Y-99617050D01*
X209024450Y-99601207D01*
X209226313Y-99593250D01*
X209462232Y-99592515D01*
X209462232Y-99532088D01*
X209161906Y-99538539D01*
X208839316Y-99555801D01*
X208561525Y-99582846D01*
X208442596Y-99600546D01*
X208270072Y-99629355D01*
X208153341Y-99644246D01*
X208074360Y-99645279D01*
X208015086Y-99632518D01*
X207957475Y-99606025D01*
X207950404Y-99602243D01*
X207811791Y-99558206D01*
X207796549Y-99560770D01*
X207796549Y-99662687D01*
X207875458Y-99672399D01*
X207909271Y-99687736D01*
X207934754Y-99758155D01*
X207912731Y-99838447D01*
X207868565Y-99881731D01*
X207778517Y-99902711D01*
X207723984Y-99858314D01*
X207708876Y-99772278D01*
X207720115Y-99692723D01*
X207765534Y-99664511D01*
X207796549Y-99662687D01*
X207796549Y-99560770D01*
X207692140Y-99578339D01*
X207604866Y-99658972D01*
X207583799Y-99702524D01*
X207508479Y-99807414D01*
X207428013Y-99847106D01*
X207326009Y-99881202D01*
X207183740Y-99934597D01*
X207017404Y-100000527D01*
X206843199Y-100072231D01*
X206677320Y-100142947D01*
X206535965Y-100205914D01*
X206435333Y-100254369D01*
X206394562Y-100278532D01*
X206336767Y-100317606D01*
X206231413Y-100380562D01*
X206097421Y-100456244D01*
X206039708Y-100487762D01*
X205838119Y-100602351D01*
X205652580Y-100721679D01*
X205463570Y-100859593D01*
X205251570Y-101029939D01*
X205124732Y-101136812D01*
X204995049Y-101243506D01*
X204900598Y-101308303D01*
X204822284Y-101341227D01*
X204741014Y-101352302D01*
X204713219Y-101352862D01*
X204673898Y-101360661D01*
X204673898Y-101446364D01*
X204712989Y-101448303D01*
X204753958Y-101485030D01*
X204805033Y-101569866D01*
X204789752Y-101641254D01*
X204712917Y-101682078D01*
X204698044Y-101684320D01*
X204609153Y-101671385D01*
X204574876Y-101615505D01*
X204601097Y-101530938D01*
X204622457Y-101501093D01*
X204673898Y-101446364D01*
X204673898Y-101360661D01*
X204571408Y-101380992D01*
X204480506Y-101458304D01*
X204448139Y-101576211D01*
X204455313Y-101643186D01*
X204458892Y-101703678D01*
X204437142Y-101768135D01*
X204381475Y-101852229D01*
X204283302Y-101971630D01*
X204261371Y-101997025D01*
X204053714Y-102246196D01*
X203875208Y-102484678D01*
X203706125Y-102740324D01*
X203547653Y-103004731D01*
X203451112Y-103181168D01*
X203346457Y-103388567D01*
X203240937Y-103610773D01*
X203141801Y-103831629D01*
X203056298Y-104034977D01*
X202991677Y-104204663D01*
X202955186Y-104324528D01*
X202954869Y-104325960D01*
X202898728Y-104433989D01*
X202888180Y-104440643D01*
X202888180Y-104587317D01*
X202953791Y-104600492D01*
X202979401Y-104628147D01*
X203004414Y-104715624D01*
X202962211Y-104779330D01*
X202886932Y-104803689D01*
X202812331Y-104804311D01*
X202789798Y-104767241D01*
X202793318Y-104710075D01*
X202826774Y-104627329D01*
X202888180Y-104587317D01*
X202888180Y-104440643D01*
X202830939Y-104476758D01*
X202747702Y-104519706D01*
X202703485Y-104559046D01*
X202676290Y-104654553D01*
X202684758Y-104767590D01*
X202725290Y-104856040D01*
X202729234Y-104860221D01*
X202755396Y-104896680D01*
X202765665Y-104949496D01*
X202760128Y-105036241D01*
X202738873Y-105174486D01*
X202731032Y-105219616D01*
X202647131Y-105809300D01*
X202611463Y-106355822D01*
X202623246Y-106872976D01*
X202623246Y-106872976D01*
G37*
X202623246Y-106872976D02*
X202631299Y-106974911D01*
X202653074Y-107194764D01*
X202679103Y-107417699D01*
X202706129Y-107617768D01*
X202730898Y-107769020D01*
X202731053Y-107769835D01*
X202757444Y-107918211D01*
X202766977Y-108012079D01*
X202759586Y-108070178D01*
X202735207Y-108111249D01*
X202729848Y-108117357D01*
X202674996Y-108226615D01*
X202681613Y-108346349D01*
X202742803Y-108455840D01*
X202851666Y-108534371D01*
X202871228Y-108542039D01*
X202926939Y-108590614D01*
X202936983Y-108626613D01*
X202952151Y-108701808D01*
X202988921Y-108800516D01*
X202991539Y-108806269D01*
X203030989Y-108897174D01*
X203086908Y-109032565D01*
X203148750Y-109186804D01*
X203163883Y-109225261D01*
X203225391Y-109367556D01*
X203310701Y-109545202D01*
X203411379Y-109742614D01*
X203518993Y-109944205D01*
X203625107Y-110134391D01*
X203721290Y-110297585D01*
X203799108Y-110418202D01*
X203834810Y-110465202D01*
X203906124Y-110556705D01*
X203959074Y-110634284D01*
X204009412Y-110704592D01*
X204094045Y-110813080D01*
X204198197Y-110941016D01*
X204247106Y-110999479D01*
X204356108Y-111132407D01*
X204422107Y-111225627D01*
X204453373Y-111294370D01*
X204458176Y-111353866D01*
X204454105Y-111380698D01*
X204462838Y-111500070D01*
X204532952Y-111591089D01*
X204652539Y-111642018D01*
X204726037Y-111648781D01*
X204816529Y-111660616D01*
X204909265Y-111703186D01*
X205024870Y-111787090D01*
X205073597Y-111827377D01*
X205518288Y-112172110D01*
X205996738Y-112487935D01*
X206490737Y-112764371D01*
X206982075Y-112990941D01*
X207303446Y-113110538D01*
X207441313Y-113161621D01*
X207525968Y-113210099D01*
X207577545Y-113269713D01*
X207599171Y-113312371D01*
X207655183Y-113401622D01*
X207736444Y-113439772D01*
X207778145Y-113445581D01*
X207908379Y-113431861D01*
X207973926Y-113394131D01*
X208063520Y-113349442D01*
X208167675Y-113353870D01*
X208598082Y-113420864D01*
X209045497Y-113465157D01*
X209495328Y-113486812D01*
X209932982Y-113485890D01*
X210343867Y-113462454D01*
X210713390Y-113416566D01*
X211026959Y-113348286D01*
X211049972Y-113341627D01*
X211141998Y-113321866D01*
X211196482Y-113338727D01*
X211232018Y-113380025D01*
X211294676Y-113434013D01*
X211392297Y-113446880D01*
X211422875Y-113444994D01*
X211525727Y-113423305D01*
X211588376Y-113365192D01*
X211616568Y-113312266D01*
X211661032Y-113240090D01*
X211728105Y-113186170D01*
X211838021Y-113136821D01*
X211917160Y-113108983D01*
X212301235Y-112960588D01*
X212708637Y-112768638D01*
X213120520Y-112544197D01*
X213518036Y-112298327D01*
X213882338Y-112042091D01*
X214194577Y-111786553D01*
X214238376Y-111746534D01*
X214340025Y-111668863D01*
X214435493Y-111641911D01*
X214489350Y-111643069D01*
X214621952Y-111625681D01*
X214717518Y-111557522D01*
X214761845Y-111452431D01*
X214758617Y-111380698D01*
X214754518Y-111320209D01*
X214773414Y-111256973D01*
X214823567Y-111175665D01*
X214913237Y-111060962D01*
X214963566Y-111000455D01*
X215092045Y-110839640D01*
X215234759Y-110648922D01*
X215366461Y-110462342D01*
X215401663Y-110409816D01*
X215498463Y-110263080D01*
X215586285Y-110130170D01*
X215652625Y-110030000D01*
X215676549Y-109994030D01*
X215726236Y-109908685D01*
X215790288Y-109784380D01*
X215842493Y-109674651D01*
X215915290Y-109516294D01*
X215992945Y-109349075D01*
X216036899Y-109255355D01*
X216100118Y-109110134D01*
X216168042Y-108937081D01*
X216212237Y-108813519D01*
X216264552Y-108673790D01*
X216314552Y-108586210D01*
X216376727Y-108529685D01*
X216426464Y-108501620D01*
X216534560Y-108418865D01*
X216570448Y-108315960D01*
X216533596Y-108195337D01*
X216503574Y-108149600D01*
X216461704Y-108087152D01*
X216443644Y-108030464D01*
X216447678Y-107954994D01*
X216472089Y-107836200D01*
X216479435Y-107804353D01*
X216546263Y-107433157D01*
X216588763Y-107013989D01*
X216606101Y-106570261D01*
X216597444Y-106125382D01*
X216561956Y-105702763D01*
X216555997Y-105655734D01*
X216530055Y-105474141D01*
X216501819Y-105301013D01*
X216475743Y-105162789D01*
X216464860Y-105114842D01*
X216442673Y-105006847D01*
X216448870Y-104939240D01*
X216487812Y-104881203D01*
X216499767Y-104868189D01*
X216566159Y-104753372D01*
X216564191Y-104637796D01*
X216498461Y-104538722D01*
X216396550Y-104480604D01*
X216332101Y-104442221D01*
X216332101Y-104584876D01*
X216399234Y-104597008D01*
X216423793Y-104648580D01*
X216426036Y-104697598D01*
X216415926Y-104778157D01*
X216372950Y-104807628D01*
X216332101Y-104810320D01*
X216264968Y-104798188D01*
X216240409Y-104746616D01*
X216238166Y-104697598D01*
X216248276Y-104617039D01*
X216291252Y-104587568D01*
X216332101Y-104584876D01*
X216332101Y-104442221D01*
X216317661Y-104433620D01*
X216264457Y-104345521D01*
X216242164Y-104279389D01*
X216188470Y-104122397D01*
X216110415Y-103928832D01*
X216013814Y-103710091D01*
X215904483Y-103477568D01*
X215788237Y-103242658D01*
X215670890Y-103016758D01*
X215558258Y-102811263D01*
X215456155Y-102637569D01*
X215370397Y-102507071D01*
X215306798Y-102431164D01*
X215294080Y-102421445D01*
X215248332Y-102374327D01*
X215192583Y-102294500D01*
X215192060Y-102293640D01*
X215135658Y-102213310D01*
X215047576Y-102101077D01*
X214946543Y-101980774D01*
X214943173Y-101976906D01*
X214840743Y-101851605D01*
X214782585Y-101755714D01*
X214757465Y-101667980D01*
X214753729Y-101618495D01*
X214731330Y-101473210D01*
X214668917Y-101388489D01*
X214560289Y-101357789D01*
X214545479Y-101358064D01*
X214545479Y-101454191D01*
X214604488Y-101491181D01*
X214650646Y-101573318D01*
X214632292Y-101644955D01*
X214555217Y-101684961D01*
X214551203Y-101685575D01*
X214459459Y-101672305D01*
X214418618Y-101607019D01*
X214424137Y-101539825D01*
X214471786Y-101465066D01*
X214545479Y-101454191D01*
X214545479Y-101358064D01*
X214507713Y-101358768D01*
X214427022Y-101357226D01*
X214352813Y-101332779D01*
X214264885Y-101275335D01*
X214147957Y-101179040D01*
X214004212Y-101059485D01*
X213848236Y-100938894D01*
X213664224Y-100805568D01*
X213436375Y-100647807D01*
X213363536Y-100598317D01*
X213206320Y-100501302D01*
X212998302Y-100386519D01*
X212758681Y-100263529D01*
X212506656Y-100141894D01*
X212261427Y-100031175D01*
X212047742Y-99943069D01*
X211862313Y-99867538D01*
X211734883Y-99804750D01*
X211651270Y-99746543D01*
X211597292Y-99684753D01*
X211596263Y-99683187D01*
X211497921Y-99584331D01*
X211428433Y-99568291D01*
X211428433Y-99664069D01*
X211497021Y-99685099D01*
X211516536Y-99709654D01*
X211535736Y-99782898D01*
X211508707Y-99838762D01*
X211482450Y-99866585D01*
X211414377Y-99905004D01*
X211350941Y-99886734D01*
X211289868Y-99838587D01*
X211284681Y-99773035D01*
X211301210Y-99722121D01*
X211350770Y-99677127D01*
X211428433Y-99664069D01*
X211428433Y-99568291D01*
X211382758Y-99557747D01*
X211256694Y-99604787D01*
X211255656Y-99605465D01*
X211208744Y-99631754D01*
X211156698Y-99645274D01*
X211083258Y-99645823D01*
X210972165Y-99633199D01*
X210807160Y-99607202D01*
X210759973Y-99599326D01*
X210507763Y-99567521D01*
X210202225Y-99545550D01*
X209862986Y-99533403D01*
X209509672Y-99531069D01*
X209462232Y-99532088D01*
X209462232Y-99592515D01*
X209750874Y-99598342D01*
X209813018Y-99600131D01*
X210054392Y-99609011D01*
X210282866Y-99620502D01*
X210482813Y-99633583D01*
X210638610Y-99647234D01*
X210733580Y-99660221D01*
X210872029Y-99687693D01*
X211001828Y-99712326D01*
X211043565Y-99719851D01*
X211126645Y-99747973D01*
X211165324Y-99787807D01*
X211165681Y-99791736D01*
X211187821Y-99856274D01*
X211233706Y-99926239D01*
X211332616Y-99995143D01*
X211452816Y-100004601D01*
X211568155Y-99953449D01*
X211582028Y-99941746D01*
X211631293Y-99902818D01*
X211679011Y-99892285D01*
X211751287Y-99910043D01*
X211834407Y-99940756D01*
X211966396Y-99988978D01*
X212091009Y-100031026D01*
X212129764Y-100042948D01*
X212214000Y-100075528D01*
X212348341Y-100136426D01*
X212517085Y-100217678D01*
X212704529Y-100311317D01*
X212894968Y-100409380D01*
X213072701Y-100503902D01*
X213222024Y-100586919D01*
X213326184Y-100649776D01*
X213657154Y-100879005D01*
X214014709Y-101151787D01*
X214073583Y-101198752D01*
X214195947Y-101299397D01*
X214268757Y-101369284D01*
X214302541Y-101422792D01*
X214307827Y-101474298D01*
X214301690Y-101510264D01*
X214307396Y-101647613D01*
X214339985Y-101714679D01*
X214399436Y-101780013D01*
X214479496Y-101801381D01*
X214541561Y-101799715D01*
X214623034Y-101800329D01*
X214689625Y-101824201D01*
X214762821Y-101883564D01*
X214850337Y-101975507D01*
X214960983Y-102103822D01*
X215084217Y-102258101D01*
X215211305Y-102426005D01*
X215333512Y-102595194D01*
X215442103Y-102753327D01*
X215528342Y-102888066D01*
X215583495Y-102987070D01*
X215599409Y-103033702D01*
X215619061Y-103073151D01*
X215667301Y-103146746D01*
X215676644Y-103159997D01*
X215731670Y-103252665D01*
X215805202Y-103397596D01*
X215889207Y-103576746D01*
X215975651Y-103772072D01*
X216056502Y-103965531D01*
X216123726Y-104139079D01*
X216161647Y-104249379D01*
X216197040Y-104368831D01*
X216208396Y-104441501D01*
X216195373Y-104491921D01*
X216157632Y-104544624D01*
X216157537Y-104544740D01*
X216106343Y-104628224D01*
X216087870Y-104693400D01*
X216114246Y-104787129D01*
X216177853Y-104872103D01*
X216255415Y-104920081D01*
X216277155Y-104923042D01*
X216310373Y-104926345D01*
X216336507Y-104943417D01*
X216358957Y-104985002D01*
X216381126Y-105061845D01*
X216406415Y-105184690D01*
X216438227Y-105364282D01*
X216462818Y-105509430D01*
X216514663Y-105939250D01*
X216535286Y-106407529D01*
X216524690Y-106884371D01*
X216482879Y-107339883D01*
X216462614Y-107478071D01*
X216425902Y-107701660D01*
X216397531Y-107861630D01*
X216374234Y-107968610D01*
X216352745Y-108033226D01*
X216329796Y-108066108D01*
X216309186Y-108074875D01*
X216309186Y-108173059D01*
X216365318Y-108176717D01*
X216415822Y-108228117D01*
X216421009Y-108304546D01*
X216386400Y-108375692D01*
X216322708Y-108410640D01*
X216257689Y-108404351D01*
X216238843Y-108346733D01*
X216238741Y-108335492D01*
X216257945Y-108225630D01*
X216309186Y-108173059D01*
X216309186Y-108074875D01*
X216302120Y-108077881D01*
X216277809Y-108079255D01*
X216188676Y-108111378D01*
X216127757Y-108191532D01*
X216102966Y-108295393D01*
X216122216Y-108398637D01*
X216157389Y-108449365D01*
X216191598Y-108492208D01*
X216208394Y-108543490D01*
X216205331Y-108613651D01*
X216179966Y-108713127D01*
X216129854Y-108852357D01*
X216052553Y-109041779D01*
X215977399Y-109218098D01*
X215732197Y-109730546D01*
X215448965Y-110221682D01*
X215139134Y-110673244D01*
X214833563Y-111045633D01*
X214741454Y-111140731D01*
X214671024Y-111189293D01*
X214598122Y-111204340D01*
X214549265Y-111202850D01*
X214549265Y-111298891D01*
X214594561Y-111315780D01*
X214651636Y-111377553D01*
X214650322Y-111450954D01*
X214597444Y-111510264D01*
X214537944Y-111529162D01*
X214459931Y-111524724D01*
X214429317Y-111477683D01*
X214433919Y-111385764D01*
X214472990Y-111312849D01*
X214549265Y-111298891D01*
X214549265Y-111202850D01*
X214542341Y-111202638D01*
X214437923Y-111206196D01*
X214371814Y-111245840D01*
X214339163Y-111288871D01*
X214294542Y-111415344D01*
X214300750Y-111483686D01*
X214305722Y-111530627D01*
X214291415Y-111579255D01*
X214250584Y-111637064D01*
X214175984Y-111711552D01*
X214060371Y-111810215D01*
X213896500Y-111940551D01*
X213748410Y-112055252D01*
X213377972Y-112313800D01*
X212950991Y-112565377D01*
X212486014Y-112800082D01*
X212001589Y-113008013D01*
X211869310Y-113058485D01*
X211759342Y-113096205D01*
X211687735Y-113105831D01*
X211623195Y-113087464D01*
X211568183Y-113059473D01*
X211434836Y-113012514D01*
X211434836Y-113113508D01*
X211509030Y-113133222D01*
X211517670Y-113140514D01*
X211535547Y-113203637D01*
X211501166Y-113277719D01*
X211457584Y-113316159D01*
X211383436Y-113327817D01*
X211320309Y-113287295D01*
X211292862Y-113216312D01*
X211299829Y-113177198D01*
X211351692Y-113130425D01*
X211434836Y-113113508D01*
X211434836Y-113012514D01*
X211422417Y-113008140D01*
X211304970Y-113025336D01*
X211217943Y-113110609D01*
X211203255Y-113138111D01*
X211169994Y-113196623D01*
X211125902Y-113237057D01*
X211053616Y-113267788D01*
X210935778Y-113297190D01*
X210827515Y-113319360D01*
X210303002Y-113396762D01*
X209748987Y-113430081D01*
X209191033Y-113419343D01*
X208654699Y-113364573D01*
X208384177Y-113316927D01*
X208227314Y-113282560D01*
X208127212Y-113252524D01*
X208066566Y-113218462D01*
X208028067Y-113172017D01*
X208008863Y-113135690D01*
X207945859Y-113047494D01*
X207852608Y-113011244D01*
X207827477Y-113008195D01*
X207794053Y-113011454D01*
X207794053Y-113114166D01*
X207890381Y-113130107D01*
X207927998Y-113185058D01*
X207926511Y-113244129D01*
X207890646Y-113306144D01*
X207821598Y-113320823D01*
X207749335Y-113304301D01*
X207719036Y-113240424D01*
X207715774Y-113217494D01*
X207717465Y-113142296D01*
X207758735Y-113116066D01*
X207794053Y-113114166D01*
X207794053Y-113011454D01*
X207700994Y-113020530D01*
X207633939Y-113057614D01*
X207557553Y-113091437D01*
X207441399Y-113085495D01*
X207278449Y-113038433D01*
X207061677Y-112948898D01*
X207055735Y-112946207D01*
X206918178Y-112883917D01*
X206750980Y-112808364D01*
X206608738Y-112744200D01*
X206280049Y-112578596D01*
X205927717Y-112370577D01*
X205575775Y-112135816D01*
X205248253Y-111889989D01*
X205069837Y-111740516D01*
X204972278Y-111648099D01*
X204924136Y-111580011D01*
X204913725Y-111516834D01*
X204917681Y-111487680D01*
X204908583Y-111364655D01*
X204873784Y-111289215D01*
X204818503Y-111225581D01*
X204746710Y-111202079D01*
X204704886Y-111202747D01*
X204704886Y-111298891D01*
X204750182Y-111315780D01*
X204807257Y-111377553D01*
X204805944Y-111450954D01*
X204753065Y-111510264D01*
X204693565Y-111529162D01*
X204615553Y-111524724D01*
X204584938Y-111477683D01*
X204589541Y-111385764D01*
X204628611Y-111312849D01*
X204704886Y-111298891D01*
X204704886Y-111202747D01*
X204658629Y-111203487D01*
X204578703Y-111205442D01*
X204517898Y-111189655D01*
X204457780Y-111144361D01*
X204379916Y-111057796D01*
X204324304Y-110990120D01*
X203962937Y-110514137D01*
X203649922Y-110035807D01*
X203392261Y-109566638D01*
X203216441Y-109169386D01*
X203153148Y-109007540D01*
X203092789Y-108855492D01*
X203045642Y-108739060D01*
X203034521Y-108712347D01*
X203000187Y-108619005D01*
X203001149Y-108558226D01*
X203039865Y-108494978D01*
X203050758Y-108480976D01*
X203119488Y-108352107D01*
X203114205Y-108235324D01*
X203035229Y-108131685D01*
X202923582Y-108061102D01*
X202899464Y-108032642D01*
X202899464Y-108159758D01*
X202943819Y-108189158D01*
X202959836Y-108209970D01*
X203003618Y-108279671D01*
X203003256Y-108329913D01*
X202978872Y-108374150D01*
X202919911Y-108412274D01*
X202849620Y-108398532D01*
X202800109Y-108342376D01*
X202794267Y-108319814D01*
X202811886Y-108233468D01*
X202845301Y-108190107D01*
X202899464Y-108159758D01*
X202899464Y-108032642D01*
X202869012Y-107996707D01*
X202821100Y-107867260D01*
X202780313Y-107682602D01*
X202747121Y-107452575D01*
X202721993Y-107187018D01*
X202705399Y-106895772D01*
X202697806Y-106588680D01*
X202699685Y-106275581D01*
X202711504Y-105966316D01*
X202733732Y-105670727D01*
X202766839Y-105398654D01*
X202790120Y-105261208D01*
X202822010Y-105101003D01*
X202847258Y-105001024D01*
X202871502Y-104947359D01*
X202900381Y-104926097D01*
X202927163Y-104923042D01*
X203027636Y-104891790D01*
X203093249Y-104812267D01*
X203117434Y-104705817D01*
X203093625Y-104593787D01*
X203048828Y-104527583D01*
X202972804Y-104446659D01*
X203102618Y-104111847D01*
X203199501Y-103866343D01*
X203282501Y-103668323D01*
X203362421Y-103494298D01*
X203450069Y-103320774D01*
X203556249Y-103124263D01*
X203560226Y-103117057D01*
X203633849Y-102990847D01*
X203729519Y-102836911D01*
X203837565Y-102669675D01*
X203948314Y-102503565D01*
X204052096Y-102353006D01*
X204139238Y-102232426D01*
X204200070Y-102156249D01*
X204213557Y-102142568D01*
X204247681Y-102105590D01*
X204313809Y-102029417D01*
X204375981Y-101956184D01*
X204461878Y-101860615D01*
X204528023Y-101812083D01*
X204599176Y-101797077D01*
X204663740Y-101799179D01*
X204769632Y-101797141D01*
X204835232Y-101762570D01*
X204872738Y-101714679D01*
X204917324Y-101583760D01*
X204911557Y-101512651D01*
X204905661Y-101462563D01*
X204918678Y-101415984D01*
X204960003Y-101361515D01*
X205039031Y-101287756D01*
X205165156Y-101183309D01*
X205218222Y-101140560D01*
X205606736Y-100843053D01*
X205974821Y-100594372D01*
X206344877Y-100381597D01*
X206739303Y-100191806D01*
X207162623Y-100018871D01*
X207338229Y-99952532D01*
X207457274Y-99910785D01*
X207533337Y-99891248D01*
X207579996Y-99891538D01*
X207610830Y-99909272D01*
X207634568Y-99936072D01*
X207721283Y-99993543D01*
X207829464Y-100002460D01*
X207935534Y-99969957D01*
X208015915Y-99903172D01*
X208047042Y-99811232D01*
X208051276Y-99780069D01*
X208071066Y-99755328D01*
X208117038Y-99734009D01*
X208199824Y-99713109D01*
X208330050Y-99689627D01*
X208518346Y-99660560D01*
X208648225Y-99641440D01*
X208837977Y-99617050D01*
X209024450Y-99601207D01*
X209226313Y-99593250D01*
X209462232Y-99592515D01*
X209462232Y-99532088D01*
X209161906Y-99538539D01*
X208839316Y-99555801D01*
X208561525Y-99582846D01*
X208442596Y-99600546D01*
X208270072Y-99629355D01*
X208153341Y-99644246D01*
X208074360Y-99645279D01*
X208015086Y-99632518D01*
X207957475Y-99606025D01*
X207950404Y-99602243D01*
X207811791Y-99558206D01*
X207796549Y-99560770D01*
X207796549Y-99662687D01*
X207875458Y-99672399D01*
X207909271Y-99687736D01*
X207934754Y-99758155D01*
X207912731Y-99838447D01*
X207868565Y-99881731D01*
X207778517Y-99902711D01*
X207723984Y-99858314D01*
X207708876Y-99772278D01*
X207720115Y-99692723D01*
X207765534Y-99664511D01*
X207796549Y-99662687D01*
X207796549Y-99560770D01*
X207692140Y-99578339D01*
X207604866Y-99658972D01*
X207583799Y-99702524D01*
X207508479Y-99807414D01*
X207428013Y-99847106D01*
X207326009Y-99881202D01*
X207183740Y-99934597D01*
X207017404Y-100000527D01*
X206843199Y-100072231D01*
X206677320Y-100142947D01*
X206535965Y-100205914D01*
X206435333Y-100254369D01*
X206394562Y-100278532D01*
X206336767Y-100317606D01*
X206231413Y-100380562D01*
X206097421Y-100456244D01*
X206039708Y-100487762D01*
X205838119Y-100602351D01*
X205652580Y-100721679D01*
X205463570Y-100859593D01*
X205251570Y-101029939D01*
X205124732Y-101136812D01*
X204995049Y-101243506D01*
X204900598Y-101308303D01*
X204822284Y-101341227D01*
X204741014Y-101352302D01*
X204713219Y-101352862D01*
X204673898Y-101360661D01*
X204673898Y-101446364D01*
X204712989Y-101448303D01*
X204753958Y-101485030D01*
X204805033Y-101569866D01*
X204789752Y-101641254D01*
X204712917Y-101682078D01*
X204698044Y-101684320D01*
X204609153Y-101671385D01*
X204574876Y-101615505D01*
X204601097Y-101530938D01*
X204622457Y-101501093D01*
X204673898Y-101446364D01*
X204673898Y-101360661D01*
X204571408Y-101380992D01*
X204480506Y-101458304D01*
X204448139Y-101576211D01*
X204455313Y-101643186D01*
X204458892Y-101703678D01*
X204437142Y-101768135D01*
X204381475Y-101852229D01*
X204283302Y-101971630D01*
X204261371Y-101997025D01*
X204053714Y-102246196D01*
X203875208Y-102484678D01*
X203706125Y-102740324D01*
X203547653Y-103004731D01*
X203451112Y-103181168D01*
X203346457Y-103388567D01*
X203240937Y-103610773D01*
X203141801Y-103831629D01*
X203056298Y-104034977D01*
X202991677Y-104204663D01*
X202955186Y-104324528D01*
X202954869Y-104325960D01*
X202898728Y-104433989D01*
X202888180Y-104440643D01*
X202888180Y-104587317D01*
X202953791Y-104600492D01*
X202979401Y-104628147D01*
X203004414Y-104715624D01*
X202962211Y-104779330D01*
X202886932Y-104803689D01*
X202812331Y-104804311D01*
X202789798Y-104767241D01*
X202793318Y-104710075D01*
X202826774Y-104627329D01*
X202888180Y-104587317D01*
X202888180Y-104440643D01*
X202830939Y-104476758D01*
X202747702Y-104519706D01*
X202703485Y-104559046D01*
X202676290Y-104654553D01*
X202684758Y-104767590D01*
X202725290Y-104856040D01*
X202729234Y-104860221D01*
X202755396Y-104896680D01*
X202765665Y-104949496D01*
X202760128Y-105036241D01*
X202738873Y-105174486D01*
X202731032Y-105219616D01*
X202647131Y-105809300D01*
X202611463Y-106355822D01*
X202623246Y-106872976D01*
G36*
X214265533Y-105316648D02*
X214604799Y-105416174D01*
X214790192Y-105463931D01*
X214983077Y-105502898D01*
X215149085Y-105526395D01*
X215187196Y-105529356D01*
X215318636Y-105534825D01*
X215392946Y-105529315D01*
X215427897Y-105507913D01*
X215441263Y-105465707D01*
X215442285Y-105458834D01*
X215427149Y-105380979D01*
X215357744Y-105330688D01*
X215298059Y-105293294D01*
X215269564Y-105236256D01*
X215261394Y-105134436D01*
X215261243Y-105107412D01*
X215267273Y-104992935D01*
X215290550Y-104931973D01*
X215336391Y-104904255D01*
X215397353Y-104860910D01*
X215411539Y-104822865D01*
X215402224Y-104797682D01*
X215365944Y-104782916D01*
X215290194Y-104777496D01*
X215162468Y-104780350D01*
X215092160Y-104783940D01*
X215092160Y-105148486D01*
X215110947Y-105167273D01*
X215092160Y-105186060D01*
X215073373Y-105167273D01*
X215092160Y-105148486D01*
X215092160Y-104783940D01*
X215007619Y-104788258D01*
X214928978Y-104793247D01*
X214928978Y-105005366D01*
X214956425Y-105033832D01*
X214960651Y-105106838D01*
X214952066Y-105188632D01*
X214911417Y-105219569D01*
X214850375Y-105223634D01*
X214718921Y-105208849D01*
X214613218Y-105170385D01*
X214553673Y-105117075D01*
X214547338Y-105092458D01*
X214576809Y-105048164D01*
X214650666Y-105040400D01*
X214769771Y-105034427D01*
X214857323Y-105018136D01*
X214928978Y-105005366D01*
X214928978Y-104793247D01*
X214818404Y-104800263D01*
X214636446Y-104813991D01*
X214487643Y-104827387D01*
X214423561Y-104834603D01*
X214243423Y-104858016D01*
X214265533Y-105316648D01*
X214265533Y-105316648D01*
G37*
X214265533Y-105316648D02*
X214604799Y-105416174D01*
X214790192Y-105463931D01*
X214983077Y-105502898D01*
X215149085Y-105526395D01*
X215187196Y-105529356D01*
X215318636Y-105534825D01*
X215392946Y-105529315D01*
X215427897Y-105507913D01*
X215441263Y-105465707D01*
X215442285Y-105458834D01*
X215427149Y-105380979D01*
X215357744Y-105330688D01*
X215298059Y-105293294D01*
X215269564Y-105236256D01*
X215261394Y-105134436D01*
X215261243Y-105107412D01*
X215267273Y-104992935D01*
X215290550Y-104931973D01*
X215336391Y-104904255D01*
X215397353Y-104860910D01*
X215411539Y-104822865D01*
X215402224Y-104797682D01*
X215365944Y-104782916D01*
X215290194Y-104777496D01*
X215162468Y-104780350D01*
X215092160Y-104783940D01*
X215092160Y-105148486D01*
X215110947Y-105167273D01*
X215092160Y-105186060D01*
X215073373Y-105167273D01*
X215092160Y-105148486D01*
X215092160Y-104783940D01*
X215007619Y-104788258D01*
X214928978Y-104793247D01*
X214928978Y-105005366D01*
X214956425Y-105033832D01*
X214960651Y-105106838D01*
X214952066Y-105188632D01*
X214911417Y-105219569D01*
X214850375Y-105223634D01*
X214718921Y-105208849D01*
X214613218Y-105170385D01*
X214553673Y-105117075D01*
X214547338Y-105092458D01*
X214576809Y-105048164D01*
X214650666Y-105040400D01*
X214769771Y-105034427D01*
X214857323Y-105018136D01*
X214928978Y-105005366D01*
X214928978Y-104793247D01*
X214818404Y-104800263D01*
X214636446Y-104813991D01*
X214487643Y-104827387D01*
X214423561Y-104834603D01*
X214243423Y-104858016D01*
X214265533Y-105316648D01*
G36*
X214212380Y-104373737D02*
X214240404Y-104500536D01*
X214277885Y-104560266D01*
X214382244Y-104612768D01*
X214512117Y-104624308D01*
X214636635Y-104596695D01*
X214723158Y-104534148D01*
X214789764Y-104445846D01*
X215052017Y-104553990D01*
X215184772Y-104603886D01*
X215293918Y-104636094D01*
X215358477Y-104644575D01*
X215362904Y-104643471D01*
X215412036Y-104602016D01*
X215390312Y-104544643D01*
X215299766Y-104473715D01*
X215148496Y-104394381D01*
X215016477Y-104329649D01*
X214909412Y-104270048D01*
X214847739Y-104227085D01*
X214843615Y-104222725D01*
X214834904Y-104174666D01*
X214890613Y-104139296D01*
X215000624Y-104119721D01*
X215154823Y-104119047D01*
X215176702Y-104120446D01*
X215291439Y-104126142D01*
X215350086Y-104117329D01*
X215371332Y-104086926D01*
X215373965Y-104045726D01*
X215367944Y-103998025D01*
X215338904Y-103968628D01*
X215270376Y-103950218D01*
X215145892Y-103935477D01*
X215120341Y-103933032D01*
X214950169Y-103920898D01*
X214748733Y-103912190D01*
X214561428Y-103908812D01*
X214458377Y-103908722D01*
X214458377Y-104144107D01*
X214509764Y-104145093D01*
X214606479Y-104154035D01*
X214649429Y-104180835D01*
X214659957Y-104240947D01*
X214660060Y-104253909D01*
X214632518Y-104353309D01*
X214587634Y-104395550D01*
X214559862Y-104401628D01*
X214559862Y-104484679D01*
X214582200Y-104489837D01*
X214584912Y-104509728D01*
X214571164Y-104540656D01*
X214559862Y-104534778D01*
X214555365Y-104490186D01*
X214559862Y-104484679D01*
X214559862Y-104401628D01*
X214487262Y-104417518D01*
X214411492Y-104371821D01*
X214382471Y-104309866D01*
X214362491Y-104207345D01*
X214383445Y-104157720D01*
X214458377Y-104144107D01*
X214458377Y-103908722D01*
X214256139Y-103908545D01*
X214232656Y-104025963D01*
X214209255Y-104209132D01*
X214212380Y-104373737D01*
X214212380Y-104373737D01*
G37*
X214212380Y-104373737D02*
X214240404Y-104500536D01*
X214277885Y-104560266D01*
X214382244Y-104612768D01*
X214512117Y-104624308D01*
X214636635Y-104596695D01*
X214723158Y-104534148D01*
X214789764Y-104445846D01*
X215052017Y-104553990D01*
X215184772Y-104603886D01*
X215293918Y-104636094D01*
X215358477Y-104644575D01*
X215362904Y-104643471D01*
X215412036Y-104602016D01*
X215390312Y-104544643D01*
X215299766Y-104473715D01*
X215148496Y-104394381D01*
X215016477Y-104329649D01*
X214909412Y-104270048D01*
X214847739Y-104227085D01*
X214843615Y-104222725D01*
X214834904Y-104174666D01*
X214890613Y-104139296D01*
X215000624Y-104119721D01*
X215154823Y-104119047D01*
X215176702Y-104120446D01*
X215291439Y-104126142D01*
X215350086Y-104117329D01*
X215371332Y-104086926D01*
X215373965Y-104045726D01*
X215367944Y-103998025D01*
X215338904Y-103968628D01*
X215270376Y-103950218D01*
X215145892Y-103935477D01*
X215120341Y-103933032D01*
X214950169Y-103920898D01*
X214748733Y-103912190D01*
X214561428Y-103908812D01*
X214458377Y-103908722D01*
X214458377Y-104144107D01*
X214509764Y-104145093D01*
X214606479Y-104154035D01*
X214649429Y-104180835D01*
X214659957Y-104240947D01*
X214660060Y-104253909D01*
X214632518Y-104353309D01*
X214587634Y-104395550D01*
X214559862Y-104401628D01*
X214559862Y-104484679D01*
X214582200Y-104489837D01*
X214584912Y-104509728D01*
X214571164Y-104540656D01*
X214559862Y-104534778D01*
X214555365Y-104490186D01*
X214559862Y-104484679D01*
X214559862Y-104401628D01*
X214487262Y-104417518D01*
X214411492Y-104371821D01*
X214382471Y-104309866D01*
X214362491Y-104207345D01*
X214383445Y-104157720D01*
X214458377Y-104144107D01*
X214458377Y-103908722D01*
X214256139Y-103908545D01*
X214232656Y-104025963D01*
X214209255Y-104209132D01*
X214212380Y-104373737D01*
G36*
X214238103Y-105980870D02*
X214273092Y-106057210D01*
X214316147Y-106132811D01*
X214338614Y-106191163D01*
X214384247Y-106263153D01*
X214457567Y-106265876D01*
X214505695Y-106241440D01*
X214532420Y-106208487D01*
X214516387Y-106155278D01*
X214472895Y-106088825D01*
X214419156Y-105993851D01*
X214422129Y-105935886D01*
X214427245Y-105929880D01*
X214502360Y-105901151D01*
X214595281Y-105932114D01*
X214691021Y-106014845D01*
X214753464Y-106102326D01*
X214825249Y-106207824D01*
X214897022Y-106263387D01*
X214989666Y-106288763D01*
X215164696Y-106295905D01*
X215300339Y-106258724D01*
X215364571Y-106207365D01*
X215401409Y-106112704D01*
X215406058Y-105985155D01*
X215379855Y-105859088D01*
X215348624Y-105796636D01*
X215289858Y-105738256D01*
X215229053Y-105711233D01*
X215190156Y-105723719D01*
X215186095Y-105741309D01*
X215205689Y-105790637D01*
X215247451Y-105858120D01*
X215281575Y-105928997D01*
X215260041Y-105979324D01*
X215174960Y-106019736D01*
X215114525Y-106037339D01*
X215004390Y-106039097D01*
X214921428Y-105975060D01*
X214866074Y-105859876D01*
X214813622Y-105760357D01*
X214744027Y-105691442D01*
X214737734Y-105687989D01*
X214627085Y-105661103D01*
X214493293Y-105666426D01*
X214368254Y-105699212D01*
X214283863Y-105754717D01*
X214283138Y-105755613D01*
X214236690Y-105862045D01*
X214238103Y-105980870D01*
X214238103Y-105980870D01*
G37*
X214238103Y-105980870D02*
X214273092Y-106057210D01*
X214316147Y-106132811D01*
X214338614Y-106191163D01*
X214384247Y-106263153D01*
X214457567Y-106265876D01*
X214505695Y-106241440D01*
X214532420Y-106208487D01*
X214516387Y-106155278D01*
X214472895Y-106088825D01*
X214419156Y-105993851D01*
X214422129Y-105935886D01*
X214427245Y-105929880D01*
X214502360Y-105901151D01*
X214595281Y-105932114D01*
X214691021Y-106014845D01*
X214753464Y-106102326D01*
X214825249Y-106207824D01*
X214897022Y-106263387D01*
X214989666Y-106288763D01*
X215164696Y-106295905D01*
X215300339Y-106258724D01*
X215364571Y-106207365D01*
X215401409Y-106112704D01*
X215406058Y-105985155D01*
X215379855Y-105859088D01*
X215348624Y-105796636D01*
X215289858Y-105738256D01*
X215229053Y-105711233D01*
X215190156Y-105723719D01*
X215186095Y-105741309D01*
X215205689Y-105790637D01*
X215247451Y-105858120D01*
X215281575Y-105928997D01*
X215260041Y-105979324D01*
X215174960Y-106019736D01*
X215114525Y-106037339D01*
X215004390Y-106039097D01*
X214921428Y-105975060D01*
X214866074Y-105859876D01*
X214813622Y-105760357D01*
X214744027Y-105691442D01*
X214737734Y-105687989D01*
X214627085Y-105661103D01*
X214493293Y-105666426D01*
X214368254Y-105699212D01*
X214283863Y-105754717D01*
X214283138Y-105755613D01*
X214236690Y-105862045D01*
X214238103Y-105980870D01*
G36*
X214806335Y-107365350D02*
X215026877Y-107364297D01*
X215183419Y-107360383D01*
X215287090Y-107352471D01*
X215349019Y-107339427D01*
X215380334Y-107320113D01*
X215388732Y-107305915D01*
X215408647Y-107244598D01*
X215394005Y-107210931D01*
X215364571Y-107185778D01*
X215309300Y-107170919D01*
X215191245Y-107159259D01*
X215022730Y-107151584D01*
X214816079Y-107148677D01*
X214782175Y-107148702D01*
X214246746Y-107150103D01*
X214246746Y-107365350D01*
X214806335Y-107365350D01*
X214806335Y-107365350D01*
G37*
X214806335Y-107365350D02*
X215026877Y-107364297D01*
X215183419Y-107360383D01*
X215287090Y-107352471D01*
X215349019Y-107339427D01*
X215380334Y-107320113D01*
X215388732Y-107305915D01*
X215408647Y-107244598D01*
X215394005Y-107210931D01*
X215364571Y-107185778D01*
X215309300Y-107170919D01*
X215191245Y-107159259D01*
X215022730Y-107151584D01*
X214816079Y-107148677D01*
X214782175Y-107148702D01*
X214246746Y-107150103D01*
X214246746Y-107365350D01*
X214806335Y-107365350D01*
G36*
X214213177Y-108996958D02*
X214226064Y-109120397D01*
X214249142Y-109188900D01*
X214261178Y-109202860D01*
X214326921Y-109223465D01*
X214462812Y-109236725D01*
X214664175Y-109242284D01*
X214777820Y-109242154D01*
X215009316Y-109238612D01*
X215176225Y-109227672D01*
X215289105Y-109202185D01*
X215358517Y-109155004D01*
X215395020Y-109078982D01*
X215409174Y-108966972D01*
X215411539Y-108813212D01*
X215409584Y-108655503D01*
X215401058Y-108554967D01*
X215381964Y-108493671D01*
X215348310Y-108453683D01*
X215328030Y-108438338D01*
X215269958Y-108411285D01*
X215178844Y-108393503D01*
X215164177Y-108392439D01*
X215164177Y-108495535D01*
X215212911Y-108502443D01*
X215213493Y-108515269D01*
X215163204Y-108524239D01*
X215141476Y-108518236D01*
X215127244Y-108501552D01*
X215164177Y-108495535D01*
X215164177Y-108392439D01*
X215041537Y-108383537D01*
X214844887Y-108379932D01*
X214799525Y-108379847D01*
X214685354Y-108381845D01*
X214685354Y-108613124D01*
X214829341Y-108614574D01*
X215261243Y-108619736D01*
X215261243Y-109020989D01*
X214378255Y-108999817D01*
X214365928Y-108891949D01*
X214364329Y-108778344D01*
X214375520Y-108696746D01*
X214387907Y-108659306D01*
X214411627Y-108634660D01*
X214460138Y-108620372D01*
X214546894Y-108614006D01*
X214685354Y-108613124D01*
X214685354Y-108381845D01*
X214617781Y-108383029D01*
X214458597Y-108391675D01*
X214339944Y-108404436D01*
X214281850Y-108418743D01*
X214247340Y-108445650D01*
X214225748Y-108491894D01*
X214214162Y-108573096D01*
X214209672Y-108704874D01*
X214209172Y-108808668D01*
X214213177Y-108996958D01*
X214213177Y-108996958D01*
G37*
X214213177Y-108996958D02*
X214226064Y-109120397D01*
X214249142Y-109188900D01*
X214261178Y-109202860D01*
X214326921Y-109223465D01*
X214462812Y-109236725D01*
X214664175Y-109242284D01*
X214777820Y-109242154D01*
X215009316Y-109238612D01*
X215176225Y-109227672D01*
X215289105Y-109202185D01*
X215358517Y-109155004D01*
X215395020Y-109078982D01*
X215409174Y-108966972D01*
X215411539Y-108813212D01*
X215409584Y-108655503D01*
X215401058Y-108554967D01*
X215381964Y-108493671D01*
X215348310Y-108453683D01*
X215328030Y-108438338D01*
X215269958Y-108411285D01*
X215178844Y-108393503D01*
X215164177Y-108392439D01*
X215164177Y-108495535D01*
X215212911Y-108502443D01*
X215213493Y-108515269D01*
X215163204Y-108524239D01*
X215141476Y-108518236D01*
X215127244Y-108501552D01*
X215164177Y-108495535D01*
X215164177Y-108392439D01*
X215041537Y-108383537D01*
X214844887Y-108379932D01*
X214799525Y-108379847D01*
X214685354Y-108381845D01*
X214685354Y-108613124D01*
X214829341Y-108614574D01*
X215261243Y-108619736D01*
X215261243Y-109020989D01*
X214378255Y-108999817D01*
X214365928Y-108891949D01*
X214364329Y-108778344D01*
X214375520Y-108696746D01*
X214387907Y-108659306D01*
X214411627Y-108634660D01*
X214460138Y-108620372D01*
X214546894Y-108614006D01*
X214685354Y-108613124D01*
X214685354Y-108381845D01*
X214617781Y-108383029D01*
X214458597Y-108391675D01*
X214339944Y-108404436D01*
X214281850Y-108418743D01*
X214247340Y-108445650D01*
X214225748Y-108491894D01*
X214214162Y-108573096D01*
X214209672Y-108704874D01*
X214209172Y-108808668D01*
X214213177Y-108996958D01*
G36*
X214173066Y-106843534D02*
X214184908Y-106958088D01*
X214218283Y-107024140D01*
X214284348Y-107055013D01*
X214394263Y-107064028D01*
X214504390Y-107064465D01*
X214650664Y-107062768D01*
X214740209Y-107054321D01*
X214791432Y-107033537D01*
X214822744Y-106994828D01*
X214838536Y-106963039D01*
X214873704Y-106859571D01*
X214885503Y-106780063D01*
X214905258Y-106695288D01*
X214971899Y-106641924D01*
X215096487Y-106613198D01*
X215168262Y-106606880D01*
X215283374Y-106594335D01*
X215342597Y-106569847D01*
X215365114Y-106524838D01*
X215366156Y-106518389D01*
X215363643Y-106443728D01*
X215350501Y-106415061D01*
X215305495Y-106405842D01*
X215198994Y-106398007D01*
X215044648Y-106392158D01*
X214856105Y-106388898D01*
X214747732Y-106388426D01*
X214279722Y-106388426D01*
X214279722Y-106575263D01*
X214516858Y-106591170D01*
X214641418Y-106599905D01*
X214731587Y-106606944D01*
X214765769Y-106610474D01*
X214770615Y-106645686D01*
X214766613Y-106726878D01*
X214765769Y-106735986D01*
X214753994Y-106858101D01*
X214716421Y-106858101D01*
X214716421Y-106914462D01*
X214735208Y-106933249D01*
X214716421Y-106952036D01*
X214697634Y-106933249D01*
X214716421Y-106914462D01*
X214716421Y-106858101D01*
X214303107Y-106858101D01*
X214291414Y-106716682D01*
X214279722Y-106575263D01*
X214279722Y-106388426D01*
X214171598Y-106388426D01*
X214171598Y-106667158D01*
X214173066Y-106843534D01*
X214173066Y-106843534D01*
G37*
X214173066Y-106843534D02*
X214184908Y-106958088D01*
X214218283Y-107024140D01*
X214284348Y-107055013D01*
X214394263Y-107064028D01*
X214504390Y-107064465D01*
X214650664Y-107062768D01*
X214740209Y-107054321D01*
X214791432Y-107033537D01*
X214822744Y-106994828D01*
X214838536Y-106963039D01*
X214873704Y-106859571D01*
X214885503Y-106780063D01*
X214905258Y-106695288D01*
X214971899Y-106641924D01*
X215096487Y-106613198D01*
X215168262Y-106606880D01*
X215283374Y-106594335D01*
X215342597Y-106569847D01*
X215365114Y-106524838D01*
X215366156Y-106518389D01*
X215363643Y-106443728D01*
X215350501Y-106415061D01*
X215305495Y-106405842D01*
X215198994Y-106398007D01*
X215044648Y-106392158D01*
X214856105Y-106388898D01*
X214747732Y-106388426D01*
X214279722Y-106388426D01*
X214279722Y-106575263D01*
X214516858Y-106591170D01*
X214641418Y-106599905D01*
X214731587Y-106606944D01*
X214765769Y-106610474D01*
X214770615Y-106645686D01*
X214766613Y-106726878D01*
X214765769Y-106735986D01*
X214753994Y-106858101D01*
X214716421Y-106858101D01*
X214716421Y-106914462D01*
X214735208Y-106933249D01*
X214716421Y-106952036D01*
X214697634Y-106933249D01*
X214716421Y-106914462D01*
X214716421Y-106858101D01*
X214303107Y-106858101D01*
X214291414Y-106716682D01*
X214279722Y-106575263D01*
X214279722Y-106388426D01*
X214171598Y-106388426D01*
X214171598Y-106667158D01*
X214173066Y-106843534D01*
G36*
X214194930Y-108072575D02*
X214231877Y-108185174D01*
X214307615Y-108246693D01*
X214428920Y-108266984D01*
X214443181Y-108267125D01*
X214572600Y-108250126D01*
X214665505Y-108205808D01*
X214667092Y-108204399D01*
X214722961Y-108162855D01*
X214760475Y-108175410D01*
X214782773Y-108201877D01*
X214852285Y-108248341D01*
X214941864Y-108270268D01*
X215107125Y-108274665D01*
X215219133Y-108252189D01*
X215287895Y-108191891D01*
X215323422Y-108082819D01*
X215335721Y-107914022D01*
X215336391Y-107838603D01*
X215333546Y-107692502D01*
X215325978Y-107576659D01*
X215315138Y-107510502D01*
X215311342Y-107503121D01*
X215244643Y-107478063D01*
X215167555Y-107492766D01*
X215124892Y-107533503D01*
X215101273Y-107567633D01*
X215055576Y-107561758D01*
X214998041Y-107534337D01*
X214977170Y-107527735D01*
X214977170Y-107703515D01*
X215081961Y-107706193D01*
X215131921Y-107724686D01*
X215147366Y-107774681D01*
X215148521Y-107835830D01*
X215135760Y-107936055D01*
X215086520Y-107993792D01*
X215051668Y-108012273D01*
X214942366Y-108034372D01*
X214864770Y-107989375D01*
X214822357Y-107879833D01*
X214817481Y-107840612D01*
X214805819Y-107703515D01*
X214977170Y-107703515D01*
X214977170Y-107527735D01*
X214913011Y-107507436D01*
X214777142Y-107482717D01*
X214614722Y-107464234D01*
X214550816Y-107459673D01*
X214492486Y-107456247D01*
X214492486Y-107703515D01*
X214570194Y-107732005D01*
X214598884Y-107815522D01*
X214583493Y-107928959D01*
X214544806Y-108000222D01*
X214487511Y-108009745D01*
X214411760Y-107978316D01*
X214383373Y-107910040D01*
X214389155Y-107815363D01*
X214415286Y-107732782D01*
X214471801Y-107704456D01*
X214492486Y-107703515D01*
X214492486Y-107456247D01*
X214375124Y-107449354D01*
X214375124Y-108082221D01*
X214423858Y-108089129D01*
X214424440Y-108101956D01*
X214374151Y-108110925D01*
X214352423Y-108104922D01*
X214338190Y-108088238D01*
X214375124Y-108082221D01*
X214375124Y-107449354D01*
X214209172Y-107439606D01*
X214204142Y-107562167D01*
X214199622Y-107670915D01*
X214193594Y-107814203D01*
X214189998Y-107899045D01*
X214194930Y-108072575D01*
X214194930Y-108072575D01*
G37*
X214194930Y-108072575D02*
X214231877Y-108185174D01*
X214307615Y-108246693D01*
X214428920Y-108266984D01*
X214443181Y-108267125D01*
X214572600Y-108250126D01*
X214665505Y-108205808D01*
X214667092Y-108204399D01*
X214722961Y-108162855D01*
X214760475Y-108175410D01*
X214782773Y-108201877D01*
X214852285Y-108248341D01*
X214941864Y-108270268D01*
X215107125Y-108274665D01*
X215219133Y-108252189D01*
X215287895Y-108191891D01*
X215323422Y-108082819D01*
X215335721Y-107914022D01*
X215336391Y-107838603D01*
X215333546Y-107692502D01*
X215325978Y-107576659D01*
X215315138Y-107510502D01*
X215311342Y-107503121D01*
X215244643Y-107478063D01*
X215167555Y-107492766D01*
X215124892Y-107533503D01*
X215101273Y-107567633D01*
X215055576Y-107561758D01*
X214998041Y-107534337D01*
X214977170Y-107527735D01*
X214977170Y-107703515D01*
X215081961Y-107706193D01*
X215131921Y-107724686D01*
X215147366Y-107774681D01*
X215148521Y-107835830D01*
X215135760Y-107936055D01*
X215086520Y-107993792D01*
X215051668Y-108012273D01*
X214942366Y-108034372D01*
X214864770Y-107989375D01*
X214822357Y-107879833D01*
X214817481Y-107840612D01*
X214805819Y-107703515D01*
X214977170Y-107703515D01*
X214977170Y-107527735D01*
X214913011Y-107507436D01*
X214777142Y-107482717D01*
X214614722Y-107464234D01*
X214550816Y-107459673D01*
X214492486Y-107456247D01*
X214492486Y-107703515D01*
X214570194Y-107732005D01*
X214598884Y-107815522D01*
X214583493Y-107928959D01*
X214544806Y-108000222D01*
X214487511Y-108009745D01*
X214411760Y-107978316D01*
X214383373Y-107910040D01*
X214389155Y-107815363D01*
X214415286Y-107732782D01*
X214471801Y-107704456D01*
X214492486Y-107703515D01*
X214492486Y-107456247D01*
X214375124Y-107449354D01*
X214375124Y-108082221D01*
X214423858Y-108089129D01*
X214424440Y-108101956D01*
X214374151Y-108110925D01*
X214352423Y-108104922D01*
X214338190Y-108088238D01*
X214375124Y-108082221D01*
X214375124Y-107449354D01*
X214209172Y-107439606D01*
X214204142Y-107562167D01*
X214199622Y-107670915D01*
X214193594Y-107814203D01*
X214189998Y-107899045D01*
X214194930Y-108072575D01*
G36*
X203906321Y-106598694D02*
X203982248Y-106668383D01*
X204083049Y-106689127D01*
X204187662Y-106653471D01*
X204233284Y-106613870D01*
X204249328Y-106598124D01*
X204270591Y-106584746D01*
X204302911Y-106573544D01*
X204352126Y-106564323D01*
X204424073Y-106556892D01*
X204524590Y-106551058D01*
X204659514Y-106546627D01*
X204834683Y-106543407D01*
X205055934Y-106541205D01*
X205329105Y-106539829D01*
X205660033Y-106539085D01*
X206054556Y-106538780D01*
X206508068Y-106538722D01*
X208714844Y-106538722D01*
X208747324Y-106760026D01*
X208275068Y-106917499D01*
X208051387Y-106991624D01*
X207808471Y-107071373D01*
X207578274Y-107146292D01*
X207419634Y-107197359D01*
X207036457Y-107319745D01*
X206824114Y-107214171D01*
X206705565Y-107157476D01*
X206624081Y-107131279D01*
X206549717Y-107132063D01*
X206452529Y-107156312D01*
X206418237Y-107166502D01*
X206272025Y-107210010D01*
X206126626Y-107252913D01*
X206074409Y-107268192D01*
X205967913Y-107311759D01*
X205918898Y-107369736D01*
X205911497Y-107399673D01*
X205919187Y-107494183D01*
X205956837Y-107638826D01*
X206018646Y-107817644D01*
X206098808Y-108014676D01*
X206191520Y-108213965D01*
X206245635Y-108318523D01*
X206325639Y-108477058D01*
X206367574Y-108589317D01*
X206376525Y-108670546D01*
X206372072Y-108697515D01*
X206378241Y-108807278D01*
X206440307Y-108896832D01*
X206539443Y-108941911D01*
X206562870Y-108943456D01*
X206655501Y-108913477D01*
X206734030Y-108841639D01*
X206769410Y-108755089D01*
X206769527Y-108750319D01*
X206739508Y-108671244D01*
X206668253Y-108591215D01*
X206583963Y-108538008D01*
X206575606Y-108536278D01*
X206575606Y-108686780D01*
X206640382Y-108689995D01*
X206651673Y-108734794D01*
X206650240Y-108743141D01*
X206606551Y-108800656D01*
X206562356Y-108811947D01*
X206501112Y-108790648D01*
X206491720Y-108744631D01*
X206531340Y-108700714D01*
X206575606Y-108686780D01*
X206575606Y-108536278D01*
X206545985Y-108530142D01*
X206495729Y-108497316D01*
X206428635Y-108408419D01*
X206351176Y-108277820D01*
X206269826Y-108119892D01*
X206191059Y-107949004D01*
X206121347Y-107779527D01*
X206067164Y-107625833D01*
X206034984Y-107502291D01*
X206031279Y-107423274D01*
X206039919Y-107406684D01*
X206091159Y-107380910D01*
X206193204Y-107342881D01*
X206324491Y-107300597D01*
X206331620Y-107298460D01*
X206588832Y-107221638D01*
X206813797Y-107328029D01*
X206952596Y-107387579D01*
X207049582Y-107411599D01*
X207126324Y-107404935D01*
X207138982Y-107401075D01*
X207210026Y-107377798D01*
X207336741Y-107336631D01*
X207503266Y-107282713D01*
X207693739Y-107221185D01*
X207765237Y-107198123D01*
X207974642Y-107130303D01*
X208179505Y-107063421D01*
X208359132Y-107004267D01*
X208492826Y-106959632D01*
X208515652Y-106951879D01*
X208640523Y-106914440D01*
X208740464Y-106893864D01*
X208788063Y-106893672D01*
X208836921Y-106939467D01*
X208817371Y-107011449D01*
X208730669Y-107107612D01*
X208582282Y-107223011D01*
X208434841Y-107326987D01*
X208256780Y-107453990D01*
X208078074Y-107582600D01*
X208009468Y-107632355D01*
X207790787Y-107790914D01*
X207623674Y-107910095D01*
X207499193Y-107995087D01*
X207408408Y-108051082D01*
X207342384Y-108083272D01*
X207292185Y-108096847D01*
X207248875Y-108096998D01*
X207218299Y-108091983D01*
X207195285Y-108092596D01*
X207195285Y-108198542D01*
X207245616Y-108204671D01*
X207253020Y-108262508D01*
X207251646Y-108273175D01*
X207221469Y-108340948D01*
X207182841Y-108361060D01*
X207136821Y-108334684D01*
X207128499Y-108277076D01*
X207155401Y-108220514D01*
X207195285Y-108198542D01*
X207195285Y-108092596D01*
X207097550Y-108095202D01*
X207020729Y-108157236D01*
X206994971Y-108267125D01*
X207021248Y-108378701D01*
X207088868Y-108441566D01*
X207181015Y-108454595D01*
X207280872Y-108416665D01*
X207371625Y-108326654D01*
X207392175Y-108293653D01*
X207427103Y-108238933D01*
X207474533Y-108182619D01*
X207542591Y-108118096D01*
X207639402Y-108038749D01*
X207773090Y-107937962D01*
X207951781Y-107809121D01*
X208183599Y-107645610D01*
X208216125Y-107622818D01*
X208328558Y-107542927D01*
X208415176Y-107479240D01*
X208458907Y-107444339D01*
X208460355Y-107442810D01*
X208525548Y-107385213D01*
X208626114Y-107315983D01*
X208741512Y-107246882D01*
X208851196Y-107189678D01*
X208934623Y-107156133D01*
X208966381Y-107153024D01*
X209016226Y-107177351D01*
X209042993Y-107209638D01*
X209042972Y-107258081D01*
X209012449Y-107330878D01*
X208947712Y-107436227D01*
X208845048Y-107582324D01*
X208700745Y-107777368D01*
X208657513Y-107835024D01*
X208595476Y-107919327D01*
X208506937Y-108041717D01*
X208408731Y-108178889D01*
X208386060Y-108210764D01*
X208270549Y-108371954D01*
X208136223Y-108557258D01*
X208009254Y-108730598D01*
X207990798Y-108755586D01*
X207873794Y-108915546D01*
X207751194Y-109086020D01*
X207645772Y-109235284D01*
X207626656Y-109262835D01*
X207531794Y-109395929D01*
X207436929Y-109522143D01*
X207367610Y-109608135D01*
X207293749Y-109698691D01*
X207238910Y-109774465D01*
X207230586Y-109788148D01*
X207176189Y-109827993D01*
X207058722Y-109859178D01*
X206917469Y-109878905D01*
X206638018Y-109909505D01*
X206365607Y-109625970D01*
X206240368Y-109492383D01*
X206160058Y-109395898D01*
X206115165Y-109321815D01*
X206096173Y-109255439D01*
X206093196Y-109205130D01*
X206069308Y-109074615D01*
X206007438Y-108986406D01*
X205922274Y-108949301D01*
X205917324Y-108950504D01*
X205917324Y-109062784D01*
X205958545Y-109091145D01*
X205994245Y-109152843D01*
X205980042Y-109211515D01*
X205926112Y-109236976D01*
X205909992Y-109235137D01*
X205863752Y-109193694D01*
X205861931Y-109148751D01*
X205883063Y-109072783D01*
X205917324Y-109062784D01*
X205917324Y-108950504D01*
X205828504Y-108972099D01*
X205776621Y-109015505D01*
X205724424Y-109117747D01*
X205742293Y-109219287D01*
X205826405Y-109305747D01*
X205858681Y-109323996D01*
X205934488Y-109375771D01*
X206045125Y-109468698D01*
X206174512Y-109588650D01*
X206281944Y-109695843D01*
X206582769Y-110006528D01*
X206910985Y-109982473D01*
X207071353Y-109969003D01*
X207176345Y-109952755D01*
X207245636Y-109927180D01*
X207298903Y-109885732D01*
X207340932Y-109839404D01*
X207399622Y-109765697D01*
X207493975Y-109641195D01*
X207616266Y-109476463D01*
X207758772Y-109282064D01*
X207913770Y-109068562D01*
X208073536Y-108846520D01*
X208230345Y-108626504D01*
X208305756Y-108519806D01*
X208415501Y-108366268D01*
X208535906Y-108201186D01*
X208626675Y-108079255D01*
X208718931Y-107954310D01*
X208802878Y-107835813D01*
X208853574Y-107759876D01*
X208949695Y-107620181D01*
X209049021Y-107497966D01*
X209139514Y-107406018D01*
X209209134Y-107357127D01*
X209235900Y-107353787D01*
X209252582Y-107359427D01*
X209266642Y-107365927D01*
X209276747Y-107377857D01*
X209281565Y-107399790D01*
X209279765Y-107436296D01*
X209270015Y-107491948D01*
X209250983Y-107571317D01*
X209221337Y-107678975D01*
X209179746Y-107819493D01*
X209124877Y-107997444D01*
X209055400Y-108217397D01*
X208969981Y-108483926D01*
X208867290Y-108801602D01*
X208745994Y-109174996D01*
X208604762Y-109608680D01*
X208442262Y-110107226D01*
X208362323Y-110352480D01*
X208256243Y-110677406D01*
X208170262Y-110938294D01*
X208101339Y-111142600D01*
X208046435Y-111297782D01*
X208002507Y-111411297D01*
X207966516Y-111490603D01*
X207935419Y-111543156D01*
X207934894Y-111543753D01*
X207934894Y-111694179D01*
X207973974Y-111706428D01*
X208003997Y-111759562D01*
X207985692Y-111824349D01*
X207929781Y-111865963D01*
X207924495Y-111867155D01*
X207870623Y-111852979D01*
X207859172Y-111804050D01*
X207881184Y-111724059D01*
X207934894Y-111694179D01*
X207934894Y-111543753D01*
X207906177Y-111576415D01*
X207875748Y-111597837D01*
X207849059Y-111611208D01*
X207750400Y-111685791D01*
X207711759Y-111779035D01*
X207736510Y-111872826D01*
X207790239Y-111926953D01*
X207904868Y-111981041D01*
X208002147Y-111965006D01*
X208064906Y-111912819D01*
X208112691Y-111821443D01*
X208108416Y-111720817D01*
X208104841Y-111673228D01*
X208111399Y-111606014D01*
X208130012Y-111512479D01*
X208162603Y-111385926D01*
X208211093Y-111219660D01*
X208277405Y-111006984D01*
X208363460Y-110741204D01*
X208471181Y-110415623D01*
X208555118Y-110164610D01*
X208603031Y-110019731D01*
X208668500Y-109818861D01*
X208746469Y-109577672D01*
X208831880Y-109311836D01*
X208919676Y-109037027D01*
X208967351Y-108887095D01*
X209078936Y-108535542D01*
X209170356Y-108248873D01*
X209244358Y-108020403D01*
X209303690Y-107843445D01*
X209351100Y-107711315D01*
X209389335Y-107617326D01*
X209421142Y-107554794D01*
X209449270Y-107517032D01*
X209476465Y-107497355D01*
X209505475Y-107489078D01*
X209539049Y-107485514D01*
X209543531Y-107485084D01*
X209662722Y-107473310D01*
X209662722Y-110419633D01*
X210047855Y-110398079D01*
X210399720Y-110362284D01*
X210727529Y-110291913D01*
X211057028Y-110179952D01*
X211384047Y-110034064D01*
X211547840Y-109958107D01*
X211695273Y-109896747D01*
X211808643Y-109856935D01*
X211864981Y-109845231D01*
X212027486Y-109882539D01*
X212181094Y-109994448D01*
X212325776Y-110180936D01*
X212343975Y-110210736D01*
X212330915Y-110257194D01*
X212259750Y-110325736D01*
X212141816Y-110409727D01*
X211988449Y-110502528D01*
X211810987Y-110597505D01*
X211620766Y-110688019D01*
X211429123Y-110767434D01*
X211335180Y-110801290D01*
X211223207Y-110834451D01*
X211151132Y-110838229D01*
X211089966Y-110813274D01*
X211079821Y-110807016D01*
X211002528Y-110784173D01*
X211002528Y-110872796D01*
X211045155Y-110925099D01*
X211052959Y-110974668D01*
X211025316Y-111035885D01*
X210977811Y-111047598D01*
X210920845Y-111018670D01*
X210900231Y-110955162D01*
X210923728Y-110891994D01*
X210940237Y-110878515D01*
X211002528Y-110872796D01*
X211002528Y-110784173D01*
X210969295Y-110774351D01*
X210914513Y-110786108D01*
X210819068Y-110853779D01*
X210780211Y-110945829D01*
X210794974Y-111040801D01*
X210860392Y-111117240D01*
X210965235Y-111153006D01*
X211057357Y-111147256D01*
X211127643Y-111096461D01*
X211164200Y-111049677D01*
X211230918Y-110974401D01*
X211290521Y-110936100D01*
X211299144Y-110934876D01*
X211360520Y-110920314D01*
X211466884Y-110881885D01*
X211600452Y-110827479D01*
X211743436Y-110764982D01*
X211878053Y-110702284D01*
X211986514Y-110647271D01*
X212051036Y-110607833D01*
X212061118Y-110596937D01*
X212104301Y-110560105D01*
X212117555Y-110558205D01*
X212171909Y-110536527D01*
X212258527Y-110483015D01*
X212356753Y-110412955D01*
X212445929Y-110341633D01*
X212505399Y-110284333D01*
X212518344Y-110261624D01*
X212496292Y-110219439D01*
X212439434Y-110137919D01*
X212361718Y-110034914D01*
X212277088Y-109928276D01*
X212199493Y-109835857D01*
X212142879Y-109775508D01*
X212130517Y-109765207D01*
X212074590Y-109745819D01*
X211975121Y-109725507D01*
X211933944Y-109719274D01*
X211847211Y-109712811D01*
X211765269Y-109723723D01*
X211667933Y-109758043D01*
X211535021Y-109821806D01*
X211459177Y-109861213D01*
X211114111Y-110023080D01*
X210762445Y-110152007D01*
X210421907Y-110242798D01*
X210110228Y-110290256D01*
X209975200Y-110296119D01*
X209813018Y-110296119D01*
X209813018Y-108887095D01*
X209813593Y-108488836D01*
X209815765Y-108162047D01*
X209820208Y-107903055D01*
X209827594Y-107708189D01*
X209838596Y-107573775D01*
X209853885Y-107496140D01*
X209874136Y-107471614D01*
X209900020Y-107496523D01*
X209932211Y-107567194D01*
X209971380Y-107679956D01*
X210010872Y-107806844D01*
X210059918Y-107967475D01*
X210123957Y-108175214D01*
X210195386Y-108405499D01*
X210266604Y-108633767D01*
X210280744Y-108678902D01*
X210354686Y-108925367D01*
X210401175Y-109105362D01*
X210419955Y-109217769D01*
X210413859Y-109259420D01*
X210376370Y-109343558D01*
X210385940Y-109447991D01*
X210436921Y-109539446D01*
X210465491Y-109563559D01*
X210569218Y-109596393D01*
X210674749Y-109578085D01*
X210752125Y-109515912D01*
X210764976Y-109490831D01*
X210769102Y-109398379D01*
X210731826Y-109299995D01*
X210668570Y-109229847D01*
X210641792Y-109217922D01*
X210613234Y-109210083D01*
X210590372Y-109197533D01*
X210590372Y-109325559D01*
X210622658Y-109333474D01*
X210671896Y-109372534D01*
X210658984Y-109437802D01*
X210642862Y-109465573D01*
X210588152Y-109498077D01*
X210525221Y-109481269D01*
X210490019Y-109426634D01*
X210489350Y-109416527D01*
X210518809Y-109346494D01*
X210590372Y-109325559D01*
X210590372Y-109197533D01*
X210589776Y-109197205D01*
X210567488Y-109169819D01*
X210542435Y-109118451D01*
X210510687Y-109033630D01*
X210468309Y-108905886D01*
X210411371Y-108725745D01*
X210335939Y-108483736D01*
X210332839Y-108473781D01*
X210242180Y-108182390D01*
X210171679Y-107954291D01*
X210119067Y-107781053D01*
X210082078Y-107654246D01*
X210058445Y-107565437D01*
X210045899Y-107506197D01*
X210042175Y-107468092D01*
X210045003Y-107442692D01*
X210050796Y-107424978D01*
X210072047Y-107382661D01*
X210098919Y-107363833D01*
X210136323Y-107373722D01*
X210189170Y-107417556D01*
X210262368Y-107500562D01*
X210360829Y-107627968D01*
X210489463Y-107805002D01*
X210653180Y-108036890D01*
X210733580Y-108151893D01*
X210826261Y-108282028D01*
X210917097Y-108405251D01*
X210977811Y-108483966D01*
X211035472Y-108559602D01*
X211124137Y-108680653D01*
X211231977Y-108830786D01*
X211347164Y-108993668D01*
X211353551Y-109002776D01*
X211503778Y-109214874D01*
X211620553Y-109372346D01*
X211711984Y-109483176D01*
X211786177Y-109555351D01*
X211851240Y-109596854D01*
X211915280Y-109615670D01*
X211980024Y-109619809D01*
X212044468Y-109615532D01*
X212103458Y-109596732D01*
X212169481Y-109554482D01*
X212255026Y-109479856D01*
X212372580Y-109363930D01*
X212453154Y-109281643D01*
X212613494Y-109122636D01*
X212734974Y-109017479D01*
X212825962Y-108961570D01*
X212894828Y-108950307D01*
X212949942Y-108979089D01*
X212968123Y-108998481D01*
X213022403Y-109048585D01*
X213116699Y-109122510D01*
X213207561Y-109188035D01*
X213454986Y-109361091D01*
X213647025Y-109498953D01*
X213791033Y-109607782D01*
X213894367Y-109693744D01*
X213964383Y-109763000D01*
X214008437Y-109821715D01*
X214033886Y-109876051D01*
X214035857Y-109881999D01*
X214099413Y-109996066D01*
X214190073Y-110056310D01*
X214290860Y-110055710D01*
X214358330Y-110015344D01*
X214422089Y-109917956D01*
X214425004Y-109815532D01*
X214377166Y-109727853D01*
X214288661Y-109674703D01*
X214281981Y-109674566D01*
X214281981Y-109787426D01*
X214282199Y-109787560D01*
X214314169Y-109840207D01*
X214303137Y-109903253D01*
X214257356Y-109938594D01*
X214249363Y-109939166D01*
X214193992Y-109916692D01*
X214184733Y-109901592D01*
X214190769Y-109838232D01*
X214231426Y-109790534D01*
X214281981Y-109787426D01*
X214281981Y-109674566D01*
X214183515Y-109672541D01*
X214129772Y-109675753D01*
X214067620Y-109658349D01*
X213984662Y-109613626D01*
X213868502Y-109534881D01*
X213706741Y-109415410D01*
X213703624Y-109413063D01*
X213559650Y-109305732D01*
X213437959Y-109217112D01*
X213350699Y-109155900D01*
X213310021Y-109130795D01*
X213309097Y-109130605D01*
X213271691Y-109107432D01*
X213197665Y-109048711D01*
X213138314Y-108997941D01*
X212990374Y-108887038D01*
X212865615Y-108838174D01*
X212753485Y-108846443D01*
X212700662Y-108882141D01*
X212611212Y-108961906D01*
X212498219Y-109073448D01*
X212389821Y-109188002D01*
X212258628Y-109328210D01*
X212163650Y-109420706D01*
X212092391Y-109475005D01*
X212032360Y-109500620D01*
X211971063Y-109507065D01*
X211970844Y-109507065D01*
X211863884Y-109488491D01*
X211800799Y-109425100D01*
X211799826Y-109423299D01*
X211743347Y-109335731D01*
X211703252Y-109287790D01*
X211655891Y-109231424D01*
X211582494Y-109134480D01*
X211503233Y-109023997D01*
X211452166Y-108951089D01*
X211405071Y-108884334D01*
X211355542Y-108814911D01*
X211297172Y-108733997D01*
X211223554Y-108632769D01*
X211128283Y-108502406D01*
X211004952Y-108334085D01*
X210847154Y-108118984D01*
X210740727Y-107973965D01*
X210582483Y-107757028D01*
X210465137Y-107591556D01*
X210384253Y-107469086D01*
X210335393Y-107381152D01*
X210314117Y-107319290D01*
X210315987Y-107275033D01*
X210336567Y-107239918D01*
X210348923Y-107226655D01*
X210376444Y-107202140D01*
X210405918Y-107191110D01*
X210446516Y-107198535D01*
X210507406Y-107229387D01*
X210597759Y-107288637D01*
X210726744Y-107381255D01*
X210903530Y-107512213D01*
X210977811Y-107567590D01*
X211149446Y-107694240D01*
X211328661Y-107824235D01*
X211490389Y-107939494D01*
X211578994Y-108001195D01*
X211906477Y-108233218D01*
X212225263Y-108472940D01*
X212311687Y-108540774D01*
X212460807Y-108651733D01*
X212575756Y-108715563D01*
X212674748Y-108739013D01*
X212775999Y-108728830D01*
X212801806Y-108722363D01*
X212900638Y-108684103D01*
X212974694Y-108619600D01*
X213048122Y-108507290D01*
X213053630Y-108497497D01*
X213147202Y-108361933D01*
X213237159Y-108293601D01*
X213250321Y-108289448D01*
X213337553Y-108239530D01*
X213372673Y-108160314D01*
X213360992Y-108070979D01*
X213307822Y-107990701D01*
X213218475Y-107938657D01*
X213166494Y-107931244D01*
X213166494Y-108048834D01*
X213219754Y-108061904D01*
X213232249Y-108116829D01*
X213213232Y-108178498D01*
X213166494Y-108184824D01*
X213110596Y-108147774D01*
X213100740Y-108116829D01*
X213131976Y-108063775D01*
X213166494Y-108048834D01*
X213166494Y-107931244D01*
X213150472Y-107928959D01*
X213048924Y-107960042D01*
X212988429Y-108039950D01*
X212979893Y-108148672D01*
X212998558Y-108207668D01*
X213016809Y-108271066D01*
X213003454Y-108337440D01*
X212951876Y-108430748D01*
X212925900Y-108470685D01*
X212846385Y-108577022D01*
X212778403Y-108629459D01*
X212707273Y-108642864D01*
X212614486Y-108625284D01*
X212559499Y-108590819D01*
X212509434Y-108545662D01*
X212415260Y-108472426D01*
X212295139Y-108385095D01*
X212263700Y-108363058D01*
X212104225Y-108251074D01*
X211921715Y-108121352D01*
X211753731Y-108000599D01*
X211742416Y-107992396D01*
X211611283Y-107897527D01*
X211439067Y-107773335D01*
X211245794Y-107634240D01*
X211051485Y-107494662D01*
X211002167Y-107459284D01*
X210805597Y-107315214D01*
X210666811Y-107204519D01*
X210580117Y-107120349D01*
X210539825Y-107055855D01*
X210540242Y-107004188D01*
X210575677Y-106958499D01*
X210581733Y-106953324D01*
X210622640Y-106936134D01*
X210690375Y-106939506D01*
X210798796Y-106965896D01*
X210961763Y-107017759D01*
X210979908Y-107023871D01*
X211133171Y-107074038D01*
X211262245Y-107113291D01*
X211348845Y-107136216D01*
X211371913Y-107139906D01*
X211416262Y-107171936D01*
X211444449Y-107235118D01*
X211496001Y-107323486D01*
X211559705Y-107371957D01*
X211665927Y-107385189D01*
X211764188Y-107342553D01*
X211829312Y-107259715D01*
X211842012Y-107196267D01*
X211809368Y-107096806D01*
X211728328Y-107027711D01*
X211624227Y-107004831D01*
X211611526Y-107007894D01*
X211611526Y-107106430D01*
X211671701Y-107125847D01*
X211717389Y-107172663D01*
X211710973Y-107234784D01*
X211658148Y-107279491D01*
X211644317Y-107283132D01*
X211594267Y-107272369D01*
X211579024Y-107204122D01*
X211578994Y-107199022D01*
X211583567Y-107123595D01*
X211611526Y-107106430D01*
X211611526Y-107007894D01*
X211560558Y-107020187D01*
X211505725Y-107035136D01*
X211431698Y-107032489D01*
X211323490Y-107009664D01*
X211166117Y-106964081D01*
X211083029Y-106937935D01*
X210927028Y-106884921D01*
X210802920Y-106836552D01*
X210724940Y-106798783D01*
X210705400Y-106779913D01*
X210711804Y-106769580D01*
X210729789Y-106761445D01*
X210766880Y-106755366D01*
X210830601Y-106751200D01*
X210928477Y-106748805D01*
X211068034Y-106748037D01*
X211256796Y-106748754D01*
X211502288Y-106750813D01*
X211812035Y-106754072D01*
X211973144Y-106755878D01*
X212705459Y-106764166D01*
X212966714Y-106999003D01*
X213094289Y-107117795D01*
X213173487Y-107204565D01*
X213214992Y-107273755D01*
X213229489Y-107339811D01*
X213230110Y-107355090D01*
X213261897Y-107473992D01*
X213340623Y-107550141D01*
X213448526Y-107570429D01*
X213503846Y-107557100D01*
X213593494Y-107493102D01*
X213626755Y-107404831D01*
X213608433Y-107311633D01*
X213543332Y-107232857D01*
X213459917Y-107197795D01*
X213459917Y-107288747D01*
X213507791Y-107315251D01*
X213530531Y-107368416D01*
X213488105Y-107432629D01*
X213487752Y-107432983D01*
X213424783Y-107475201D01*
X213390038Y-107447778D01*
X213382545Y-107384136D01*
X213405675Y-107310106D01*
X213459917Y-107288747D01*
X213459917Y-107197795D01*
X213436256Y-107187849D01*
X213411368Y-107184695D01*
X213267098Y-107141159D01*
X213186789Y-107071958D01*
X213111268Y-106993127D01*
X213003336Y-106892052D01*
X212910452Y-106811119D01*
X212720164Y-106651444D01*
X210733580Y-106639610D01*
X213317654Y-106576390D01*
X213404666Y-106670278D01*
X213477771Y-106734522D01*
X213538041Y-106763967D01*
X213541473Y-106764166D01*
X213634560Y-106733718D01*
X213716018Y-106660508D01*
X213757311Y-106571736D01*
X213758284Y-106557509D01*
X213725645Y-106466702D01*
X213645916Y-106389860D01*
X213572639Y-106361778D01*
X213572639Y-106462119D01*
X213620513Y-106488624D01*
X213643253Y-106541789D01*
X213600827Y-106606002D01*
X213600474Y-106606355D01*
X213537505Y-106648574D01*
X213502760Y-106621151D01*
X213495267Y-106557509D01*
X213518397Y-106483479D01*
X213572639Y-106462119D01*
X213572639Y-106361778D01*
X213546378Y-106351713D01*
X213530304Y-106350852D01*
X213460582Y-106376957D01*
X213401332Y-106426000D01*
X213380653Y-106446040D01*
X213353549Y-106462087D01*
X213312250Y-106474519D01*
X213248987Y-106483712D01*
X213155989Y-106490045D01*
X213025489Y-106493895D01*
X212849715Y-106495637D01*
X212620900Y-106495651D01*
X212331273Y-106494312D01*
X212033452Y-106492406D01*
X211692052Y-106490080D01*
X211424122Y-106488123D01*
X211227982Y-106486430D01*
X211101956Y-106484895D01*
X211044366Y-106483409D01*
X211053535Y-106481868D01*
X211127785Y-106480164D01*
X211265438Y-106478192D01*
X211464817Y-106475844D01*
X211724244Y-106473014D01*
X211727379Y-106472981D01*
X212721178Y-106462297D01*
X213026611Y-106164172D01*
X213172079Y-106026528D01*
X213277107Y-105938566D01*
X213350919Y-105893570D01*
X213402739Y-105884823D01*
X213408535Y-105886049D01*
X213487678Y-105872823D01*
X213562108Y-105809968D01*
X213611960Y-105721459D01*
X213617927Y-105633319D01*
X213560792Y-105545796D01*
X213461977Y-105500843D01*
X213432643Y-105502909D01*
X213432643Y-105599373D01*
X213504227Y-105623053D01*
X213524337Y-105674762D01*
X213490444Y-105725501D01*
X213445186Y-105743031D01*
X213393437Y-105727091D01*
X213382545Y-105677276D01*
X213402777Y-105614833D01*
X213432643Y-105599373D01*
X213432643Y-105502909D01*
X213347728Y-105508890D01*
X213326184Y-105517389D01*
X213254606Y-105573014D01*
X213232393Y-105666005D01*
X213232249Y-105677851D01*
X213222245Y-105743843D01*
X213186081Y-105816126D01*
X213114531Y-105908066D01*
X212998369Y-106033029D01*
X212959838Y-106072458D01*
X212687426Y-106349401D01*
X211693595Y-106350127D01*
X211384966Y-106349081D01*
X211130716Y-106345567D01*
X210935411Y-106339747D01*
X210803620Y-106331787D01*
X210739907Y-106321849D01*
X210735459Y-106315678D01*
X210786029Y-106288282D01*
X210888859Y-106246577D01*
X211024376Y-106198328D01*
X211066618Y-106184342D01*
X211245447Y-106131985D01*
X211384721Y-106107558D01*
X211512826Y-106106878D01*
X211560625Y-106111516D01*
X211679143Y-106121884D01*
X211746592Y-106113671D01*
X211785900Y-106081387D01*
X211802671Y-106053562D01*
X211825700Y-105951081D01*
X211804531Y-105845638D01*
X211752407Y-105778425D01*
X211685876Y-105757731D01*
X211642617Y-105753780D01*
X211642617Y-105868855D01*
X211674729Y-105876669D01*
X211725284Y-105920621D01*
X211704636Y-105981896D01*
X211674575Y-106011321D01*
X211603837Y-106036892D01*
X211552165Y-106002505D01*
X211541421Y-105956326D01*
X211571187Y-105889096D01*
X211642617Y-105868855D01*
X211642617Y-105753780D01*
X211603911Y-105750244D01*
X211519495Y-105766722D01*
X211467782Y-105831208D01*
X211454448Y-105863248D01*
X211392177Y-105958559D01*
X211282208Y-106012163D01*
X211279235Y-106012984D01*
X211173568Y-106042404D01*
X211028851Y-106083378D01*
X210891488Y-106122706D01*
X210636082Y-106196271D01*
X210593198Y-106102152D01*
X210571881Y-106034125D01*
X210592163Y-105980405D01*
X210660734Y-105915263D01*
X210762619Y-105833774D01*
X210859812Y-105762088D01*
X210865089Y-105758465D01*
X210937460Y-105707741D01*
X211054397Y-105624297D01*
X211199804Y-105519768D01*
X211357587Y-105405789D01*
X211511650Y-105293997D01*
X211645898Y-105196026D01*
X211744236Y-105123513D01*
X211766864Y-105106548D01*
X211840288Y-105052237D01*
X211954250Y-104969254D01*
X212088129Y-104872591D01*
X212135745Y-104838394D01*
X212275414Y-104738066D01*
X212406029Y-104643941D01*
X212505136Y-104572208D01*
X212526435Y-104556696D01*
X212653597Y-104484470D01*
X212757897Y-104478348D01*
X212852122Y-104541133D01*
X212930330Y-104645196D01*
X212993201Y-104753669D01*
X213015200Y-104824369D01*
X213002121Y-104878430D01*
X212996754Y-104887599D01*
X212975106Y-104977183D01*
X212995670Y-105076767D01*
X213047865Y-105154927D01*
X213095095Y-105179628D01*
X213220708Y-105177912D01*
X213313933Y-105130210D01*
X213368361Y-105053387D01*
X213377588Y-104964309D01*
X213335206Y-104879841D01*
X213234810Y-104816848D01*
X213233124Y-104816255D01*
X213192033Y-104789103D01*
X213192033Y-104905589D01*
X213226562Y-104950685D01*
X213232249Y-105004452D01*
X213202872Y-105062532D01*
X213157101Y-105073338D01*
X213095427Y-105048879D01*
X213086892Y-104991537D01*
X213132378Y-104927969D01*
X213192033Y-104905589D01*
X213192033Y-104789103D01*
X213133621Y-104750504D01*
X213061045Y-104653425D01*
X212975856Y-104509886D01*
X212888991Y-104424068D01*
X212783378Y-104380137D01*
X212761350Y-104375511D01*
X212723636Y-104369363D01*
X212686789Y-104368500D01*
X212644874Y-104376708D01*
X212591956Y-104397775D01*
X212522100Y-104435486D01*
X212429372Y-104493629D01*
X212307837Y-104575990D01*
X212151561Y-104686356D01*
X211954610Y-104828515D01*
X211711048Y-105006253D01*
X211414941Y-105223356D01*
X211297190Y-105309785D01*
X211173112Y-105399607D01*
X211017776Y-105510309D01*
X210861784Y-105620104D01*
X210839499Y-105635651D01*
X210715051Y-105724702D01*
X210614979Y-105800710D01*
X210555109Y-105851479D01*
X210546083Y-105861788D01*
X210491174Y-105898872D01*
X210425655Y-105871419D01*
X210377641Y-105807923D01*
X210358496Y-105762116D01*
X210358843Y-105715347D01*
X210384980Y-105653417D01*
X210443207Y-105562129D01*
X210539824Y-105427287D01*
X210556862Y-105404003D01*
X210684075Y-105230299D01*
X210794092Y-105079895D01*
X210895369Y-104941161D01*
X210996364Y-104802463D01*
X211105534Y-104652169D01*
X211231337Y-104478645D01*
X211382230Y-104270258D01*
X211566669Y-104015377D01*
X211616568Y-103946406D01*
X211726782Y-103796948D01*
X211806338Y-103699078D01*
X211866681Y-103642138D01*
X211919259Y-103615471D01*
X211975517Y-103608421D01*
X211979615Y-103608387D01*
X212039507Y-103615860D01*
X212101196Y-103645012D01*
X212176897Y-103705252D01*
X212278822Y-103805990D01*
X212389132Y-103923889D01*
X212534376Y-104079236D01*
X212648654Y-104185800D01*
X212746692Y-104244403D01*
X212843214Y-104255870D01*
X212952947Y-104221023D01*
X213090615Y-104140687D01*
X213270944Y-104015684D01*
X213326184Y-103976290D01*
X213445101Y-103891428D01*
X213585300Y-103791391D01*
X213664350Y-103734992D01*
X213791376Y-103642585D01*
X213914993Y-103549816D01*
X213976812Y-103501790D01*
X214108049Y-103426079D01*
X214213542Y-103414381D01*
X214334614Y-103399560D01*
X214411664Y-103337834D01*
X214436293Y-103247458D01*
X214400105Y-103146684D01*
X214358330Y-103099675D01*
X214260869Y-103053304D01*
X214224555Y-103059825D01*
X214224555Y-103171411D01*
X214281046Y-103173829D01*
X214319782Y-103231707D01*
X214301050Y-103295627D01*
X214264111Y-103321495D01*
X214202928Y-103312513D01*
X214183974Y-103285415D01*
X214184481Y-103217396D01*
X214224555Y-103171411D01*
X214224555Y-103059825D01*
X214160332Y-103071358D01*
X214075844Y-103146467D01*
X214038411Y-103222946D01*
X214022286Y-103266543D01*
X213999447Y-103307428D01*
X213962142Y-103352275D01*
X213902621Y-103407760D01*
X213813132Y-103480559D01*
X213685924Y-103577345D01*
X213513247Y-103704795D01*
X213288610Y-103868665D01*
X213091031Y-104007754D01*
X212945978Y-104098802D01*
X212849942Y-104143842D01*
X212806216Y-104148167D01*
X212753597Y-104113709D01*
X212662776Y-104036220D01*
X212546923Y-103927518D01*
X212430447Y-103811022D01*
X212294346Y-103673417D01*
X212195857Y-103582272D01*
X212122141Y-103528354D01*
X212060356Y-103502431D01*
X211997662Y-103495271D01*
X211991246Y-103495231D01*
X211891137Y-103504903D01*
X211804142Y-103540827D01*
X211717171Y-103613369D01*
X211617134Y-103732890D01*
X211519045Y-103869090D01*
X211423805Y-104005587D01*
X211335680Y-104131084D01*
X211270518Y-104223032D01*
X211259616Y-104238214D01*
X211048883Y-104529963D01*
X210879873Y-104763463D01*
X210750531Y-104941542D01*
X210658801Y-105067031D01*
X210602627Y-105142757D01*
X210598291Y-105148486D01*
X210539720Y-105227956D01*
X210456937Y-105343088D01*
X210374958Y-105458891D01*
X210292055Y-105572002D01*
X210235474Y-105631972D01*
X210191730Y-105649397D01*
X210149499Y-105636045D01*
X210099697Y-105607399D01*
X210081559Y-105576998D01*
X210093093Y-105521704D01*
X210131034Y-105421657D01*
X210160788Y-105336429D01*
X210206328Y-105195467D01*
X210262493Y-105015204D01*
X210324124Y-104812077D01*
X210355707Y-104705961D01*
X210428472Y-104462199D01*
X210485099Y-104280888D01*
X210529847Y-104152155D01*
X210566980Y-104066125D01*
X210600758Y-104012925D01*
X210635442Y-103982680D01*
X210675257Y-103965528D01*
X210751605Y-103908917D01*
X210782331Y-103819734D01*
X210768686Y-103724147D01*
X210711922Y-103648324D01*
X210658900Y-103623500D01*
X210573752Y-103617126D01*
X210573752Y-103698904D01*
X210634644Y-103716643D01*
X210669599Y-103767625D01*
X210669287Y-103791157D01*
X210627198Y-103844160D01*
X210573507Y-103864191D01*
X210505189Y-103851756D01*
X210491834Y-103794914D01*
X210521109Y-103728796D01*
X210573752Y-103698904D01*
X210573752Y-103617126D01*
X210519984Y-103613100D01*
X210425302Y-103655947D01*
X210383188Y-103743951D01*
X210401977Y-103869023D01*
X210403033Y-103871852D01*
X210417683Y-103915577D01*
X210425451Y-103960798D01*
X210424177Y-104016644D01*
X210411701Y-104092244D01*
X210385864Y-104196729D01*
X210344506Y-104339228D01*
X210285466Y-104528869D01*
X210206584Y-104774785D01*
X210142872Y-104971526D01*
X210066803Y-105200816D01*
X210007630Y-105365725D01*
X209961910Y-105474213D01*
X209926196Y-105534242D01*
X209897046Y-105553773D01*
X209891127Y-105553417D01*
X209875472Y-105543665D01*
X209862647Y-105516329D01*
X209852299Y-105464361D01*
X209844074Y-105380715D01*
X209837619Y-105258344D01*
X209832579Y-105090201D01*
X209828602Y-104869241D01*
X209825333Y-104588415D01*
X209822419Y-104240679D01*
X209821937Y-104174845D01*
X209812069Y-102807688D01*
X210103742Y-102830808D01*
X210556220Y-102900923D01*
X211007102Y-103040612D01*
X211356452Y-103196095D01*
X211598566Y-103306720D01*
X211795001Y-103367931D01*
X211957669Y-103378590D01*
X212098480Y-103337558D01*
X212229347Y-103243699D01*
X212358654Y-103100345D01*
X212438959Y-102994062D01*
X212496306Y-102909112D01*
X212518343Y-102863799D01*
X212518344Y-102863692D01*
X212486359Y-102813272D01*
X212398851Y-102738641D01*
X212268488Y-102647168D01*
X212107938Y-102546220D01*
X211929870Y-102443163D01*
X211746950Y-102345366D01*
X211571849Y-102260194D01*
X211417233Y-102195016D01*
X211308561Y-102160142D01*
X211211982Y-102110150D01*
X211146559Y-102042848D01*
X211066807Y-101972264D01*
X210977811Y-101956483D01*
X210977811Y-102067421D01*
X211040609Y-102093989D01*
X211052959Y-102142568D01*
X211026390Y-102205366D01*
X210977811Y-102217716D01*
X210915013Y-102191148D01*
X210902663Y-102142568D01*
X210929232Y-102079771D01*
X210977811Y-102067421D01*
X210977811Y-101956483D01*
X210971807Y-101955418D01*
X210880179Y-101982849D01*
X210810541Y-102045096D01*
X210781515Y-102132698D01*
X210801696Y-102218068D01*
X210879559Y-102300330D01*
X210991183Y-102325581D01*
X211112818Y-102290992D01*
X211173400Y-102269219D01*
X211244913Y-102273105D01*
X211350276Y-102305700D01*
X211417196Y-102331481D01*
X211731213Y-102467896D01*
X212005064Y-102610391D01*
X212209783Y-102741487D01*
X212370897Y-102859009D01*
X212253721Y-103022173D01*
X212149381Y-103150078D01*
X212046766Y-103229746D01*
X211933297Y-103262096D01*
X211796396Y-103248044D01*
X211623484Y-103188509D01*
X211401984Y-103084410D01*
X211401854Y-103084344D01*
X211213286Y-102996248D01*
X211011568Y-102913318D01*
X210827803Y-102847913D01*
X210747669Y-102824410D01*
X210589857Y-102788219D01*
X210407701Y-102753983D01*
X210217474Y-102723834D01*
X210035447Y-102699907D01*
X209877894Y-102684334D01*
X209761087Y-102679250D01*
X209701299Y-102686788D01*
X209700710Y-102687135D01*
X209689838Y-102731570D01*
X209680707Y-102848886D01*
X209673378Y-103036831D01*
X209667910Y-103293158D01*
X209664363Y-103615618D01*
X209662798Y-104001960D01*
X209662722Y-104117419D01*
X209662796Y-104479790D01*
X209662506Y-104774143D01*
X209661085Y-105007605D01*
X209657768Y-105187305D01*
X209651788Y-105320371D01*
X209642378Y-105413930D01*
X209628772Y-105475112D01*
X209610203Y-105511045D01*
X209585905Y-105528856D01*
X209555111Y-105535674D01*
X209517055Y-105538627D01*
X209509833Y-105539255D01*
X209488064Y-105527968D01*
X209460561Y-105485749D01*
X209424685Y-105405608D01*
X209377796Y-105280557D01*
X209317256Y-105103608D01*
X209240425Y-104867771D01*
X209156513Y-104603663D01*
X209087109Y-104384609D01*
X209015712Y-104161015D01*
X208950064Y-103957025D01*
X208897910Y-103796784D01*
X208891407Y-103777036D01*
X208851291Y-103654245D01*
X208793091Y-103474399D01*
X208721492Y-103252059D01*
X208641177Y-103001788D01*
X208556831Y-102738145D01*
X208510655Y-102593456D01*
X208429486Y-102340648D01*
X208352584Y-102104426D01*
X208283879Y-101896596D01*
X208227295Y-101728968D01*
X208186761Y-101613348D01*
X208170617Y-101571046D01*
X208129552Y-101385087D01*
X208137142Y-101275091D01*
X208143339Y-101137201D01*
X208106340Y-101033512D01*
X208102255Y-101027111D01*
X208019910Y-100956571D01*
X207985688Y-100954060D01*
X207985688Y-101063371D01*
X208008274Y-101070973D01*
X208039507Y-101125877D01*
X208025016Y-101193753D01*
X207981307Y-101231411D01*
X207932652Y-101218148D01*
X207905940Y-101163552D01*
X207913595Y-101100830D01*
X207926057Y-101083731D01*
X207985688Y-101063371D01*
X207985688Y-100954060D01*
X207921744Y-100949367D01*
X207828707Y-101003303D01*
X207786151Y-101060292D01*
X207752543Y-101133582D01*
X207761654Y-101187473D01*
X207819504Y-101257351D01*
X207819696Y-101257555D01*
X207891256Y-101322212D01*
X207946693Y-101353080D01*
X207951027Y-101353515D01*
X207980140Y-101386874D01*
X208022606Y-101475951D01*
X208071000Y-101604247D01*
X208090559Y-101663500D01*
X208137196Y-101809782D01*
X208200174Y-102006325D01*
X208272677Y-102231903D01*
X208347886Y-102465287D01*
X208383210Y-102574669D01*
X208548581Y-103086602D01*
X208708303Y-103581545D01*
X208858357Y-104047035D01*
X208994727Y-104470608D01*
X209113398Y-104839801D01*
X209152173Y-104960616D01*
X209212756Y-105148173D01*
X209266827Y-105313164D01*
X209309483Y-105440798D01*
X209335819Y-105516284D01*
X209339963Y-105526926D01*
X209333336Y-105586101D01*
X209271860Y-105628441D01*
X209223295Y-105645265D01*
X209180860Y-105637922D01*
X209131142Y-105596372D01*
X209060726Y-105510578D01*
X208992133Y-105419083D01*
X208815578Y-105178804D01*
X208637207Y-104931682D01*
X208438445Y-104651947D01*
X208404371Y-104603663D01*
X208300841Y-104456605D01*
X208219989Y-104349818D01*
X208146884Y-104275008D01*
X208066598Y-104223878D01*
X207964199Y-104188135D01*
X207824758Y-104159485D01*
X207633346Y-104129631D01*
X207520787Y-104112766D01*
X207289576Y-104076151D01*
X207121590Y-104044944D01*
X207005368Y-104016226D01*
X206929449Y-103987078D01*
X206882373Y-103954580D01*
X206876555Y-103948663D01*
X206772498Y-103882390D01*
X206752961Y-103882369D01*
X206752961Y-103989417D01*
X206797293Y-104015913D01*
X206807101Y-104056086D01*
X206782345Y-104120324D01*
X206729198Y-104133989D01*
X206669315Y-104113743D01*
X206663875Y-104068666D01*
X206698803Y-104007851D01*
X206752961Y-103989417D01*
X206752961Y-103882369D01*
X206659878Y-103882265D01*
X206565400Y-103943323D01*
X206515051Y-104039753D01*
X206538220Y-104130884D01*
X206629328Y-104207845D01*
X206707193Y-104243044D01*
X206771218Y-104238258D01*
X206848043Y-104199809D01*
X206899082Y-104173467D01*
X206950700Y-104158137D01*
X207017816Y-104154048D01*
X207115347Y-104161433D01*
X207258214Y-104180521D01*
X207445332Y-104209055D01*
X207670800Y-104244966D01*
X207833982Y-104273918D01*
X207947023Y-104299291D01*
X208022072Y-104324465D01*
X208071274Y-104352819D01*
X208106777Y-104387733D01*
X208112414Y-104394678D01*
X208162161Y-104460158D01*
X208244574Y-104571673D01*
X208350871Y-104717059D01*
X208472272Y-104884150D01*
X208599996Y-105060785D01*
X208725264Y-105234799D01*
X208839293Y-105394028D01*
X208933305Y-105526309D01*
X208998517Y-105619478D01*
X209023607Y-105656954D01*
X209058842Y-105728300D01*
X209046444Y-105777477D01*
X209017127Y-105810184D01*
X208981750Y-105840984D01*
X208945154Y-105852220D01*
X208895153Y-105838635D01*
X208819560Y-105794974D01*
X208706189Y-105715978D01*
X208573077Y-105618640D01*
X208319681Y-105432541D01*
X208110198Y-105279631D01*
X207928340Y-105148126D01*
X207757814Y-105026243D01*
X207593476Y-104910041D01*
X207308992Y-104709750D01*
X206917144Y-104773272D01*
X206525296Y-104836793D01*
X206393787Y-104740148D01*
X206303656Y-104673417D01*
X206237084Y-104623257D01*
X206224705Y-104613633D01*
X206175553Y-104576045D01*
X206087786Y-104510112D01*
X206010265Y-104452319D01*
X205882613Y-104342156D01*
X205814516Y-104236875D01*
X205804785Y-104122407D01*
X205852234Y-103984685D01*
X205955673Y-103809639D01*
X205955955Y-103809213D01*
X206062138Y-103660160D01*
X206180181Y-103512141D01*
X206285400Y-103396022D01*
X206290047Y-103391445D01*
X206453926Y-103231298D01*
X206852854Y-103293007D01*
X207035663Y-103323406D01*
X207156426Y-103349808D01*
X207227818Y-103376220D01*
X207262514Y-103406648D01*
X207270128Y-103424874D01*
X207321944Y-103494364D01*
X207415257Y-103539371D01*
X207516976Y-103544548D01*
X207524418Y-103542800D01*
X207600689Y-103488703D01*
X207638891Y-103393736D01*
X207629067Y-103286722D01*
X207620142Y-103265763D01*
X207543455Y-103186270D01*
X207471873Y-103170686D01*
X207471873Y-103276604D01*
X207507143Y-103285265D01*
X207549794Y-103325912D01*
X207533657Y-103375075D01*
X207468377Y-103410225D01*
X207452309Y-103413303D01*
X207384612Y-103402881D01*
X207370710Y-103368553D01*
X207399815Y-103297477D01*
X207471873Y-103276604D01*
X207471873Y-103170686D01*
X207432402Y-103162092D01*
X207310392Y-103196757D01*
X207256631Y-103215757D01*
X207180050Y-103221814D01*
X207065912Y-103214401D01*
X206899479Y-103192991D01*
X206803325Y-103178607D01*
X206382936Y-103114068D01*
X206262043Y-103238895D01*
X206173077Y-103337986D01*
X206063838Y-103469936D01*
X205948964Y-103615839D01*
X205843093Y-103756785D01*
X205760863Y-103873868D01*
X205723719Y-103934255D01*
X205686516Y-104054132D01*
X205681357Y-104191662D01*
X205706467Y-104315952D01*
X205749749Y-104387613D01*
X205857001Y-104479700D01*
X206008019Y-104597551D01*
X206183361Y-104726286D01*
X206289553Y-104800769D01*
X206391131Y-104864180D01*
X206485611Y-104902401D01*
X206591319Y-104917200D01*
X206726580Y-104910344D01*
X206909718Y-104883598D01*
X206994713Y-104868760D01*
X207276260Y-104818431D01*
X207464388Y-104947654D01*
X207596276Y-105040081D01*
X207751604Y-105151550D01*
X207877959Y-105244074D01*
X208026456Y-105352398D01*
X208199839Y-105476244D01*
X208360796Y-105588964D01*
X208362099Y-105589864D01*
X208502177Y-105689029D01*
X208635157Y-105787339D01*
X208735435Y-105865797D01*
X208746714Y-105875222D01*
X208828093Y-105962339D01*
X208842892Y-106042225D01*
X208793846Y-106136684D01*
X208781543Y-106152953D01*
X208768289Y-106151824D01*
X208728981Y-106141999D01*
X208658111Y-106121788D01*
X208550169Y-106089505D01*
X208399649Y-106043458D01*
X208201041Y-105981962D01*
X207948839Y-105903325D01*
X207637533Y-105805861D01*
X207261616Y-105687881D01*
X207145267Y-105651328D01*
X206933539Y-105585562D01*
X206777485Y-105540307D01*
X206661314Y-105512840D01*
X206569233Y-105500437D01*
X206485451Y-105500373D01*
X206394177Y-105509925D01*
X206356213Y-105515227D01*
X206181698Y-105531804D01*
X206072906Y-105521469D01*
X206048057Y-105510589D01*
X205955424Y-105492362D01*
X205955424Y-105599373D01*
X206027008Y-105623053D01*
X206047119Y-105674762D01*
X206013225Y-105725501D01*
X205967967Y-105743031D01*
X205916218Y-105727091D01*
X205905326Y-105677276D01*
X205925558Y-105614833D01*
X205955424Y-105599373D01*
X205955424Y-105492362D01*
X205948530Y-105491005D01*
X205878974Y-105507627D01*
X205789820Y-105571263D01*
X205755677Y-105665416D01*
X205779687Y-105766226D01*
X205836415Y-105830832D01*
X205911311Y-105881633D01*
X205968296Y-105889968D01*
X206029946Y-105850613D01*
X206110583Y-105767364D01*
X206207108Y-105678888D01*
X206310122Y-105632151D01*
X206423276Y-105612114D01*
X206495787Y-105606911D01*
X206573370Y-105610554D01*
X206667390Y-105625713D01*
X206789211Y-105655056D01*
X206950195Y-105701253D01*
X207161709Y-105766974D01*
X207377744Y-105836309D01*
X207625569Y-105916254D01*
X207868724Y-105994320D01*
X208091088Y-106065359D01*
X208276545Y-106124223D01*
X208408976Y-106165767D01*
X208422781Y-106170035D01*
X208569929Y-106219016D01*
X208658399Y-106259811D01*
X208702780Y-106300932D01*
X208716593Y-106341459D01*
X208728600Y-106426000D01*
X206494936Y-106426000D01*
X206022993Y-106425808D01*
X205620668Y-106425138D01*
X205282434Y-106423855D01*
X205002763Y-106421823D01*
X204776125Y-106418903D01*
X204596993Y-106414961D01*
X204459839Y-106409858D01*
X204359134Y-106403459D01*
X204289350Y-106395627D01*
X204244959Y-106386226D01*
X204220433Y-106375118D01*
X204214497Y-106369639D01*
X204133062Y-106321264D01*
X204073595Y-106322522D01*
X204073595Y-106433153D01*
X204126855Y-106446224D01*
X204139350Y-106501148D01*
X204120333Y-106562817D01*
X204073595Y-106569143D01*
X204017696Y-106532093D01*
X204007841Y-106501148D01*
X204039076Y-106448094D01*
X204073595Y-106433153D01*
X204073595Y-106322522D01*
X204033428Y-106323372D01*
X203941747Y-106366847D01*
X203884173Y-106442572D01*
X203876332Y-106487515D01*
X203906321Y-106598694D01*
X203906321Y-106598694D01*
G37*
X203906321Y-106598694D02*
X203982248Y-106668383D01*
X204083049Y-106689127D01*
X204187662Y-106653471D01*
X204233284Y-106613870D01*
X204249328Y-106598124D01*
X204270591Y-106584746D01*
X204302911Y-106573544D01*
X204352126Y-106564323D01*
X204424073Y-106556892D01*
X204524590Y-106551058D01*
X204659514Y-106546627D01*
X204834683Y-106543407D01*
X205055934Y-106541205D01*
X205329105Y-106539829D01*
X205660033Y-106539085D01*
X206054556Y-106538780D01*
X206508068Y-106538722D01*
X208714844Y-106538722D01*
X208747324Y-106760026D01*
X208275068Y-106917499D01*
X208051387Y-106991624D01*
X207808471Y-107071373D01*
X207578274Y-107146292D01*
X207419634Y-107197359D01*
X207036457Y-107319745D01*
X206824114Y-107214171D01*
X206705565Y-107157476D01*
X206624081Y-107131279D01*
X206549717Y-107132063D01*
X206452529Y-107156312D01*
X206418237Y-107166502D01*
X206272025Y-107210010D01*
X206126626Y-107252913D01*
X206074409Y-107268192D01*
X205967913Y-107311759D01*
X205918898Y-107369736D01*
X205911497Y-107399673D01*
X205919187Y-107494183D01*
X205956837Y-107638826D01*
X206018646Y-107817644D01*
X206098808Y-108014676D01*
X206191520Y-108213965D01*
X206245635Y-108318523D01*
X206325639Y-108477058D01*
X206367574Y-108589317D01*
X206376525Y-108670546D01*
X206372072Y-108697515D01*
X206378241Y-108807278D01*
X206440307Y-108896832D01*
X206539443Y-108941911D01*
X206562870Y-108943456D01*
X206655501Y-108913477D01*
X206734030Y-108841639D01*
X206769410Y-108755089D01*
X206769527Y-108750319D01*
X206739508Y-108671244D01*
X206668253Y-108591215D01*
X206583963Y-108538008D01*
X206575606Y-108536278D01*
X206575606Y-108686780D01*
X206640382Y-108689995D01*
X206651673Y-108734794D01*
X206650240Y-108743141D01*
X206606551Y-108800656D01*
X206562356Y-108811947D01*
X206501112Y-108790648D01*
X206491720Y-108744631D01*
X206531340Y-108700714D01*
X206575606Y-108686780D01*
X206575606Y-108536278D01*
X206545985Y-108530142D01*
X206495729Y-108497316D01*
X206428635Y-108408419D01*
X206351176Y-108277820D01*
X206269826Y-108119892D01*
X206191059Y-107949004D01*
X206121347Y-107779527D01*
X206067164Y-107625833D01*
X206034984Y-107502291D01*
X206031279Y-107423274D01*
X206039919Y-107406684D01*
X206091159Y-107380910D01*
X206193204Y-107342881D01*
X206324491Y-107300597D01*
X206331620Y-107298460D01*
X206588832Y-107221638D01*
X206813797Y-107328029D01*
X206952596Y-107387579D01*
X207049582Y-107411599D01*
X207126324Y-107404935D01*
X207138982Y-107401075D01*
X207210026Y-107377798D01*
X207336741Y-107336631D01*
X207503266Y-107282713D01*
X207693739Y-107221185D01*
X207765237Y-107198123D01*
X207974642Y-107130303D01*
X208179505Y-107063421D01*
X208359132Y-107004267D01*
X208492826Y-106959632D01*
X208515652Y-106951879D01*
X208640523Y-106914440D01*
X208740464Y-106893864D01*
X208788063Y-106893672D01*
X208836921Y-106939467D01*
X208817371Y-107011449D01*
X208730669Y-107107612D01*
X208582282Y-107223011D01*
X208434841Y-107326987D01*
X208256780Y-107453990D01*
X208078074Y-107582600D01*
X208009468Y-107632355D01*
X207790787Y-107790914D01*
X207623674Y-107910095D01*
X207499193Y-107995087D01*
X207408408Y-108051082D01*
X207342384Y-108083272D01*
X207292185Y-108096847D01*
X207248875Y-108096998D01*
X207218299Y-108091983D01*
X207195285Y-108092596D01*
X207195285Y-108198542D01*
X207245616Y-108204671D01*
X207253020Y-108262508D01*
X207251646Y-108273175D01*
X207221469Y-108340948D01*
X207182841Y-108361060D01*
X207136821Y-108334684D01*
X207128499Y-108277076D01*
X207155401Y-108220514D01*
X207195285Y-108198542D01*
X207195285Y-108092596D01*
X207097550Y-108095202D01*
X207020729Y-108157236D01*
X206994971Y-108267125D01*
X207021248Y-108378701D01*
X207088868Y-108441566D01*
X207181015Y-108454595D01*
X207280872Y-108416665D01*
X207371625Y-108326654D01*
X207392175Y-108293653D01*
X207427103Y-108238933D01*
X207474533Y-108182619D01*
X207542591Y-108118096D01*
X207639402Y-108038749D01*
X207773090Y-107937962D01*
X207951781Y-107809121D01*
X208183599Y-107645610D01*
X208216125Y-107622818D01*
X208328558Y-107542927D01*
X208415176Y-107479240D01*
X208458907Y-107444339D01*
X208460355Y-107442810D01*
X208525548Y-107385213D01*
X208626114Y-107315983D01*
X208741512Y-107246882D01*
X208851196Y-107189678D01*
X208934623Y-107156133D01*
X208966381Y-107153024D01*
X209016226Y-107177351D01*
X209042993Y-107209638D01*
X209042972Y-107258081D01*
X209012449Y-107330878D01*
X208947712Y-107436227D01*
X208845048Y-107582324D01*
X208700745Y-107777368D01*
X208657513Y-107835024D01*
X208595476Y-107919327D01*
X208506937Y-108041717D01*
X208408731Y-108178889D01*
X208386060Y-108210764D01*
X208270549Y-108371954D01*
X208136223Y-108557258D01*
X208009254Y-108730598D01*
X207990798Y-108755586D01*
X207873794Y-108915546D01*
X207751194Y-109086020D01*
X207645772Y-109235284D01*
X207626656Y-109262835D01*
X207531794Y-109395929D01*
X207436929Y-109522143D01*
X207367610Y-109608135D01*
X207293749Y-109698691D01*
X207238910Y-109774465D01*
X207230586Y-109788148D01*
X207176189Y-109827993D01*
X207058722Y-109859178D01*
X206917469Y-109878905D01*
X206638018Y-109909505D01*
X206365607Y-109625970D01*
X206240368Y-109492383D01*
X206160058Y-109395898D01*
X206115165Y-109321815D01*
X206096173Y-109255439D01*
X206093196Y-109205130D01*
X206069308Y-109074615D01*
X206007438Y-108986406D01*
X205922274Y-108949301D01*
X205917324Y-108950504D01*
X205917324Y-109062784D01*
X205958545Y-109091145D01*
X205994245Y-109152843D01*
X205980042Y-109211515D01*
X205926112Y-109236976D01*
X205909992Y-109235137D01*
X205863752Y-109193694D01*
X205861931Y-109148751D01*
X205883063Y-109072783D01*
X205917324Y-109062784D01*
X205917324Y-108950504D01*
X205828504Y-108972099D01*
X205776621Y-109015505D01*
X205724424Y-109117747D01*
X205742293Y-109219287D01*
X205826405Y-109305747D01*
X205858681Y-109323996D01*
X205934488Y-109375771D01*
X206045125Y-109468698D01*
X206174512Y-109588650D01*
X206281944Y-109695843D01*
X206582769Y-110006528D01*
X206910985Y-109982473D01*
X207071353Y-109969003D01*
X207176345Y-109952755D01*
X207245636Y-109927180D01*
X207298903Y-109885732D01*
X207340932Y-109839404D01*
X207399622Y-109765697D01*
X207493975Y-109641195D01*
X207616266Y-109476463D01*
X207758772Y-109282064D01*
X207913770Y-109068562D01*
X208073536Y-108846520D01*
X208230345Y-108626504D01*
X208305756Y-108519806D01*
X208415501Y-108366268D01*
X208535906Y-108201186D01*
X208626675Y-108079255D01*
X208718931Y-107954310D01*
X208802878Y-107835813D01*
X208853574Y-107759876D01*
X208949695Y-107620181D01*
X209049021Y-107497966D01*
X209139514Y-107406018D01*
X209209134Y-107357127D01*
X209235900Y-107353787D01*
X209252582Y-107359427D01*
X209266642Y-107365927D01*
X209276747Y-107377857D01*
X209281565Y-107399790D01*
X209279765Y-107436296D01*
X209270015Y-107491948D01*
X209250983Y-107571317D01*
X209221337Y-107678975D01*
X209179746Y-107819493D01*
X209124877Y-107997444D01*
X209055400Y-108217397D01*
X208969981Y-108483926D01*
X208867290Y-108801602D01*
X208745994Y-109174996D01*
X208604762Y-109608680D01*
X208442262Y-110107226D01*
X208362323Y-110352480D01*
X208256243Y-110677406D01*
X208170262Y-110938294D01*
X208101339Y-111142600D01*
X208046435Y-111297782D01*
X208002507Y-111411297D01*
X207966516Y-111490603D01*
X207935419Y-111543156D01*
X207934894Y-111543753D01*
X207934894Y-111694179D01*
X207973974Y-111706428D01*
X208003997Y-111759562D01*
X207985692Y-111824349D01*
X207929781Y-111865963D01*
X207924495Y-111867155D01*
X207870623Y-111852979D01*
X207859172Y-111804050D01*
X207881184Y-111724059D01*
X207934894Y-111694179D01*
X207934894Y-111543753D01*
X207906177Y-111576415D01*
X207875748Y-111597837D01*
X207849059Y-111611208D01*
X207750400Y-111685791D01*
X207711759Y-111779035D01*
X207736510Y-111872826D01*
X207790239Y-111926953D01*
X207904868Y-111981041D01*
X208002147Y-111965006D01*
X208064906Y-111912819D01*
X208112691Y-111821443D01*
X208108416Y-111720817D01*
X208104841Y-111673228D01*
X208111399Y-111606014D01*
X208130012Y-111512479D01*
X208162603Y-111385926D01*
X208211093Y-111219660D01*
X208277405Y-111006984D01*
X208363460Y-110741204D01*
X208471181Y-110415623D01*
X208555118Y-110164610D01*
X208603031Y-110019731D01*
X208668500Y-109818861D01*
X208746469Y-109577672D01*
X208831880Y-109311836D01*
X208919676Y-109037027D01*
X208967351Y-108887095D01*
X209078936Y-108535542D01*
X209170356Y-108248873D01*
X209244358Y-108020403D01*
X209303690Y-107843445D01*
X209351100Y-107711315D01*
X209389335Y-107617326D01*
X209421142Y-107554794D01*
X209449270Y-107517032D01*
X209476465Y-107497355D01*
X209505475Y-107489078D01*
X209539049Y-107485514D01*
X209543531Y-107485084D01*
X209662722Y-107473310D01*
X209662722Y-110419633D01*
X210047855Y-110398079D01*
X210399720Y-110362284D01*
X210727529Y-110291913D01*
X211057028Y-110179952D01*
X211384047Y-110034064D01*
X211547840Y-109958107D01*
X211695273Y-109896747D01*
X211808643Y-109856935D01*
X211864981Y-109845231D01*
X212027486Y-109882539D01*
X212181094Y-109994448D01*
X212325776Y-110180936D01*
X212343975Y-110210736D01*
X212330915Y-110257194D01*
X212259750Y-110325736D01*
X212141816Y-110409727D01*
X211988449Y-110502528D01*
X211810987Y-110597505D01*
X211620766Y-110688019D01*
X211429123Y-110767434D01*
X211335180Y-110801290D01*
X211223207Y-110834451D01*
X211151132Y-110838229D01*
X211089966Y-110813274D01*
X211079821Y-110807016D01*
X211002528Y-110784173D01*
X211002528Y-110872796D01*
X211045155Y-110925099D01*
X211052959Y-110974668D01*
X211025316Y-111035885D01*
X210977811Y-111047598D01*
X210920845Y-111018670D01*
X210900231Y-110955162D01*
X210923728Y-110891994D01*
X210940237Y-110878515D01*
X211002528Y-110872796D01*
X211002528Y-110784173D01*
X210969295Y-110774351D01*
X210914513Y-110786108D01*
X210819068Y-110853779D01*
X210780211Y-110945829D01*
X210794974Y-111040801D01*
X210860392Y-111117240D01*
X210965235Y-111153006D01*
X211057357Y-111147256D01*
X211127643Y-111096461D01*
X211164200Y-111049677D01*
X211230918Y-110974401D01*
X211290521Y-110936100D01*
X211299144Y-110934876D01*
X211360520Y-110920314D01*
X211466884Y-110881885D01*
X211600452Y-110827479D01*
X211743436Y-110764982D01*
X211878053Y-110702284D01*
X211986514Y-110647271D01*
X212051036Y-110607833D01*
X212061118Y-110596937D01*
X212104301Y-110560105D01*
X212117555Y-110558205D01*
X212171909Y-110536527D01*
X212258527Y-110483015D01*
X212356753Y-110412955D01*
X212445929Y-110341633D01*
X212505399Y-110284333D01*
X212518344Y-110261624D01*
X212496292Y-110219439D01*
X212439434Y-110137919D01*
X212361718Y-110034914D01*
X212277088Y-109928276D01*
X212199493Y-109835857D01*
X212142879Y-109775508D01*
X212130517Y-109765207D01*
X212074590Y-109745819D01*
X211975121Y-109725507D01*
X211933944Y-109719274D01*
X211847211Y-109712811D01*
X211765269Y-109723723D01*
X211667933Y-109758043D01*
X211535021Y-109821806D01*
X211459177Y-109861213D01*
X211114111Y-110023080D01*
X210762445Y-110152007D01*
X210421907Y-110242798D01*
X210110228Y-110290256D01*
X209975200Y-110296119D01*
X209813018Y-110296119D01*
X209813018Y-108887095D01*
X209813593Y-108488836D01*
X209815765Y-108162047D01*
X209820208Y-107903055D01*
X209827594Y-107708189D01*
X209838596Y-107573775D01*
X209853885Y-107496140D01*
X209874136Y-107471614D01*
X209900020Y-107496523D01*
X209932211Y-107567194D01*
X209971380Y-107679956D01*
X210010872Y-107806844D01*
X210059918Y-107967475D01*
X210123957Y-108175214D01*
X210195386Y-108405499D01*
X210266604Y-108633767D01*
X210280744Y-108678902D01*
X210354686Y-108925367D01*
X210401175Y-109105362D01*
X210419955Y-109217769D01*
X210413859Y-109259420D01*
X210376370Y-109343558D01*
X210385940Y-109447991D01*
X210436921Y-109539446D01*
X210465491Y-109563559D01*
X210569218Y-109596393D01*
X210674749Y-109578085D01*
X210752125Y-109515912D01*
X210764976Y-109490831D01*
X210769102Y-109398379D01*
X210731826Y-109299995D01*
X210668570Y-109229847D01*
X210641792Y-109217922D01*
X210613234Y-109210083D01*
X210590372Y-109197533D01*
X210590372Y-109325559D01*
X210622658Y-109333474D01*
X210671896Y-109372534D01*
X210658984Y-109437802D01*
X210642862Y-109465573D01*
X210588152Y-109498077D01*
X210525221Y-109481269D01*
X210490019Y-109426634D01*
X210489350Y-109416527D01*
X210518809Y-109346494D01*
X210590372Y-109325559D01*
X210590372Y-109197533D01*
X210589776Y-109197205D01*
X210567488Y-109169819D01*
X210542435Y-109118451D01*
X210510687Y-109033630D01*
X210468309Y-108905886D01*
X210411371Y-108725745D01*
X210335939Y-108483736D01*
X210332839Y-108473781D01*
X210242180Y-108182390D01*
X210171679Y-107954291D01*
X210119067Y-107781053D01*
X210082078Y-107654246D01*
X210058445Y-107565437D01*
X210045899Y-107506197D01*
X210042175Y-107468092D01*
X210045003Y-107442692D01*
X210050796Y-107424978D01*
X210072047Y-107382661D01*
X210098919Y-107363833D01*
X210136323Y-107373722D01*
X210189170Y-107417556D01*
X210262368Y-107500562D01*
X210360829Y-107627968D01*
X210489463Y-107805002D01*
X210653180Y-108036890D01*
X210733580Y-108151893D01*
X210826261Y-108282028D01*
X210917097Y-108405251D01*
X210977811Y-108483966D01*
X211035472Y-108559602D01*
X211124137Y-108680653D01*
X211231977Y-108830786D01*
X211347164Y-108993668D01*
X211353551Y-109002776D01*
X211503778Y-109214874D01*
X211620553Y-109372346D01*
X211711984Y-109483176D01*
X211786177Y-109555351D01*
X211851240Y-109596854D01*
X211915280Y-109615670D01*
X211980024Y-109619809D01*
X212044468Y-109615532D01*
X212103458Y-109596732D01*
X212169481Y-109554482D01*
X212255026Y-109479856D01*
X212372580Y-109363930D01*
X212453154Y-109281643D01*
X212613494Y-109122636D01*
X212734974Y-109017479D01*
X212825962Y-108961570D01*
X212894828Y-108950307D01*
X212949942Y-108979089D01*
X212968123Y-108998481D01*
X213022403Y-109048585D01*
X213116699Y-109122510D01*
X213207561Y-109188035D01*
X213454986Y-109361091D01*
X213647025Y-109498953D01*
X213791033Y-109607782D01*
X213894367Y-109693744D01*
X213964383Y-109763000D01*
X214008437Y-109821715D01*
X214033886Y-109876051D01*
X214035857Y-109881999D01*
X214099413Y-109996066D01*
X214190073Y-110056310D01*
X214290860Y-110055710D01*
X214358330Y-110015344D01*
X214422089Y-109917956D01*
X214425004Y-109815532D01*
X214377166Y-109727853D01*
X214288661Y-109674703D01*
X214281981Y-109674566D01*
X214281981Y-109787426D01*
X214282199Y-109787560D01*
X214314169Y-109840207D01*
X214303137Y-109903253D01*
X214257356Y-109938594D01*
X214249363Y-109939166D01*
X214193992Y-109916692D01*
X214184733Y-109901592D01*
X214190769Y-109838232D01*
X214231426Y-109790534D01*
X214281981Y-109787426D01*
X214281981Y-109674566D01*
X214183515Y-109672541D01*
X214129772Y-109675753D01*
X214067620Y-109658349D01*
X213984662Y-109613626D01*
X213868502Y-109534881D01*
X213706741Y-109415410D01*
X213703624Y-109413063D01*
X213559650Y-109305732D01*
X213437959Y-109217112D01*
X213350699Y-109155900D01*
X213310021Y-109130795D01*
X213309097Y-109130605D01*
X213271691Y-109107432D01*
X213197665Y-109048711D01*
X213138314Y-108997941D01*
X212990374Y-108887038D01*
X212865615Y-108838174D01*
X212753485Y-108846443D01*
X212700662Y-108882141D01*
X212611212Y-108961906D01*
X212498219Y-109073448D01*
X212389821Y-109188002D01*
X212258628Y-109328210D01*
X212163650Y-109420706D01*
X212092391Y-109475005D01*
X212032360Y-109500620D01*
X211971063Y-109507065D01*
X211970844Y-109507065D01*
X211863884Y-109488491D01*
X211800799Y-109425100D01*
X211799826Y-109423299D01*
X211743347Y-109335731D01*
X211703252Y-109287790D01*
X211655891Y-109231424D01*
X211582494Y-109134480D01*
X211503233Y-109023997D01*
X211452166Y-108951089D01*
X211405071Y-108884334D01*
X211355542Y-108814911D01*
X211297172Y-108733997D01*
X211223554Y-108632769D01*
X211128283Y-108502406D01*
X211004952Y-108334085D01*
X210847154Y-108118984D01*
X210740727Y-107973965D01*
X210582483Y-107757028D01*
X210465137Y-107591556D01*
X210384253Y-107469086D01*
X210335393Y-107381152D01*
X210314117Y-107319290D01*
X210315987Y-107275033D01*
X210336567Y-107239918D01*
X210348923Y-107226655D01*
X210376444Y-107202140D01*
X210405918Y-107191110D01*
X210446516Y-107198535D01*
X210507406Y-107229387D01*
X210597759Y-107288637D01*
X210726744Y-107381255D01*
X210903530Y-107512213D01*
X210977811Y-107567590D01*
X211149446Y-107694240D01*
X211328661Y-107824235D01*
X211490389Y-107939494D01*
X211578994Y-108001195D01*
X211906477Y-108233218D01*
X212225263Y-108472940D01*
X212311687Y-108540774D01*
X212460807Y-108651733D01*
X212575756Y-108715563D01*
X212674748Y-108739013D01*
X212775999Y-108728830D01*
X212801806Y-108722363D01*
X212900638Y-108684103D01*
X212974694Y-108619600D01*
X213048122Y-108507290D01*
X213053630Y-108497497D01*
X213147202Y-108361933D01*
X213237159Y-108293601D01*
X213250321Y-108289448D01*
X213337553Y-108239530D01*
X213372673Y-108160314D01*
X213360992Y-108070979D01*
X213307822Y-107990701D01*
X213218475Y-107938657D01*
X213166494Y-107931244D01*
X213166494Y-108048834D01*
X213219754Y-108061904D01*
X213232249Y-108116829D01*
X213213232Y-108178498D01*
X213166494Y-108184824D01*
X213110596Y-108147774D01*
X213100740Y-108116829D01*
X213131976Y-108063775D01*
X213166494Y-108048834D01*
X213166494Y-107931244D01*
X213150472Y-107928959D01*
X213048924Y-107960042D01*
X212988429Y-108039950D01*
X212979893Y-108148672D01*
X212998558Y-108207668D01*
X213016809Y-108271066D01*
X213003454Y-108337440D01*
X212951876Y-108430748D01*
X212925900Y-108470685D01*
X212846385Y-108577022D01*
X212778403Y-108629459D01*
X212707273Y-108642864D01*
X212614486Y-108625284D01*
X212559499Y-108590819D01*
X212509434Y-108545662D01*
X212415260Y-108472426D01*
X212295139Y-108385095D01*
X212263700Y-108363058D01*
X212104225Y-108251074D01*
X211921715Y-108121352D01*
X211753731Y-108000599D01*
X211742416Y-107992396D01*
X211611283Y-107897527D01*
X211439067Y-107773335D01*
X211245794Y-107634240D01*
X211051485Y-107494662D01*
X211002167Y-107459284D01*
X210805597Y-107315214D01*
X210666811Y-107204519D01*
X210580117Y-107120349D01*
X210539825Y-107055855D01*
X210540242Y-107004188D01*
X210575677Y-106958499D01*
X210581733Y-106953324D01*
X210622640Y-106936134D01*
X210690375Y-106939506D01*
X210798796Y-106965896D01*
X210961763Y-107017759D01*
X210979908Y-107023871D01*
X211133171Y-107074038D01*
X211262245Y-107113291D01*
X211348845Y-107136216D01*
X211371913Y-107139906D01*
X211416262Y-107171936D01*
X211444449Y-107235118D01*
X211496001Y-107323486D01*
X211559705Y-107371957D01*
X211665927Y-107385189D01*
X211764188Y-107342553D01*
X211829312Y-107259715D01*
X211842012Y-107196267D01*
X211809368Y-107096806D01*
X211728328Y-107027711D01*
X211624227Y-107004831D01*
X211611526Y-107007894D01*
X211611526Y-107106430D01*
X211671701Y-107125847D01*
X211717389Y-107172663D01*
X211710973Y-107234784D01*
X211658148Y-107279491D01*
X211644317Y-107283132D01*
X211594267Y-107272369D01*
X211579024Y-107204122D01*
X211578994Y-107199022D01*
X211583567Y-107123595D01*
X211611526Y-107106430D01*
X211611526Y-107007894D01*
X211560558Y-107020187D01*
X211505725Y-107035136D01*
X211431698Y-107032489D01*
X211323490Y-107009664D01*
X211166117Y-106964081D01*
X211083029Y-106937935D01*
X210927028Y-106884921D01*
X210802920Y-106836552D01*
X210724940Y-106798783D01*
X210705400Y-106779913D01*
X210711804Y-106769580D01*
X210729789Y-106761445D01*
X210766880Y-106755366D01*
X210830601Y-106751200D01*
X210928477Y-106748805D01*
X211068034Y-106748037D01*
X211256796Y-106748754D01*
X211502288Y-106750813D01*
X211812035Y-106754072D01*
X211973144Y-106755878D01*
X212705459Y-106764166D01*
X212966714Y-106999003D01*
X213094289Y-107117795D01*
X213173487Y-107204565D01*
X213214992Y-107273755D01*
X213229489Y-107339811D01*
X213230110Y-107355090D01*
X213261897Y-107473992D01*
X213340623Y-107550141D01*
X213448526Y-107570429D01*
X213503846Y-107557100D01*
X213593494Y-107493102D01*
X213626755Y-107404831D01*
X213608433Y-107311633D01*
X213543332Y-107232857D01*
X213459917Y-107197795D01*
X213459917Y-107288747D01*
X213507791Y-107315251D01*
X213530531Y-107368416D01*
X213488105Y-107432629D01*
X213487752Y-107432983D01*
X213424783Y-107475201D01*
X213390038Y-107447778D01*
X213382545Y-107384136D01*
X213405675Y-107310106D01*
X213459917Y-107288747D01*
X213459917Y-107197795D01*
X213436256Y-107187849D01*
X213411368Y-107184695D01*
X213267098Y-107141159D01*
X213186789Y-107071958D01*
X213111268Y-106993127D01*
X213003336Y-106892052D01*
X212910452Y-106811119D01*
X212720164Y-106651444D01*
X210733580Y-106639610D01*
X213317654Y-106576390D01*
X213404666Y-106670278D01*
X213477771Y-106734522D01*
X213538041Y-106763967D01*
X213541473Y-106764166D01*
X213634560Y-106733718D01*
X213716018Y-106660508D01*
X213757311Y-106571736D01*
X213758284Y-106557509D01*
X213725645Y-106466702D01*
X213645916Y-106389860D01*
X213572639Y-106361778D01*
X213572639Y-106462119D01*
X213620513Y-106488624D01*
X213643253Y-106541789D01*
X213600827Y-106606002D01*
X213600474Y-106606355D01*
X213537505Y-106648574D01*
X213502760Y-106621151D01*
X213495267Y-106557509D01*
X213518397Y-106483479D01*
X213572639Y-106462119D01*
X213572639Y-106361778D01*
X213546378Y-106351713D01*
X213530304Y-106350852D01*
X213460582Y-106376957D01*
X213401332Y-106426000D01*
X213380653Y-106446040D01*
X213353549Y-106462087D01*
X213312250Y-106474519D01*
X213248987Y-106483712D01*
X213155989Y-106490045D01*
X213025489Y-106493895D01*
X212849715Y-106495637D01*
X212620900Y-106495651D01*
X212331273Y-106494312D01*
X212033452Y-106492406D01*
X211692052Y-106490080D01*
X211424122Y-106488123D01*
X211227982Y-106486430D01*
X211101956Y-106484895D01*
X211044366Y-106483409D01*
X211053535Y-106481868D01*
X211127785Y-106480164D01*
X211265438Y-106478192D01*
X211464817Y-106475844D01*
X211724244Y-106473014D01*
X211727379Y-106472981D01*
X212721178Y-106462297D01*
X213026611Y-106164172D01*
X213172079Y-106026528D01*
X213277107Y-105938566D01*
X213350919Y-105893570D01*
X213402739Y-105884823D01*
X213408535Y-105886049D01*
X213487678Y-105872823D01*
X213562108Y-105809968D01*
X213611960Y-105721459D01*
X213617927Y-105633319D01*
X213560792Y-105545796D01*
X213461977Y-105500843D01*
X213432643Y-105502909D01*
X213432643Y-105599373D01*
X213504227Y-105623053D01*
X213524337Y-105674762D01*
X213490444Y-105725501D01*
X213445186Y-105743031D01*
X213393437Y-105727091D01*
X213382545Y-105677276D01*
X213402777Y-105614833D01*
X213432643Y-105599373D01*
X213432643Y-105502909D01*
X213347728Y-105508890D01*
X213326184Y-105517389D01*
X213254606Y-105573014D01*
X213232393Y-105666005D01*
X213232249Y-105677851D01*
X213222245Y-105743843D01*
X213186081Y-105816126D01*
X213114531Y-105908066D01*
X212998369Y-106033029D01*
X212959838Y-106072458D01*
X212687426Y-106349401D01*
X211693595Y-106350127D01*
X211384966Y-106349081D01*
X211130716Y-106345567D01*
X210935411Y-106339747D01*
X210803620Y-106331787D01*
X210739907Y-106321849D01*
X210735459Y-106315678D01*
X210786029Y-106288282D01*
X210888859Y-106246577D01*
X211024376Y-106198328D01*
X211066618Y-106184342D01*
X211245447Y-106131985D01*
X211384721Y-106107558D01*
X211512826Y-106106878D01*
X211560625Y-106111516D01*
X211679143Y-106121884D01*
X211746592Y-106113671D01*
X211785900Y-106081387D01*
X211802671Y-106053562D01*
X211825700Y-105951081D01*
X211804531Y-105845638D01*
X211752407Y-105778425D01*
X211685876Y-105757731D01*
X211642617Y-105753780D01*
X211642617Y-105868855D01*
X211674729Y-105876669D01*
X211725284Y-105920621D01*
X211704636Y-105981896D01*
X211674575Y-106011321D01*
X211603837Y-106036892D01*
X211552165Y-106002505D01*
X211541421Y-105956326D01*
X211571187Y-105889096D01*
X211642617Y-105868855D01*
X211642617Y-105753780D01*
X211603911Y-105750244D01*
X211519495Y-105766722D01*
X211467782Y-105831208D01*
X211454448Y-105863248D01*
X211392177Y-105958559D01*
X211282208Y-106012163D01*
X211279235Y-106012984D01*
X211173568Y-106042404D01*
X211028851Y-106083378D01*
X210891488Y-106122706D01*
X210636082Y-106196271D01*
X210593198Y-106102152D01*
X210571881Y-106034125D01*
X210592163Y-105980405D01*
X210660734Y-105915263D01*
X210762619Y-105833774D01*
X210859812Y-105762088D01*
X210865089Y-105758465D01*
X210937460Y-105707741D01*
X211054397Y-105624297D01*
X211199804Y-105519768D01*
X211357587Y-105405789D01*
X211511650Y-105293997D01*
X211645898Y-105196026D01*
X211744236Y-105123513D01*
X211766864Y-105106548D01*
X211840288Y-105052237D01*
X211954250Y-104969254D01*
X212088129Y-104872591D01*
X212135745Y-104838394D01*
X212275414Y-104738066D01*
X212406029Y-104643941D01*
X212505136Y-104572208D01*
X212526435Y-104556696D01*
X212653597Y-104484470D01*
X212757897Y-104478348D01*
X212852122Y-104541133D01*
X212930330Y-104645196D01*
X212993201Y-104753669D01*
X213015200Y-104824369D01*
X213002121Y-104878430D01*
X212996754Y-104887599D01*
X212975106Y-104977183D01*
X212995670Y-105076767D01*
X213047865Y-105154927D01*
X213095095Y-105179628D01*
X213220708Y-105177912D01*
X213313933Y-105130210D01*
X213368361Y-105053387D01*
X213377588Y-104964309D01*
X213335206Y-104879841D01*
X213234810Y-104816848D01*
X213233124Y-104816255D01*
X213192033Y-104789103D01*
X213192033Y-104905589D01*
X213226562Y-104950685D01*
X213232249Y-105004452D01*
X213202872Y-105062532D01*
X213157101Y-105073338D01*
X213095427Y-105048879D01*
X213086892Y-104991537D01*
X213132378Y-104927969D01*
X213192033Y-104905589D01*
X213192033Y-104789103D01*
X213133621Y-104750504D01*
X213061045Y-104653425D01*
X212975856Y-104509886D01*
X212888991Y-104424068D01*
X212783378Y-104380137D01*
X212761350Y-104375511D01*
X212723636Y-104369363D01*
X212686789Y-104368500D01*
X212644874Y-104376708D01*
X212591956Y-104397775D01*
X212522100Y-104435486D01*
X212429372Y-104493629D01*
X212307837Y-104575990D01*
X212151561Y-104686356D01*
X211954610Y-104828515D01*
X211711048Y-105006253D01*
X211414941Y-105223356D01*
X211297190Y-105309785D01*
X211173112Y-105399607D01*
X211017776Y-105510309D01*
X210861784Y-105620104D01*
X210839499Y-105635651D01*
X210715051Y-105724702D01*
X210614979Y-105800710D01*
X210555109Y-105851479D01*
X210546083Y-105861788D01*
X210491174Y-105898872D01*
X210425655Y-105871419D01*
X210377641Y-105807923D01*
X210358496Y-105762116D01*
X210358843Y-105715347D01*
X210384980Y-105653417D01*
X210443207Y-105562129D01*
X210539824Y-105427287D01*
X210556862Y-105404003D01*
X210684075Y-105230299D01*
X210794092Y-105079895D01*
X210895369Y-104941161D01*
X210996364Y-104802463D01*
X211105534Y-104652169D01*
X211231337Y-104478645D01*
X211382230Y-104270258D01*
X211566669Y-104015377D01*
X211616568Y-103946406D01*
X211726782Y-103796948D01*
X211806338Y-103699078D01*
X211866681Y-103642138D01*
X211919259Y-103615471D01*
X211975517Y-103608421D01*
X211979615Y-103608387D01*
X212039507Y-103615860D01*
X212101196Y-103645012D01*
X212176897Y-103705252D01*
X212278822Y-103805990D01*
X212389132Y-103923889D01*
X212534376Y-104079236D01*
X212648654Y-104185800D01*
X212746692Y-104244403D01*
X212843214Y-104255870D01*
X212952947Y-104221023D01*
X213090615Y-104140687D01*
X213270944Y-104015684D01*
X213326184Y-103976290D01*
X213445101Y-103891428D01*
X213585300Y-103791391D01*
X213664350Y-103734992D01*
X213791376Y-103642585D01*
X213914993Y-103549816D01*
X213976812Y-103501790D01*
X214108049Y-103426079D01*
X214213542Y-103414381D01*
X214334614Y-103399560D01*
X214411664Y-103337834D01*
X214436293Y-103247458D01*
X214400105Y-103146684D01*
X214358330Y-103099675D01*
X214260869Y-103053304D01*
X214224555Y-103059825D01*
X214224555Y-103171411D01*
X214281046Y-103173829D01*
X214319782Y-103231707D01*
X214301050Y-103295627D01*
X214264111Y-103321495D01*
X214202928Y-103312513D01*
X214183974Y-103285415D01*
X214184481Y-103217396D01*
X214224555Y-103171411D01*
X214224555Y-103059825D01*
X214160332Y-103071358D01*
X214075844Y-103146467D01*
X214038411Y-103222946D01*
X214022286Y-103266543D01*
X213999447Y-103307428D01*
X213962142Y-103352275D01*
X213902621Y-103407760D01*
X213813132Y-103480559D01*
X213685924Y-103577345D01*
X213513247Y-103704795D01*
X213288610Y-103868665D01*
X213091031Y-104007754D01*
X212945978Y-104098802D01*
X212849942Y-104143842D01*
X212806216Y-104148167D01*
X212753597Y-104113709D01*
X212662776Y-104036220D01*
X212546923Y-103927518D01*
X212430447Y-103811022D01*
X212294346Y-103673417D01*
X212195857Y-103582272D01*
X212122141Y-103528354D01*
X212060356Y-103502431D01*
X211997662Y-103495271D01*
X211991246Y-103495231D01*
X211891137Y-103504903D01*
X211804142Y-103540827D01*
X211717171Y-103613369D01*
X211617134Y-103732890D01*
X211519045Y-103869090D01*
X211423805Y-104005587D01*
X211335680Y-104131084D01*
X211270518Y-104223032D01*
X211259616Y-104238214D01*
X211048883Y-104529963D01*
X210879873Y-104763463D01*
X210750531Y-104941542D01*
X210658801Y-105067031D01*
X210602627Y-105142757D01*
X210598291Y-105148486D01*
X210539720Y-105227956D01*
X210456937Y-105343088D01*
X210374958Y-105458891D01*
X210292055Y-105572002D01*
X210235474Y-105631972D01*
X210191730Y-105649397D01*
X210149499Y-105636045D01*
X210099697Y-105607399D01*
X210081559Y-105576998D01*
X210093093Y-105521704D01*
X210131034Y-105421657D01*
X210160788Y-105336429D01*
X210206328Y-105195467D01*
X210262493Y-105015204D01*
X210324124Y-104812077D01*
X210355707Y-104705961D01*
X210428472Y-104462199D01*
X210485099Y-104280888D01*
X210529847Y-104152155D01*
X210566980Y-104066125D01*
X210600758Y-104012925D01*
X210635442Y-103982680D01*
X210675257Y-103965528D01*
X210751605Y-103908917D01*
X210782331Y-103819734D01*
X210768686Y-103724147D01*
X210711922Y-103648324D01*
X210658900Y-103623500D01*
X210573752Y-103617126D01*
X210573752Y-103698904D01*
X210634644Y-103716643D01*
X210669599Y-103767625D01*
X210669287Y-103791157D01*
X210627198Y-103844160D01*
X210573507Y-103864191D01*
X210505189Y-103851756D01*
X210491834Y-103794914D01*
X210521109Y-103728796D01*
X210573752Y-103698904D01*
X210573752Y-103617126D01*
X210519984Y-103613100D01*
X210425302Y-103655947D01*
X210383188Y-103743951D01*
X210401977Y-103869023D01*
X210403033Y-103871852D01*
X210417683Y-103915577D01*
X210425451Y-103960798D01*
X210424177Y-104016644D01*
X210411701Y-104092244D01*
X210385864Y-104196729D01*
X210344506Y-104339228D01*
X210285466Y-104528869D01*
X210206584Y-104774785D01*
X210142872Y-104971526D01*
X210066803Y-105200816D01*
X210007630Y-105365725D01*
X209961910Y-105474213D01*
X209926196Y-105534242D01*
X209897046Y-105553773D01*
X209891127Y-105553417D01*
X209875472Y-105543665D01*
X209862647Y-105516329D01*
X209852299Y-105464361D01*
X209844074Y-105380715D01*
X209837619Y-105258344D01*
X209832579Y-105090201D01*
X209828602Y-104869241D01*
X209825333Y-104588415D01*
X209822419Y-104240679D01*
X209821937Y-104174845D01*
X209812069Y-102807688D01*
X210103742Y-102830808D01*
X210556220Y-102900923D01*
X211007102Y-103040612D01*
X211356452Y-103196095D01*
X211598566Y-103306720D01*
X211795001Y-103367931D01*
X211957669Y-103378590D01*
X212098480Y-103337558D01*
X212229347Y-103243699D01*
X212358654Y-103100345D01*
X212438959Y-102994062D01*
X212496306Y-102909112D01*
X212518343Y-102863799D01*
X212518344Y-102863692D01*
X212486359Y-102813272D01*
X212398851Y-102738641D01*
X212268488Y-102647168D01*
X212107938Y-102546220D01*
X211929870Y-102443163D01*
X211746950Y-102345366D01*
X211571849Y-102260194D01*
X211417233Y-102195016D01*
X211308561Y-102160142D01*
X211211982Y-102110150D01*
X211146559Y-102042848D01*
X211066807Y-101972264D01*
X210977811Y-101956483D01*
X210977811Y-102067421D01*
X211040609Y-102093989D01*
X211052959Y-102142568D01*
X211026390Y-102205366D01*
X210977811Y-102217716D01*
X210915013Y-102191148D01*
X210902663Y-102142568D01*
X210929232Y-102079771D01*
X210977811Y-102067421D01*
X210977811Y-101956483D01*
X210971807Y-101955418D01*
X210880179Y-101982849D01*
X210810541Y-102045096D01*
X210781515Y-102132698D01*
X210801696Y-102218068D01*
X210879559Y-102300330D01*
X210991183Y-102325581D01*
X211112818Y-102290992D01*
X211173400Y-102269219D01*
X211244913Y-102273105D01*
X211350276Y-102305700D01*
X211417196Y-102331481D01*
X211731213Y-102467896D01*
X212005064Y-102610391D01*
X212209783Y-102741487D01*
X212370897Y-102859009D01*
X212253721Y-103022173D01*
X212149381Y-103150078D01*
X212046766Y-103229746D01*
X211933297Y-103262096D01*
X211796396Y-103248044D01*
X211623484Y-103188509D01*
X211401984Y-103084410D01*
X211401854Y-103084344D01*
X211213286Y-102996248D01*
X211011568Y-102913318D01*
X210827803Y-102847913D01*
X210747669Y-102824410D01*
X210589857Y-102788219D01*
X210407701Y-102753983D01*
X210217474Y-102723834D01*
X210035447Y-102699907D01*
X209877894Y-102684334D01*
X209761087Y-102679250D01*
X209701299Y-102686788D01*
X209700710Y-102687135D01*
X209689838Y-102731570D01*
X209680707Y-102848886D01*
X209673378Y-103036831D01*
X209667910Y-103293158D01*
X209664363Y-103615618D01*
X209662798Y-104001960D01*
X209662722Y-104117419D01*
X209662796Y-104479790D01*
X209662506Y-104774143D01*
X209661085Y-105007605D01*
X209657768Y-105187305D01*
X209651788Y-105320371D01*
X209642378Y-105413930D01*
X209628772Y-105475112D01*
X209610203Y-105511045D01*
X209585905Y-105528856D01*
X209555111Y-105535674D01*
X209517055Y-105538627D01*
X209509833Y-105539255D01*
X209488064Y-105527968D01*
X209460561Y-105485749D01*
X209424685Y-105405608D01*
X209377796Y-105280557D01*
X209317256Y-105103608D01*
X209240425Y-104867771D01*
X209156513Y-104603663D01*
X209087109Y-104384609D01*
X209015712Y-104161015D01*
X208950064Y-103957025D01*
X208897910Y-103796784D01*
X208891407Y-103777036D01*
X208851291Y-103654245D01*
X208793091Y-103474399D01*
X208721492Y-103252059D01*
X208641177Y-103001788D01*
X208556831Y-102738145D01*
X208510655Y-102593456D01*
X208429486Y-102340648D01*
X208352584Y-102104426D01*
X208283879Y-101896596D01*
X208227295Y-101728968D01*
X208186761Y-101613348D01*
X208170617Y-101571046D01*
X208129552Y-101385087D01*
X208137142Y-101275091D01*
X208143339Y-101137201D01*
X208106340Y-101033512D01*
X208102255Y-101027111D01*
X208019910Y-100956571D01*
X207985688Y-100954060D01*
X207985688Y-101063371D01*
X208008274Y-101070973D01*
X208039507Y-101125877D01*
X208025016Y-101193753D01*
X207981307Y-101231411D01*
X207932652Y-101218148D01*
X207905940Y-101163552D01*
X207913595Y-101100830D01*
X207926057Y-101083731D01*
X207985688Y-101063371D01*
X207985688Y-100954060D01*
X207921744Y-100949367D01*
X207828707Y-101003303D01*
X207786151Y-101060292D01*
X207752543Y-101133582D01*
X207761654Y-101187473D01*
X207819504Y-101257351D01*
X207819696Y-101257555D01*
X207891256Y-101322212D01*
X207946693Y-101353080D01*
X207951027Y-101353515D01*
X207980140Y-101386874D01*
X208022606Y-101475951D01*
X208071000Y-101604247D01*
X208090559Y-101663500D01*
X208137196Y-101809782D01*
X208200174Y-102006325D01*
X208272677Y-102231903D01*
X208347886Y-102465287D01*
X208383210Y-102574669D01*
X208548581Y-103086602D01*
X208708303Y-103581545D01*
X208858357Y-104047035D01*
X208994727Y-104470608D01*
X209113398Y-104839801D01*
X209152173Y-104960616D01*
X209212756Y-105148173D01*
X209266827Y-105313164D01*
X209309483Y-105440798D01*
X209335819Y-105516284D01*
X209339963Y-105526926D01*
X209333336Y-105586101D01*
X209271860Y-105628441D01*
X209223295Y-105645265D01*
X209180860Y-105637922D01*
X209131142Y-105596372D01*
X209060726Y-105510578D01*
X208992133Y-105419083D01*
X208815578Y-105178804D01*
X208637207Y-104931682D01*
X208438445Y-104651947D01*
X208404371Y-104603663D01*
X208300841Y-104456605D01*
X208219989Y-104349818D01*
X208146884Y-104275008D01*
X208066598Y-104223878D01*
X207964199Y-104188135D01*
X207824758Y-104159485D01*
X207633346Y-104129631D01*
X207520787Y-104112766D01*
X207289576Y-104076151D01*
X207121590Y-104044944D01*
X207005368Y-104016226D01*
X206929449Y-103987078D01*
X206882373Y-103954580D01*
X206876555Y-103948663D01*
X206772498Y-103882390D01*
X206752961Y-103882369D01*
X206752961Y-103989417D01*
X206797293Y-104015913D01*
X206807101Y-104056086D01*
X206782345Y-104120324D01*
X206729198Y-104133989D01*
X206669315Y-104113743D01*
X206663875Y-104068666D01*
X206698803Y-104007851D01*
X206752961Y-103989417D01*
X206752961Y-103882369D01*
X206659878Y-103882265D01*
X206565400Y-103943323D01*
X206515051Y-104039753D01*
X206538220Y-104130884D01*
X206629328Y-104207845D01*
X206707193Y-104243044D01*
X206771218Y-104238258D01*
X206848043Y-104199809D01*
X206899082Y-104173467D01*
X206950700Y-104158137D01*
X207017816Y-104154048D01*
X207115347Y-104161433D01*
X207258214Y-104180521D01*
X207445332Y-104209055D01*
X207670800Y-104244966D01*
X207833982Y-104273918D01*
X207947023Y-104299291D01*
X208022072Y-104324465D01*
X208071274Y-104352819D01*
X208106777Y-104387733D01*
X208112414Y-104394678D01*
X208162161Y-104460158D01*
X208244574Y-104571673D01*
X208350871Y-104717059D01*
X208472272Y-104884150D01*
X208599996Y-105060785D01*
X208725264Y-105234799D01*
X208839293Y-105394028D01*
X208933305Y-105526309D01*
X208998517Y-105619478D01*
X209023607Y-105656954D01*
X209058842Y-105728300D01*
X209046444Y-105777477D01*
X209017127Y-105810184D01*
X208981750Y-105840984D01*
X208945154Y-105852220D01*
X208895153Y-105838635D01*
X208819560Y-105794974D01*
X208706189Y-105715978D01*
X208573077Y-105618640D01*
X208319681Y-105432541D01*
X208110198Y-105279631D01*
X207928340Y-105148126D01*
X207757814Y-105026243D01*
X207593476Y-104910041D01*
X207308992Y-104709750D01*
X206917144Y-104773272D01*
X206525296Y-104836793D01*
X206393787Y-104740148D01*
X206303656Y-104673417D01*
X206237084Y-104623257D01*
X206224705Y-104613633D01*
X206175553Y-104576045D01*
X206087786Y-104510112D01*
X206010265Y-104452319D01*
X205882613Y-104342156D01*
X205814516Y-104236875D01*
X205804785Y-104122407D01*
X205852234Y-103984685D01*
X205955673Y-103809639D01*
X205955955Y-103809213D01*
X206062138Y-103660160D01*
X206180181Y-103512141D01*
X206285400Y-103396022D01*
X206290047Y-103391445D01*
X206453926Y-103231298D01*
X206852854Y-103293007D01*
X207035663Y-103323406D01*
X207156426Y-103349808D01*
X207227818Y-103376220D01*
X207262514Y-103406648D01*
X207270128Y-103424874D01*
X207321944Y-103494364D01*
X207415257Y-103539371D01*
X207516976Y-103544548D01*
X207524418Y-103542800D01*
X207600689Y-103488703D01*
X207638891Y-103393736D01*
X207629067Y-103286722D01*
X207620142Y-103265763D01*
X207543455Y-103186270D01*
X207471873Y-103170686D01*
X207471873Y-103276604D01*
X207507143Y-103285265D01*
X207549794Y-103325912D01*
X207533657Y-103375075D01*
X207468377Y-103410225D01*
X207452309Y-103413303D01*
X207384612Y-103402881D01*
X207370710Y-103368553D01*
X207399815Y-103297477D01*
X207471873Y-103276604D01*
X207471873Y-103170686D01*
X207432402Y-103162092D01*
X207310392Y-103196757D01*
X207256631Y-103215757D01*
X207180050Y-103221814D01*
X207065912Y-103214401D01*
X206899479Y-103192991D01*
X206803325Y-103178607D01*
X206382936Y-103114068D01*
X206262043Y-103238895D01*
X206173077Y-103337986D01*
X206063838Y-103469936D01*
X205948964Y-103615839D01*
X205843093Y-103756785D01*
X205760863Y-103873868D01*
X205723719Y-103934255D01*
X205686516Y-104054132D01*
X205681357Y-104191662D01*
X205706467Y-104315952D01*
X205749749Y-104387613D01*
X205857001Y-104479700D01*
X206008019Y-104597551D01*
X206183361Y-104726286D01*
X206289553Y-104800769D01*
X206391131Y-104864180D01*
X206485611Y-104902401D01*
X206591319Y-104917200D01*
X206726580Y-104910344D01*
X206909718Y-104883598D01*
X206994713Y-104868760D01*
X207276260Y-104818431D01*
X207464388Y-104947654D01*
X207596276Y-105040081D01*
X207751604Y-105151550D01*
X207877959Y-105244074D01*
X208026456Y-105352398D01*
X208199839Y-105476244D01*
X208360796Y-105588964D01*
X208362099Y-105589864D01*
X208502177Y-105689029D01*
X208635157Y-105787339D01*
X208735435Y-105865797D01*
X208746714Y-105875222D01*
X208828093Y-105962339D01*
X208842892Y-106042225D01*
X208793846Y-106136684D01*
X208781543Y-106152953D01*
X208768289Y-106151824D01*
X208728981Y-106141999D01*
X208658111Y-106121788D01*
X208550169Y-106089505D01*
X208399649Y-106043458D01*
X208201041Y-105981962D01*
X207948839Y-105903325D01*
X207637533Y-105805861D01*
X207261616Y-105687881D01*
X207145267Y-105651328D01*
X206933539Y-105585562D01*
X206777485Y-105540307D01*
X206661314Y-105512840D01*
X206569233Y-105500437D01*
X206485451Y-105500373D01*
X206394177Y-105509925D01*
X206356213Y-105515227D01*
X206181698Y-105531804D01*
X206072906Y-105521469D01*
X206048057Y-105510589D01*
X205955424Y-105492362D01*
X205955424Y-105599373D01*
X206027008Y-105623053D01*
X206047119Y-105674762D01*
X206013225Y-105725501D01*
X205967967Y-105743031D01*
X205916218Y-105727091D01*
X205905326Y-105677276D01*
X205925558Y-105614833D01*
X205955424Y-105599373D01*
X205955424Y-105492362D01*
X205948530Y-105491005D01*
X205878974Y-105507627D01*
X205789820Y-105571263D01*
X205755677Y-105665416D01*
X205779687Y-105766226D01*
X205836415Y-105830832D01*
X205911311Y-105881633D01*
X205968296Y-105889968D01*
X206029946Y-105850613D01*
X206110583Y-105767364D01*
X206207108Y-105678888D01*
X206310122Y-105632151D01*
X206423276Y-105612114D01*
X206495787Y-105606911D01*
X206573370Y-105610554D01*
X206667390Y-105625713D01*
X206789211Y-105655056D01*
X206950195Y-105701253D01*
X207161709Y-105766974D01*
X207377744Y-105836309D01*
X207625569Y-105916254D01*
X207868724Y-105994320D01*
X208091088Y-106065359D01*
X208276545Y-106124223D01*
X208408976Y-106165767D01*
X208422781Y-106170035D01*
X208569929Y-106219016D01*
X208658399Y-106259811D01*
X208702780Y-106300932D01*
X208716593Y-106341459D01*
X208728600Y-106426000D01*
X206494936Y-106426000D01*
X206022993Y-106425808D01*
X205620668Y-106425138D01*
X205282434Y-106423855D01*
X205002763Y-106421823D01*
X204776125Y-106418903D01*
X204596993Y-106414961D01*
X204459839Y-106409858D01*
X204359134Y-106403459D01*
X204289350Y-106395627D01*
X204244959Y-106386226D01*
X204220433Y-106375118D01*
X204214497Y-106369639D01*
X204133062Y-106321264D01*
X204073595Y-106322522D01*
X204073595Y-106433153D01*
X204126855Y-106446224D01*
X204139350Y-106501148D01*
X204120333Y-106562817D01*
X204073595Y-106569143D01*
X204017696Y-106532093D01*
X204007841Y-106501148D01*
X204039076Y-106448094D01*
X204073595Y-106433153D01*
X204073595Y-106322522D01*
X204033428Y-106323372D01*
X203941747Y-106366847D01*
X203884173Y-106442572D01*
X203876332Y-106487515D01*
X203906321Y-106598694D01*
D11*
X182259266Y-111196381D02*
X182592600Y-110720190D01*
X182830695Y-111196381D02*
X182830695Y-110196381D01*
X182449742Y-110196381D01*
X182354504Y-110244000D01*
X182306885Y-110291619D01*
X182259266Y-110386857D01*
X182259266Y-110529714D01*
X182306885Y-110624952D01*
X182354504Y-110672571D01*
X182449742Y-110720190D01*
X182830695Y-110720190D01*
X181402123Y-110196381D02*
X181592600Y-110196381D01*
X181687838Y-110244000D01*
X181735457Y-110291619D01*
X181830695Y-110434476D01*
X181878314Y-110624952D01*
X181878314Y-111005905D01*
X181830695Y-111101143D01*
X181783076Y-111148762D01*
X181687838Y-111196381D01*
X181497361Y-111196381D01*
X181402123Y-111148762D01*
X181354504Y-111101143D01*
X181306885Y-111005905D01*
X181306885Y-110767810D01*
X181354504Y-110672571D01*
X181402123Y-110624952D01*
X181497361Y-110577333D01*
X181687838Y-110577333D01*
X181783076Y-110624952D01*
X181830695Y-110672571D01*
X181878314Y-110767810D01*
X182259266Y-113812581D02*
X182592600Y-113336390D01*
X182830695Y-113812581D02*
X182830695Y-112812581D01*
X182449742Y-112812581D01*
X182354504Y-112860200D01*
X182306885Y-112907819D01*
X182259266Y-113003057D01*
X182259266Y-113145914D01*
X182306885Y-113241152D01*
X182354504Y-113288771D01*
X182449742Y-113336390D01*
X182830695Y-113336390D01*
X181354504Y-112812581D02*
X181830695Y-112812581D01*
X181878314Y-113288771D01*
X181830695Y-113241152D01*
X181735457Y-113193533D01*
X181497361Y-113193533D01*
X181402123Y-113241152D01*
X181354504Y-113288771D01*
X181306885Y-113384010D01*
X181306885Y-113622105D01*
X181354504Y-113717343D01*
X181402123Y-113764962D01*
X181497361Y-113812581D01*
X181735457Y-113812581D01*
X181830695Y-113764962D01*
X181878314Y-113717343D01*
X182259266Y-116301781D02*
X182592600Y-115825590D01*
X182830695Y-116301781D02*
X182830695Y-115301781D01*
X182449742Y-115301781D01*
X182354504Y-115349400D01*
X182306885Y-115397019D01*
X182259266Y-115492257D01*
X182259266Y-115635114D01*
X182306885Y-115730352D01*
X182354504Y-115777971D01*
X182449742Y-115825590D01*
X182830695Y-115825590D01*
X181402123Y-115635114D02*
X181402123Y-116301781D01*
X181640219Y-115254162D02*
X181878314Y-115968448D01*
X181259266Y-115968448D01*
X208092381Y-77430334D02*
X207616190Y-77097000D01*
X208092381Y-76858905D02*
X207092381Y-76858905D01*
X207092381Y-77239858D01*
X207140000Y-77335096D01*
X207187619Y-77382715D01*
X207282857Y-77430334D01*
X207425714Y-77430334D01*
X207520952Y-77382715D01*
X207568571Y-77335096D01*
X207616190Y-77239858D01*
X207616190Y-76858905D01*
X207092381Y-77763667D02*
X207092381Y-78382715D01*
X207473333Y-78049381D01*
X207473333Y-78192239D01*
X207520952Y-78287477D01*
X207568571Y-78335096D01*
X207663810Y-78382715D01*
X207901905Y-78382715D01*
X207997143Y-78335096D01*
X208044762Y-78287477D01*
X208092381Y-78192239D01*
X208092381Y-77906524D01*
X208044762Y-77811286D01*
X207997143Y-77763667D01*
X204636666Y-97856381D02*
X204970000Y-97380190D01*
X205208095Y-97856381D02*
X205208095Y-96856381D01*
X204827142Y-96856381D01*
X204731904Y-96904000D01*
X204684285Y-96951619D01*
X204636666Y-97046857D01*
X204636666Y-97189714D01*
X204684285Y-97284952D01*
X204731904Y-97332571D01*
X204827142Y-97380190D01*
X205208095Y-97380190D01*
X204255714Y-96951619D02*
X204208095Y-96904000D01*
X204112857Y-96856381D01*
X203874761Y-96856381D01*
X203779523Y-96904000D01*
X203731904Y-96951619D01*
X203684285Y-97046857D01*
X203684285Y-97142095D01*
X203731904Y-97284952D01*
X204303333Y-97856381D01*
X203684285Y-97856381D01*
X182705333Y-125944381D02*
X182705333Y-126658667D01*
X182752953Y-126801524D01*
X182848191Y-126896762D01*
X182991048Y-126944381D01*
X183086286Y-126944381D01*
X182324381Y-125944381D02*
X181705333Y-125944381D01*
X182038667Y-126325333D01*
X181895809Y-126325333D01*
X181800571Y-126372952D01*
X181752952Y-126420571D01*
X181705333Y-126515810D01*
X181705333Y-126753905D01*
X181752952Y-126849143D01*
X181800571Y-126896762D01*
X181895809Y-126944381D01*
X182181524Y-126944381D01*
X182276762Y-126896762D01*
X182324381Y-126849143D01*
X194016381Y-65325667D02*
X194730667Y-65325667D01*
X194873524Y-65278047D01*
X194968762Y-65182809D01*
X195016381Y-65039952D01*
X195016381Y-64944714D01*
X194111619Y-65754238D02*
X194064000Y-65801857D01*
X194016381Y-65897095D01*
X194016381Y-66135191D01*
X194064000Y-66230429D01*
X194111619Y-66278048D01*
X194206857Y-66325667D01*
X194302095Y-66325667D01*
X194444952Y-66278048D01*
X195016381Y-65706619D01*
X195016381Y-66325667D01*
X193373333Y-108164381D02*
X193373333Y-108878667D01*
X193420953Y-109021524D01*
X193516191Y-109116762D01*
X193659048Y-109164381D01*
X193754286Y-109164381D01*
X192373333Y-109164381D02*
X192944762Y-109164381D01*
X192659048Y-109164381D02*
X192659048Y-108164381D01*
X192754286Y-108307238D01*
X192849524Y-108402476D01*
X192944762Y-108450095D01*
X189936381Y-132484905D02*
X188936381Y-132484905D01*
X188936381Y-132723000D01*
X188984000Y-132865858D01*
X189079238Y-132961096D01*
X189174476Y-133008715D01*
X189364952Y-133056334D01*
X189507810Y-133056334D01*
X189698286Y-133008715D01*
X189793524Y-132961096D01*
X189888762Y-132865858D01*
X189936381Y-132723000D01*
X189936381Y-132484905D01*
X189031619Y-133437286D02*
X188984000Y-133484905D01*
X188936381Y-133580143D01*
X188936381Y-133818239D01*
X188984000Y-133913477D01*
X189031619Y-133961096D01*
X189126857Y-134008715D01*
X189222095Y-134008715D01*
X189364952Y-133961096D01*
X189936381Y-133389667D01*
X189936381Y-134008715D01*
X187777381Y-129532095D02*
X186777381Y-129532095D01*
X187777381Y-130103524D02*
X187205952Y-129674952D01*
X186777381Y-130103524D02*
X187348810Y-129532095D01*
X174283666Y-85156381D02*
X174617000Y-84680190D01*
X174855095Y-85156381D02*
X174855095Y-84156381D01*
X174474142Y-84156381D01*
X174378904Y-84204000D01*
X174331285Y-84251619D01*
X174283666Y-84346857D01*
X174283666Y-84489714D01*
X174331285Y-84584952D01*
X174378904Y-84632571D01*
X174474142Y-84680190D01*
X174855095Y-84680190D01*
X173331285Y-85156381D02*
X173902714Y-85156381D01*
X173617000Y-85156381D02*
X173617000Y-84156381D01*
X173712238Y-84299238D01*
X173807476Y-84394476D01*
X173902714Y-84442095D01*
M02*
