%TF.GenerationSoftware,KiCad,Pcbnew,4.0.5+dfsg1-4*%
%TF.CreationDate,2018-12-31T14:04:09+01:00*%
%TF.ProjectId,HotAirGun,486F7441697247756E2E6B696361645F,rev?*%
%TF.FileFunction,Soldermask,Bot*%
%FSLAX46Y46*%
G04 Gerber Fmt 4.6, Leading zero omitted, Abs format (unit mm)*
G04 Created by KiCad (PCBNEW 4.0.5+dfsg1-4) date Mon Dec 31 14:04:09 2018*
%MOMM*%
%LPD*%
G01*
G04 APERTURE LIST*
%ADD10C,0.100000*%
%ADD11O,2.600000X1.800000*%
%ADD12C,3.000000*%
%ADD13R,3.600000X2.100000*%
%ADD14O,3.600000X2.100000*%
%ADD15C,1.727200*%
%ADD16R,1.727200X1.727200*%
%ADD17C,1.850000*%
%ADD18R,2.400000X2.400000*%
%ADD19C,2.400000*%
%ADD20R,1.800000X1.800000*%
%ADD21O,1.800000X1.800000*%
%ADD22R,1.600000X1.600000*%
%ADD23O,1.600000X1.600000*%
%ADD24C,1.397000*%
%ADD25C,2.100000*%
%ADD26R,2.100000X2.100000*%
%ADD27C,1.778000*%
%ADD28R,1.778000X1.778000*%
%ADD29R,0.500000X0.900000*%
%ADD30C,2.000000*%
%ADD31O,1.800860X2.499360*%
%ADD32O,2.300000X1.600000*%
%ADD33R,3.200000X2.000000*%
%ADD34R,2.000000X2.000000*%
%ADD35R,0.900000X1.200000*%
%ADD36R,1.200000X0.900000*%
%ADD37O,1.998980X2.999740*%
%ADD38O,2.999740X1.998980*%
%ADD39R,2.032000X1.727200*%
%ADD40O,2.032000X1.727200*%
%ADD41O,1.727200X1.727200*%
%ADD42R,2.000000X1.900000*%
%ADD43C,1.900000*%
%ADD44R,1.900000X2.000000*%
%ADD45C,2.499360*%
%ADD46C,2.999740*%
%ADD47O,2.500000X1.524000*%
%ADD48C,2.700000*%
%ADD49C,1.501140*%
%ADD50R,2.600000X2.000000*%
%ADD51O,2.600000X2.000000*%
%ADD52C,3.200000*%
G04 APERTURE END LIST*
D10*
D11*
X167640000Y-129794000D03*
X167640000Y-127254000D03*
X167640000Y-124714000D03*
X167640000Y-122174000D03*
X167640000Y-119634000D03*
X167640000Y-117094000D03*
X167640000Y-114554000D03*
X167640000Y-112014000D03*
X167640000Y-109474000D03*
X167640000Y-106934000D03*
X167640000Y-104394000D03*
X167640000Y-101854000D03*
X167640000Y-99314000D03*
X167640000Y-96774000D03*
X167640000Y-94234000D03*
X167640000Y-91694000D03*
D12*
X167640000Y-135293100D03*
X198640700Y-135293100D03*
X198640700Y-60294520D03*
X167640000Y-60294520D03*
D13*
X68580000Y-125984000D03*
D14*
X68580000Y-131064000D03*
D15*
X146050000Y-63754000D03*
X146050000Y-66294000D03*
X146050000Y-68834000D03*
X146050000Y-71374000D03*
X146050000Y-73914000D03*
X146050000Y-76454000D03*
X146050000Y-78994000D03*
X146050000Y-81534000D03*
X146050000Y-84074000D03*
X146050000Y-86614000D03*
X146050000Y-89154000D03*
X146050000Y-91694000D03*
X146050000Y-94234000D03*
X146050000Y-96774000D03*
X146050000Y-99314000D03*
X130810000Y-99314000D03*
X130810000Y-96774000D03*
X130810000Y-94234000D03*
X130810000Y-91694000D03*
X130810000Y-89154000D03*
X130810000Y-86614000D03*
X130810000Y-84074000D03*
X130810000Y-81534000D03*
X130810000Y-78994000D03*
X130810000Y-76454000D03*
X130810000Y-73914000D03*
X130810000Y-71374000D03*
X130810000Y-68834000D03*
X130810000Y-66294000D03*
D16*
X130810000Y-63754000D03*
D17*
X130810000Y-61214000D03*
X146050000Y-61214000D03*
X130810000Y-101854000D03*
X146050000Y-101854000D03*
D18*
X86995000Y-124714000D03*
D19*
X86995000Y-132214000D03*
D18*
X141605000Y-123444000D03*
D19*
X141605000Y-130944000D03*
D20*
X73660000Y-112649000D03*
D21*
X71120000Y-112649000D03*
X68580000Y-112649000D03*
D22*
X113665000Y-125984000D03*
D23*
X106045000Y-125984000D03*
D12*
X88265000Y-99949000D03*
X80645000Y-99949000D03*
D20*
X112395000Y-113919000D03*
D21*
X109855000Y-113919000D03*
X107315000Y-113919000D03*
D24*
X220980000Y-102489000D03*
X226060000Y-102489000D03*
X220980000Y-110109000D03*
X226060000Y-110109000D03*
X220980000Y-82169000D03*
X226060000Y-82169000D03*
X220980000Y-89789000D03*
X226060000Y-89789000D03*
X220980000Y-61849000D03*
X226060000Y-61849000D03*
X220980000Y-69469000D03*
X226060000Y-69469000D03*
D25*
X109982000Y-69088000D03*
X109982000Y-64008000D03*
D26*
X104902000Y-64008000D03*
D25*
X104902000Y-69088000D03*
D27*
X102870000Y-58928000D03*
D28*
X113030000Y-58928000D03*
D27*
X104775000Y-108204000D03*
D28*
X114935000Y-108204000D03*
D24*
X93980000Y-106934000D03*
X93980000Y-99314000D03*
D29*
X184900000Y-110744000D03*
X183400000Y-110744000D03*
X184900000Y-113284000D03*
X183400000Y-113284000D03*
X184900000Y-115824000D03*
X183400000Y-115824000D03*
D30*
X205750160Y-68834000D03*
X213349840Y-68834000D03*
D13*
X68580000Y-62484000D03*
D14*
X68580000Y-67564000D03*
D13*
X68580000Y-75819000D03*
D14*
X68580000Y-80899000D03*
X68580000Y-85979000D03*
D13*
X68580000Y-94234000D03*
D14*
X68580000Y-99314000D03*
D23*
X106045000Y-99314000D03*
X106045000Y-96774000D03*
X106045000Y-94234000D03*
X98425000Y-94234000D03*
X98425000Y-96774000D03*
X98425000Y-99314000D03*
X116586000Y-60452000D03*
X116586000Y-62992000D03*
X124206000Y-62992000D03*
X124206000Y-60452000D03*
D31*
X109855000Y-130439160D03*
X113355120Y-130439160D03*
X106354880Y-130439160D03*
X108054140Y-133438900D03*
X111655860Y-133438900D03*
D32*
X179705000Y-82804000D03*
X179705000Y-85344000D03*
X179705000Y-87884000D03*
X179705000Y-90424000D03*
X179705000Y-92964000D03*
X179705000Y-95504000D03*
X179705000Y-98044000D03*
X179705000Y-100584000D03*
X179705000Y-103124000D03*
X179705000Y-105664000D03*
X179705000Y-108204000D03*
X179705000Y-110744000D03*
X179705000Y-113284000D03*
X179705000Y-115824000D03*
X187325000Y-115824000D03*
X187325000Y-113284000D03*
X187325000Y-110744000D03*
X187325000Y-108204000D03*
X187325000Y-105664000D03*
X187325000Y-103124000D03*
X187325000Y-100584000D03*
X187325000Y-98044000D03*
X187325000Y-95504000D03*
X187325000Y-92964000D03*
X187325000Y-90424000D03*
X187325000Y-87884000D03*
X187325000Y-85344000D03*
X187325000Y-82804000D03*
D30*
X226590000Y-132889000D03*
X226590000Y-127889000D03*
D33*
X219590000Y-135989000D03*
X219590000Y-124789000D03*
D30*
X212090000Y-132889000D03*
X212090000Y-130389000D03*
D34*
X212090000Y-127889000D03*
D35*
X205740000Y-78697000D03*
X205740000Y-76497000D03*
D36*
X203370000Y-95504000D03*
X205570000Y-95504000D03*
D37*
X114935000Y-86614000D03*
D38*
X117475000Y-84074000D03*
X112395000Y-84074000D03*
D39*
X123190000Y-111379000D03*
D40*
X123190000Y-108839000D03*
X123190000Y-106299000D03*
X123190000Y-103759000D03*
X123190000Y-101219000D03*
X123190000Y-98679000D03*
D39*
X153670000Y-68834000D03*
D40*
X153670000Y-71374000D03*
X153670000Y-73914000D03*
X153670000Y-76454000D03*
X153670000Y-78994000D03*
X153670000Y-81534000D03*
D16*
X183769000Y-121539000D03*
D41*
X181229000Y-121539000D03*
X183769000Y-124079000D03*
X181229000Y-124079000D03*
D39*
X194564000Y-68834000D03*
D40*
X194564000Y-71374000D03*
X194564000Y-73914000D03*
X194564000Y-76454000D03*
X194564000Y-78994000D03*
X194564000Y-81534000D03*
D16*
X194310000Y-110744000D03*
D41*
X191770000Y-110744000D03*
X194310000Y-113284000D03*
X191770000Y-113284000D03*
X194310000Y-115824000D03*
X191770000Y-115824000D03*
D34*
X152400000Y-92964000D03*
D30*
X152400000Y-95504000D03*
D34*
X151130000Y-125984000D03*
D30*
X151130000Y-123444000D03*
D34*
X97155000Y-132334000D03*
D30*
X97155000Y-129794000D03*
D34*
X114935000Y-76454000D03*
D30*
X112395000Y-76454000D03*
D42*
X185420000Y-131699000D03*
D43*
X185420000Y-134239000D03*
D44*
X211455000Y-95504000D03*
D43*
X208915000Y-95504000D03*
D38*
X171450000Y-80899000D03*
D37*
X168910000Y-83439000D03*
X168910000Y-78359000D03*
D45*
X174457360Y-124287280D03*
X176956720Y-129286000D03*
X171958000Y-129286000D03*
D46*
X104140000Y-84074000D03*
X104140000Y-76454000D03*
X88900000Y-76454000D03*
X83820000Y-76454000D03*
X78740000Y-76454000D03*
X88900000Y-84074000D03*
X83820000Y-84074000D03*
X78740000Y-84074000D03*
D47*
X127000000Y-131699000D03*
X124460000Y-131699000D03*
X124460000Y-124079000D03*
X127000000Y-124079000D03*
D30*
X130810000Y-127889000D03*
X120650000Y-127889000D03*
D12*
X99060000Y-64389000D03*
X76560000Y-64389000D03*
D48*
X87810000Y-64389000D03*
D29*
X173367000Y-82804000D03*
X174867000Y-82804000D03*
D49*
X77470000Y-129159000D03*
X77480160Y-124079000D03*
D50*
X153670000Y-109474000D03*
D51*
X153670000Y-106934000D03*
D52*
X155194000Y-61214000D03*
X58674000Y-61214000D03*
X58674000Y-133604000D03*
X155194000Y-133604000D03*
X217424000Y-76454000D03*
X217424000Y-115824000D03*
M02*
