%TF.GenerationSoftware,KiCad,Pcbnew,4.0.5+dfsg1-4*%
%TF.CreationDate,2018-12-31T14:04:09+01:00*%
%TF.ProjectId,HotAirGun,486F7441697247756E2E6B696361645F,rev?*%
%TF.FileFunction,Other,Fab,Top*%
%FSLAX46Y46*%
G04 Gerber Fmt 4.6, Leading zero omitted, Abs format (unit mm)*
G04 Created by KiCad (PCBNEW 4.0.5+dfsg1-4) date Mon Dec 31 14:04:09 2018*
%MOMM*%
%LPD*%
G01*
G04 APERTURE LIST*
%ADD10C,0.100000*%
%ADD11C,0.150000*%
%ADD12C,0.200000*%
%ADD13C,0.120000*%
G04 APERTURE END LIST*
D10*
D11*
X138938000Y-63754000D02*
G75*
G03X138938000Y-63754000I-508000J0D01*
G01*
X141478000Y-63754000D02*
G75*
G03X141478000Y-63754000I-508000J0D01*
G01*
X141478000Y-61214000D02*
G75*
G03X141478000Y-61214000I-508000J0D01*
G01*
X136398000Y-63754000D02*
G75*
G03X136398000Y-63754000I-508000J0D01*
G01*
X138938000Y-61214000D02*
G75*
G03X138938000Y-61214000I-508000J0D01*
G01*
X136398000Y-61214000D02*
G75*
G03X136398000Y-61214000I-508000J0D01*
G01*
D10*
X110655000Y-119869000D02*
X110655000Y-120669000D01*
X109055000Y-119869000D02*
X110655000Y-119869000D01*
X109055000Y-120669000D02*
X109055000Y-119869000D01*
X110655000Y-120669000D02*
X109055000Y-120669000D01*
X93245000Y-128464000D02*
G75*
G03X93245000Y-128464000I-6250000J0D01*
G01*
X86995000Y-121514000D02*
X86995000Y-123314000D01*
X87895000Y-122414000D02*
X86095000Y-122414000D01*
X147855000Y-127194000D02*
G75*
G03X147855000Y-127194000I-6250000J0D01*
G01*
X141605000Y-120244000D02*
X141605000Y-122044000D01*
X142505000Y-121144000D02*
X140705000Y-121144000D01*
X76120000Y-115149000D02*
X76120000Y-110749000D01*
X76120000Y-110749000D02*
X66120000Y-110749000D01*
X66120000Y-110749000D02*
X66120000Y-115149000D01*
X66120000Y-115149000D02*
X76120000Y-115149000D01*
X76120000Y-113879000D02*
X66120000Y-113879000D01*
X72970000Y-115149000D02*
X72970000Y-113879000D01*
X69270000Y-115149000D02*
X69270000Y-113879000D01*
X111855000Y-126984000D02*
X111855000Y-124984000D01*
X111855000Y-124984000D02*
X107855000Y-124984000D01*
X107855000Y-124984000D02*
X107855000Y-126984000D01*
X107855000Y-126984000D02*
X111855000Y-126984000D01*
X113665000Y-125984000D02*
X111855000Y-125984000D01*
X106045000Y-125984000D02*
X107855000Y-125984000D01*
X111255000Y-126984000D02*
X111255000Y-124984000D01*
X88455000Y-91949000D02*
X80455000Y-91949000D01*
X80455000Y-91949000D02*
X80455000Y-107949000D01*
X80455000Y-107949000D02*
X88455000Y-107949000D01*
X88455000Y-107949000D02*
X88455000Y-91949000D01*
X88265000Y-93549000D02*
X80645000Y-93549000D01*
X80645000Y-93549000D02*
X80645000Y-106349000D01*
X80645000Y-106349000D02*
X88265000Y-106349000D01*
X88265000Y-106349000D02*
X88265000Y-93549000D01*
X88265000Y-93549000D02*
X80645000Y-94189000D01*
X88265000Y-94829000D02*
X80645000Y-95469000D01*
X88265000Y-96109000D02*
X80645000Y-96749000D01*
X88265000Y-97389000D02*
X80645000Y-98029000D01*
X88265000Y-98669000D02*
X80645000Y-99309000D01*
X88265000Y-99949000D02*
X80645000Y-100589000D01*
X88265000Y-101229000D02*
X80645000Y-101869000D01*
X88265000Y-102509000D02*
X80645000Y-103149000D01*
X88265000Y-103789000D02*
X80645000Y-104429000D01*
X88265000Y-105069000D02*
X80645000Y-105709000D01*
X114855000Y-116419000D02*
X114855000Y-112019000D01*
X114855000Y-112019000D02*
X104855000Y-112019000D01*
X104855000Y-112019000D02*
X104855000Y-116419000D01*
X104855000Y-116419000D02*
X114855000Y-116419000D01*
X114855000Y-115149000D02*
X104855000Y-115149000D01*
X111705000Y-116419000D02*
X111705000Y-115149000D01*
X108005000Y-116419000D02*
X108005000Y-115149000D01*
D12*
X105883662Y-67774953D02*
G75*
G03X106491400Y-67665000I257738J309953D01*
G01*
X105889696Y-67762970D02*
G75*
G03X105291400Y-67765000I-298296J-252030D01*
G01*
X108614496Y-65317570D02*
G75*
G03X108016200Y-65319600I-298296J-252030D01*
G01*
X108608462Y-65329553D02*
G75*
G03X109216200Y-65219600I257738J309953D01*
G01*
X106951000Y-65472800D02*
X105951000Y-65472800D01*
X106451000Y-65972800D02*
X106451000Y-64972800D01*
X107939200Y-67918200D02*
X108939200Y-67918200D01*
D10*
X187744000Y-123679000D02*
X187744000Y-124479000D01*
X186144000Y-123679000D02*
X187744000Y-123679000D01*
X186144000Y-124479000D02*
X186144000Y-123679000D01*
X187744000Y-124479000D02*
X186144000Y-124479000D01*
X187744000Y-121139000D02*
X187744000Y-121939000D01*
X186144000Y-121139000D02*
X187744000Y-121139000D01*
X186144000Y-121939000D02*
X186144000Y-121139000D01*
X187744000Y-121939000D02*
X186144000Y-121939000D01*
D13*
X216590000Y-130389000D02*
X222590000Y-130389000D01*
X219590000Y-127389000D02*
X219590000Y-133389000D01*
X213590000Y-125689000D02*
X214590000Y-124589000D01*
X213590000Y-136189000D02*
X213590000Y-125689000D01*
X225590000Y-136189000D02*
X213590000Y-136189000D01*
X225590000Y-124589000D02*
X225590000Y-136189000D01*
X214590000Y-124589000D02*
X225590000Y-124589000D01*
X222590000Y-130389000D02*
G75*
G03X222590000Y-130389000I-3000000J0D01*
G01*
D10*
X109055000Y-118764000D02*
X109055000Y-117964000D01*
X110655000Y-118764000D02*
X109055000Y-118764000D01*
X110655000Y-117964000D02*
X110655000Y-118764000D01*
X109055000Y-117964000D02*
X110655000Y-117964000D01*
X152946000Y-98914000D02*
X152946000Y-99714000D01*
X151346000Y-98914000D02*
X152946000Y-98914000D01*
X151346000Y-99714000D02*
X151346000Y-98914000D01*
X152946000Y-99714000D02*
X151346000Y-99714000D01*
X150730000Y-117818000D02*
X151530000Y-117818000D01*
X150730000Y-119418000D02*
X150730000Y-117818000D01*
X151530000Y-119418000D02*
X150730000Y-119418000D01*
X151530000Y-117818000D02*
X151530000Y-119418000D01*
X96755000Y-124549000D02*
X97555000Y-124549000D01*
X96755000Y-126149000D02*
X96755000Y-124549000D01*
X97555000Y-126149000D02*
X96755000Y-126149000D01*
X97555000Y-124549000D02*
X97555000Y-126149000D01*
X112814000Y-79356000D02*
X112814000Y-80156000D01*
X111214000Y-79356000D02*
X112814000Y-79356000D01*
X111214000Y-80156000D02*
X111214000Y-79356000D01*
X112814000Y-80156000D02*
X111214000Y-80156000D01*
X190335000Y-132734000D02*
X190335000Y-131934000D01*
X191935000Y-132734000D02*
X190335000Y-132734000D01*
X191935000Y-131934000D02*
X191935000Y-132734000D01*
X190335000Y-131934000D02*
X191935000Y-131934000D01*
D11*
X131534000Y-115716000D02*
X131534000Y-114916000D01*
X133134000Y-115716000D02*
X131534000Y-115716000D01*
X133134000Y-114916000D02*
X133134000Y-115716000D01*
X131534000Y-114916000D02*
X133134000Y-114916000D01*
X120542000Y-111290000D02*
X119742000Y-111290000D01*
X120542000Y-109690000D02*
X120542000Y-111290000D01*
X119742000Y-109690000D02*
X120542000Y-109690000D01*
X119742000Y-111290000D02*
X119742000Y-109690000D01*
X132080000Y-129159000D02*
X132080000Y-126619000D01*
X132080000Y-126619000D02*
X127000000Y-122809000D01*
X127000000Y-122809000D02*
X124460000Y-122809000D01*
X124460000Y-122809000D02*
X119380000Y-126619000D01*
X119380000Y-126619000D02*
X119380000Y-129159000D01*
X119380000Y-129159000D02*
X124460000Y-132969000D01*
X124460000Y-132969000D02*
X127000000Y-132969000D01*
X127000000Y-132969000D02*
X132080000Y-129159000D01*
X132400000Y-108929000D02*
X135300000Y-108929000D01*
X135300000Y-108929000D02*
X135300000Y-113829000D01*
X135300000Y-113829000D02*
X131400000Y-113829000D01*
X131400000Y-113829000D02*
X131400000Y-109929000D01*
X131400000Y-109929000D02*
X132400000Y-108929000D01*
D10*
X109055000Y-99714000D02*
X109055000Y-98914000D01*
X110655000Y-99714000D02*
X109055000Y-99714000D01*
X110655000Y-98914000D02*
X110655000Y-99714000D01*
X109055000Y-98914000D02*
X110655000Y-98914000D01*
X117005000Y-89389000D02*
X117005000Y-90189000D01*
X115405000Y-89389000D02*
X117005000Y-89389000D01*
X115405000Y-90189000D02*
X115405000Y-89389000D01*
X117005000Y-90189000D02*
X115405000Y-90189000D01*
X136436000Y-73514000D02*
X136436000Y-74314000D01*
X134836000Y-73514000D02*
X136436000Y-73514000D01*
X134836000Y-74314000D02*
X134836000Y-73514000D01*
X136436000Y-74314000D02*
X134836000Y-74314000D01*
D11*
X183591461Y-100390318D02*
X183591461Y-100866509D01*
X182591461Y-100866509D01*
X183496223Y-99485556D02*
X183543842Y-99533175D01*
X183591461Y-99676032D01*
X183591461Y-99771270D01*
X183543842Y-99914128D01*
X183448604Y-100009366D01*
X183353366Y-100056985D01*
X183162890Y-100104604D01*
X183020032Y-100104604D01*
X182829556Y-100056985D01*
X182734318Y-100009366D01*
X182639080Y-99914128D01*
X182591461Y-99771270D01*
X182591461Y-99676032D01*
X182639080Y-99533175D01*
X182686699Y-99485556D01*
X183591461Y-99056985D02*
X182591461Y-99056985D01*
X182591461Y-98818890D01*
X182639080Y-98676032D01*
X182734318Y-98580794D01*
X182829556Y-98533175D01*
X183020032Y-98485556D01*
X183162890Y-98485556D01*
X183353366Y-98533175D01*
X183448604Y-98580794D01*
X183543842Y-98676032D01*
X183591461Y-98818890D01*
X183591461Y-99056985D01*
X183591461Y-97533175D02*
X183591461Y-98104604D01*
X183591461Y-97818890D02*
X182591461Y-97818890D01*
X182734318Y-97914128D01*
X182829556Y-98009366D01*
X182877175Y-98104604D01*
X182591461Y-96676032D02*
X182591461Y-96866509D01*
X182639080Y-96961747D01*
X182686699Y-97009366D01*
X182829556Y-97104604D01*
X183020032Y-97152223D01*
X183400985Y-97152223D01*
X183496223Y-97104604D01*
X183543842Y-97056985D01*
X183591461Y-96961747D01*
X183591461Y-96771270D01*
X183543842Y-96676032D01*
X183496223Y-96628413D01*
X183400985Y-96580794D01*
X183162890Y-96580794D01*
X183067651Y-96628413D01*
X183020032Y-96676032D01*
X182972413Y-96771270D01*
X182972413Y-96961747D01*
X183020032Y-97056985D01*
X183067651Y-97104604D01*
X183162890Y-97152223D01*
X182591461Y-96247461D02*
X183591461Y-95580794D01*
X182591461Y-95580794D02*
X183591461Y-96247461D01*
X182686699Y-95247461D02*
X182639080Y-95199842D01*
X182591461Y-95104604D01*
X182591461Y-94866508D01*
X182639080Y-94771270D01*
X182686699Y-94723651D01*
X182781937Y-94676032D01*
X182877175Y-94676032D01*
X183020032Y-94723651D01*
X183591461Y-95295080D01*
X183591461Y-94676032D01*
X62732381Y-129547809D02*
X63732381Y-129214476D01*
X62732381Y-128881142D01*
X63732381Y-128547809D02*
X63065714Y-128547809D01*
X62732381Y-128547809D02*
X62780000Y-128595428D01*
X62827619Y-128547809D01*
X62780000Y-128500190D01*
X62732381Y-128547809D01*
X62827619Y-128547809D01*
X63065714Y-128071619D02*
X63732381Y-128071619D01*
X63160952Y-128071619D02*
X63113333Y-128024000D01*
X63065714Y-127928762D01*
X63065714Y-127785904D01*
X63113333Y-127690666D01*
X63208571Y-127643047D01*
X63732381Y-127643047D01*
X138596667Y-89756287D02*
X138596667Y-89280096D01*
X138882381Y-89851525D02*
X137882381Y-89518192D01*
X138882381Y-89184858D01*
X138882381Y-88851525D02*
X138215714Y-88851525D01*
X138406190Y-88851525D02*
X138310952Y-88803906D01*
X138263333Y-88756287D01*
X138215714Y-88661049D01*
X138215714Y-88565810D01*
X138882381Y-87803905D02*
X137882381Y-87803905D01*
X138834762Y-87803905D02*
X138882381Y-87899143D01*
X138882381Y-88089620D01*
X138834762Y-88184858D01*
X138787143Y-88232477D01*
X138691905Y-88280096D01*
X138406190Y-88280096D01*
X138310952Y-88232477D01*
X138263333Y-88184858D01*
X138215714Y-88089620D01*
X138215714Y-87899143D01*
X138263333Y-87803905D01*
X138215714Y-86899143D02*
X138882381Y-86899143D01*
X138215714Y-87327715D02*
X138739524Y-87327715D01*
X138834762Y-87280096D01*
X138882381Y-87184858D01*
X138882381Y-87042000D01*
X138834762Y-86946762D01*
X138787143Y-86899143D01*
X138882381Y-86422953D02*
X138215714Y-86422953D01*
X137882381Y-86422953D02*
X137930000Y-86470572D01*
X137977619Y-86422953D01*
X137930000Y-86375334D01*
X137882381Y-86422953D01*
X137977619Y-86422953D01*
X138215714Y-85946763D02*
X138882381Y-85946763D01*
X138310952Y-85946763D02*
X138263333Y-85899144D01*
X138215714Y-85803906D01*
X138215714Y-85661048D01*
X138263333Y-85565810D01*
X138358571Y-85518191D01*
X138882381Y-85518191D01*
X138882381Y-84899144D02*
X138834762Y-84994382D01*
X138787143Y-85042001D01*
X138691905Y-85089620D01*
X138406190Y-85089620D01*
X138310952Y-85042001D01*
X138263333Y-84994382D01*
X138215714Y-84899144D01*
X138215714Y-84756286D01*
X138263333Y-84661048D01*
X138310952Y-84613429D01*
X138406190Y-84565810D01*
X138691905Y-84565810D01*
X138787143Y-84613429D01*
X138834762Y-84661048D01*
X138882381Y-84756286D01*
X138882381Y-84899144D01*
X138977619Y-84375334D02*
X138977619Y-83613429D01*
X138882381Y-83375334D02*
X137882381Y-83375334D01*
X138882381Y-82803905D01*
X137882381Y-82803905D01*
X138882381Y-81899143D02*
X138358571Y-81899143D01*
X138263333Y-81946762D01*
X138215714Y-82042000D01*
X138215714Y-82232477D01*
X138263333Y-82327715D01*
X138834762Y-81899143D02*
X138882381Y-81994381D01*
X138882381Y-82232477D01*
X138834762Y-82327715D01*
X138739524Y-82375334D01*
X138644286Y-82375334D01*
X138549048Y-82327715D01*
X138501429Y-82232477D01*
X138501429Y-81994381D01*
X138453810Y-81899143D01*
X138215714Y-81422953D02*
X138882381Y-81422953D01*
X138310952Y-81422953D02*
X138263333Y-81375334D01*
X138215714Y-81280096D01*
X138215714Y-81137238D01*
X138263333Y-81042000D01*
X138358571Y-80994381D01*
X138882381Y-80994381D01*
X138882381Y-80375334D02*
X138834762Y-80470572D01*
X138787143Y-80518191D01*
X138691905Y-80565810D01*
X138406190Y-80565810D01*
X138310952Y-80518191D01*
X138263333Y-80470572D01*
X138215714Y-80375334D01*
X138215714Y-80232476D01*
X138263333Y-80137238D01*
X138310952Y-80089619D01*
X138406190Y-80042000D01*
X138691905Y-80042000D01*
X138787143Y-80089619D01*
X138834762Y-80137238D01*
X138882381Y-80232476D01*
X138882381Y-80375334D01*
X138977619Y-79851524D02*
X138977619Y-79089619D01*
X138834762Y-78899143D02*
X138882381Y-78756286D01*
X138882381Y-78518190D01*
X138834762Y-78422952D01*
X138787143Y-78375333D01*
X138691905Y-78327714D01*
X138596667Y-78327714D01*
X138501429Y-78375333D01*
X138453810Y-78422952D01*
X138406190Y-78518190D01*
X138358571Y-78708667D01*
X138310952Y-78803905D01*
X138263333Y-78851524D01*
X138168095Y-78899143D01*
X138072857Y-78899143D01*
X137977619Y-78851524D01*
X137930000Y-78803905D01*
X137882381Y-78708667D01*
X137882381Y-78470571D01*
X137930000Y-78327714D01*
X138882381Y-77756286D02*
X138834762Y-77851524D01*
X138787143Y-77899143D01*
X138691905Y-77946762D01*
X138406190Y-77946762D01*
X138310952Y-77899143D01*
X138263333Y-77851524D01*
X138215714Y-77756286D01*
X138215714Y-77613428D01*
X138263333Y-77518190D01*
X138310952Y-77470571D01*
X138406190Y-77422952D01*
X138691905Y-77422952D01*
X138787143Y-77470571D01*
X138834762Y-77518190D01*
X138882381Y-77613428D01*
X138882381Y-77756286D01*
X138834762Y-76565809D02*
X138882381Y-76661047D01*
X138882381Y-76851524D01*
X138834762Y-76946762D01*
X138787143Y-76994381D01*
X138691905Y-77042000D01*
X138406190Y-77042000D01*
X138310952Y-76994381D01*
X138263333Y-76946762D01*
X138215714Y-76851524D01*
X138215714Y-76661047D01*
X138263333Y-76565809D01*
X138882381Y-76137238D02*
X137882381Y-76137238D01*
X138501429Y-76042000D02*
X138882381Y-75756285D01*
X138215714Y-75756285D02*
X138596667Y-76137238D01*
X138834762Y-74946761D02*
X138882381Y-75041999D01*
X138882381Y-75232476D01*
X138834762Y-75327714D01*
X138739524Y-75375333D01*
X138358571Y-75375333D01*
X138263333Y-75327714D01*
X138215714Y-75232476D01*
X138215714Y-75041999D01*
X138263333Y-74946761D01*
X138358571Y-74899142D01*
X138453810Y-74899142D01*
X138549048Y-75375333D01*
X138215714Y-74613428D02*
X138215714Y-74232476D01*
X137882381Y-74470571D02*
X138739524Y-74470571D01*
X138834762Y-74422952D01*
X138882381Y-74327714D01*
X138882381Y-74232476D01*
X136953810Y-62936381D02*
X136953810Y-61936381D01*
X138001429Y-62841143D02*
X137953810Y-62888762D01*
X137810953Y-62936381D01*
X137715715Y-62936381D01*
X137572857Y-62888762D01*
X137477619Y-62793524D01*
X137430000Y-62698286D01*
X137382381Y-62507810D01*
X137382381Y-62364952D01*
X137430000Y-62174476D01*
X137477619Y-62079238D01*
X137572857Y-61984000D01*
X137715715Y-61936381D01*
X137810953Y-61936381D01*
X137953810Y-61984000D01*
X138001429Y-62031619D01*
X138382381Y-62888762D02*
X138525238Y-62936381D01*
X138763334Y-62936381D01*
X138858572Y-62888762D01*
X138906191Y-62841143D01*
X138953810Y-62745905D01*
X138953810Y-62650667D01*
X138906191Y-62555429D01*
X138858572Y-62507810D01*
X138763334Y-62460190D01*
X138572857Y-62412571D01*
X138477619Y-62364952D01*
X138430000Y-62317333D01*
X138382381Y-62222095D01*
X138382381Y-62126857D01*
X138430000Y-62031619D01*
X138477619Y-61984000D01*
X138572857Y-61936381D01*
X138810953Y-61936381D01*
X138953810Y-61984000D01*
X139382381Y-62936381D02*
X139382381Y-61936381D01*
X139763334Y-61936381D01*
X139858572Y-61984000D01*
X139906191Y-62031619D01*
X139953810Y-62126857D01*
X139953810Y-62269714D01*
X139906191Y-62364952D01*
X139858572Y-62412571D01*
X139763334Y-62460190D01*
X139382381Y-62460190D01*
X109164524Y-118821381D02*
X108593095Y-118821381D01*
X108878809Y-118821381D02*
X108878809Y-117821381D01*
X108783571Y-117964238D01*
X108688333Y-118059476D01*
X108593095Y-118107095D01*
X109783571Y-117821381D02*
X109878810Y-117821381D01*
X109974048Y-117869000D01*
X110021667Y-117916619D01*
X110069286Y-118011857D01*
X110116905Y-118202333D01*
X110116905Y-118440429D01*
X110069286Y-118630905D01*
X110021667Y-118726143D01*
X109974048Y-118773762D01*
X109878810Y-118821381D01*
X109783571Y-118821381D01*
X109688333Y-118773762D01*
X109640714Y-118726143D01*
X109593095Y-118630905D01*
X109545476Y-118440429D01*
X109545476Y-118202333D01*
X109593095Y-118011857D01*
X109640714Y-117916619D01*
X109688333Y-117869000D01*
X109783571Y-117821381D01*
X110545476Y-118821381D02*
X110545476Y-117821381D01*
X111116905Y-118821381D02*
X110688333Y-118249952D01*
X111116905Y-117821381D02*
X110545476Y-118392810D01*
X80042143Y-128654476D02*
X80089762Y-128702095D01*
X80137381Y-128844952D01*
X80137381Y-128940190D01*
X80089762Y-129083048D01*
X79994524Y-129178286D01*
X79899286Y-129225905D01*
X79708810Y-129273524D01*
X79565952Y-129273524D01*
X79375476Y-129225905D01*
X79280238Y-129178286D01*
X79185000Y-129083048D01*
X79137381Y-128940190D01*
X79137381Y-128844952D01*
X79185000Y-128702095D01*
X79232619Y-128654476D01*
X80137381Y-128225905D02*
X79137381Y-128225905D01*
X79137381Y-127844952D01*
X79185000Y-127749714D01*
X79232619Y-127702095D01*
X79327857Y-127654476D01*
X79470714Y-127654476D01*
X79565952Y-127702095D01*
X79613571Y-127749714D01*
X79661190Y-127844952D01*
X79661190Y-128225905D01*
X134652143Y-127384476D02*
X134699762Y-127432095D01*
X134747381Y-127574952D01*
X134747381Y-127670190D01*
X134699762Y-127813048D01*
X134604524Y-127908286D01*
X134509286Y-127955905D01*
X134318810Y-128003524D01*
X134175952Y-128003524D01*
X133985476Y-127955905D01*
X133890238Y-127908286D01*
X133795000Y-127813048D01*
X133747381Y-127670190D01*
X133747381Y-127574952D01*
X133795000Y-127432095D01*
X133842619Y-127384476D01*
X134747381Y-126955905D02*
X133747381Y-126955905D01*
X133747381Y-126574952D01*
X133795000Y-126479714D01*
X133842619Y-126432095D01*
X133937857Y-126384476D01*
X134080714Y-126384476D01*
X134175952Y-126432095D01*
X134223571Y-126479714D01*
X134271190Y-126574952D01*
X134271190Y-126955905D01*
X69429524Y-108657571D02*
X69572381Y-108705190D01*
X69620000Y-108752810D01*
X69667619Y-108848048D01*
X69667619Y-108990905D01*
X69620000Y-109086143D01*
X69572381Y-109133762D01*
X69477143Y-109181381D01*
X69096190Y-109181381D01*
X69096190Y-108181381D01*
X69429524Y-108181381D01*
X69524762Y-108229000D01*
X69572381Y-108276619D01*
X69620000Y-108371857D01*
X69620000Y-108467095D01*
X69572381Y-108562333D01*
X69524762Y-108609952D01*
X69429524Y-108657571D01*
X69096190Y-108657571D01*
X69953333Y-108181381D02*
X70524762Y-108181381D01*
X70239047Y-109181381D02*
X70239047Y-108181381D01*
X70810476Y-108895667D02*
X71286667Y-108895667D01*
X70715238Y-109181381D02*
X71048571Y-108181381D01*
X71381905Y-109181381D01*
X71905714Y-108181381D02*
X72000953Y-108181381D01*
X72096191Y-108229000D01*
X72143810Y-108276619D01*
X72191429Y-108371857D01*
X72239048Y-108562333D01*
X72239048Y-108800429D01*
X72191429Y-108990905D01*
X72143810Y-109086143D01*
X72096191Y-109133762D01*
X72000953Y-109181381D01*
X71905714Y-109181381D01*
X71810476Y-109133762D01*
X71762857Y-109086143D01*
X71715238Y-108990905D01*
X71667619Y-108800429D01*
X71667619Y-108562333D01*
X71715238Y-108371857D01*
X71762857Y-108276619D01*
X71810476Y-108229000D01*
X71905714Y-108181381D01*
X72810476Y-108609952D02*
X72715238Y-108562333D01*
X72667619Y-108514714D01*
X72620000Y-108419476D01*
X72620000Y-108371857D01*
X72667619Y-108276619D01*
X72715238Y-108229000D01*
X72810476Y-108181381D01*
X73000953Y-108181381D01*
X73096191Y-108229000D01*
X73143810Y-108276619D01*
X73191429Y-108371857D01*
X73191429Y-108419476D01*
X73143810Y-108514714D01*
X73096191Y-108562333D01*
X73000953Y-108609952D01*
X72810476Y-108609952D01*
X72715238Y-108657571D01*
X72667619Y-108705190D01*
X72620000Y-108800429D01*
X72620000Y-108990905D01*
X72667619Y-109086143D01*
X72715238Y-109133762D01*
X72810476Y-109181381D01*
X73000953Y-109181381D01*
X73096191Y-109133762D01*
X73143810Y-109086143D01*
X73191429Y-108990905D01*
X73191429Y-108800429D01*
X73143810Y-108705190D01*
X73096191Y-108657571D01*
X73000953Y-108609952D01*
X70381905Y-116721381D02*
X70381905Y-115721381D01*
X70620000Y-115721381D01*
X70762858Y-115769000D01*
X70858096Y-115864238D01*
X70905715Y-115959476D01*
X70953334Y-116149952D01*
X70953334Y-116292810D01*
X70905715Y-116483286D01*
X70858096Y-116578524D01*
X70762858Y-116673762D01*
X70620000Y-116721381D01*
X70381905Y-116721381D01*
X71810477Y-116054714D02*
X71810477Y-116721381D01*
X71572381Y-115673762D02*
X71334286Y-116388048D01*
X71953334Y-116388048D01*
X107712143Y-124376381D02*
X107140714Y-124376381D01*
X107426428Y-124376381D02*
X107426428Y-123376381D01*
X107331190Y-123519238D01*
X107235952Y-123614476D01*
X107140714Y-123662095D01*
X108140714Y-124376381D02*
X108140714Y-123376381D01*
X108712143Y-124376381D01*
X108712143Y-123376381D01*
X109664524Y-123376381D02*
X109188333Y-123376381D01*
X109140714Y-123852571D01*
X109188333Y-123804952D01*
X109283571Y-123757333D01*
X109521667Y-123757333D01*
X109616905Y-123804952D01*
X109664524Y-123852571D01*
X109712143Y-123947810D01*
X109712143Y-124185905D01*
X109664524Y-124281143D01*
X109616905Y-124328762D01*
X109521667Y-124376381D01*
X109283571Y-124376381D01*
X109188333Y-124328762D01*
X109140714Y-124281143D01*
X110283571Y-123804952D02*
X110188333Y-123757333D01*
X110140714Y-123709714D01*
X110093095Y-123614476D01*
X110093095Y-123566857D01*
X110140714Y-123471619D01*
X110188333Y-123424000D01*
X110283571Y-123376381D01*
X110474048Y-123376381D01*
X110569286Y-123424000D01*
X110616905Y-123471619D01*
X110664524Y-123566857D01*
X110664524Y-123614476D01*
X110616905Y-123709714D01*
X110569286Y-123757333D01*
X110474048Y-123804952D01*
X110283571Y-123804952D01*
X110188333Y-123852571D01*
X110140714Y-123900190D01*
X110093095Y-123995429D01*
X110093095Y-124185905D01*
X110140714Y-124281143D01*
X110188333Y-124328762D01*
X110283571Y-124376381D01*
X110474048Y-124376381D01*
X110569286Y-124328762D01*
X110616905Y-124281143D01*
X110664524Y-124185905D01*
X110664524Y-123995429D01*
X110616905Y-123900190D01*
X110569286Y-123852571D01*
X110474048Y-123804952D01*
X111616905Y-124376381D02*
X111045476Y-124376381D01*
X111331190Y-124376381D02*
X111331190Y-123376381D01*
X111235952Y-123519238D01*
X111140714Y-123614476D01*
X111045476Y-123662095D01*
X112093095Y-124376381D02*
X112283571Y-124376381D01*
X112378810Y-124328762D01*
X112426429Y-124281143D01*
X112521667Y-124138286D01*
X112569286Y-123947810D01*
X112569286Y-123566857D01*
X112521667Y-123471619D01*
X112474048Y-123424000D01*
X112378810Y-123376381D01*
X112188333Y-123376381D01*
X112093095Y-123424000D01*
X112045476Y-123471619D01*
X111997857Y-123566857D01*
X111997857Y-123804952D01*
X112045476Y-123900190D01*
X112093095Y-123947810D01*
X112188333Y-123995429D01*
X112378810Y-123995429D01*
X112474048Y-123947810D01*
X112521667Y-123900190D01*
X112569286Y-123804952D01*
X78347381Y-104520429D02*
X78347381Y-104996620D01*
X77347381Y-104996620D01*
X78442619Y-104425191D02*
X78442619Y-103663286D01*
X78252143Y-102853762D02*
X78299762Y-102901381D01*
X78347381Y-103044238D01*
X78347381Y-103139476D01*
X78299762Y-103282334D01*
X78204524Y-103377572D01*
X78109286Y-103425191D01*
X77918810Y-103472810D01*
X77775952Y-103472810D01*
X77585476Y-103425191D01*
X77490238Y-103377572D01*
X77395000Y-103282334D01*
X77347381Y-103139476D01*
X77347381Y-103044238D01*
X77395000Y-102901381D01*
X77442619Y-102853762D01*
X78347381Y-102282334D02*
X78299762Y-102377572D01*
X78252143Y-102425191D01*
X78156905Y-102472810D01*
X77871190Y-102472810D01*
X77775952Y-102425191D01*
X77728333Y-102377572D01*
X77680714Y-102282334D01*
X77680714Y-102139476D01*
X77728333Y-102044238D01*
X77775952Y-101996619D01*
X77871190Y-101949000D01*
X78156905Y-101949000D01*
X78252143Y-101996619D01*
X78299762Y-102044238D01*
X78347381Y-102139476D01*
X78347381Y-102282334D01*
X78347381Y-101520429D02*
X77680714Y-101520429D01*
X77871190Y-101520429D02*
X77775952Y-101472810D01*
X77728333Y-101425191D01*
X77680714Y-101329953D01*
X77680714Y-101234714D01*
X78299762Y-100520428D02*
X78347381Y-100615666D01*
X78347381Y-100806143D01*
X78299762Y-100901381D01*
X78204524Y-100949000D01*
X77823571Y-100949000D01*
X77728333Y-100901381D01*
X77680714Y-100806143D01*
X77680714Y-100615666D01*
X77728333Y-100520428D01*
X77823571Y-100472809D01*
X77918810Y-100472809D01*
X78014048Y-100949000D01*
X78442619Y-100282333D02*
X78442619Y-99520428D01*
X77823571Y-98948999D02*
X77823571Y-99282333D01*
X78347381Y-99282333D02*
X77347381Y-99282333D01*
X77347381Y-98806142D01*
X78299762Y-98044237D02*
X78347381Y-98139475D01*
X78347381Y-98329952D01*
X78299762Y-98425190D01*
X78204524Y-98472809D01*
X77823571Y-98472809D01*
X77728333Y-98425190D01*
X77680714Y-98329952D01*
X77680714Y-98139475D01*
X77728333Y-98044237D01*
X77823571Y-97996618D01*
X77918810Y-97996618D01*
X78014048Y-98472809D01*
X78347381Y-97568047D02*
X77680714Y-97568047D01*
X77871190Y-97568047D02*
X77775952Y-97520428D01*
X77728333Y-97472809D01*
X77680714Y-97377571D01*
X77680714Y-97282332D01*
X78347381Y-96948999D02*
X77680714Y-96948999D01*
X77871190Y-96948999D02*
X77775952Y-96901380D01*
X77728333Y-96853761D01*
X77680714Y-96758523D01*
X77680714Y-96663284D01*
X78347381Y-96329951D02*
X77680714Y-96329951D01*
X77347381Y-96329951D02*
X77395000Y-96377570D01*
X77442619Y-96329951D01*
X77395000Y-96282332D01*
X77347381Y-96329951D01*
X77442619Y-96329951D01*
X77680714Y-95996618D02*
X77680714Y-95615666D01*
X77347381Y-95853761D02*
X78204524Y-95853761D01*
X78299762Y-95806142D01*
X78347381Y-95710904D01*
X78347381Y-95615666D01*
X78299762Y-94901379D02*
X78347381Y-94996617D01*
X78347381Y-95187094D01*
X78299762Y-95282332D01*
X78204524Y-95329951D01*
X77823571Y-95329951D01*
X77728333Y-95282332D01*
X77680714Y-95187094D01*
X77680714Y-94996617D01*
X77728333Y-94901379D01*
X77823571Y-94853760D01*
X77918810Y-94853760D01*
X78014048Y-95329951D01*
X107497857Y-110451381D02*
X107497857Y-109451381D01*
X108545476Y-110451381D02*
X108212142Y-109975190D01*
X107974047Y-110451381D02*
X107974047Y-109451381D01*
X108355000Y-109451381D01*
X108450238Y-109499000D01*
X108497857Y-109546619D01*
X108545476Y-109641857D01*
X108545476Y-109784714D01*
X108497857Y-109879952D01*
X108450238Y-109927571D01*
X108355000Y-109975190D01*
X107974047Y-109975190D01*
X109307381Y-109927571D02*
X108974047Y-109927571D01*
X108974047Y-110451381D02*
X108974047Y-109451381D01*
X109450238Y-109451381D01*
X109735952Y-109451381D02*
X110402619Y-109451381D01*
X109974047Y-110451381D01*
X111212143Y-109784714D02*
X111212143Y-110451381D01*
X110974047Y-109403762D02*
X110735952Y-110118048D01*
X111355000Y-110118048D01*
X111926428Y-109451381D02*
X112021667Y-109451381D01*
X112116905Y-109499000D01*
X112164524Y-109546619D01*
X112212143Y-109641857D01*
X112259762Y-109832333D01*
X112259762Y-110070429D01*
X112212143Y-110260905D01*
X112164524Y-110356143D01*
X112116905Y-110403762D01*
X112021667Y-110451381D01*
X111926428Y-110451381D01*
X111831190Y-110403762D01*
X111783571Y-110356143D01*
X111735952Y-110260905D01*
X111688333Y-110070429D01*
X111688333Y-109832333D01*
X111735952Y-109641857D01*
X111783571Y-109546619D01*
X111831190Y-109499000D01*
X111926428Y-109451381D01*
X109759762Y-118086619D02*
X109664524Y-118039000D01*
X109569286Y-117943762D01*
X109426429Y-117800905D01*
X109331190Y-117753286D01*
X109235952Y-117753286D01*
X109283571Y-117991381D02*
X109188333Y-117943762D01*
X109093095Y-117848524D01*
X109045476Y-117658048D01*
X109045476Y-117324714D01*
X109093095Y-117134238D01*
X109188333Y-117039000D01*
X109283571Y-116991381D01*
X109474048Y-116991381D01*
X109569286Y-117039000D01*
X109664524Y-117134238D01*
X109712143Y-117324714D01*
X109712143Y-117658048D01*
X109664524Y-117848524D01*
X109569286Y-117943762D01*
X109474048Y-117991381D01*
X109283571Y-117991381D01*
X110045476Y-116991381D02*
X110664524Y-116991381D01*
X110331190Y-117372333D01*
X110474048Y-117372333D01*
X110569286Y-117419952D01*
X110616905Y-117467571D01*
X110664524Y-117562810D01*
X110664524Y-117800905D01*
X110616905Y-117896143D01*
X110569286Y-117943762D01*
X110474048Y-117991381D01*
X110188333Y-117991381D01*
X110093095Y-117943762D01*
X110045476Y-117896143D01*
X224940762Y-107918048D02*
X224988381Y-107775191D01*
X224988381Y-107537095D01*
X224940762Y-107441857D01*
X224893143Y-107394238D01*
X224797905Y-107346619D01*
X224702667Y-107346619D01*
X224607429Y-107394238D01*
X224559810Y-107441857D01*
X224512190Y-107537095D01*
X224464571Y-107727572D01*
X224416952Y-107822810D01*
X224369333Y-107870429D01*
X224274095Y-107918048D01*
X224178857Y-107918048D01*
X224083619Y-107870429D01*
X224036000Y-107822810D01*
X223988381Y-107727572D01*
X223988381Y-107489476D01*
X224036000Y-107346619D01*
X224321714Y-107060905D02*
X224321714Y-106679953D01*
X223988381Y-106918048D02*
X224845524Y-106918048D01*
X224940762Y-106870429D01*
X224988381Y-106775191D01*
X224988381Y-106679953D01*
X224988381Y-105918047D02*
X224464571Y-105918047D01*
X224369333Y-105965666D01*
X224321714Y-106060904D01*
X224321714Y-106251381D01*
X224369333Y-106346619D01*
X224940762Y-105918047D02*
X224988381Y-106013285D01*
X224988381Y-106251381D01*
X224940762Y-106346619D01*
X224845524Y-106394238D01*
X224750286Y-106394238D01*
X224655048Y-106346619D01*
X224607429Y-106251381D01*
X224607429Y-106013285D01*
X224559810Y-105918047D01*
X224988381Y-105441857D02*
X224321714Y-105441857D01*
X224512190Y-105441857D02*
X224416952Y-105394238D01*
X224369333Y-105346619D01*
X224321714Y-105251381D01*
X224321714Y-105156142D01*
X224321714Y-104965666D02*
X224321714Y-104584714D01*
X223988381Y-104822809D02*
X224845524Y-104822809D01*
X224940762Y-104775190D01*
X224988381Y-104679952D01*
X224988381Y-104584714D01*
X224940762Y-87455191D02*
X224988381Y-87312334D01*
X224988381Y-87074238D01*
X224940762Y-86979000D01*
X224893143Y-86931381D01*
X224797905Y-86883762D01*
X224702667Y-86883762D01*
X224607429Y-86931381D01*
X224559810Y-86979000D01*
X224512190Y-87074238D01*
X224464571Y-87264715D01*
X224416952Y-87359953D01*
X224369333Y-87407572D01*
X224274095Y-87455191D01*
X224178857Y-87455191D01*
X224083619Y-87407572D01*
X224036000Y-87359953D01*
X223988381Y-87264715D01*
X223988381Y-87026619D01*
X224036000Y-86883762D01*
X224321714Y-86598048D02*
X224321714Y-86217096D01*
X223988381Y-86455191D02*
X224845524Y-86455191D01*
X224940762Y-86407572D01*
X224988381Y-86312334D01*
X224988381Y-86217096D01*
X224988381Y-85740905D02*
X224940762Y-85836143D01*
X224893143Y-85883762D01*
X224797905Y-85931381D01*
X224512190Y-85931381D01*
X224416952Y-85883762D01*
X224369333Y-85836143D01*
X224321714Y-85740905D01*
X224321714Y-85598047D01*
X224369333Y-85502809D01*
X224416952Y-85455190D01*
X224512190Y-85407571D01*
X224797905Y-85407571D01*
X224893143Y-85455190D01*
X224940762Y-85502809D01*
X224988381Y-85598047D01*
X224988381Y-85740905D01*
X224321714Y-84979000D02*
X225321714Y-84979000D01*
X224369333Y-84979000D02*
X224321714Y-84883762D01*
X224321714Y-84693285D01*
X224369333Y-84598047D01*
X224416952Y-84550428D01*
X224512190Y-84502809D01*
X224797905Y-84502809D01*
X224893143Y-84550428D01*
X224940762Y-84598047D01*
X224988381Y-84693285D01*
X224988381Y-84883762D01*
X224940762Y-84979000D01*
X223988381Y-68873286D02*
X224988381Y-68635191D01*
X224274095Y-68444714D01*
X224988381Y-68254238D01*
X223988381Y-68016143D01*
X224940762Y-67254238D02*
X224988381Y-67349476D01*
X224988381Y-67539953D01*
X224940762Y-67635191D01*
X224845524Y-67682810D01*
X224464571Y-67682810D01*
X224369333Y-67635191D01*
X224321714Y-67539953D01*
X224321714Y-67349476D01*
X224369333Y-67254238D01*
X224464571Y-67206619D01*
X224559810Y-67206619D01*
X224655048Y-67682810D01*
X224988381Y-66635191D02*
X224940762Y-66730429D01*
X224845524Y-66778048D01*
X223988381Y-66778048D01*
X224988381Y-65825666D02*
X223988381Y-65825666D01*
X224940762Y-65825666D02*
X224988381Y-65920904D01*
X224988381Y-66111381D01*
X224940762Y-66206619D01*
X224893143Y-66254238D01*
X224797905Y-66301857D01*
X224512190Y-66301857D01*
X224416952Y-66254238D01*
X224369333Y-66206619D01*
X224321714Y-66111381D01*
X224321714Y-65920904D01*
X224369333Y-65825666D01*
X224893143Y-64778047D02*
X224940762Y-64825666D01*
X224988381Y-64968523D01*
X224988381Y-65063761D01*
X224940762Y-65206619D01*
X224845524Y-65301857D01*
X224750286Y-65349476D01*
X224559810Y-65397095D01*
X224416952Y-65397095D01*
X224226476Y-65349476D01*
X224131238Y-65301857D01*
X224036000Y-65206619D01*
X223988381Y-65063761D01*
X223988381Y-64968523D01*
X224036000Y-64825666D01*
X224083619Y-64778047D01*
X224321714Y-63920904D02*
X224988381Y-63920904D01*
X224321714Y-64349476D02*
X224845524Y-64349476D01*
X224940762Y-64301857D01*
X224988381Y-64206619D01*
X224988381Y-64063761D01*
X224940762Y-63968523D01*
X224893143Y-63920904D01*
X224988381Y-63444714D02*
X224321714Y-63444714D01*
X224512190Y-63444714D02*
X224416952Y-63397095D01*
X224369333Y-63349476D01*
X224321714Y-63254238D01*
X224321714Y-63158999D01*
X224321714Y-62920904D02*
X224988381Y-62682809D01*
X224321714Y-62444713D01*
X101942000Y-60320181D02*
X101942000Y-59320181D01*
X102180095Y-59320181D01*
X102322953Y-59367800D01*
X102418191Y-59463038D01*
X102465810Y-59558276D01*
X102513429Y-59748752D01*
X102513429Y-59891610D01*
X102465810Y-60082086D01*
X102418191Y-60177324D01*
X102322953Y-60272562D01*
X102180095Y-60320181D01*
X101942000Y-60320181D01*
X102703905Y-60415419D02*
X103465810Y-60415419D01*
X104037239Y-59796371D02*
X104180096Y-59843990D01*
X104227715Y-59891610D01*
X104275334Y-59986848D01*
X104275334Y-60129705D01*
X104227715Y-60224943D01*
X104180096Y-60272562D01*
X104084858Y-60320181D01*
X103703905Y-60320181D01*
X103703905Y-59320181D01*
X104037239Y-59320181D01*
X104132477Y-59367800D01*
X104180096Y-59415419D01*
X104227715Y-59510657D01*
X104227715Y-59605895D01*
X104180096Y-59701133D01*
X104132477Y-59748752D01*
X104037239Y-59796371D01*
X103703905Y-59796371D01*
X104703905Y-60320181D02*
X104703905Y-59653514D01*
X104703905Y-59843990D02*
X104751524Y-59748752D01*
X104799143Y-59701133D01*
X104894381Y-59653514D01*
X104989620Y-59653514D01*
X105322953Y-60320181D02*
X105322953Y-59653514D01*
X105322953Y-59320181D02*
X105275334Y-59367800D01*
X105322953Y-59415419D01*
X105370572Y-59367800D01*
X105322953Y-59320181D01*
X105322953Y-59415419D01*
X106227715Y-60320181D02*
X106227715Y-59320181D01*
X106227715Y-60272562D02*
X106132477Y-60320181D01*
X105942000Y-60320181D01*
X105846762Y-60272562D01*
X105799143Y-60224943D01*
X105751524Y-60129705D01*
X105751524Y-59843990D01*
X105799143Y-59748752D01*
X105846762Y-59701133D01*
X105942000Y-59653514D01*
X106132477Y-59653514D01*
X106227715Y-59701133D01*
X107132477Y-59653514D02*
X107132477Y-60463038D01*
X107084858Y-60558276D01*
X107037239Y-60605895D01*
X106942000Y-60653514D01*
X106799143Y-60653514D01*
X106703905Y-60605895D01*
X107132477Y-60272562D02*
X107037239Y-60320181D01*
X106846762Y-60320181D01*
X106751524Y-60272562D01*
X106703905Y-60224943D01*
X106656286Y-60129705D01*
X106656286Y-59843990D01*
X106703905Y-59748752D01*
X106751524Y-59701133D01*
X106846762Y-59653514D01*
X107037239Y-59653514D01*
X107132477Y-59701133D01*
X107989620Y-60272562D02*
X107894382Y-60320181D01*
X107703905Y-60320181D01*
X107608667Y-60272562D01*
X107561048Y-60177324D01*
X107561048Y-59796371D01*
X107608667Y-59701133D01*
X107703905Y-59653514D01*
X107894382Y-59653514D01*
X107989620Y-59701133D01*
X108037239Y-59796371D01*
X108037239Y-59891610D01*
X107561048Y-59986848D01*
X108227715Y-60415419D02*
X108989620Y-60415419D01*
X109227715Y-59939229D02*
X109989620Y-59939229D01*
X109608668Y-60320181D02*
X109608668Y-59558276D01*
X110465810Y-59939229D02*
X111227715Y-59939229D01*
X111656286Y-60034467D02*
X112132477Y-60034467D01*
X111561048Y-60320181D02*
X111894381Y-59320181D01*
X112227715Y-60320181D01*
X112513429Y-60034467D02*
X112989620Y-60034467D01*
X112418191Y-60320181D02*
X112751524Y-59320181D01*
X113084858Y-60320181D01*
X107307143Y-58380381D02*
X106830952Y-58380381D01*
X106783333Y-58856571D01*
X106830952Y-58808952D01*
X106926190Y-58761333D01*
X107164286Y-58761333D01*
X107259524Y-58808952D01*
X107307143Y-58856571D01*
X107354762Y-58951810D01*
X107354762Y-59189905D01*
X107307143Y-59285143D01*
X107259524Y-59332762D01*
X107164286Y-59380381D01*
X106926190Y-59380381D01*
X106830952Y-59332762D01*
X106783333Y-59285143D01*
X108211905Y-58380381D02*
X108021428Y-58380381D01*
X107926190Y-58428000D01*
X107878571Y-58475619D01*
X107783333Y-58618476D01*
X107735714Y-58808952D01*
X107735714Y-59189905D01*
X107783333Y-59285143D01*
X107830952Y-59332762D01*
X107926190Y-59380381D01*
X108116667Y-59380381D01*
X108211905Y-59332762D01*
X108259524Y-59285143D01*
X108307143Y-59189905D01*
X108307143Y-58951810D01*
X108259524Y-58856571D01*
X108211905Y-58808952D01*
X108116667Y-58761333D01*
X107926190Y-58761333D01*
X107830952Y-58808952D01*
X107783333Y-58856571D01*
X107735714Y-58951810D01*
X108735714Y-59380381D02*
X108735714Y-58380381D01*
X108830952Y-58999429D02*
X109116667Y-59380381D01*
X109116667Y-58713714D02*
X108735714Y-59094667D01*
X108069286Y-108132571D02*
X108212143Y-108180190D01*
X108259762Y-108227810D01*
X108307381Y-108323048D01*
X108307381Y-108465905D01*
X108259762Y-108561143D01*
X108212143Y-108608762D01*
X108116905Y-108656381D01*
X107735952Y-108656381D01*
X107735952Y-107656381D01*
X108069286Y-107656381D01*
X108164524Y-107704000D01*
X108212143Y-107751619D01*
X108259762Y-107846857D01*
X108259762Y-107942095D01*
X108212143Y-108037333D01*
X108164524Y-108084952D01*
X108069286Y-108132571D01*
X107735952Y-108132571D01*
X108688333Y-108370667D02*
X109164524Y-108370667D01*
X108593095Y-108656381D02*
X108926428Y-107656381D01*
X109259762Y-108656381D01*
X110116905Y-108656381D02*
X109545476Y-108656381D01*
X109831190Y-108656381D02*
X109831190Y-107656381D01*
X109735952Y-107799238D01*
X109640714Y-107894476D01*
X109545476Y-107942095D01*
X111021667Y-107656381D02*
X110545476Y-107656381D01*
X110497857Y-108132571D01*
X110545476Y-108084952D01*
X110640714Y-108037333D01*
X110878810Y-108037333D01*
X110974048Y-108084952D01*
X111021667Y-108132571D01*
X111069286Y-108227810D01*
X111069286Y-108465905D01*
X111021667Y-108561143D01*
X110974048Y-108608762D01*
X110878810Y-108656381D01*
X110640714Y-108656381D01*
X110545476Y-108608762D01*
X110497857Y-108561143D01*
X111545476Y-108656381D02*
X111735952Y-108656381D01*
X111831191Y-108608762D01*
X111878810Y-108561143D01*
X111974048Y-108418286D01*
X112021667Y-108227810D01*
X112021667Y-107846857D01*
X111974048Y-107751619D01*
X111926429Y-107704000D01*
X111831191Y-107656381D01*
X111640714Y-107656381D01*
X111545476Y-107704000D01*
X111497857Y-107751619D01*
X111450238Y-107846857D01*
X111450238Y-108084952D01*
X111497857Y-108180190D01*
X111545476Y-108227810D01*
X111640714Y-108275429D01*
X111831191Y-108275429D01*
X111926429Y-108227810D01*
X111974048Y-108180190D01*
X112021667Y-108084952D01*
X93559381Y-104909714D02*
X93559381Y-104290666D01*
X93940333Y-104624000D01*
X93940333Y-104481142D01*
X93987952Y-104385904D01*
X94035571Y-104338285D01*
X94130810Y-104290666D01*
X94368905Y-104290666D01*
X94464143Y-104338285D01*
X94511762Y-104385904D01*
X94559381Y-104481142D01*
X94559381Y-104766857D01*
X94511762Y-104862095D01*
X94464143Y-104909714D01*
X93559381Y-103957333D02*
X93559381Y-103338285D01*
X93940333Y-103671619D01*
X93940333Y-103528761D01*
X93987952Y-103433523D01*
X94035571Y-103385904D01*
X94130810Y-103338285D01*
X94368905Y-103338285D01*
X94464143Y-103385904D01*
X94511762Y-103433523D01*
X94559381Y-103528761D01*
X94559381Y-103814476D01*
X94511762Y-103909714D01*
X94464143Y-103957333D01*
X93559381Y-102719238D02*
X93559381Y-102623999D01*
X93607000Y-102528761D01*
X93654619Y-102481142D01*
X93749857Y-102433523D01*
X93940333Y-102385904D01*
X94178429Y-102385904D01*
X94368905Y-102433523D01*
X94464143Y-102481142D01*
X94511762Y-102528761D01*
X94559381Y-102623999D01*
X94559381Y-102719238D01*
X94511762Y-102814476D01*
X94464143Y-102862095D01*
X94368905Y-102909714D01*
X94178429Y-102957333D01*
X93940333Y-102957333D01*
X93749857Y-102909714D01*
X93654619Y-102862095D01*
X93607000Y-102814476D01*
X93559381Y-102719238D01*
X94559381Y-101385904D02*
X94083190Y-101719238D01*
X94559381Y-101957333D02*
X93559381Y-101957333D01*
X93559381Y-101576380D01*
X93607000Y-101481142D01*
X93654619Y-101433523D01*
X93749857Y-101385904D01*
X93892714Y-101385904D01*
X93987952Y-101433523D01*
X94035571Y-101481142D01*
X94083190Y-101576380D01*
X94083190Y-101957333D01*
X185872571Y-122059952D02*
X185777333Y-122012333D01*
X185729714Y-121964714D01*
X185682095Y-121869476D01*
X185682095Y-121821857D01*
X185729714Y-121726619D01*
X185777333Y-121679000D01*
X185872571Y-121631381D01*
X186063048Y-121631381D01*
X186158286Y-121679000D01*
X186205905Y-121726619D01*
X186253524Y-121821857D01*
X186253524Y-121869476D01*
X186205905Y-121964714D01*
X186158286Y-122012333D01*
X186063048Y-122059952D01*
X185872571Y-122059952D01*
X185777333Y-122107571D01*
X185729714Y-122155190D01*
X185682095Y-122250429D01*
X185682095Y-122440905D01*
X185729714Y-122536143D01*
X185777333Y-122583762D01*
X185872571Y-122631381D01*
X186063048Y-122631381D01*
X186158286Y-122583762D01*
X186205905Y-122536143D01*
X186253524Y-122440905D01*
X186253524Y-122250429D01*
X186205905Y-122155190D01*
X186158286Y-122107571D01*
X186063048Y-122059952D01*
X186682095Y-122631381D02*
X186682095Y-121631381D01*
X187253524Y-122631381D02*
X186824952Y-122059952D01*
X187253524Y-121631381D02*
X186682095Y-122202810D01*
X187634476Y-121726619D02*
X187682095Y-121679000D01*
X187777333Y-121631381D01*
X188015429Y-121631381D01*
X188110667Y-121679000D01*
X188158286Y-121726619D01*
X188205905Y-121821857D01*
X188205905Y-121917095D01*
X188158286Y-122059952D01*
X187586857Y-122631381D01*
X188205905Y-122631381D01*
X185872571Y-119519952D02*
X185777333Y-119472333D01*
X185729714Y-119424714D01*
X185682095Y-119329476D01*
X185682095Y-119281857D01*
X185729714Y-119186619D01*
X185777333Y-119139000D01*
X185872571Y-119091381D01*
X186063048Y-119091381D01*
X186158286Y-119139000D01*
X186205905Y-119186619D01*
X186253524Y-119281857D01*
X186253524Y-119329476D01*
X186205905Y-119424714D01*
X186158286Y-119472333D01*
X186063048Y-119519952D01*
X185872571Y-119519952D01*
X185777333Y-119567571D01*
X185729714Y-119615190D01*
X185682095Y-119710429D01*
X185682095Y-119900905D01*
X185729714Y-119996143D01*
X185777333Y-120043762D01*
X185872571Y-120091381D01*
X186063048Y-120091381D01*
X186158286Y-120043762D01*
X186205905Y-119996143D01*
X186253524Y-119900905D01*
X186253524Y-119710429D01*
X186205905Y-119615190D01*
X186158286Y-119567571D01*
X186063048Y-119519952D01*
X186682095Y-120091381D02*
X186682095Y-119091381D01*
X187253524Y-120091381D02*
X186824952Y-119519952D01*
X187253524Y-119091381D02*
X186682095Y-119662810D01*
X187634476Y-119186619D02*
X187682095Y-119139000D01*
X187777333Y-119091381D01*
X188015429Y-119091381D01*
X188110667Y-119139000D01*
X188158286Y-119186619D01*
X188205905Y-119281857D01*
X188205905Y-119377095D01*
X188158286Y-119519952D01*
X187586857Y-120091381D01*
X188205905Y-120091381D01*
X206620669Y-76763571D02*
X206763526Y-76811190D01*
X206811145Y-76858810D01*
X206858764Y-76954048D01*
X206858764Y-77096905D01*
X206811145Y-77192143D01*
X206763526Y-77239762D01*
X206668288Y-77287381D01*
X206287335Y-77287381D01*
X206287335Y-76287381D01*
X206620669Y-76287381D01*
X206715907Y-76335000D01*
X206763526Y-76382619D01*
X206811145Y-76477857D01*
X206811145Y-76573095D01*
X206763526Y-76668333D01*
X206715907Y-76715952D01*
X206620669Y-76763571D01*
X206287335Y-76763571D01*
X207715907Y-76620714D02*
X207715907Y-77287381D01*
X207287335Y-76620714D02*
X207287335Y-77144524D01*
X207334954Y-77239762D01*
X207430192Y-77287381D01*
X207573050Y-77287381D01*
X207668288Y-77239762D01*
X207715907Y-77192143D01*
X208096859Y-76620714D02*
X208620669Y-76620714D01*
X208096859Y-77287381D01*
X208620669Y-77287381D01*
X208906383Y-76620714D02*
X209430193Y-76620714D01*
X208906383Y-77287381D01*
X209430193Y-77287381D01*
X210192098Y-77239762D02*
X210096860Y-77287381D01*
X209906383Y-77287381D01*
X209811145Y-77239762D01*
X209763526Y-77144524D01*
X209763526Y-76763571D01*
X209811145Y-76668333D01*
X209906383Y-76620714D01*
X210096860Y-76620714D01*
X210192098Y-76668333D01*
X210239717Y-76763571D01*
X210239717Y-76858810D01*
X209763526Y-76954048D01*
X210668288Y-77287381D02*
X210668288Y-76620714D01*
X210668288Y-76811190D02*
X210715907Y-76715952D01*
X210763526Y-76668333D01*
X210858764Y-76620714D01*
X210954003Y-76620714D01*
X63732381Y-68762096D02*
X62732381Y-68762096D01*
X62732381Y-68381143D01*
X62780000Y-68285905D01*
X62827619Y-68238286D01*
X62922857Y-68190667D01*
X63065714Y-68190667D01*
X63160952Y-68238286D01*
X63208571Y-68285905D01*
X63256190Y-68381143D01*
X63256190Y-68762096D01*
X62732381Y-67857334D02*
X63732381Y-67619239D01*
X63018095Y-67428762D01*
X63732381Y-67238286D01*
X62732381Y-67000191D01*
X63732381Y-66047810D02*
X63256190Y-66381144D01*
X63732381Y-66619239D02*
X62732381Y-66619239D01*
X62732381Y-66238286D01*
X62780000Y-66143048D01*
X62827619Y-66095429D01*
X62922857Y-66047810D01*
X63065714Y-66047810D01*
X63160952Y-66095429D01*
X63208571Y-66143048D01*
X63256190Y-66238286D01*
X63256190Y-66619239D01*
X63827619Y-65857334D02*
X63827619Y-65095429D01*
X63684762Y-64904953D02*
X63732381Y-64762096D01*
X63732381Y-64524000D01*
X63684762Y-64428762D01*
X63637143Y-64381143D01*
X63541905Y-64333524D01*
X63446667Y-64333524D01*
X63351429Y-64381143D01*
X63303810Y-64428762D01*
X63256190Y-64524000D01*
X63208571Y-64714477D01*
X63160952Y-64809715D01*
X63113333Y-64857334D01*
X63018095Y-64904953D01*
X62922857Y-64904953D01*
X62827619Y-64857334D01*
X62780000Y-64809715D01*
X62732381Y-64714477D01*
X62732381Y-64476381D01*
X62780000Y-64333524D01*
X63065714Y-63476381D02*
X63732381Y-63476381D01*
X63065714Y-63904953D02*
X63589524Y-63904953D01*
X63684762Y-63857334D01*
X63732381Y-63762096D01*
X63732381Y-63619238D01*
X63684762Y-63524000D01*
X63637143Y-63476381D01*
X63065714Y-63000191D02*
X64065714Y-63000191D01*
X63113333Y-63000191D02*
X63065714Y-62904953D01*
X63065714Y-62714476D01*
X63113333Y-62619238D01*
X63160952Y-62571619D01*
X63256190Y-62524000D01*
X63541905Y-62524000D01*
X63637143Y-62571619D01*
X63684762Y-62619238D01*
X63732381Y-62714476D01*
X63732381Y-62904953D01*
X63684762Y-63000191D01*
X63732381Y-61952572D02*
X63684762Y-62047810D01*
X63589524Y-62095429D01*
X62732381Y-62095429D01*
X63065714Y-61666857D02*
X63732381Y-61428762D01*
X63065714Y-61190666D02*
X63732381Y-61428762D01*
X63970476Y-61524000D01*
X64018095Y-61571619D01*
X64065714Y-61666857D01*
X63732381Y-83375190D02*
X62732381Y-83375190D01*
X62732381Y-82994237D01*
X62780000Y-82898999D01*
X62827619Y-82851380D01*
X62922857Y-82803761D01*
X63065714Y-82803761D01*
X63160952Y-82851380D01*
X63208571Y-82898999D01*
X63256190Y-82994237D01*
X63256190Y-83375190D01*
X62732381Y-82470428D02*
X63732381Y-82232333D01*
X63018095Y-82041856D01*
X63732381Y-81851380D01*
X62732381Y-81613285D01*
X63732381Y-80660904D02*
X63256190Y-80994238D01*
X63732381Y-81232333D02*
X62732381Y-81232333D01*
X62732381Y-80851380D01*
X62780000Y-80756142D01*
X62827619Y-80708523D01*
X62922857Y-80660904D01*
X63065714Y-80660904D01*
X63160952Y-80708523D01*
X63208571Y-80756142D01*
X63256190Y-80851380D01*
X63256190Y-81232333D01*
X63827619Y-80470428D02*
X63827619Y-79708523D01*
X63732381Y-79470428D02*
X62732381Y-79470428D01*
X63732381Y-78994238D02*
X62732381Y-78994238D01*
X63732381Y-78422809D01*
X62732381Y-78422809D01*
X63732381Y-101393048D02*
X62732381Y-101393048D01*
X63208571Y-101393048D02*
X63208571Y-100821619D01*
X63732381Y-100821619D02*
X62732381Y-100821619D01*
X63446667Y-100393048D02*
X63446667Y-99916857D01*
X63732381Y-100488286D02*
X62732381Y-100154953D01*
X63732381Y-99821619D01*
X62780000Y-98964476D02*
X62732381Y-99059714D01*
X62732381Y-99202571D01*
X62780000Y-99345429D01*
X62875238Y-99440667D01*
X62970476Y-99488286D01*
X63160952Y-99535905D01*
X63303810Y-99535905D01*
X63494286Y-99488286D01*
X63589524Y-99440667D01*
X63684762Y-99345429D01*
X63732381Y-99202571D01*
X63732381Y-99107333D01*
X63684762Y-98964476D01*
X63637143Y-98916857D01*
X63303810Y-98916857D01*
X63303810Y-99107333D01*
X63732381Y-97154952D02*
X63256190Y-97488286D01*
X63732381Y-97726381D02*
X62732381Y-97726381D01*
X62732381Y-97345428D01*
X62780000Y-97250190D01*
X62827619Y-97202571D01*
X62922857Y-97154952D01*
X63065714Y-97154952D01*
X63160952Y-97202571D01*
X63208571Y-97250190D01*
X63256190Y-97345428D01*
X63256190Y-97726381D01*
X63684762Y-96345428D02*
X63732381Y-96440666D01*
X63732381Y-96631143D01*
X63684762Y-96726381D01*
X63589524Y-96774000D01*
X63208571Y-96774000D01*
X63113333Y-96726381D01*
X63065714Y-96631143D01*
X63065714Y-96440666D01*
X63113333Y-96345428D01*
X63208571Y-96297809D01*
X63303810Y-96297809D01*
X63399048Y-96774000D01*
X63684762Y-95916857D02*
X63732381Y-95821619D01*
X63732381Y-95631143D01*
X63684762Y-95535904D01*
X63589524Y-95488285D01*
X63541905Y-95488285D01*
X63446667Y-95535904D01*
X63399048Y-95631143D01*
X63399048Y-95774000D01*
X63351429Y-95869238D01*
X63256190Y-95916857D01*
X63208571Y-95916857D01*
X63113333Y-95869238D01*
X63065714Y-95774000D01*
X63065714Y-95631143D01*
X63113333Y-95535904D01*
X63732381Y-95059714D02*
X63065714Y-95059714D01*
X62732381Y-95059714D02*
X62780000Y-95107333D01*
X62827619Y-95059714D01*
X62780000Y-95012095D01*
X62732381Y-95059714D01*
X62827619Y-95059714D01*
X63684762Y-94631143D02*
X63732381Y-94535905D01*
X63732381Y-94345429D01*
X63684762Y-94250190D01*
X63589524Y-94202571D01*
X63541905Y-94202571D01*
X63446667Y-94250190D01*
X63399048Y-94345429D01*
X63399048Y-94488286D01*
X63351429Y-94583524D01*
X63256190Y-94631143D01*
X63208571Y-94631143D01*
X63113333Y-94583524D01*
X63065714Y-94488286D01*
X63065714Y-94345429D01*
X63113333Y-94250190D01*
X63065714Y-93916857D02*
X63065714Y-93535905D01*
X62732381Y-93774000D02*
X63589524Y-93774000D01*
X63684762Y-93726381D01*
X63732381Y-93631143D01*
X63732381Y-93535905D01*
X63732381Y-93059714D02*
X63684762Y-93154952D01*
X63637143Y-93202571D01*
X63541905Y-93250190D01*
X63256190Y-93250190D01*
X63160952Y-93202571D01*
X63113333Y-93154952D01*
X63065714Y-93059714D01*
X63065714Y-92916856D01*
X63113333Y-92821618D01*
X63160952Y-92773999D01*
X63256190Y-92726380D01*
X63541905Y-92726380D01*
X63637143Y-92773999D01*
X63684762Y-92821618D01*
X63732381Y-92916856D01*
X63732381Y-93059714D01*
X63732381Y-92297809D02*
X63065714Y-92297809D01*
X63256190Y-92297809D02*
X63160952Y-92250190D01*
X63113333Y-92202571D01*
X63065714Y-92107333D01*
X63065714Y-92012094D01*
X102211667Y-103486381D02*
X102211667Y-102486381D01*
X102545001Y-103200667D01*
X102878334Y-102486381D01*
X102878334Y-103486381D01*
X103545000Y-102486381D02*
X103735477Y-102486381D01*
X103830715Y-102534000D01*
X103925953Y-102629238D01*
X103973572Y-102819714D01*
X103973572Y-103153048D01*
X103925953Y-103343524D01*
X103830715Y-103438762D01*
X103735477Y-103486381D01*
X103545000Y-103486381D01*
X103449762Y-103438762D01*
X103354524Y-103343524D01*
X103306905Y-103153048D01*
X103306905Y-102819714D01*
X103354524Y-102629238D01*
X103449762Y-102534000D01*
X103545000Y-102486381D01*
X104973572Y-103391143D02*
X104925953Y-103438762D01*
X104783096Y-103486381D01*
X104687858Y-103486381D01*
X104545000Y-103438762D01*
X104449762Y-103343524D01*
X104402143Y-103248286D01*
X104354524Y-103057810D01*
X104354524Y-102914952D01*
X104402143Y-102724476D01*
X104449762Y-102629238D01*
X104545000Y-102534000D01*
X104687858Y-102486381D01*
X104783096Y-102486381D01*
X104925953Y-102534000D01*
X104973572Y-102581619D01*
X105306905Y-102486381D02*
X105925953Y-102486381D01*
X105592619Y-102867333D01*
X105735477Y-102867333D01*
X105830715Y-102914952D01*
X105878334Y-102962571D01*
X105925953Y-103057810D01*
X105925953Y-103295905D01*
X105878334Y-103391143D01*
X105830715Y-103438762D01*
X105735477Y-103486381D01*
X105449762Y-103486381D01*
X105354524Y-103438762D01*
X105306905Y-103391143D01*
X106545000Y-102486381D02*
X106640239Y-102486381D01*
X106735477Y-102534000D01*
X106783096Y-102581619D01*
X106830715Y-102676857D01*
X106878334Y-102867333D01*
X106878334Y-103105429D01*
X106830715Y-103295905D01*
X106783096Y-103391143D01*
X106735477Y-103438762D01*
X106640239Y-103486381D01*
X106545000Y-103486381D01*
X106449762Y-103438762D01*
X106402143Y-103391143D01*
X106354524Y-103295905D01*
X106306905Y-103105429D01*
X106306905Y-102867333D01*
X106354524Y-102676857D01*
X106402143Y-102581619D01*
X106449762Y-102534000D01*
X106545000Y-102486381D01*
X107259286Y-102581619D02*
X107306905Y-102534000D01*
X107402143Y-102486381D01*
X107640239Y-102486381D01*
X107735477Y-102534000D01*
X107783096Y-102581619D01*
X107830715Y-102676857D01*
X107830715Y-102772095D01*
X107783096Y-102914952D01*
X107211667Y-103486381D01*
X107830715Y-103486381D01*
X108164048Y-102486381D02*
X108783096Y-102486381D01*
X108449762Y-102867333D01*
X108592620Y-102867333D01*
X108687858Y-102914952D01*
X108735477Y-102962571D01*
X108783096Y-103057810D01*
X108783096Y-103295905D01*
X108735477Y-103391143D01*
X108687858Y-103438762D01*
X108592620Y-103486381D01*
X108306905Y-103486381D01*
X108211667Y-103438762D01*
X108164048Y-103391143D01*
X109211667Y-103486381D02*
X109211667Y-102486381D01*
X109545001Y-103200667D01*
X109878334Y-102486381D01*
X109878334Y-103486381D01*
X113966952Y-56184381D02*
X114538381Y-56184381D01*
X114252666Y-57184381D02*
X114252666Y-56184381D01*
X115347905Y-57184381D02*
X114871714Y-57184381D01*
X114871714Y-56184381D01*
X115681238Y-57184381D02*
X115681238Y-56184381D01*
X116062191Y-56184381D01*
X116157429Y-56232000D01*
X116205048Y-56279619D01*
X116252667Y-56374857D01*
X116252667Y-56517714D01*
X116205048Y-56612952D01*
X116157429Y-56660571D01*
X116062191Y-56708190D01*
X115681238Y-56708190D01*
X117109810Y-56184381D02*
X116919333Y-56184381D01*
X116824095Y-56232000D01*
X116776476Y-56279619D01*
X116681238Y-56422476D01*
X116633619Y-56612952D01*
X116633619Y-56993905D01*
X116681238Y-57089143D01*
X116728857Y-57136762D01*
X116824095Y-57184381D01*
X117014572Y-57184381D01*
X117109810Y-57136762D01*
X117157429Y-57089143D01*
X117205048Y-56993905D01*
X117205048Y-56755810D01*
X117157429Y-56660571D01*
X117109810Y-56612952D01*
X117014572Y-56565333D01*
X116824095Y-56565333D01*
X116728857Y-56612952D01*
X116681238Y-56660571D01*
X116633619Y-56755810D01*
X117586000Y-56279619D02*
X117633619Y-56232000D01*
X117728857Y-56184381D01*
X117966953Y-56184381D01*
X118062191Y-56232000D01*
X118109810Y-56279619D01*
X118157429Y-56374857D01*
X118157429Y-56470095D01*
X118109810Y-56612952D01*
X117538381Y-57184381D01*
X118157429Y-57184381D01*
X118490762Y-56184381D02*
X119157429Y-56184381D01*
X118728857Y-57184381D01*
X106418334Y-127071381D02*
X105942143Y-127071381D01*
X105942143Y-126071381D01*
X106751667Y-127071381D02*
X106751667Y-126071381D01*
X107085001Y-126785667D01*
X107418334Y-126071381D01*
X107418334Y-127071381D01*
X107846905Y-126166619D02*
X107894524Y-126119000D01*
X107989762Y-126071381D01*
X108227858Y-126071381D01*
X108323096Y-126119000D01*
X108370715Y-126166619D01*
X108418334Y-126261857D01*
X108418334Y-126357095D01*
X108370715Y-126499952D01*
X107799286Y-127071381D01*
X108418334Y-127071381D01*
X109323096Y-126071381D02*
X108846905Y-126071381D01*
X108799286Y-126547571D01*
X108846905Y-126499952D01*
X108942143Y-126452333D01*
X109180239Y-126452333D01*
X109275477Y-126499952D01*
X109323096Y-126547571D01*
X109370715Y-126642810D01*
X109370715Y-126880905D01*
X109323096Y-126976143D01*
X109275477Y-127023762D01*
X109180239Y-127071381D01*
X108942143Y-127071381D01*
X108846905Y-127023762D01*
X108799286Y-126976143D01*
X109704048Y-126071381D02*
X110370715Y-126071381D01*
X109942143Y-127071381D01*
X111227858Y-126071381D02*
X110751667Y-126071381D01*
X110704048Y-126547571D01*
X110751667Y-126499952D01*
X110846905Y-126452333D01*
X111085001Y-126452333D01*
X111180239Y-126499952D01*
X111227858Y-126547571D01*
X111275477Y-126642810D01*
X111275477Y-126880905D01*
X111227858Y-126976143D01*
X111180239Y-127023762D01*
X111085001Y-127071381D01*
X110846905Y-127071381D01*
X110751667Y-127023762D01*
X110704048Y-126976143D01*
X175990714Y-79536381D02*
X175990714Y-78536381D01*
X176324048Y-79250667D01*
X176657381Y-78536381D01*
X176657381Y-79536381D01*
X177705000Y-79441143D02*
X177657381Y-79488762D01*
X177514524Y-79536381D01*
X177419286Y-79536381D01*
X177276428Y-79488762D01*
X177181190Y-79393524D01*
X177133571Y-79298286D01*
X177085952Y-79107810D01*
X177085952Y-78964952D01*
X177133571Y-78774476D01*
X177181190Y-78679238D01*
X177276428Y-78584000D01*
X177419286Y-78536381D01*
X177514524Y-78536381D01*
X177657381Y-78584000D01*
X177705000Y-78631619D01*
X178133571Y-79536381D02*
X178133571Y-78536381D01*
X178514524Y-78536381D01*
X178609762Y-78584000D01*
X178657381Y-78631619D01*
X178705000Y-78726857D01*
X178705000Y-78869714D01*
X178657381Y-78964952D01*
X178609762Y-79012571D01*
X178514524Y-79060190D01*
X178133571Y-79060190D01*
X179085952Y-78631619D02*
X179133571Y-78584000D01*
X179228809Y-78536381D01*
X179466905Y-78536381D01*
X179562143Y-78584000D01*
X179609762Y-78631619D01*
X179657381Y-78726857D01*
X179657381Y-78822095D01*
X179609762Y-78964952D01*
X179038333Y-79536381D01*
X179657381Y-79536381D01*
X179990714Y-78536381D02*
X180609762Y-78536381D01*
X180276428Y-78917333D01*
X180419286Y-78917333D01*
X180514524Y-78964952D01*
X180562143Y-79012571D01*
X180609762Y-79107810D01*
X180609762Y-79345905D01*
X180562143Y-79441143D01*
X180514524Y-79488762D01*
X180419286Y-79536381D01*
X180133571Y-79536381D01*
X180038333Y-79488762D01*
X179990714Y-79441143D01*
X181228809Y-78536381D02*
X181324048Y-78536381D01*
X181419286Y-78584000D01*
X181466905Y-78631619D01*
X181514524Y-78726857D01*
X181562143Y-78917333D01*
X181562143Y-79155429D01*
X181514524Y-79345905D01*
X181466905Y-79441143D01*
X181419286Y-79488762D01*
X181324048Y-79536381D01*
X181228809Y-79536381D01*
X181133571Y-79488762D01*
X181085952Y-79441143D01*
X181038333Y-79345905D01*
X180990714Y-79155429D01*
X180990714Y-78917333D01*
X181038333Y-78726857D01*
X181085952Y-78631619D01*
X181133571Y-78584000D01*
X181228809Y-78536381D01*
X182514524Y-79536381D02*
X181943095Y-79536381D01*
X182228809Y-79536381D02*
X182228809Y-78536381D01*
X182133571Y-78679238D01*
X182038333Y-78774476D01*
X181943095Y-78822095D01*
X182847857Y-78536381D02*
X183514524Y-78536381D01*
X183085952Y-79536381D01*
X210589999Y-138741381D02*
X210256665Y-138265190D01*
X210018570Y-138741381D02*
X210018570Y-137741381D01*
X210399523Y-137741381D01*
X210494761Y-137789000D01*
X210542380Y-137836619D01*
X210589999Y-137931857D01*
X210589999Y-138074714D01*
X210542380Y-138169952D01*
X210494761Y-138217571D01*
X210399523Y-138265190D01*
X210018570Y-138265190D01*
X211161427Y-138741381D02*
X211066189Y-138693762D01*
X211018570Y-138646143D01*
X210970951Y-138550905D01*
X210970951Y-138265190D01*
X211018570Y-138169952D01*
X211066189Y-138122333D01*
X211161427Y-138074714D01*
X211304285Y-138074714D01*
X211399523Y-138122333D01*
X211447142Y-138169952D01*
X211494761Y-138265190D01*
X211494761Y-138550905D01*
X211447142Y-138646143D01*
X211399523Y-138693762D01*
X211304285Y-138741381D01*
X211161427Y-138741381D01*
X211780475Y-138074714D02*
X212161427Y-138074714D01*
X211923332Y-137741381D02*
X211923332Y-138598524D01*
X211970951Y-138693762D01*
X212066189Y-138741381D01*
X212161427Y-138741381D01*
X212923333Y-138741381D02*
X212923333Y-138217571D01*
X212875714Y-138122333D01*
X212780476Y-138074714D01*
X212589999Y-138074714D01*
X212494761Y-138122333D01*
X212923333Y-138693762D02*
X212828095Y-138741381D01*
X212589999Y-138741381D01*
X212494761Y-138693762D01*
X212447142Y-138598524D01*
X212447142Y-138503286D01*
X212494761Y-138408048D01*
X212589999Y-138360429D01*
X212828095Y-138360429D01*
X212923333Y-138312810D01*
X213399523Y-138741381D02*
X213399523Y-138074714D01*
X213399523Y-138265190D02*
X213447142Y-138169952D01*
X213494761Y-138122333D01*
X213589999Y-138074714D01*
X213685238Y-138074714D01*
X213923333Y-138074714D02*
X214161428Y-138741381D01*
X214399524Y-138074714D02*
X214161428Y-138741381D01*
X214066190Y-138979476D01*
X214018571Y-139027095D01*
X213923333Y-139074714D01*
X214542381Y-138836619D02*
X215304286Y-138836619D01*
X215542381Y-138217571D02*
X215875715Y-138217571D01*
X216018572Y-138741381D02*
X215542381Y-138741381D01*
X215542381Y-137741381D01*
X216018572Y-137741381D01*
X216447143Y-138074714D02*
X216447143Y-138741381D01*
X216447143Y-138169952D02*
X216494762Y-138122333D01*
X216590000Y-138074714D01*
X216732858Y-138074714D01*
X216828096Y-138122333D01*
X216875715Y-138217571D01*
X216875715Y-138741381D01*
X217780477Y-138693762D02*
X217685239Y-138741381D01*
X217494762Y-138741381D01*
X217399524Y-138693762D01*
X217351905Y-138646143D01*
X217304286Y-138550905D01*
X217304286Y-138265190D01*
X217351905Y-138169952D01*
X217399524Y-138122333D01*
X217494762Y-138074714D01*
X217685239Y-138074714D01*
X217780477Y-138122333D01*
X218351905Y-138741381D02*
X218256667Y-138693762D01*
X218209048Y-138646143D01*
X218161429Y-138550905D01*
X218161429Y-138265190D01*
X218209048Y-138169952D01*
X218256667Y-138122333D01*
X218351905Y-138074714D01*
X218494763Y-138074714D01*
X218590001Y-138122333D01*
X218637620Y-138169952D01*
X218685239Y-138265190D01*
X218685239Y-138550905D01*
X218637620Y-138646143D01*
X218590001Y-138693762D01*
X218494763Y-138741381D01*
X218351905Y-138741381D01*
X219542382Y-138741381D02*
X219542382Y-137741381D01*
X219542382Y-138693762D02*
X219447144Y-138741381D01*
X219256667Y-138741381D01*
X219161429Y-138693762D01*
X219113810Y-138646143D01*
X219066191Y-138550905D01*
X219066191Y-138265190D01*
X219113810Y-138169952D01*
X219161429Y-138122333D01*
X219256667Y-138074714D01*
X219447144Y-138074714D01*
X219542382Y-138122333D01*
X220399525Y-138693762D02*
X220304287Y-138741381D01*
X220113810Y-138741381D01*
X220018572Y-138693762D01*
X219970953Y-138598524D01*
X219970953Y-138217571D01*
X220018572Y-138122333D01*
X220113810Y-138074714D01*
X220304287Y-138074714D01*
X220399525Y-138122333D01*
X220447144Y-138217571D01*
X220447144Y-138312810D01*
X219970953Y-138408048D01*
X220875715Y-138741381D02*
X220875715Y-138074714D01*
X220875715Y-138265190D02*
X220923334Y-138169952D01*
X220970953Y-138122333D01*
X221066191Y-138074714D01*
X221161430Y-138074714D01*
X221256668Y-138836619D02*
X222018573Y-138836619D01*
X222209049Y-138693762D02*
X222351906Y-138741381D01*
X222590002Y-138741381D01*
X222685240Y-138693762D01*
X222732859Y-138646143D01*
X222780478Y-138550905D01*
X222780478Y-138455667D01*
X222732859Y-138360429D01*
X222685240Y-138312810D01*
X222590002Y-138265190D01*
X222399525Y-138217571D01*
X222304287Y-138169952D01*
X222256668Y-138122333D01*
X222209049Y-138027095D01*
X222209049Y-137931857D01*
X222256668Y-137836619D01*
X222304287Y-137789000D01*
X222399525Y-137741381D01*
X222637621Y-137741381D01*
X222780478Y-137789000D01*
X223113811Y-138074714D02*
X223304287Y-138741381D01*
X223494764Y-138265190D01*
X223685240Y-138741381D01*
X223875716Y-138074714D01*
X224256668Y-138741381D02*
X224256668Y-138074714D01*
X224256668Y-137741381D02*
X224209049Y-137789000D01*
X224256668Y-137836619D01*
X224304287Y-137789000D01*
X224256668Y-137741381D01*
X224256668Y-137836619D01*
X224590001Y-138074714D02*
X224970953Y-138074714D01*
X224732858Y-137741381D02*
X224732858Y-138598524D01*
X224780477Y-138693762D01*
X224875715Y-138741381D01*
X224970953Y-138741381D01*
X225732859Y-138693762D02*
X225637621Y-138741381D01*
X225447144Y-138741381D01*
X225351906Y-138693762D01*
X225304287Y-138646143D01*
X225256668Y-138550905D01*
X225256668Y-138265190D01*
X225304287Y-138169952D01*
X225351906Y-138122333D01*
X225447144Y-138074714D01*
X225637621Y-138074714D01*
X225732859Y-138122333D01*
X226161430Y-138741381D02*
X226161430Y-137741381D01*
X226590002Y-138741381D02*
X226590002Y-138217571D01*
X226542383Y-138122333D01*
X226447145Y-138074714D01*
X226304287Y-138074714D01*
X226209049Y-138122333D01*
X226161430Y-138169952D01*
X226828097Y-138836619D02*
X227590002Y-138836619D01*
X227685240Y-137741381D02*
X228018573Y-138741381D01*
X228351907Y-137741381D01*
X228637621Y-137836619D02*
X228685240Y-137789000D01*
X228780478Y-137741381D01*
X229018574Y-137741381D01*
X229113812Y-137789000D01*
X229161431Y-137836619D01*
X229209050Y-137931857D01*
X229209050Y-138027095D01*
X229161431Y-138169952D01*
X228590002Y-138741381D01*
X229209050Y-138741381D01*
X221856667Y-134593762D02*
X221999524Y-134641381D01*
X222237620Y-134641381D01*
X222332858Y-134593762D01*
X222380477Y-134546143D01*
X222428096Y-134450905D01*
X222428096Y-134355667D01*
X222380477Y-134260429D01*
X222332858Y-134212810D01*
X222237620Y-134165190D01*
X222047143Y-134117571D01*
X221951905Y-134069952D01*
X221904286Y-134022333D01*
X221856667Y-133927095D01*
X221856667Y-133831857D01*
X221904286Y-133736619D01*
X221951905Y-133689000D01*
X222047143Y-133641381D01*
X222285239Y-133641381D01*
X222428096Y-133689000D01*
X222761429Y-133641381D02*
X222999524Y-134641381D01*
X223190001Y-133927095D01*
X223380477Y-134641381D01*
X223618572Y-133641381D01*
X224428096Y-133974714D02*
X224428096Y-134641381D01*
X224190000Y-133593762D02*
X223951905Y-134308048D01*
X224570953Y-134308048D01*
X108116905Y-119811619D02*
X108164524Y-119764000D01*
X108259762Y-119716381D01*
X108497858Y-119716381D01*
X108593096Y-119764000D01*
X108640715Y-119811619D01*
X108688334Y-119906857D01*
X108688334Y-120002095D01*
X108640715Y-120144952D01*
X108069286Y-120716381D01*
X108688334Y-120716381D01*
X109021667Y-119716381D02*
X109688334Y-119716381D01*
X109259762Y-120716381D01*
X110259762Y-119716381D02*
X110355001Y-119716381D01*
X110450239Y-119764000D01*
X110497858Y-119811619D01*
X110545477Y-119906857D01*
X110593096Y-120097333D01*
X110593096Y-120335429D01*
X110545477Y-120525905D01*
X110497858Y-120621143D01*
X110450239Y-120668762D01*
X110355001Y-120716381D01*
X110259762Y-120716381D01*
X110164524Y-120668762D01*
X110116905Y-120621143D01*
X110069286Y-120525905D01*
X110021667Y-120335429D01*
X110021667Y-120097333D01*
X110069286Y-119906857D01*
X110116905Y-119811619D01*
X110164524Y-119764000D01*
X110259762Y-119716381D01*
X111593096Y-120716381D02*
X111259762Y-120240190D01*
X111021667Y-120716381D02*
X111021667Y-119716381D01*
X111402620Y-119716381D01*
X111497858Y-119764000D01*
X111545477Y-119811619D01*
X111593096Y-119906857D01*
X111593096Y-120049714D01*
X111545477Y-120144952D01*
X111497858Y-120192571D01*
X111402620Y-120240190D01*
X111021667Y-120240190D01*
X150884096Y-97199714D02*
X150884096Y-97866381D01*
X150646000Y-96818762D02*
X150407905Y-97533048D01*
X151026953Y-97533048D01*
X151312667Y-96866381D02*
X151979334Y-96866381D01*
X151550762Y-97866381D01*
X152550762Y-96866381D02*
X152646001Y-96866381D01*
X152741239Y-96914000D01*
X152788858Y-96961619D01*
X152836477Y-97056857D01*
X152884096Y-97247333D01*
X152884096Y-97485429D01*
X152836477Y-97675905D01*
X152788858Y-97771143D01*
X152741239Y-97818762D01*
X152646001Y-97866381D01*
X152550762Y-97866381D01*
X152455524Y-97818762D01*
X152407905Y-97771143D01*
X152360286Y-97675905D01*
X152312667Y-97485429D01*
X152312667Y-97247333D01*
X152360286Y-97056857D01*
X152407905Y-96961619D01*
X152455524Y-96914000D01*
X152550762Y-96866381D01*
X153884096Y-97866381D02*
X153550762Y-97390190D01*
X153312667Y-97866381D02*
X153312667Y-96866381D01*
X153693620Y-96866381D01*
X153788858Y-96914000D01*
X153836477Y-96961619D01*
X153884096Y-97056857D01*
X153884096Y-97199714D01*
X153836477Y-97294952D01*
X153788858Y-97342571D01*
X153693620Y-97390190D01*
X153312667Y-97390190D01*
X149015714Y-119879904D02*
X149682381Y-119879904D01*
X148634762Y-120118000D02*
X149349048Y-120356095D01*
X149349048Y-119737047D01*
X148682381Y-119451333D02*
X148682381Y-118784666D01*
X149682381Y-119213238D01*
X148682381Y-118213238D02*
X148682381Y-118117999D01*
X148730000Y-118022761D01*
X148777619Y-117975142D01*
X148872857Y-117927523D01*
X149063333Y-117879904D01*
X149301429Y-117879904D01*
X149491905Y-117927523D01*
X149587143Y-117975142D01*
X149634762Y-118022761D01*
X149682381Y-118117999D01*
X149682381Y-118213238D01*
X149634762Y-118308476D01*
X149587143Y-118356095D01*
X149491905Y-118403714D01*
X149301429Y-118451333D01*
X149063333Y-118451333D01*
X148872857Y-118403714D01*
X148777619Y-118356095D01*
X148730000Y-118308476D01*
X148682381Y-118213238D01*
X149682381Y-116879904D02*
X149206190Y-117213238D01*
X149682381Y-117451333D02*
X148682381Y-117451333D01*
X148682381Y-117070380D01*
X148730000Y-116975142D01*
X148777619Y-116927523D01*
X148872857Y-116879904D01*
X149015714Y-116879904D01*
X149110952Y-116927523D01*
X149158571Y-116975142D01*
X149206190Y-117070380D01*
X149206190Y-117451333D01*
X94802619Y-126610905D02*
X94755000Y-126563286D01*
X94707381Y-126468048D01*
X94707381Y-126229952D01*
X94755000Y-126134714D01*
X94802619Y-126087095D01*
X94897857Y-126039476D01*
X94993095Y-126039476D01*
X95135952Y-126087095D01*
X95707381Y-126658524D01*
X95707381Y-126039476D01*
X95707381Y-125610905D02*
X94707381Y-125610905D01*
X95707381Y-125039476D02*
X95135952Y-125468048D01*
X94707381Y-125039476D02*
X95278810Y-125610905D01*
X94802619Y-124658524D02*
X94755000Y-124610905D01*
X94707381Y-124515667D01*
X94707381Y-124277571D01*
X94755000Y-124182333D01*
X94802619Y-124134714D01*
X94897857Y-124087095D01*
X94993095Y-124087095D01*
X95135952Y-124134714D01*
X95707381Y-124706143D01*
X95707381Y-124087095D01*
X110752095Y-77403619D02*
X110799714Y-77356000D01*
X110894952Y-77308381D01*
X111133048Y-77308381D01*
X111228286Y-77356000D01*
X111275905Y-77403619D01*
X111323524Y-77498857D01*
X111323524Y-77594095D01*
X111275905Y-77736952D01*
X110704476Y-78308381D01*
X111323524Y-78308381D01*
X111752095Y-78308381D02*
X111752095Y-77308381D01*
X112323524Y-78308381D02*
X111894952Y-77736952D01*
X112323524Y-77308381D02*
X111752095Y-77879810D01*
X112704476Y-77403619D02*
X112752095Y-77356000D01*
X112847333Y-77308381D01*
X113085429Y-77308381D01*
X113180667Y-77356000D01*
X113228286Y-77403619D01*
X113275905Y-77498857D01*
X113275905Y-77594095D01*
X113228286Y-77736952D01*
X112656857Y-78308381D01*
X113275905Y-78308381D01*
X189349286Y-133686381D02*
X189968334Y-133686381D01*
X189635000Y-134067333D01*
X189777858Y-134067333D01*
X189873096Y-134114952D01*
X189920715Y-134162571D01*
X189968334Y-134257810D01*
X189968334Y-134495905D01*
X189920715Y-134591143D01*
X189873096Y-134638762D01*
X189777858Y-134686381D01*
X189492143Y-134686381D01*
X189396905Y-134638762D01*
X189349286Y-134591143D01*
X190825477Y-133686381D02*
X190635000Y-133686381D01*
X190539762Y-133734000D01*
X190492143Y-133781619D01*
X190396905Y-133924476D01*
X190349286Y-134114952D01*
X190349286Y-134495905D01*
X190396905Y-134591143D01*
X190444524Y-134638762D01*
X190539762Y-134686381D01*
X190730239Y-134686381D01*
X190825477Y-134638762D01*
X190873096Y-134591143D01*
X190920715Y-134495905D01*
X190920715Y-134257810D01*
X190873096Y-134162571D01*
X190825477Y-134114952D01*
X190730239Y-134067333D01*
X190539762Y-134067333D01*
X190444524Y-134114952D01*
X190396905Y-134162571D01*
X190349286Y-134257810D01*
X191539762Y-133686381D02*
X191635001Y-133686381D01*
X191730239Y-133734000D01*
X191777858Y-133781619D01*
X191825477Y-133876857D01*
X191873096Y-134067333D01*
X191873096Y-134305429D01*
X191825477Y-134495905D01*
X191777858Y-134591143D01*
X191730239Y-134638762D01*
X191635001Y-134686381D01*
X191539762Y-134686381D01*
X191444524Y-134638762D01*
X191396905Y-134591143D01*
X191349286Y-134495905D01*
X191301667Y-134305429D01*
X191301667Y-134067333D01*
X191349286Y-133876857D01*
X191396905Y-133781619D01*
X191444524Y-133734000D01*
X191539762Y-133686381D01*
X192873096Y-134686381D02*
X192539762Y-134210190D01*
X192301667Y-134686381D02*
X192301667Y-133686381D01*
X192682620Y-133686381D01*
X192777858Y-133734000D01*
X192825477Y-133781619D01*
X192873096Y-133876857D01*
X192873096Y-134019714D01*
X192825477Y-134114952D01*
X192777858Y-134162571D01*
X192682620Y-134210190D01*
X192301667Y-134210190D01*
X119166191Y-114836143D02*
X119118572Y-114883762D01*
X118975715Y-114931381D01*
X118880477Y-114931381D01*
X118737619Y-114883762D01*
X118642381Y-114788524D01*
X118594762Y-114693286D01*
X118547143Y-114502810D01*
X118547143Y-114359952D01*
X118594762Y-114169476D01*
X118642381Y-114074238D01*
X118737619Y-113979000D01*
X118880477Y-113931381D01*
X118975715Y-113931381D01*
X119118572Y-113979000D01*
X119166191Y-114026619D01*
X119785238Y-113931381D02*
X119975715Y-113931381D01*
X120070953Y-113979000D01*
X120166191Y-114074238D01*
X120213810Y-114264714D01*
X120213810Y-114598048D01*
X120166191Y-114788524D01*
X120070953Y-114883762D01*
X119975715Y-114931381D01*
X119785238Y-114931381D01*
X119690000Y-114883762D01*
X119594762Y-114788524D01*
X119547143Y-114598048D01*
X119547143Y-114264714D01*
X119594762Y-114074238D01*
X119690000Y-113979000D01*
X119785238Y-113931381D01*
X120642381Y-114931381D02*
X120642381Y-113931381D01*
X121213810Y-114931381D01*
X121213810Y-113931381D01*
X121690000Y-114931381D02*
X121690000Y-113931381D01*
X122261429Y-114931381D01*
X122261429Y-113931381D01*
X122499524Y-115026619D02*
X123261429Y-115026619D01*
X123690000Y-113931381D02*
X123785239Y-113931381D01*
X123880477Y-113979000D01*
X123928096Y-114026619D01*
X123975715Y-114121857D01*
X124023334Y-114312333D01*
X124023334Y-114550429D01*
X123975715Y-114740905D01*
X123928096Y-114836143D01*
X123880477Y-114883762D01*
X123785239Y-114931381D01*
X123690000Y-114931381D01*
X123594762Y-114883762D01*
X123547143Y-114836143D01*
X123499524Y-114740905D01*
X123451905Y-114550429D01*
X123451905Y-114312333D01*
X123499524Y-114121857D01*
X123547143Y-114026619D01*
X123594762Y-113979000D01*
X123690000Y-113931381D01*
X124975715Y-114931381D02*
X124404286Y-114931381D01*
X124690000Y-114931381D02*
X124690000Y-113931381D01*
X124594762Y-114074238D01*
X124499524Y-114169476D01*
X124404286Y-114217095D01*
X125309048Y-113931381D02*
X125975715Y-114931381D01*
X125975715Y-113931381D02*
X125309048Y-114931381D01*
X126547143Y-113931381D02*
X126642382Y-113931381D01*
X126737620Y-113979000D01*
X126785239Y-114026619D01*
X126832858Y-114121857D01*
X126880477Y-114312333D01*
X126880477Y-114550429D01*
X126832858Y-114740905D01*
X126785239Y-114836143D01*
X126737620Y-114883762D01*
X126642382Y-114931381D01*
X126547143Y-114931381D01*
X126451905Y-114883762D01*
X126404286Y-114836143D01*
X126356667Y-114740905D01*
X126309048Y-114550429D01*
X126309048Y-114312333D01*
X126356667Y-114121857D01*
X126404286Y-114026619D01*
X126451905Y-113979000D01*
X126547143Y-113931381D01*
X127737620Y-113931381D02*
X127547143Y-113931381D01*
X127451905Y-113979000D01*
X127404286Y-114026619D01*
X127309048Y-114169476D01*
X127261429Y-114359952D01*
X127261429Y-114740905D01*
X127309048Y-114836143D01*
X127356667Y-114883762D01*
X127451905Y-114931381D01*
X127642382Y-114931381D01*
X127737620Y-114883762D01*
X127785239Y-114836143D01*
X127832858Y-114740905D01*
X127832858Y-114502810D01*
X127785239Y-114407571D01*
X127737620Y-114359952D01*
X127642382Y-114312333D01*
X127451905Y-114312333D01*
X127356667Y-114359952D01*
X127309048Y-114407571D01*
X127261429Y-114502810D01*
X149646191Y-66091143D02*
X149598572Y-66138762D01*
X149455715Y-66186381D01*
X149360477Y-66186381D01*
X149217619Y-66138762D01*
X149122381Y-66043524D01*
X149074762Y-65948286D01*
X149027143Y-65757810D01*
X149027143Y-65614952D01*
X149074762Y-65424476D01*
X149122381Y-65329238D01*
X149217619Y-65234000D01*
X149360477Y-65186381D01*
X149455715Y-65186381D01*
X149598572Y-65234000D01*
X149646191Y-65281619D01*
X150265238Y-65186381D02*
X150455715Y-65186381D01*
X150550953Y-65234000D01*
X150646191Y-65329238D01*
X150693810Y-65519714D01*
X150693810Y-65853048D01*
X150646191Y-66043524D01*
X150550953Y-66138762D01*
X150455715Y-66186381D01*
X150265238Y-66186381D01*
X150170000Y-66138762D01*
X150074762Y-66043524D01*
X150027143Y-65853048D01*
X150027143Y-65519714D01*
X150074762Y-65329238D01*
X150170000Y-65234000D01*
X150265238Y-65186381D01*
X151122381Y-66186381D02*
X151122381Y-65186381D01*
X151693810Y-66186381D01*
X151693810Y-65186381D01*
X152170000Y-66186381D02*
X152170000Y-65186381D01*
X152741429Y-66186381D01*
X152741429Y-65186381D01*
X152979524Y-66281619D02*
X153741429Y-66281619D01*
X154170000Y-65186381D02*
X154265239Y-65186381D01*
X154360477Y-65234000D01*
X154408096Y-65281619D01*
X154455715Y-65376857D01*
X154503334Y-65567333D01*
X154503334Y-65805429D01*
X154455715Y-65995905D01*
X154408096Y-66091143D01*
X154360477Y-66138762D01*
X154265239Y-66186381D01*
X154170000Y-66186381D01*
X154074762Y-66138762D01*
X154027143Y-66091143D01*
X153979524Y-65995905D01*
X153931905Y-65805429D01*
X153931905Y-65567333D01*
X153979524Y-65376857D01*
X154027143Y-65281619D01*
X154074762Y-65234000D01*
X154170000Y-65186381D01*
X155455715Y-66186381D02*
X154884286Y-66186381D01*
X155170000Y-66186381D02*
X155170000Y-65186381D01*
X155074762Y-65329238D01*
X154979524Y-65424476D01*
X154884286Y-65472095D01*
X155789048Y-65186381D02*
X156455715Y-66186381D01*
X156455715Y-65186381D02*
X155789048Y-66186381D01*
X157027143Y-65186381D02*
X157122382Y-65186381D01*
X157217620Y-65234000D01*
X157265239Y-65281619D01*
X157312858Y-65376857D01*
X157360477Y-65567333D01*
X157360477Y-65805429D01*
X157312858Y-65995905D01*
X157265239Y-66091143D01*
X157217620Y-66138762D01*
X157122382Y-66186381D01*
X157027143Y-66186381D01*
X156931905Y-66138762D01*
X156884286Y-66091143D01*
X156836667Y-65995905D01*
X156789048Y-65805429D01*
X156789048Y-65567333D01*
X156836667Y-65376857D01*
X156884286Y-65281619D01*
X156931905Y-65234000D01*
X157027143Y-65186381D01*
X158217620Y-65186381D02*
X158027143Y-65186381D01*
X157931905Y-65234000D01*
X157884286Y-65281619D01*
X157789048Y-65424476D01*
X157741429Y-65614952D01*
X157741429Y-65995905D01*
X157789048Y-66091143D01*
X157836667Y-66138762D01*
X157931905Y-66186381D01*
X158122382Y-66186381D01*
X158217620Y-66138762D01*
X158265239Y-66091143D01*
X158312858Y-65995905D01*
X158312858Y-65757810D01*
X158265239Y-65662571D01*
X158217620Y-65614952D01*
X158122382Y-65567333D01*
X157931905Y-65567333D01*
X157836667Y-65614952D01*
X157789048Y-65662571D01*
X157741429Y-65757810D01*
X155752381Y-96025905D02*
X155752381Y-96502096D01*
X154752381Y-96502096D01*
X155704762Y-95311619D02*
X155752381Y-95406857D01*
X155752381Y-95597334D01*
X155704762Y-95692572D01*
X155609524Y-95740191D01*
X155228571Y-95740191D01*
X155133333Y-95692572D01*
X155085714Y-95597334D01*
X155085714Y-95406857D01*
X155133333Y-95311619D01*
X155228571Y-95264000D01*
X155323810Y-95264000D01*
X155419048Y-95740191D01*
X155752381Y-94406857D02*
X154752381Y-94406857D01*
X155704762Y-94406857D02*
X155752381Y-94502095D01*
X155752381Y-94692572D01*
X155704762Y-94787810D01*
X155657143Y-94835429D01*
X155561905Y-94883048D01*
X155276190Y-94883048D01*
X155180952Y-94835429D01*
X155133333Y-94787810D01*
X155085714Y-94692572D01*
X155085714Y-94502095D01*
X155133333Y-94406857D01*
X155847619Y-94168762D02*
X155847619Y-93406857D01*
X154800000Y-92644952D02*
X154752381Y-92740190D01*
X154752381Y-92883047D01*
X154800000Y-93025905D01*
X154895238Y-93121143D01*
X154990476Y-93168762D01*
X155180952Y-93216381D01*
X155323810Y-93216381D01*
X155514286Y-93168762D01*
X155609524Y-93121143D01*
X155704762Y-93025905D01*
X155752381Y-92883047D01*
X155752381Y-92787809D01*
X155704762Y-92644952D01*
X155657143Y-92597333D01*
X155323810Y-92597333D01*
X155323810Y-92787809D01*
X155752381Y-92168762D02*
X155085714Y-92168762D01*
X155276190Y-92168762D02*
X155180952Y-92121143D01*
X155133333Y-92073524D01*
X155085714Y-91978286D01*
X155085714Y-91883047D01*
X148682381Y-126398286D02*
X148682381Y-126874477D01*
X147682381Y-126874477D01*
X148634762Y-125684000D02*
X148682381Y-125779238D01*
X148682381Y-125969715D01*
X148634762Y-126064953D01*
X148539524Y-126112572D01*
X148158571Y-126112572D01*
X148063333Y-126064953D01*
X148015714Y-125969715D01*
X148015714Y-125779238D01*
X148063333Y-125684000D01*
X148158571Y-125636381D01*
X148253810Y-125636381D01*
X148349048Y-126112572D01*
X148682381Y-124779238D02*
X147682381Y-124779238D01*
X148634762Y-124779238D02*
X148682381Y-124874476D01*
X148682381Y-125064953D01*
X148634762Y-125160191D01*
X148587143Y-125207810D01*
X148491905Y-125255429D01*
X148206190Y-125255429D01*
X148110952Y-125207810D01*
X148063333Y-125160191D01*
X148015714Y-125064953D01*
X148015714Y-124874476D01*
X148063333Y-124779238D01*
X148777619Y-124541143D02*
X148777619Y-123779238D01*
X148158571Y-123207809D02*
X148206190Y-123064952D01*
X148253810Y-123017333D01*
X148349048Y-122969714D01*
X148491905Y-122969714D01*
X148587143Y-123017333D01*
X148634762Y-123064952D01*
X148682381Y-123160190D01*
X148682381Y-123541143D01*
X147682381Y-123541143D01*
X147682381Y-123207809D01*
X147730000Y-123112571D01*
X147777619Y-123064952D01*
X147872857Y-123017333D01*
X147968095Y-123017333D01*
X148063333Y-123064952D01*
X148110952Y-123112571D01*
X148158571Y-123207809D01*
X148158571Y-123541143D01*
X148682381Y-122398286D02*
X148634762Y-122493524D01*
X148539524Y-122541143D01*
X147682381Y-122541143D01*
X94707381Y-132843524D02*
X94707381Y-133319715D01*
X93707381Y-133319715D01*
X94659762Y-132129238D02*
X94707381Y-132224476D01*
X94707381Y-132414953D01*
X94659762Y-132510191D01*
X94564524Y-132557810D01*
X94183571Y-132557810D01*
X94088333Y-132510191D01*
X94040714Y-132414953D01*
X94040714Y-132224476D01*
X94088333Y-132129238D01*
X94183571Y-132081619D01*
X94278810Y-132081619D01*
X94374048Y-132557810D01*
X94707381Y-131224476D02*
X93707381Y-131224476D01*
X94659762Y-131224476D02*
X94707381Y-131319714D01*
X94707381Y-131510191D01*
X94659762Y-131605429D01*
X94612143Y-131653048D01*
X94516905Y-131700667D01*
X94231190Y-131700667D01*
X94135952Y-131653048D01*
X94088333Y-131605429D01*
X94040714Y-131510191D01*
X94040714Y-131319714D01*
X94088333Y-131224476D01*
X94802619Y-130986381D02*
X94802619Y-130224476D01*
X94231190Y-129795905D02*
X94707381Y-129795905D01*
X93707381Y-130129238D02*
X94231190Y-129795905D01*
X93707381Y-129462571D01*
X94659762Y-128748285D02*
X94707381Y-128843523D01*
X94707381Y-129034000D01*
X94659762Y-129129238D01*
X94564524Y-129176857D01*
X94183571Y-129176857D01*
X94088333Y-129129238D01*
X94040714Y-129034000D01*
X94040714Y-128843523D01*
X94088333Y-128748285D01*
X94183571Y-128700666D01*
X94278810Y-128700666D01*
X94374048Y-129176857D01*
X112992143Y-79806381D02*
X112515952Y-79806381D01*
X112515952Y-78806381D01*
X113325476Y-79282571D02*
X113658810Y-79282571D01*
X113801667Y-79806381D02*
X113325476Y-79806381D01*
X113325476Y-78806381D01*
X113801667Y-78806381D01*
X114230238Y-79806381D02*
X114230238Y-78806381D01*
X114468333Y-78806381D01*
X114611191Y-78854000D01*
X114706429Y-78949238D01*
X114754048Y-79044476D01*
X114801667Y-79234952D01*
X114801667Y-79377810D01*
X114754048Y-79568286D01*
X114706429Y-79663524D01*
X114611191Y-79758762D01*
X114468333Y-79806381D01*
X114230238Y-79806381D01*
X209288143Y-99893381D02*
X208811952Y-99893381D01*
X208811952Y-98893381D01*
X209621476Y-99369571D02*
X209954810Y-99369571D01*
X210097667Y-99893381D02*
X209621476Y-99893381D01*
X209621476Y-98893381D01*
X210097667Y-98893381D01*
X210526238Y-99893381D02*
X210526238Y-98893381D01*
X210764333Y-98893381D01*
X210907191Y-98941000D01*
X211002429Y-99036238D01*
X211050048Y-99131476D01*
X211097667Y-99321952D01*
X211097667Y-99464810D01*
X211050048Y-99655286D01*
X211002429Y-99750524D01*
X210907191Y-99845762D01*
X210764333Y-99893381D01*
X210526238Y-99893381D01*
X130786381Y-117668381D02*
X130214952Y-117668381D01*
X130500666Y-117668381D02*
X130500666Y-116668381D01*
X130405428Y-116811238D01*
X130310190Y-116906476D01*
X130214952Y-116954095D01*
X131405428Y-116668381D02*
X131500667Y-116668381D01*
X131595905Y-116716000D01*
X131643524Y-116763619D01*
X131691143Y-116858857D01*
X131738762Y-117049333D01*
X131738762Y-117287429D01*
X131691143Y-117477905D01*
X131643524Y-117573143D01*
X131595905Y-117620762D01*
X131500667Y-117668381D01*
X131405428Y-117668381D01*
X131310190Y-117620762D01*
X131262571Y-117573143D01*
X131214952Y-117477905D01*
X131167333Y-117287429D01*
X131167333Y-117049333D01*
X131214952Y-116858857D01*
X131262571Y-116763619D01*
X131310190Y-116716000D01*
X131405428Y-116668381D01*
X132357809Y-116668381D02*
X132453048Y-116668381D01*
X132548286Y-116716000D01*
X132595905Y-116763619D01*
X132643524Y-116858857D01*
X132691143Y-117049333D01*
X132691143Y-117287429D01*
X132643524Y-117477905D01*
X132595905Y-117573143D01*
X132548286Y-117620762D01*
X132453048Y-117668381D01*
X132357809Y-117668381D01*
X132262571Y-117620762D01*
X132214952Y-117573143D01*
X132167333Y-117477905D01*
X132119714Y-117287429D01*
X132119714Y-117049333D01*
X132167333Y-116858857D01*
X132214952Y-116763619D01*
X132262571Y-116716000D01*
X132357809Y-116668381D01*
X133119714Y-117001714D02*
X133119714Y-118001714D01*
X133119714Y-117049333D02*
X133214952Y-117001714D01*
X133405429Y-117001714D01*
X133500667Y-117049333D01*
X133548286Y-117096952D01*
X133595905Y-117192190D01*
X133595905Y-117477905D01*
X133548286Y-117573143D01*
X133500667Y-117620762D01*
X133405429Y-117668381D01*
X133214952Y-117668381D01*
X133119714Y-117620762D01*
X134357810Y-117144571D02*
X134024476Y-117144571D01*
X134024476Y-117668381D02*
X134024476Y-116668381D01*
X134500667Y-116668381D01*
X122399143Y-110180476D02*
X122446762Y-110228095D01*
X122494381Y-110370952D01*
X122494381Y-110466190D01*
X122446762Y-110609048D01*
X122351524Y-110704286D01*
X122256286Y-110751905D01*
X122065810Y-110799524D01*
X121922952Y-110799524D01*
X121732476Y-110751905D01*
X121637238Y-110704286D01*
X121542000Y-110609048D01*
X121494381Y-110466190D01*
X121494381Y-110370952D01*
X121542000Y-110228095D01*
X121589619Y-110180476D01*
X175457619Y-86819952D02*
X175410000Y-86915190D01*
X175314762Y-87010428D01*
X175171905Y-87153285D01*
X175124286Y-87248524D01*
X175124286Y-87343762D01*
X175362381Y-87296143D02*
X175314762Y-87391381D01*
X175219524Y-87486619D01*
X175029048Y-87534238D01*
X174695714Y-87534238D01*
X174505238Y-87486619D01*
X174410000Y-87391381D01*
X174362381Y-87296143D01*
X174362381Y-87105666D01*
X174410000Y-87010428D01*
X174505238Y-86915190D01*
X174695714Y-86867571D01*
X175029048Y-86867571D01*
X175219524Y-86915190D01*
X175314762Y-87010428D01*
X175362381Y-87105666D01*
X175362381Y-87296143D01*
X175457619Y-86677095D02*
X175457619Y-85915190D01*
X175362381Y-85677095D02*
X174362381Y-85677095D01*
X175362381Y-85105666D01*
X174362381Y-85105666D01*
X175362381Y-84629476D02*
X174362381Y-84629476D01*
X174362381Y-84248523D01*
X174410000Y-84153285D01*
X174457619Y-84105666D01*
X174552857Y-84058047D01*
X174695714Y-84058047D01*
X174790952Y-84105666D01*
X174838571Y-84153285D01*
X174886190Y-84248523D01*
X174886190Y-84629476D01*
X175362381Y-83629476D02*
X174362381Y-83629476D01*
X175362381Y-83058047D01*
X174362381Y-83058047D01*
X175457619Y-82819952D02*
X175457619Y-82058047D01*
X175267143Y-81248523D02*
X175314762Y-81296142D01*
X175362381Y-81438999D01*
X175362381Y-81534237D01*
X175314762Y-81677095D01*
X175219524Y-81772333D01*
X175124286Y-81819952D01*
X174933810Y-81867571D01*
X174790952Y-81867571D01*
X174600476Y-81819952D01*
X174505238Y-81772333D01*
X174410000Y-81677095D01*
X174362381Y-81534237D01*
X174362381Y-81438999D01*
X174410000Y-81296142D01*
X174457619Y-81248523D01*
X174838571Y-80486618D02*
X174886190Y-80343761D01*
X174933810Y-80296142D01*
X175029048Y-80248523D01*
X175171905Y-80248523D01*
X175267143Y-80296142D01*
X175314762Y-80343761D01*
X175362381Y-80438999D01*
X175362381Y-80819952D01*
X174362381Y-80819952D01*
X174362381Y-80486618D01*
X174410000Y-80391380D01*
X174457619Y-80343761D01*
X174552857Y-80296142D01*
X174648095Y-80296142D01*
X174743333Y-80343761D01*
X174790952Y-80391380D01*
X174838571Y-80486618D01*
X174838571Y-80819952D01*
X174838571Y-79819952D02*
X174838571Y-79486618D01*
X175362381Y-79343761D02*
X175362381Y-79819952D01*
X174362381Y-79819952D01*
X174362381Y-79343761D01*
X173290693Y-133589021D02*
X173290693Y-132589021D01*
X173671646Y-132589021D01*
X173766884Y-132636640D01*
X173814503Y-132684259D01*
X173862122Y-132779497D01*
X173862122Y-132922354D01*
X173814503Y-133017592D01*
X173766884Y-133065211D01*
X173671646Y-133112830D01*
X173290693Y-133112830D01*
X174481169Y-132589021D02*
X174671646Y-132589021D01*
X174766884Y-132636640D01*
X174862122Y-132731878D01*
X174909741Y-132922354D01*
X174909741Y-133255688D01*
X174862122Y-133446164D01*
X174766884Y-133541402D01*
X174671646Y-133589021D01*
X174481169Y-133589021D01*
X174385931Y-133541402D01*
X174290693Y-133446164D01*
X174243074Y-133255688D01*
X174243074Y-132922354D01*
X174290693Y-132731878D01*
X174385931Y-132636640D01*
X174481169Y-132589021D01*
X175195455Y-132589021D02*
X175766884Y-132589021D01*
X175481169Y-133589021D02*
X175481169Y-132589021D01*
X89146668Y-71302571D02*
X88813334Y-71302571D01*
X88813334Y-71826381D02*
X88813334Y-70826381D01*
X89289525Y-70826381D01*
X89670477Y-71826381D02*
X89670477Y-70826381D01*
X90146667Y-71826381D02*
X90146667Y-70826381D01*
X90718096Y-71826381D01*
X90718096Y-70826381D01*
X91194286Y-71826381D02*
X91194286Y-70826381D01*
X91432381Y-70826381D01*
X91575239Y-70874000D01*
X91670477Y-70969238D01*
X91718096Y-71064476D01*
X91765715Y-71254952D01*
X91765715Y-71397810D01*
X91718096Y-71588286D01*
X91670477Y-71683524D01*
X91575239Y-71778762D01*
X91432381Y-71826381D01*
X91194286Y-71826381D01*
X92194286Y-71302571D02*
X92527620Y-71302571D01*
X92670477Y-71826381D02*
X92194286Y-71826381D01*
X92194286Y-70826381D01*
X92670477Y-70826381D01*
X93670477Y-71826381D02*
X93337143Y-71350190D01*
X93099048Y-71826381D02*
X93099048Y-70826381D01*
X93480001Y-70826381D01*
X93575239Y-70874000D01*
X93622858Y-70921619D01*
X93670477Y-71016857D01*
X93670477Y-71159714D01*
X93622858Y-71254952D01*
X93575239Y-71302571D01*
X93480001Y-71350190D01*
X93099048Y-71350190D01*
X94099048Y-71445429D02*
X94860953Y-71445429D01*
X95765715Y-71159714D02*
X95765715Y-71826381D01*
X95527619Y-70778762D02*
X95289524Y-71493048D01*
X95908572Y-71493048D01*
X96480000Y-70826381D02*
X96575239Y-70826381D01*
X96670477Y-70874000D01*
X96718096Y-70921619D01*
X96765715Y-71016857D01*
X96813334Y-71207333D01*
X96813334Y-71445429D01*
X96765715Y-71635905D01*
X96718096Y-71731143D01*
X96670477Y-71778762D01*
X96575239Y-71826381D01*
X96480000Y-71826381D01*
X96384762Y-71778762D01*
X96337143Y-71731143D01*
X96289524Y-71635905D01*
X96241905Y-71445429D01*
X96241905Y-71207333D01*
X96289524Y-71016857D01*
X96337143Y-70921619D01*
X96384762Y-70874000D01*
X96480000Y-70826381D01*
X97241905Y-71731143D02*
X97289524Y-71778762D01*
X97241905Y-71826381D01*
X97194286Y-71778762D01*
X97241905Y-71731143D01*
X97241905Y-71826381D01*
X98194286Y-70826381D02*
X97718095Y-70826381D01*
X97670476Y-71302571D01*
X97718095Y-71254952D01*
X97813333Y-71207333D01*
X98051429Y-71207333D01*
X98146667Y-71254952D01*
X98194286Y-71302571D01*
X98241905Y-71397810D01*
X98241905Y-71635905D01*
X98194286Y-71731143D01*
X98146667Y-71778762D01*
X98051429Y-71826381D01*
X97813333Y-71826381D01*
X97718095Y-71778762D01*
X97670476Y-71731143D01*
X98622857Y-70921619D02*
X98670476Y-70874000D01*
X98765714Y-70826381D01*
X99003810Y-70826381D01*
X99099048Y-70874000D01*
X99146667Y-70921619D01*
X99194286Y-71016857D01*
X99194286Y-71112095D01*
X99146667Y-71254952D01*
X98575238Y-71826381D01*
X99194286Y-71826381D01*
X124682381Y-130150905D02*
X124682381Y-129531857D01*
X125063333Y-129865191D01*
X125063333Y-129722333D01*
X125110952Y-129627095D01*
X125158571Y-129579476D01*
X125253810Y-129531857D01*
X125491905Y-129531857D01*
X125587143Y-129579476D01*
X125634762Y-129627095D01*
X125682381Y-129722333D01*
X125682381Y-130008048D01*
X125634762Y-130103286D01*
X125587143Y-130150905D01*
X124682381Y-129198524D02*
X124682381Y-128579476D01*
X125063333Y-128912810D01*
X125063333Y-128769952D01*
X125110952Y-128674714D01*
X125158571Y-128627095D01*
X125253810Y-128579476D01*
X125491905Y-128579476D01*
X125587143Y-128627095D01*
X125634762Y-128674714D01*
X125682381Y-128769952D01*
X125682381Y-129055667D01*
X125634762Y-129150905D01*
X125587143Y-129198524D01*
X124682381Y-127960429D02*
X124682381Y-127865190D01*
X124730000Y-127769952D01*
X124777619Y-127722333D01*
X124872857Y-127674714D01*
X125063333Y-127627095D01*
X125301429Y-127627095D01*
X125491905Y-127674714D01*
X125587143Y-127722333D01*
X125634762Y-127769952D01*
X125682381Y-127865190D01*
X125682381Y-127960429D01*
X125634762Y-128055667D01*
X125587143Y-128103286D01*
X125491905Y-128150905D01*
X125301429Y-128198524D01*
X125063333Y-128198524D01*
X124872857Y-128150905D01*
X124777619Y-128103286D01*
X124730000Y-128055667D01*
X124682381Y-127960429D01*
X125015714Y-126769952D02*
X125682381Y-126769952D01*
X125015714Y-127198524D02*
X125539524Y-127198524D01*
X125634762Y-127150905D01*
X125682381Y-127055667D01*
X125682381Y-126912809D01*
X125634762Y-126817571D01*
X125587143Y-126769952D01*
X125682381Y-126293762D02*
X124682381Y-126293762D01*
X125158571Y-126293762D02*
X125158571Y-125722333D01*
X125682381Y-125722333D02*
X124682381Y-125722333D01*
X87095714Y-57936619D02*
X87143333Y-57889000D01*
X87238571Y-57841381D01*
X87476667Y-57841381D01*
X87571905Y-57889000D01*
X87619524Y-57936619D01*
X87667143Y-58031857D01*
X87667143Y-58127095D01*
X87619524Y-58269952D01*
X87048095Y-58841381D01*
X87667143Y-58841381D01*
X88048095Y-58555667D02*
X88524286Y-58555667D01*
X87952857Y-58841381D02*
X88286190Y-57841381D01*
X88619524Y-58841381D01*
X130207143Y-115331381D02*
X130207143Y-114331381D01*
X130540477Y-115045667D01*
X130873810Y-114331381D01*
X130873810Y-115331381D01*
X131302381Y-115045667D02*
X131778572Y-115045667D01*
X131207143Y-115331381D02*
X131540476Y-114331381D01*
X131873810Y-115331381D01*
X132111905Y-114331381D02*
X132778572Y-115331381D01*
X132778572Y-114331381D02*
X132111905Y-115331381D01*
X133588096Y-114331381D02*
X133397619Y-114331381D01*
X133302381Y-114379000D01*
X133254762Y-114426619D01*
X133159524Y-114569476D01*
X133111905Y-114759952D01*
X133111905Y-115140905D01*
X133159524Y-115236143D01*
X133207143Y-115283762D01*
X133302381Y-115331381D01*
X133492858Y-115331381D01*
X133588096Y-115283762D01*
X133635715Y-115236143D01*
X133683334Y-115140905D01*
X133683334Y-114902810D01*
X133635715Y-114807571D01*
X133588096Y-114759952D01*
X133492858Y-114712333D01*
X133302381Y-114712333D01*
X133207143Y-114759952D01*
X133159524Y-114807571D01*
X133111905Y-114902810D01*
X134540477Y-114331381D02*
X134350000Y-114331381D01*
X134254762Y-114379000D01*
X134207143Y-114426619D01*
X134111905Y-114569476D01*
X134064286Y-114759952D01*
X134064286Y-115140905D01*
X134111905Y-115236143D01*
X134159524Y-115283762D01*
X134254762Y-115331381D01*
X134445239Y-115331381D01*
X134540477Y-115283762D01*
X134588096Y-115236143D01*
X134635715Y-115140905D01*
X134635715Y-114902810D01*
X134588096Y-114807571D01*
X134540477Y-114759952D01*
X134445239Y-114712333D01*
X134254762Y-114712333D01*
X134159524Y-114759952D01*
X134111905Y-114807571D01*
X134064286Y-114902810D01*
X134969048Y-114331381D02*
X135635715Y-114331381D01*
X135207143Y-115331381D01*
X136492858Y-114331381D02*
X136016667Y-114331381D01*
X135969048Y-114807571D01*
X136016667Y-114759952D01*
X136111905Y-114712333D01*
X136350001Y-114712333D01*
X136445239Y-114759952D01*
X136492858Y-114807571D01*
X136540477Y-114902810D01*
X136540477Y-115140905D01*
X136492858Y-115236143D01*
X136445239Y-115283762D01*
X136350001Y-115331381D01*
X136111905Y-115331381D01*
X136016667Y-115283762D01*
X135969048Y-115236143D01*
X81623161Y-132248233D02*
X80623161Y-132248233D01*
X80623161Y-131867280D01*
X80670780Y-131772042D01*
X80718399Y-131724423D01*
X80813637Y-131676804D01*
X80956494Y-131676804D01*
X81051732Y-131724423D01*
X81099351Y-131772042D01*
X81146970Y-131867280D01*
X81146970Y-132248233D01*
X81623161Y-131105376D02*
X81575542Y-131200614D01*
X81527923Y-131248233D01*
X81432685Y-131295852D01*
X81146970Y-131295852D01*
X81051732Y-131248233D01*
X81004113Y-131200614D01*
X80956494Y-131105376D01*
X80956494Y-130962518D01*
X81004113Y-130867280D01*
X81051732Y-130819661D01*
X81146970Y-130772042D01*
X81432685Y-130772042D01*
X81527923Y-130819661D01*
X81575542Y-130867280D01*
X81623161Y-130962518D01*
X81623161Y-131105376D01*
X81623161Y-130200614D02*
X81575542Y-130295852D01*
X81480304Y-130343471D01*
X80623161Y-130343471D01*
X80956494Y-129914899D02*
X81623161Y-129676804D01*
X80956494Y-129438708D02*
X81623161Y-129676804D01*
X81861256Y-129772042D01*
X81908875Y-129819661D01*
X81956494Y-129914899D01*
X80956494Y-129200613D02*
X80956494Y-128819661D01*
X81623161Y-129057756D02*
X80766018Y-129057756D01*
X80670780Y-129010137D01*
X80623161Y-128914899D01*
X80623161Y-128819661D01*
X80956494Y-128057755D02*
X81623161Y-128057755D01*
X80956494Y-128486327D02*
X81480304Y-128486327D01*
X81575542Y-128438708D01*
X81623161Y-128343470D01*
X81623161Y-128200612D01*
X81575542Y-128105374D01*
X81527923Y-128057755D01*
X81575542Y-127629184D02*
X81623161Y-127533946D01*
X81623161Y-127343470D01*
X81575542Y-127248231D01*
X81480304Y-127200612D01*
X81432685Y-127200612D01*
X81337447Y-127248231D01*
X81289828Y-127343470D01*
X81289828Y-127486327D01*
X81242209Y-127581565D01*
X81146970Y-127629184D01*
X81099351Y-127629184D01*
X81004113Y-127581565D01*
X80956494Y-127486327D01*
X80956494Y-127343470D01*
X81004113Y-127248231D01*
X81575542Y-126391088D02*
X81623161Y-126486326D01*
X81623161Y-126676803D01*
X81575542Y-126772041D01*
X81480304Y-126819660D01*
X81099351Y-126819660D01*
X81004113Y-126772041D01*
X80956494Y-126676803D01*
X80956494Y-126486326D01*
X81004113Y-126391088D01*
X81099351Y-126343469D01*
X81194590Y-126343469D01*
X81289828Y-126819660D01*
X81718399Y-126152993D02*
X81718399Y-125391088D01*
X81575542Y-125200612D02*
X81623161Y-125057755D01*
X81623161Y-124819659D01*
X81575542Y-124724421D01*
X81527923Y-124676802D01*
X81432685Y-124629183D01*
X81337447Y-124629183D01*
X81242209Y-124676802D01*
X81194590Y-124724421D01*
X81146970Y-124819659D01*
X81099351Y-125010136D01*
X81051732Y-125105374D01*
X81004113Y-125152993D01*
X80908875Y-125200612D01*
X80813637Y-125200612D01*
X80718399Y-125152993D01*
X80670780Y-125105374D01*
X80623161Y-125010136D01*
X80623161Y-124772040D01*
X80670780Y-124629183D01*
X81623161Y-124200612D02*
X80956494Y-124200612D01*
X81051732Y-124200612D02*
X81004113Y-124152993D01*
X80956494Y-124057755D01*
X80956494Y-123914897D01*
X81004113Y-123819659D01*
X81099351Y-123772040D01*
X81623161Y-123772040D01*
X81099351Y-123772040D02*
X81004113Y-123724421D01*
X80956494Y-123629183D01*
X80956494Y-123486326D01*
X81004113Y-123391088D01*
X81099351Y-123343469D01*
X81623161Y-123343469D01*
X81623161Y-122438707D02*
X81099351Y-122438707D01*
X81004113Y-122486326D01*
X80956494Y-122581564D01*
X80956494Y-122772041D01*
X81004113Y-122867279D01*
X81575542Y-122438707D02*
X81623161Y-122533945D01*
X81623161Y-122772041D01*
X81575542Y-122867279D01*
X81480304Y-122914898D01*
X81385066Y-122914898D01*
X81289828Y-122867279D01*
X81242209Y-122772041D01*
X81242209Y-122533945D01*
X81194590Y-122438707D01*
X81623161Y-121819660D02*
X81575542Y-121914898D01*
X81480304Y-121962517D01*
X80623161Y-121962517D01*
X81623161Y-121295850D02*
X81575542Y-121391088D01*
X81480304Y-121438707D01*
X80623161Y-121438707D01*
X158098571Y-112037333D02*
X158098571Y-112370667D01*
X158622381Y-112370667D02*
X157622381Y-112370667D01*
X157622381Y-111894476D01*
X158622381Y-111370667D02*
X158574762Y-111465905D01*
X158527143Y-111513524D01*
X158431905Y-111561143D01*
X158146190Y-111561143D01*
X158050952Y-111513524D01*
X158003333Y-111465905D01*
X157955714Y-111370667D01*
X157955714Y-111227809D01*
X158003333Y-111132571D01*
X158050952Y-111084952D01*
X158146190Y-111037333D01*
X158431905Y-111037333D01*
X158527143Y-111084952D01*
X158574762Y-111132571D01*
X158622381Y-111227809D01*
X158622381Y-111370667D01*
X158622381Y-110465905D02*
X158574762Y-110561143D01*
X158527143Y-110608762D01*
X158431905Y-110656381D01*
X158146190Y-110656381D01*
X158050952Y-110608762D01*
X158003333Y-110561143D01*
X157955714Y-110465905D01*
X157955714Y-110323047D01*
X158003333Y-110227809D01*
X158050952Y-110180190D01*
X158146190Y-110132571D01*
X158431905Y-110132571D01*
X158527143Y-110180190D01*
X158574762Y-110227809D01*
X158622381Y-110323047D01*
X158622381Y-110465905D01*
X157955714Y-109846857D02*
X157955714Y-109465905D01*
X157622381Y-109704000D02*
X158479524Y-109704000D01*
X158574762Y-109656381D01*
X158622381Y-109561143D01*
X158622381Y-109465905D01*
X158574762Y-108418285D02*
X158622381Y-108275428D01*
X158622381Y-108037332D01*
X158574762Y-107942094D01*
X158527143Y-107894475D01*
X158431905Y-107846856D01*
X158336667Y-107846856D01*
X158241429Y-107894475D01*
X158193810Y-107942094D01*
X158146190Y-108037332D01*
X158098571Y-108227809D01*
X158050952Y-108323047D01*
X158003333Y-108370666D01*
X157908095Y-108418285D01*
X157812857Y-108418285D01*
X157717619Y-108370666D01*
X157670000Y-108323047D01*
X157622381Y-108227809D01*
X157622381Y-107989713D01*
X157670000Y-107846856D01*
X157955714Y-107513523D02*
X158622381Y-107323047D01*
X158146190Y-107132570D01*
X158622381Y-106942094D01*
X157955714Y-106751618D01*
X158622381Y-106370666D02*
X157955714Y-106370666D01*
X157622381Y-106370666D02*
X157670000Y-106418285D01*
X157717619Y-106370666D01*
X157670000Y-106323047D01*
X157622381Y-106370666D01*
X157717619Y-106370666D01*
X157955714Y-106037333D02*
X157955714Y-105656381D01*
X157622381Y-105894476D02*
X158479524Y-105894476D01*
X158574762Y-105846857D01*
X158622381Y-105751619D01*
X158622381Y-105656381D01*
X158574762Y-104894475D02*
X158622381Y-104989713D01*
X158622381Y-105180190D01*
X158574762Y-105275428D01*
X158527143Y-105323047D01*
X158431905Y-105370666D01*
X158146190Y-105370666D01*
X158050952Y-105323047D01*
X158003333Y-105275428D01*
X157955714Y-105180190D01*
X157955714Y-104989713D01*
X158003333Y-104894475D01*
X158622381Y-104465904D02*
X157622381Y-104465904D01*
X158622381Y-104037332D02*
X158098571Y-104037332D01*
X158003333Y-104084951D01*
X157955714Y-104180189D01*
X157955714Y-104323047D01*
X158003333Y-104418285D01*
X158050952Y-104465904D01*
X108069286Y-100666381D02*
X108688334Y-100666381D01*
X108355000Y-101047333D01*
X108497858Y-101047333D01*
X108593096Y-101094952D01*
X108640715Y-101142571D01*
X108688334Y-101237810D01*
X108688334Y-101475905D01*
X108640715Y-101571143D01*
X108593096Y-101618762D01*
X108497858Y-101666381D01*
X108212143Y-101666381D01*
X108116905Y-101618762D01*
X108069286Y-101571143D01*
X109021667Y-100666381D02*
X109640715Y-100666381D01*
X109307381Y-101047333D01*
X109450239Y-101047333D01*
X109545477Y-101094952D01*
X109593096Y-101142571D01*
X109640715Y-101237810D01*
X109640715Y-101475905D01*
X109593096Y-101571143D01*
X109545477Y-101618762D01*
X109450239Y-101666381D01*
X109164524Y-101666381D01*
X109069286Y-101618762D01*
X109021667Y-101571143D01*
X110259762Y-100666381D02*
X110355001Y-100666381D01*
X110450239Y-100714000D01*
X110497858Y-100761619D01*
X110545477Y-100856857D01*
X110593096Y-101047333D01*
X110593096Y-101285429D01*
X110545477Y-101475905D01*
X110497858Y-101571143D01*
X110450239Y-101618762D01*
X110355001Y-101666381D01*
X110259762Y-101666381D01*
X110164524Y-101618762D01*
X110116905Y-101571143D01*
X110069286Y-101475905D01*
X110021667Y-101285429D01*
X110021667Y-101047333D01*
X110069286Y-100856857D01*
X110116905Y-100761619D01*
X110164524Y-100714000D01*
X110259762Y-100666381D01*
X111593096Y-101666381D02*
X111259762Y-101190190D01*
X111021667Y-101666381D02*
X111021667Y-100666381D01*
X111402620Y-100666381D01*
X111497858Y-100714000D01*
X111545477Y-100761619D01*
X111593096Y-100856857D01*
X111593096Y-100999714D01*
X111545477Y-101094952D01*
X111497858Y-101142571D01*
X111402620Y-101190190D01*
X111021667Y-101190190D01*
X114943096Y-87674714D02*
X114943096Y-88341381D01*
X114705000Y-87293762D02*
X114466905Y-88008048D01*
X115085953Y-88008048D01*
X115371667Y-87341381D02*
X116038334Y-87341381D01*
X115609762Y-88341381D01*
X116609762Y-87341381D02*
X116705001Y-87341381D01*
X116800239Y-87389000D01*
X116847858Y-87436619D01*
X116895477Y-87531857D01*
X116943096Y-87722333D01*
X116943096Y-87960429D01*
X116895477Y-88150905D01*
X116847858Y-88246143D01*
X116800239Y-88293762D01*
X116705001Y-88341381D01*
X116609762Y-88341381D01*
X116514524Y-88293762D01*
X116466905Y-88246143D01*
X116419286Y-88150905D01*
X116371667Y-87960429D01*
X116371667Y-87722333D01*
X116419286Y-87531857D01*
X116466905Y-87436619D01*
X116514524Y-87389000D01*
X116609762Y-87341381D01*
X117943096Y-88341381D02*
X117609762Y-87865190D01*
X117371667Y-88341381D02*
X117371667Y-87341381D01*
X117752620Y-87341381D01*
X117847858Y-87389000D01*
X117895477Y-87436619D01*
X117943096Y-87531857D01*
X117943096Y-87674714D01*
X117895477Y-87769952D01*
X117847858Y-87817571D01*
X117752620Y-87865190D01*
X117371667Y-87865190D01*
X134945524Y-72466381D02*
X134374095Y-72466381D01*
X134659809Y-72466381D02*
X134659809Y-71466381D01*
X134564571Y-71609238D01*
X134469333Y-71704476D01*
X134374095Y-71752095D01*
X135850286Y-71466381D02*
X135374095Y-71466381D01*
X135326476Y-71942571D01*
X135374095Y-71894952D01*
X135469333Y-71847333D01*
X135707429Y-71847333D01*
X135802667Y-71894952D01*
X135850286Y-71942571D01*
X135897905Y-72037810D01*
X135897905Y-72275905D01*
X135850286Y-72371143D01*
X135802667Y-72418762D01*
X135707429Y-72466381D01*
X135469333Y-72466381D01*
X135374095Y-72418762D01*
X135326476Y-72371143D01*
X136326476Y-72466381D02*
X136326476Y-71466381D01*
X136897905Y-72466381D02*
X136469333Y-71894952D01*
X136897905Y-71466381D02*
X136326476Y-72037810D01*
X116181143Y-143968525D02*
X116228762Y-144016144D01*
X116276381Y-144159001D01*
X116276381Y-144254239D01*
X116228762Y-144397097D01*
X116133524Y-144492335D01*
X116038286Y-144539954D01*
X115847810Y-144587573D01*
X115704952Y-144587573D01*
X115514476Y-144539954D01*
X115419238Y-144492335D01*
X115324000Y-144397097D01*
X115276381Y-144254239D01*
X115276381Y-144159001D01*
X115324000Y-144016144D01*
X115371619Y-143968525D01*
X116276381Y-143539954D02*
X115276381Y-143539954D01*
X116276381Y-143111382D02*
X115752571Y-143111382D01*
X115657333Y-143159001D01*
X115609714Y-143254239D01*
X115609714Y-143397097D01*
X115657333Y-143492335D01*
X115704952Y-143539954D01*
X116276381Y-142492335D02*
X116228762Y-142587573D01*
X116181143Y-142635192D01*
X116085905Y-142682811D01*
X115800190Y-142682811D01*
X115704952Y-142635192D01*
X115657333Y-142587573D01*
X115609714Y-142492335D01*
X115609714Y-142349477D01*
X115657333Y-142254239D01*
X115704952Y-142206620D01*
X115800190Y-142159001D01*
X116085905Y-142159001D01*
X116181143Y-142206620D01*
X116228762Y-142254239D01*
X116276381Y-142349477D01*
X116276381Y-142492335D01*
X116276381Y-141730430D02*
X115276381Y-141730430D01*
X115895429Y-141635192D02*
X116276381Y-141349477D01*
X115609714Y-141349477D02*
X115990667Y-141730430D01*
X116228762Y-140539953D02*
X116276381Y-140635191D01*
X116276381Y-140825668D01*
X116228762Y-140920906D01*
X116133524Y-140968525D01*
X115752571Y-140968525D01*
X115657333Y-140920906D01*
X115609714Y-140825668D01*
X115609714Y-140635191D01*
X115657333Y-140539953D01*
X115752571Y-140492334D01*
X115847810Y-140492334D01*
X115943048Y-140968525D01*
X116371619Y-140301858D02*
X116371619Y-139539953D01*
X116228762Y-139349477D02*
X116276381Y-139206620D01*
X116276381Y-138968524D01*
X116228762Y-138873286D01*
X116181143Y-138825667D01*
X116085905Y-138778048D01*
X115990667Y-138778048D01*
X115895429Y-138825667D01*
X115847810Y-138873286D01*
X115800190Y-138968524D01*
X115752571Y-139159001D01*
X115704952Y-139254239D01*
X115657333Y-139301858D01*
X115562095Y-139349477D01*
X115466857Y-139349477D01*
X115371619Y-139301858D01*
X115324000Y-139254239D01*
X115276381Y-139159001D01*
X115276381Y-138920905D01*
X115324000Y-138778048D01*
X116276381Y-138349477D02*
X115276381Y-138349477D01*
X115990667Y-138016143D01*
X115276381Y-137682810D01*
X116276381Y-137682810D01*
X116276381Y-137206620D02*
X115276381Y-137206620D01*
X115276381Y-136968525D01*
X115324000Y-136825667D01*
X115419238Y-136730429D01*
X115514476Y-136682810D01*
X115704952Y-136635191D01*
X115847810Y-136635191D01*
X116038286Y-136682810D01*
X116133524Y-136730429D01*
X116228762Y-136825667D01*
X116276381Y-136968525D01*
X116276381Y-137206620D01*
X116371619Y-136444715D02*
X116371619Y-135682810D01*
X116276381Y-135444715D02*
X115276381Y-135444715D01*
X115276381Y-135063762D01*
X115324000Y-134968524D01*
X115371619Y-134920905D01*
X115466857Y-134873286D01*
X115609714Y-134873286D01*
X115704952Y-134920905D01*
X115752571Y-134968524D01*
X115800190Y-135063762D01*
X115800190Y-135444715D01*
X116276381Y-134444715D02*
X115276381Y-134444715D01*
X116228762Y-134016144D02*
X116276381Y-133873287D01*
X116276381Y-133635191D01*
X116228762Y-133539953D01*
X116181143Y-133492334D01*
X116085905Y-133444715D01*
X115990667Y-133444715D01*
X115895429Y-133492334D01*
X115847810Y-133539953D01*
X115800190Y-133635191D01*
X115752571Y-133825668D01*
X115704952Y-133920906D01*
X115657333Y-133968525D01*
X115562095Y-134016144D01*
X115466857Y-134016144D01*
X115371619Y-133968525D01*
X115324000Y-133920906D01*
X115276381Y-133825668D01*
X115276381Y-133587572D01*
X115324000Y-133444715D01*
X116276381Y-132444715D02*
X115800190Y-132778049D01*
X116276381Y-133016144D02*
X115276381Y-133016144D01*
X115276381Y-132635191D01*
X115324000Y-132539953D01*
X115371619Y-132492334D01*
X115466857Y-132444715D01*
X115609714Y-132444715D01*
X115704952Y-132492334D01*
X115752571Y-132539953D01*
X115800190Y-132635191D01*
X115800190Y-133016144D01*
X116371619Y-132254239D02*
X116371619Y-131492334D01*
X116276381Y-131254239D02*
X115276381Y-131254239D01*
X115752571Y-131254239D02*
X115752571Y-130682810D01*
X116276381Y-130682810D02*
X115276381Y-130682810D01*
X116276381Y-129778048D02*
X115752571Y-129778048D01*
X115657333Y-129825667D01*
X115609714Y-129920905D01*
X115609714Y-130111382D01*
X115657333Y-130206620D01*
X116228762Y-129778048D02*
X116276381Y-129873286D01*
X116276381Y-130111382D01*
X116228762Y-130206620D01*
X116133524Y-130254239D01*
X116038286Y-130254239D01*
X115943048Y-130206620D01*
X115895429Y-130111382D01*
X115895429Y-129873286D01*
X115847810Y-129778048D01*
X115609714Y-129301858D02*
X116276381Y-129301858D01*
X115704952Y-129301858D02*
X115657333Y-129254239D01*
X115609714Y-129159001D01*
X115609714Y-129016143D01*
X115657333Y-128920905D01*
X115752571Y-128873286D01*
X116276381Y-128873286D01*
X116276381Y-127968524D02*
X115276381Y-127968524D01*
X116228762Y-127968524D02*
X116276381Y-128063762D01*
X116276381Y-128254239D01*
X116228762Y-128349477D01*
X116181143Y-128397096D01*
X116085905Y-128444715D01*
X115800190Y-128444715D01*
X115704952Y-128397096D01*
X115657333Y-128349477D01*
X115609714Y-128254239D01*
X115609714Y-128063762D01*
X115657333Y-127968524D01*
X116228762Y-127539953D02*
X116276381Y-127444715D01*
X116276381Y-127254239D01*
X116228762Y-127159000D01*
X116133524Y-127111381D01*
X116085905Y-127111381D01*
X115990667Y-127159000D01*
X115943048Y-127254239D01*
X115943048Y-127397096D01*
X115895429Y-127492334D01*
X115800190Y-127539953D01*
X115752571Y-127539953D01*
X115657333Y-127492334D01*
X115609714Y-127397096D01*
X115609714Y-127254239D01*
X115657333Y-127159000D01*
X116276381Y-126539953D02*
X116228762Y-126635191D01*
X116181143Y-126682810D01*
X116085905Y-126730429D01*
X115800190Y-126730429D01*
X115704952Y-126682810D01*
X115657333Y-126635191D01*
X115609714Y-126539953D01*
X115609714Y-126397095D01*
X115657333Y-126301857D01*
X115704952Y-126254238D01*
X115800190Y-126206619D01*
X116085905Y-126206619D01*
X116181143Y-126254238D01*
X116228762Y-126301857D01*
X116276381Y-126397095D01*
X116276381Y-126539953D01*
X116276381Y-125635191D02*
X116228762Y-125730429D01*
X116133524Y-125778048D01*
X115276381Y-125778048D01*
X116276381Y-124825666D02*
X115276381Y-124825666D01*
X116228762Y-124825666D02*
X116276381Y-124920904D01*
X116276381Y-125111381D01*
X116228762Y-125206619D01*
X116181143Y-125254238D01*
X116085905Y-125301857D01*
X115800190Y-125301857D01*
X115704952Y-125254238D01*
X115657333Y-125206619D01*
X115609714Y-125111381D01*
X115609714Y-124920904D01*
X115657333Y-124825666D01*
X116228762Y-123968523D02*
X116276381Y-124063761D01*
X116276381Y-124254238D01*
X116228762Y-124349476D01*
X116133524Y-124397095D01*
X115752571Y-124397095D01*
X115657333Y-124349476D01*
X115609714Y-124254238D01*
X115609714Y-124063761D01*
X115657333Y-123968523D01*
X115752571Y-123920904D01*
X115847810Y-123920904D01*
X115943048Y-124397095D01*
X116276381Y-123492333D02*
X115609714Y-123492333D01*
X115800190Y-123492333D02*
X115704952Y-123444714D01*
X115657333Y-123397095D01*
X115609714Y-123301857D01*
X115609714Y-123206618D01*
X116276381Y-122873285D02*
X115609714Y-122873285D01*
X115276381Y-122873285D02*
X115324000Y-122920904D01*
X115371619Y-122873285D01*
X115324000Y-122825666D01*
X115276381Y-122873285D01*
X115371619Y-122873285D01*
X115609714Y-122397095D02*
X116276381Y-122397095D01*
X115704952Y-122397095D02*
X115657333Y-122349476D01*
X115609714Y-122254238D01*
X115609714Y-122111380D01*
X115657333Y-122016142D01*
X115752571Y-121968523D01*
X116276381Y-121968523D01*
X115609714Y-121063761D02*
X116419238Y-121063761D01*
X116514476Y-121111380D01*
X116562095Y-121158999D01*
X116609714Y-121254238D01*
X116609714Y-121397095D01*
X116562095Y-121492333D01*
X116228762Y-121063761D02*
X116276381Y-121158999D01*
X116276381Y-121349476D01*
X116228762Y-121444714D01*
X116181143Y-121492333D01*
X116085905Y-121539952D01*
X115800190Y-121539952D01*
X115704952Y-121492333D01*
X115657333Y-121444714D01*
X115609714Y-121349476D01*
X115609714Y-121158999D01*
X115657333Y-121063761D01*
X116371619Y-120825666D02*
X116371619Y-120063761D01*
X115752571Y-119492332D02*
X115752571Y-119825666D01*
X116276381Y-119825666D02*
X115276381Y-119825666D01*
X115276381Y-119349475D01*
X115990667Y-119016142D02*
X115990667Y-118539951D01*
X116276381Y-119111380D02*
X115276381Y-118778047D01*
X116276381Y-118444713D01*
X116228762Y-118158999D02*
X116276381Y-118016142D01*
X116276381Y-117778046D01*
X116228762Y-117682808D01*
X116181143Y-117635189D01*
X116085905Y-117587570D01*
X115990667Y-117587570D01*
X115895429Y-117635189D01*
X115847810Y-117682808D01*
X115800190Y-117778046D01*
X115752571Y-117968523D01*
X115704952Y-118063761D01*
X115657333Y-118111380D01*
X115562095Y-118158999D01*
X115466857Y-118158999D01*
X115371619Y-118111380D01*
X115324000Y-118063761D01*
X115276381Y-117968523D01*
X115276381Y-117730427D01*
X115324000Y-117587570D01*
X115276381Y-117301856D02*
X115276381Y-116730427D01*
X116276381Y-117016142D02*
X115276381Y-117016142D01*
X116276381Y-115825665D02*
X115800190Y-116158999D01*
X116276381Y-116397094D02*
X115276381Y-116397094D01*
X115276381Y-116016141D01*
X115324000Y-115920903D01*
X115371619Y-115873284D01*
X115466857Y-115825665D01*
X115609714Y-115825665D01*
X115704952Y-115873284D01*
X115752571Y-115920903D01*
X115800190Y-116016141D01*
X115800190Y-116397094D01*
X115276381Y-115206618D02*
X115276381Y-115016141D01*
X115324000Y-114920903D01*
X115419238Y-114825665D01*
X115609714Y-114778046D01*
X115943048Y-114778046D01*
X116133524Y-114825665D01*
X116228762Y-114920903D01*
X116276381Y-115016141D01*
X116276381Y-115206618D01*
X116228762Y-115301856D01*
X116133524Y-115397094D01*
X115943048Y-115444713D01*
X115609714Y-115444713D01*
X115419238Y-115397094D01*
X115324000Y-115301856D01*
X115276381Y-115206618D01*
X116276381Y-114349475D02*
X115276381Y-114349475D01*
X116276381Y-113778046D01*
X115276381Y-113778046D01*
M02*
