<?xml version="1.0" standalone="no"?>
 <!DOCTYPE svg PUBLIC "-//W3C//DTD SVG 1.1//EN" 
 "http://www.w3.org/Graphics/SVG/1.1/DTD/svg11.dtd"> 
<svg xmlns="http://www.w3.org/2000/svg" version="1.1" 
    width="29.7002cm" height="21.0007cm" viewBox="0 0 116929 82679 ">
<title>SVG Picture created as HotAirGun.svg date 2017/09/25 21:29:26 </title>
  <desc>Picture generated by Eeschema-SVG </desc>
<g style="fill:#000000; fill-opacity:1;stroke:#000000; stroke-opacity:1;
stroke-linecap:round; stroke-linejoin:round; "
 transform="translate(0 0) scale(1 1)">
</g>
<g style="fill:#000000; fill-opacity:0.0; 
stroke:#000000; stroke-width:60; stroke-opacity:1; 
stroke-linecap:round; stroke-linejoin:round;">
</g>
<g style="fill:#840084; fill-opacity:0.0; 
stroke:#840084; stroke-width:60; stroke-opacity:1; 
stroke-linecap:round; stroke-linejoin:round;">
<path d="M58550 24300
L89350 24300
L89350 35600
L58550 35600
L58550 24300
" />
</g>
<g style="fill:#008484; fill-opacity:0.0; 
stroke:#008484; stroke-width:60; stroke-opacity:1; 
stroke-linecap:round; stroke-linejoin:round;">
</g>
<g style="fill:#000000; fill-opacity:0.0; 
stroke:#000000; stroke-width:60; stroke-opacity:1; 
stroke-linecap:round; stroke-linejoin:round;">
<path d="M58720 24230
L58720 23630
" />
<path d="M58980 23680
L59000 23660
L59060 23630
L59200 23630
L59260 23660
L59290 23680
L59320 23740
L59320 23800
L59290 23880
L58950 24230
L59320 24230
" />
<path d="M59830 24200
L59780 24230
L59660 24230
L59600 24200
L59580 24170
L59550 24110
L59550 23940
L59580 23880
L59600 23860
L59660 23830
L59780 23830
L59830 23860
" />
<path d="M60430 24170
L60400 24200
L60320 24230
L60260 24230
L60180 24200
L60120 24140
L60090 24080
L60060 23970
L60060 23880
L60090 23770
L60120 23710
L60180 23660
L60260 23630
L60320 23630
L60400 23660
L60430 23680
" />
<path d="M60780 24230
L60720 24200
L60690 24170
L60660 24110
L60660 23940
L60690 23880
L60720 23860
L60780 23830
L60860 23830
L60920 23860
L60950 23880
L60980 23940
L60980 24110
L60950 24170
L60920 24200
L60860 24230
L60780 24230
" />
<path d="M61230 23830
L61230 24230
" />
<path d="M61230 23880
L61260 23860
L61320 23830
L61400 23830
L61460 23860
L61490 23910
L61490 24230
" />
<path d="M61690 23830
L61920 23830
" />
<path d="M61780 23630
L61780 24140
L61800 24200
L61860 24230
L61920 24230
" />
<path d="M62120 24230
L62120 23830
" />
<path d="M62120 23940
L62150 23880
L62180 23860
L62230 23830
L62290 23830
" />
<path d="M62580 24230
L62520 24200
L62490 24170
L62460 24110
L62460 23940
L62490 23880
L62520 23860
L62580 23830
L62660 23830
L62720 23860
L62750 23880
L62780 23940
L62780 24110
L62750 24170
L62720 24200
L62660 24230
L62580 24230
" />
<path d="M63120 24230
L63060 24200
L63030 24140
L63030 23630
" />
<path d="M63430 24230
L63380 24200
L63350 24140
L63350 23630
" />
<path d="M63890 24200
L63830 24230
L63720 24230
L63660 24200
L63630 24140
L63630 23910
L63660 23860
L63720 23830
L63830 23830
L63890 23860
L63920 23910
L63920 23970
L63630 24030
" />
<path d="M64180 24230
L64180 23830
" />
<path d="M64180 23940
L64200 23880
L64230 23860
L64290 23830
L64350 23830
" />
</g>
<g style="fill:#848400; fill-opacity:0.0; 
stroke:#848400; stroke-width:60; stroke-opacity:1; 
stroke-linecap:round; stroke-linejoin:round;">
</g>
<g style="fill:#000000; fill-opacity:0.0; 
stroke:#000000; stroke-width:60; stroke-opacity:1; 
stroke-linecap:round; stroke-linejoin:round;">
<path d="M58720 36210
L58720 35610
" />
<path d="M58980 35660
L59000 35640
L59060 35610
L59200 35610
L59260 35640
L59290 35660
L59320 35720
L59320 35780
L59290 35860
L58950 36210
L59320 36210
" />
<path d="M59830 36180
L59780 36210
L59660 36210
L59600 36180
L59580 36150
L59550 36090
L59550 35920
L59580 35860
L59600 35840
L59660 35810
L59780 35810
L59830 35840
" />
<path d="M60430 36150
L60400 36180
L60320 36210
L60260 36210
L60180 36180
L60120 36120
L60090 36060
L60060 35950
L60060 35860
L60090 35750
L60120 35690
L60180 35640
L60260 35610
L60320 35610
L60400 35640
L60430 35660
" />
<path d="M60780 36210
L60720 36180
L60690 36150
L60660 36090
L60660 35920
L60690 35860
L60720 35840
L60780 35810
L60860 35810
L60920 35840
L60950 35860
L60980 35920
L60980 36090
L60950 36150
L60920 36180
L60860 36210
L60780 36210
" />
<path d="M61230 35810
L61230 36210
" />
<path d="M61230 35860
L61260 35840
L61320 35810
L61400 35810
L61460 35840
L61490 35890
L61490 36210
" />
<path d="M61690 35810
L61920 35810
" />
<path d="M61780 35610
L61780 36120
L61800 36180
L61860 36210
L61920 36210
" />
<path d="M62120 36210
L62120 35810
" />
<path d="M62120 35920
L62150 35860
L62180 35840
L62230 35810
L62290 35810
" />
<path d="M62580 36210
L62520 36180
L62490 36150
L62460 36090
L62460 35920
L62490 35860
L62520 35840
L62580 35810
L62660 35810
L62720 35840
L62750 35860
L62780 35920
L62780 36090
L62750 36150
L62720 36180
L62660 36210
L62580 36210
" />
<path d="M63120 36210
L63060 36180
L63030 36120
L63030 35610
" />
<path d="M63430 36210
L63380 36180
L63350 36120
L63350 35610
" />
<path d="M63890 36180
L63830 36210
L63720 36210
L63660 36180
L63630 36120
L63630 35890
L63660 35840
L63720 35810
L63830 35810
L63890 35840
L63920 35890
L63920 35950
L63630 36010
" />
<path d="M64180 36210
L64180 35810
" />
<path d="M64180 35920
L64200 35860
L64230 35840
L64290 35810
L64350 35810
" />
<path d="M64550 36150
L64580 36180
L64550 36210
L64520 36180
L64550 36150
L64550 36210
" />
<path d="M64800 36180
L64860 36210
L64980 36210
L65030 36180
L65060 36120
L65060 36090
L65030 36040
L64980 36010
L64890 36010
L64830 35980
L64800 35920
L64800 35890
L64830 35840
L64890 35810
L64980 35810
L65030 35840
" />
<path d="M65580 36180
L65520 36210
L65400 36210
L65350 36180
L65320 36150
L65290 36090
L65290 35920
L65320 35860
L65350 35840
L65400 35810
L65520 35810
L65580 35840
" />
<path d="M65830 36210
L65830 35610
" />
<path d="M66090 36210
L66090 35890
L66060 35840
L66000 35810
L65920 35810
L65860 35840
L65830 35860
" />
</g>
<g style="fill:#840084; fill-opacity:0.0; 
stroke:#840084; stroke-width:60; stroke-opacity:1; 
stroke-linecap:round; stroke-linejoin:round;">
<path d="M27300 43500
L42900 43500
L42900 51550
L27300 51550
L27300 43500
" />
</g>
<g style="fill:#008484; fill-opacity:0.0; 
stroke:#008484; stroke-width:60; stroke-opacity:1; 
stroke-linecap:round; stroke-linejoin:round;">
</g>
<g style="fill:#000000; fill-opacity:0.0; 
stroke:#000000; stroke-width:60; stroke-opacity:1; 
stroke-linecap:round; stroke-linejoin:round;">
<path d="M27440 43260
L27730 43260
" />
<path d="M27380 43430
L27580 42830
L27780 43430
" />
<path d="M28330 43370
L28300 43400
L28210 43430
L28150 43430
L28070 43400
L28010 43340
L27980 43280
L27950 43170
L27950 43080
L27980 42970
L28010 42910
L28070 42860
L28150 42830
L28210 42830
L28300 42860
L28330 42880
" />
<path d="M28440 43480
L28900 43480
" />
<path d="M29300 43400
L29240 43430
L29130 43430
L29070 43400
L29040 43370
L29010 43310
L29010 43140
L29040 43080
L29070 43060
L29130 43030
L29240 43030
L29300 43060
" />
<path d="M29640 43430
L29580 43400
L29550 43370
L29530 43310
L29530 43140
L29550 43080
L29580 43060
L29640 43030
L29730 43030
L29780 43060
L29810 43080
L29840 43140
L29840 43310
L29810 43370
L29780 43400
L29730 43430
L29640 43430
" />
<path d="M30100 43030
L30100 43430
" />
<path d="M30100 43080
L30130 43060
L30180 43030
L30270 43030
L30330 43060
L30350 43110
L30350 43430
" />
<path d="M30550 43030
L30780 43030
" />
<path d="M30640 42830
L30640 43340
L30670 43400
L30730 43430
L30780 43430
" />
<path d="M30980 43430
L30980 43030
" />
<path d="M30980 43140
L31010 43080
L31040 43060
L31100 43030
L31150 43030
" />
<path d="M31440 43430
L31380 43400
L31350 43370
L31330 43310
L31330 43140
L31350 43080
L31380 43060
L31440 43030
L31530 43030
L31580 43060
L31610 43080
L31640 43140
L31640 43310
L31610 43370
L31580 43400
L31530 43430
L31440 43430
" />
<path d="M31980 43430
L31930 43400
L31900 43340
L31900 42830
" />
</g>
<g style="fill:#848400; fill-opacity:0.0; 
stroke:#848400; stroke-width:60; stroke-opacity:1; 
stroke-linecap:round; stroke-linejoin:round;">
</g>
<g style="fill:#000000; fill-opacity:0.0; 
stroke:#000000; stroke-width:60; stroke-opacity:1; 
stroke-linecap:round; stroke-linejoin:round;">
<path d="M27440 51990
L27730 51990
" />
<path d="M27380 52160
L27580 51560
L27780 52160
" />
<path d="M28330 52100
L28300 52130
L28210 52160
L28150 52160
L28070 52130
L28010 52070
L27980 52010
L27950 51900
L27950 51810
L27980 51700
L28010 51640
L28070 51590
L28150 51560
L28210 51560
L28300 51590
L28330 51610
" />
<path d="M28440 52210
L28900 52210
" />
<path d="M29300 52130
L29240 52160
L29130 52160
L29070 52130
L29040 52100
L29010 52040
L29010 51870
L29040 51810
L29070 51790
L29130 51760
L29240 51760
L29300 51790
" />
<path d="M29640 52160
L29580 52130
L29550 52100
L29530 52040
L29530 51870
L29550 51810
L29580 51790
L29640 51760
L29730 51760
L29780 51790
L29810 51810
L29840 51870
L29840 52040
L29810 52100
L29780 52130
L29730 52160
L29640 52160
" />
<path d="M30100 51760
L30100 52160
" />
<path d="M30100 51810
L30130 51790
L30180 51760
L30270 51760
L30330 51790
L30350 51840
L30350 52160
" />
<path d="M30550 51760
L30780 51760
" />
<path d="M30640 51560
L30640 52070
L30670 52130
L30730 52160
L30780 52160
" />
<path d="M30980 52160
L30980 51760
" />
<path d="M30980 51870
L31010 51810
L31040 51790
L31100 51760
L31150 51760
" />
<path d="M31440 52160
L31380 52130
L31350 52100
L31330 52040
L31330 51870
L31350 51810
L31380 51790
L31440 51760
L31530 51760
L31580 51790
L31610 51810
L31640 51870
L31640 52040
L31610 52100
L31580 52130
L31530 52160
L31440 52160
" />
<path d="M31980 52160
L31930 52130
L31900 52070
L31900 51560
" />
<path d="M32210 52100
L32240 52130
L32210 52160
L32180 52130
L32210 52100
L32210 52160
" />
<path d="M32470 52130
L32530 52160
L32640 52160
L32700 52130
L32730 52070
L32730 52040
L32700 51990
L32640 51960
L32550 51960
L32500 51930
L32470 51870
L32470 51840
L32500 51790
L32550 51760
L32640 51760
L32700 51790
" />
<path d="M33240 52130
L33180 52160
L33070 52160
L33010 52130
L32980 52100
L32950 52040
L32950 51870
L32980 51810
L33010 51790
L33070 51760
L33180 51760
L33240 51790
" />
<path d="M33500 52160
L33500 51560
" />
<path d="M33750 52160
L33750 51840
L33730 51790
L33670 51760
L33580 51760
L33530 51790
L33500 51810
" />
</g>
<g style="fill:#840084; fill-opacity:0.0; 
stroke:#840084; stroke-width:60; stroke-opacity:1; 
stroke-linecap:round; stroke-linejoin:round;">
</g>
<g style="fill:#840084; fill-opacity:0.0; 
stroke:#840084; stroke-width:0; stroke-opacity:1; 
stroke-linecap:round; stroke-linejoin:round;">
</g>
<g style="fill:#840000; fill-opacity:0.0; 
stroke:#840000; stroke-width:0; stroke-opacity:1; 
stroke-linecap:round; stroke-linejoin:round;">
</g>
<g style="fill:#840000; fill-opacity:0.0; 
stroke:#840000; stroke-width:60; stroke-opacity:1; 
stroke-linecap:round; stroke-linejoin:round;">
<polyline fill="none;"
points="9900,11050
9900,11550
10300,11800
9900,12050
9500,11800
9900,11550
" /> 
<path d="M9900 11050
L9900 11050
" />
</g>
<g style="fill:#008484; fill-opacity:0.0; 
stroke:#008484; stroke-width:60; stroke-opacity:1; 
stroke-linecap:round; stroke-linejoin:round;">
<path d="M8150 12970
L8150 12470
L8340 12470
L8390 12500
L8410 12520
L8430 12570
L8430 12640
L8410 12690
L8390 12710
L8340 12730
L8150 12730
" />
<path d="M8600 12470
L8720 12970
L8810 12610
L8910 12970
L9030 12470
" />
<path d="M9500 12970
L9340 12730
" />
<path d="M9220 12970
L9220 12470
L9410 12470
L9460 12500
L9480 12520
L9500 12570
L9500 12640
L9480 12690
L9460 12710
L9410 12730
L9220 12730
" />
<path d="M9600 13020
L9980 13020
" />
<path d="M10270 12710
L10100 12710
" />
<path d="M10100 12970
L10100 12470
L10340 12470
" />
<path d="M10770 12970
L10530 12970
L10530 12470
" />
<path d="M10910 12830
L11150 12830
" />
<path d="M10860 12970
L11030 12470
L11190 12970
" />
<path d="M11620 12500
L11580 12470
L11500 12470
L11430 12500
L11390 12540
L11360 12590
L11340 12690
L11340 12760
L11360 12850
L11390 12900
L11430 12950
L11500 12970
L11550 12970
L11620 12950
L11650 12920
L11650 12760
L11550 12760
" />
</g>
<g style="fill:#008484; fill-opacity:0.0; 
stroke:#008484; stroke-width:0; stroke-opacity:1; 
stroke-linecap:round; stroke-linejoin:round;">
</g>
<g style="fill:#840000; fill-opacity:0.0; 
stroke:#840000; stroke-width:0; stroke-opacity:1; 
stroke-linecap:round; stroke-linejoin:round;">
</g>
<g style="fill:#840000; fill-opacity:0.0; 
stroke:#840000; stroke-width:60; stroke-opacity:1; 
stroke-linecap:round; stroke-linejoin:round;">
<circle cx="9900" cy="9550" r="250" /> 
<polyline fill="none;"
points="9900,10300
9900,9800
" /> 
</g>
<g style="fill:#008484; fill-opacity:0.0; 
stroke:#008484; stroke-width:60; stroke-opacity:1; 
stroke-linecap:round; stroke-linejoin:round;">
<path d="M9400 8310
L9570 8810
L9730 8310
" />
<path d="M10180 8760
L10160 8790
L10090 8810
L10040 8810
L9970 8790
L9920 8740
L9900 8690
L9870 8600
L9870 8530
L9900 8430
L9920 8380
L9970 8340
L10040 8310
L10090 8310
L10160 8340
L10180 8360
" />
<path d="M10680 8760
L10660 8790
L10590 8810
L10540 8810
L10470 8790
L10420 8740
L10400 8690
L10370 8600
L10370 8530
L10400 8430
L10420 8380
L10470 8340
L10540 8310
L10590 8310
L10660 8340
L10680 8360
" />
</g>
<g style="fill:#008484; fill-opacity:0.0; 
stroke:#008484; stroke-width:0; stroke-opacity:1; 
stroke-linecap:round; stroke-linejoin:round;">
</g>
<g style="fill:#840000; fill-opacity:0.0; 
stroke:#840000; stroke-width:0; stroke-opacity:1; 
stroke-linecap:round; stroke-linejoin:round;">
</g>
<g style="fill:#840000; fill-opacity:0.0; 
stroke:#840000; stroke-width:60; stroke-opacity:1; 
stroke-linecap:round; stroke-linejoin:round;">
<polyline fill="none;"
points="15400,11300
15400,11800
15900,11800
15400,12300
14900,11800
15400,11800
" /> 
</g>
<g style="fill:#008484; fill-opacity:0.0; 
stroke:#008484; stroke-width:60; stroke-opacity:1; 
stroke-linecap:round; stroke-linejoin:round;">
<path d="M15060 12800
L15020 12770
L14950 12770
L14870 12800
L14830 12840
L14800 12890
L14780 12990
L14780 13060
L14800 13150
L14830 13200
L14870 13250
L14950 13270
L14990 13270
L15060 13250
L15090 13220
L15090 13060
L14990 13060
" />
<path d="M15300 13270
L15300 12770
L15590 13270
L15590 12770
" />
<path d="M15830 13270
L15830 12770
L15950 12770
L16020 12800
L16060 12840
L16090 12890
L16110 12990
L16110 13060
L16090 13150
L16060 13200
L16020 13250
L15950 13270
L15830 13270
" />
</g>
<g style="fill:#008484; fill-opacity:0.0; 
stroke:#008484; stroke-width:0; stroke-opacity:1; 
stroke-linecap:round; stroke-linejoin:round;">
</g>
<g style="fill:#840000; fill-opacity:0.0; 
stroke:#840000; stroke-width:0; stroke-opacity:1; 
stroke-linecap:round; stroke-linejoin:round;">
</g>
<g style="fill:#840000; fill-opacity:0.0; 
stroke:#840000; stroke-width:60; stroke-opacity:1; 
stroke-linecap:round; stroke-linejoin:round;">
<polyline fill="none;"
points="15400,10300
15400,9800
15000,9550
15400,9300
15800,9550
15400,9800
" /> 
<path d="M15400 10300
L15400 10300
" />
</g>
<g style="fill:#008484; fill-opacity:0.0; 
stroke:#008484; stroke-width:60; stroke-opacity:1; 
stroke-linecap:round; stroke-linejoin:round;">
<path d="M13660 8800
L13660 8300
L13850 8300
L13900 8330
L13920 8350
L13940 8400
L13940 8470
L13920 8520
L13900 8540
L13850 8560
L13660 8560
" />
<path d="M14110 8300
L14230 8800
L14320 8440
L14420 8800
L14540 8300
" />
<path d="M15010 8800
L14850 8560
" />
<path d="M14730 8800
L14730 8300
L14920 8300
L14970 8330
L14990 8350
L15010 8400
L15010 8470
L14990 8520
L14970 8540
L14920 8560
L14730 8560
" />
<path d="M15110 8850
L15490 8850
" />
<path d="M15780 8540
L15610 8540
" />
<path d="M15610 8800
L15610 8300
L15850 8300
" />
<path d="M16280 8800
L16040 8800
L16040 8300
" />
<path d="M16420 8660
L16660 8660
" />
<path d="M16370 8800
L16540 8300
L16700 8800
" />
<path d="M17130 8330
L17090 8300
L17010 8300
L16940 8330
L16900 8370
L16870 8420
L16850 8520
L16850 8590
L16870 8680
L16900 8730
L16940 8780
L17010 8800
L17060 8800
L17130 8780
L17160 8750
L17160 8590
L17060 8590
" />
</g>
<g style="fill:#840084; fill-opacity:0.0; 
stroke:#840084; stroke-width:60; stroke-opacity:1; 
stroke-linecap:round; stroke-linejoin:round;">
<path d="M29650 24400
L40500 24400
L40500 35350
L29650 35350
L29650 24400
" />
</g>
<g style="fill:#008484; fill-opacity:0.0; 
stroke:#008484; stroke-width:60; stroke-opacity:1; 
stroke-linecap:round; stroke-linejoin:round;">
</g>
<g style="fill:#000000; fill-opacity:0.0; 
stroke:#000000; stroke-width:60; stroke-opacity:1; 
stroke-linecap:round; stroke-linejoin:round;">
<path d="M29820 24330
L29820 23730
L30020 24160
L30220 23730
L30220 24330
" />
<path d="M30500 24330
L30500 23930
" />
<path d="M30500 23730
L30480 23760
L30500 23780
L30530 23760
L30500 23730
L30500 23780
" />
<path d="M31050 24300
L30990 24330
L30880 24330
L30820 24300
L30790 24270
L30760 24210
L30760 24040
L30790 23980
L30820 23960
L30880 23930
L30990 23930
L31050 23960
" />
<path d="M31300 24330
L31300 23930
" />
<path d="M31300 24040
L31330 23980
L31360 23960
L31420 23930
L31480 23930
" />
<path d="M31760 24330
L31700 24300
L31680 24270
L31650 24210
L31650 24040
L31680 23980
L31700 23960
L31760 23930
L31850 23930
L31900 23960
L31930 23980
L31960 24040
L31960 24210
L31930 24270
L31900 24300
L31850 24330
L31760 24330
" />
<path d="M32480 24300
L32420 24330
L32300 24330
L32250 24300
L32220 24270
L32190 24210
L32190 24040
L32220 23980
L32250 23960
L32300 23930
L32420 23930
L32480 23960
" />
<path d="M32820 24330
L32760 24300
L32730 24270
L32700 24210
L32700 24040
L32730 23980
L32760 23960
L32820 23930
L32900 23930
L32960 23960
L32990 23980
L33020 24040
L33020 24210
L32990 24270
L32960 24300
L32900 24330
L32820 24330
" />
<path d="M33280 23930
L33280 24330
" />
<path d="M33280 23980
L33300 23960
L33360 23930
L33450 23930
L33500 23960
L33530 24010
L33530 24330
" />
<path d="M33730 23930
L33960 23930
" />
<path d="M33820 23730
L33820 24240
L33850 24300
L33900 24330
L33960 24330
" />
<path d="M34160 24330
L34160 23930
" />
<path d="M34160 24040
L34190 23980
L34220 23960
L34280 23930
L34330 23930
" />
<path d="M34620 24330
L34560 24300
L34530 24270
L34500 24210
L34500 24040
L34530 23980
L34560 23960
L34620 23930
L34700 23930
L34760 23960
L34790 23980
L34820 24040
L34820 24210
L34790 24270
L34760 24300
L34700 24330
L34620 24330
" />
<path d="M35160 24330
L35100 24300
L35080 24240
L35080 23730
" />
<path d="M35480 24330
L35420 24300
L35390 24240
L35390 23730
" />
<path d="M35930 24300
L35880 24330
L35760 24330
L35700 24300
L35680 24240
L35680 24010
L35700 23960
L35760 23930
L35880 23930
L35930 23960
L35960 24010
L35960 24070
L35680 24130
" />
<path d="M36220 24330
L36220 23930
" />
<path d="M36220 24040
L36250 23980
L36280 23960
L36330 23930
L36390 23930
" />
</g>
<g style="fill:#848400; fill-opacity:0.0; 
stroke:#848400; stroke-width:60; stroke-opacity:1; 
stroke-linecap:round; stroke-linejoin:round;">
</g>
<g style="fill:#000000; fill-opacity:0.0; 
stroke:#000000; stroke-width:60; stroke-opacity:1; 
stroke-linecap:round; stroke-linejoin:round;">
<path d="M29820 35960
L29820 35360
L30020 35790
L30220 35360
L30220 35960
" />
<path d="M30500 35960
L30500 35560
" />
<path d="M30500 35360
L30480 35390
L30500 35410
L30530 35390
L30500 35360
L30500 35410
" />
<path d="M31050 35930
L30990 35960
L30880 35960
L30820 35930
L30790 35900
L30760 35840
L30760 35670
L30790 35610
L30820 35590
L30880 35560
L30990 35560
L31050 35590
" />
<path d="M31300 35960
L31300 35560
" />
<path d="M31300 35670
L31330 35610
L31360 35590
L31420 35560
L31480 35560
" />
<path d="M31760 35960
L31700 35930
L31680 35900
L31650 35840
L31650 35670
L31680 35610
L31700 35590
L31760 35560
L31850 35560
L31900 35590
L31930 35610
L31960 35670
L31960 35840
L31930 35900
L31900 35930
L31850 35960
L31760 35960
" />
<path d="M32480 35930
L32420 35960
L32300 35960
L32250 35930
L32220 35900
L32190 35840
L32190 35670
L32220 35610
L32250 35590
L32300 35560
L32420 35560
L32480 35590
" />
<path d="M32820 35960
L32760 35930
L32730 35900
L32700 35840
L32700 35670
L32730 35610
L32760 35590
L32820 35560
L32900 35560
L32960 35590
L32990 35610
L33020 35670
L33020 35840
L32990 35900
L32960 35930
L32900 35960
L32820 35960
" />
<path d="M33280 35560
L33280 35960
" />
<path d="M33280 35610
L33300 35590
L33360 35560
L33450 35560
L33500 35590
L33530 35640
L33530 35960
" />
<path d="M33730 35560
L33960 35560
" />
<path d="M33820 35360
L33820 35870
L33850 35930
L33900 35960
L33960 35960
" />
<path d="M34160 35960
L34160 35560
" />
<path d="M34160 35670
L34190 35610
L34220 35590
L34280 35560
L34330 35560
" />
<path d="M34620 35960
L34560 35930
L34530 35900
L34500 35840
L34500 35670
L34530 35610
L34560 35590
L34620 35560
L34700 35560
L34760 35590
L34790 35610
L34820 35670
L34820 35840
L34790 35900
L34760 35930
L34700 35960
L34620 35960
" />
<path d="M35160 35960
L35100 35930
L35080 35870
L35080 35360
" />
<path d="M35480 35960
L35420 35930
L35390 35870
L35390 35360
" />
<path d="M35930 35930
L35880 35960
L35760 35960
L35700 35930
L35680 35870
L35680 35640
L35700 35590
L35760 35560
L35880 35560
L35930 35590
L35960 35640
L35960 35700
L35680 35760
" />
<path d="M36220 35960
L36220 35560
" />
<path d="M36220 35670
L36250 35610
L36280 35590
L36330 35560
L36390 35560
" />
<path d="M36590 35900
L36620 35930
L36590 35960
L36560 35930
L36590 35900
L36590 35960
" />
<path d="M36850 35930
L36900 35960
L37020 35960
L37080 35930
L37100 35870
L37100 35840
L37080 35790
L37020 35760
L36930 35760
L36880 35730
L36850 35670
L36850 35640
L36880 35590
L36930 35560
L37020 35560
L37080 35590
" />
<path d="M37620 35930
L37560 35960
L37450 35960
L37390 35930
L37360 35900
L37330 35840
L37330 35670
L37360 35610
L37390 35590
L37450 35560
L37560 35560
L37620 35590
" />
<path d="M37880 35960
L37880 35360
" />
<path d="M38130 35960
L38130 35640
L38100 35590
L38050 35560
L37960 35560
L37900 35590
L37880 35610
" />
</g>
<g style="fill:#840084; fill-opacity:0.0; 
stroke:#840084; stroke-width:60; stroke-opacity:1; 
stroke-linecap:round; stroke-linejoin:round;">
</g>
<g style="fill:#840084; fill-opacity:0.0; 
stroke:#840084; stroke-width:0; stroke-opacity:1; 
stroke-linecap:round; stroke-linejoin:round;">
</g>
<g style="fill:#0000BF; fill-opacity:0.0; 
stroke:#0000BF; stroke-width:0; stroke-opacity:1; 
stroke-linecap:round; stroke-linejoin:round;">
</g>
<g style="fill:#0000BF; fill-opacity:0.0; 
stroke:#0000BF; stroke-width:100; stroke-opacity:1; 
stroke-linecap:round; stroke-linejoin:round;">
<rect x="30020" y="24470" width="9760" height="10560" rx="0" />
</g>
<g style="fill:#0000BF; fill-opacity:0.0; 
stroke:#0000BF; stroke-width:0; stroke-opacity:1; 
stroke-linecap:round; stroke-linejoin:round;">
</g>
<g style="fill:#0000BF; fill-opacity:0.0; 
stroke:#0000BF; stroke-width:100; stroke-opacity:1; 
stroke-linecap:round; stroke-linejoin:round;">
<rect x="28970" y="44190" width="12860" height="6630" rx="0" />
</g>
<g style="fill:#0000BF; fill-opacity:0.0; 
stroke:#0000BF; stroke-width:0; stroke-opacity:1; 
stroke-linecap:round; stroke-linejoin:round;">
</g>
<g style="fill:#0000BF; fill-opacity:0.0; 
stroke:#0000BF; stroke-width:100; stroke-opacity:1; 
stroke-linecap:round; stroke-linejoin:round;">
<rect x="58790" y="24850" width="30330" height="10700" rx="0" />
</g>
<g style="fill:#0000BF; fill-opacity:0.0; 
stroke:#0000BF; stroke-width:60; stroke-opacity:1; 
stroke-linecap:round; stroke-linejoin:round;">
</g>
<g style="fill:#008400; fill-opacity:0.0; 
stroke:#008400; stroke-width:60; stroke-opacity:1; 
stroke-linecap:round; stroke-linejoin:round;">
<path d="M9900 11050
L9900 10300
" />
<path d="M15400 11300
L15400 10300
" />
</g>
<g style="fill:#008400; fill-opacity:0.0; 
stroke:#008400; stroke-width:120; stroke-opacity:1; 
stroke-linecap:round; stroke-linejoin:round;">
</g>
<g style="fill:#000084; fill-opacity:0.0; 
stroke:#000084; stroke-width:120; stroke-opacity:1; 
stroke-linecap:round; stroke-linejoin:round;">
<path d="M40500 30150
L58550 30150
" />
<path d="M34500 35400
L34500 43500
" />
</g> 
</svg>
