M48
;DRILL file {KiCad 4.0.5+dfsg1-4} date Mon Dec 31 14:04:11 2018
;FORMAT={-:-/ absolute / inch / decimal}
FMAT,2
INCH,TZ
T1C0.016
T2C0.030
T3C0.031
T4C0.032
T5C0.039
T6C0.039
T7C0.040
T8C0.047
T9C0.047
T10C0.051
T11C0.055
T12C0.059
T13C0.098
%
G90
G05
M72
T1
X4.76Y-4.66
X5.035Y-4.235
X6.6Y-4.21
X7.075Y-4.16
X8.41Y-4.725
T2
X4.75Y-5.035
X4.9Y-4.885
X4.9Y-5.185
X5.Y-4.885
X5.Y-5.185
X5.15Y-5.035
T3
X3.875Y-3.71
X3.875Y-3.81
X3.875Y-3.91
X4.175Y-3.71
X4.175Y-3.81
X4.175Y-3.91
X4.175Y-4.96
X4.475Y-4.96
X4.59Y-2.38
X4.59Y-2.48
X4.89Y-2.38
X4.89Y-2.48
X7.075Y-3.26
X7.075Y-3.36
X7.075Y-3.46
X7.075Y-3.56
X7.075Y-3.66
X7.075Y-3.76
X7.075Y-3.86
X7.075Y-3.96
X7.075Y-4.06
X7.075Y-4.16
X7.075Y-4.26
X7.075Y-4.36
X7.075Y-4.46
X7.075Y-4.56
X7.375Y-3.26
X7.375Y-3.36
X7.375Y-3.46
X7.375Y-3.56
X7.375Y-3.66
X7.375Y-3.76
X7.375Y-3.86
X7.375Y-3.96
X7.375Y-4.06
X7.375Y-4.16
X7.375Y-4.26
X7.375Y-4.36
X7.375Y-4.46
X7.375Y-4.56
T4
X3.7Y-3.91
X3.7Y-4.21
X8.7Y-2.435
X8.7Y-2.735
X8.7Y-3.235
X8.7Y-3.535
X8.7Y-4.035
X8.7Y-4.335
X8.9Y-2.435
X8.9Y-2.735
X8.9Y-3.235
X8.9Y-3.535
X8.9Y-4.035
X8.9Y-4.335
T5
X2.7Y-4.435
X2.8Y-4.435
X2.9Y-4.435
X4.225Y-4.485
X4.325Y-4.485
X4.425Y-3.31
X4.425Y-4.485
X4.525Y-3.41
X4.625Y-3.31
X6.65Y-3.085
X6.65Y-3.285
X6.75Y-3.185
X8.35Y-5.035
X8.35Y-5.1334
X8.35Y-5.2319
X8.9209Y-5.035
X8.9209Y-5.2319
T6
X3.05Y-5.085
X3.0504Y-4.885
X3.825Y-5.11
X3.825Y-5.21
X4.425Y-3.01
X4.525Y-3.01
X5.95Y-4.86
X5.95Y-4.96
X6.Y-3.66
X6.Y-3.76
X7.3Y-5.185
X7.3Y-5.285
X8.1004Y-2.71
X8.225Y-3.76
X8.325Y-3.76
X8.3996Y-2.71
T7
X4.05Y-2.32
X4.125Y-4.26
X4.45Y-2.32
X4.525Y-4.26
X4.85Y-3.885
X4.85Y-3.985
X4.85Y-4.085
X4.85Y-4.185
X4.85Y-4.285
X4.85Y-4.385
X5.15Y-2.51
X5.15Y-2.61
X5.15Y-2.71
X5.15Y-2.81
X5.15Y-2.91
X5.15Y-3.01
X5.15Y-3.11
X5.15Y-3.21
X5.15Y-3.31
X5.15Y-3.41
X5.15Y-3.51
X5.15Y-3.61
X5.15Y-3.71
X5.15Y-3.81
X5.15Y-3.91
X5.75Y-2.51
X5.75Y-2.61
X5.75Y-2.71
X5.75Y-2.81
X5.75Y-2.91
X5.75Y-3.01
X5.75Y-3.11
X5.75Y-3.21
X5.75Y-3.31
X5.75Y-3.41
X5.75Y-3.51
X5.75Y-3.61
X5.75Y-3.71
X5.75Y-3.81
X5.75Y-3.91
X6.05Y-2.71
X6.05Y-2.81
X6.05Y-2.91
X6.05Y-3.01
X6.05Y-3.11
X6.05Y-3.21
X7.135Y-4.785
X7.135Y-4.885
X7.235Y-4.785
X7.235Y-4.885
X7.55Y-4.36
X7.55Y-4.46
X7.55Y-4.56
X7.65Y-4.36
X7.65Y-4.46
X7.65Y-4.56
X7.66Y-2.71
X7.66Y-2.81
X7.66Y-2.91
X7.66Y-3.01
X7.66Y-3.11
X7.66Y-3.21
T8
X3.1Y-3.01
X3.1Y-3.31
X3.3Y-3.01
X3.3Y-3.31
X3.5Y-3.01
X3.5Y-3.31
X4.1Y-3.01
X4.1Y-3.31
X4.1872Y-5.1354
X4.2541Y-5.2535
X4.325Y-5.1354
X4.3959Y-5.2535
X4.4628Y-5.1354
X6.77Y-5.09
X6.8684Y-4.8932
X6.9668Y-5.09
T9
X3.425Y-4.91
X3.425Y-5.2053
X4.13Y-2.52
X4.13Y-2.72
X4.33Y-2.52
X4.33Y-2.72
X5.575Y-4.86
X5.575Y-5.1553
X6.05Y-4.21
X6.05Y-4.31
X6.6Y-3.61
X6.6Y-3.71
X6.6Y-3.81
X6.6Y-3.91
X6.6Y-4.01
X6.6Y-4.11
X6.6Y-4.21
X6.6Y-4.31
X6.6Y-4.41
X6.6Y-4.51
X6.6Y-4.61
X6.6Y-4.71
X6.6Y-4.81
X6.6Y-4.91
X6.6Y-5.01
X6.6Y-5.11
T10
X3.0142Y-2.535
X3.9Y-2.535
T11
X2.7Y-2.46
X2.7Y-2.66
X2.7Y-2.985
X2.7Y-3.185
X2.7Y-3.385
X2.7Y-3.71
X2.7Y-3.91
X2.7Y-4.96
X2.7Y-5.16
T12
X3.175Y-3.935
X3.475Y-3.935
T13
X6.6Y-2.3738
X6.6Y-5.3265
X7.8205Y-2.3738
X7.8205Y-5.3265
T12
X8.6197Y-4.913G85X8.6709Y-4.913
G05
X8.6197Y-5.3539G85X8.6709Y-5.3539
G05
T0
M30
