%TF.GenerationSoftware,KiCad,Pcbnew,4.0.5+dfsg1-4*%
%TF.CreationDate,2018-12-31T14:04:09+01:00*%
%TF.ProjectId,HotAirGun,486F7441697247756E2E6B696361645F,rev?*%
%TF.FileFunction,Copper,L1,Top,Signal*%
%FSLAX46Y46*%
G04 Gerber Fmt 4.6, Leading zero omitted, Abs format (unit mm)*
G04 Created by KiCad (PCBNEW 4.0.5+dfsg1-4) date Mon Dec 31 14:04:09 2018*
%MOMM*%
%LPD*%
G01*
G04 APERTURE LIST*
%ADD10C,0.100000*%
%ADD11O,2.600000X1.800000*%
%ADD12C,3.000000*%
%ADD13R,3.600000X2.100000*%
%ADD14O,3.600000X2.100000*%
%ADD15C,1.727200*%
%ADD16R,1.727200X1.727200*%
%ADD17R,1.200000X0.900000*%
%ADD18R,2.400000X2.400000*%
%ADD19C,2.400000*%
%ADD20R,1.800000X1.800000*%
%ADD21O,1.800000X1.800000*%
%ADD22R,1.600000X1.600000*%
%ADD23O,1.600000X1.600000*%
%ADD24C,1.397000*%
%ADD25C,2.100000*%
%ADD26R,2.100000X2.100000*%
%ADD27C,1.778000*%
%ADD28R,1.778000X1.778000*%
%ADD29R,0.500000X0.900000*%
%ADD30C,2.000000*%
%ADD31O,1.800860X2.499360*%
%ADD32O,2.300000X1.600000*%
%ADD33R,3.200000X2.000000*%
%ADD34R,2.000000X2.000000*%
%ADD35R,0.900000X1.200000*%
%ADD36O,1.998980X2.999740*%
%ADD37O,2.999740X1.998980*%
%ADD38R,2.032000X1.727200*%
%ADD39O,2.032000X1.727200*%
%ADD40O,1.727200X1.727200*%
%ADD41R,2.000000X1.900000*%
%ADD42C,1.900000*%
%ADD43R,1.900000X2.000000*%
%ADD44R,1.200000X0.750000*%
%ADD45R,0.750000X1.200000*%
%ADD46C,2.499360*%
%ADD47C,2.999740*%
%ADD48O,2.500000X1.524000*%
%ADD49R,1.550000X0.600000*%
%ADD50C,1.501140*%
%ADD51R,2.600000X2.000000*%
%ADD52O,2.600000X2.000000*%
%ADD53R,2.999740X4.000500*%
%ADD54C,0.600000*%
%ADD55C,0.762000*%
%ADD56C,0.508000*%
%ADD57C,2.032000*%
%ADD58C,1.016000*%
%ADD59C,1.270000*%
G04 APERTURE END LIST*
D10*
D11*
X167640000Y-129794000D03*
X167640000Y-127254000D03*
X167640000Y-124714000D03*
X167640000Y-122174000D03*
X167640000Y-119634000D03*
X167640000Y-117094000D03*
X167640000Y-114554000D03*
X167640000Y-112014000D03*
X167640000Y-109474000D03*
X167640000Y-106934000D03*
X167640000Y-104394000D03*
X167640000Y-101854000D03*
X167640000Y-99314000D03*
X167640000Y-96774000D03*
X167640000Y-94234000D03*
X167640000Y-91694000D03*
D12*
X167640000Y-135293100D03*
X198640700Y-135293100D03*
X198640700Y-60294520D03*
X167640000Y-60294520D03*
D13*
X68580000Y-125984000D03*
D14*
X68580000Y-131064000D03*
D15*
X146050000Y-63754000D03*
X146050000Y-66294000D03*
X146050000Y-68834000D03*
X146050000Y-71374000D03*
X146050000Y-73914000D03*
X146050000Y-76454000D03*
X146050000Y-78994000D03*
X146050000Y-81534000D03*
X146050000Y-84074000D03*
X146050000Y-86614000D03*
X146050000Y-89154000D03*
X146050000Y-91694000D03*
X146050000Y-94234000D03*
X146050000Y-96774000D03*
X146050000Y-99314000D03*
X130810000Y-99314000D03*
X130810000Y-96774000D03*
X130810000Y-94234000D03*
X130810000Y-91694000D03*
X130810000Y-89154000D03*
X130810000Y-86614000D03*
X130810000Y-84074000D03*
X130810000Y-81534000D03*
X130810000Y-78994000D03*
X130810000Y-76454000D03*
X130810000Y-73914000D03*
X130810000Y-71374000D03*
X130810000Y-68834000D03*
X130810000Y-66294000D03*
D16*
X130810000Y-63754000D03*
D17*
X110955000Y-120269000D03*
X108755000Y-120269000D03*
D18*
X86995000Y-124714000D03*
D19*
X86995000Y-132214000D03*
D18*
X141605000Y-123444000D03*
D19*
X141605000Y-130944000D03*
D20*
X73660000Y-112649000D03*
D21*
X71120000Y-112649000D03*
X68580000Y-112649000D03*
D22*
X113665000Y-125984000D03*
D23*
X106045000Y-125984000D03*
D12*
X88265000Y-99949000D03*
X80645000Y-99949000D03*
D20*
X112395000Y-113919000D03*
D21*
X109855000Y-113919000D03*
X107315000Y-113919000D03*
D24*
X220980000Y-102489000D03*
X226060000Y-102489000D03*
X220980000Y-110109000D03*
X226060000Y-110109000D03*
X220980000Y-82169000D03*
X226060000Y-82169000D03*
X220980000Y-89789000D03*
X226060000Y-89789000D03*
X220980000Y-61849000D03*
X226060000Y-61849000D03*
X220980000Y-69469000D03*
X226060000Y-69469000D03*
D25*
X109982000Y-69088000D03*
X109982000Y-64008000D03*
D26*
X104902000Y-64008000D03*
D25*
X104902000Y-69088000D03*
D27*
X102870000Y-58928000D03*
D28*
X113030000Y-58928000D03*
D27*
X104775000Y-108204000D03*
D28*
X114935000Y-108204000D03*
D24*
X93980000Y-106934000D03*
X93980000Y-99314000D03*
D29*
X187694000Y-124079000D03*
X186194000Y-124079000D03*
X187694000Y-121539000D03*
X186194000Y-121539000D03*
D30*
X205750160Y-68834000D03*
X213349840Y-68834000D03*
D13*
X68580000Y-62484000D03*
D14*
X68580000Y-67564000D03*
D13*
X68580000Y-75819000D03*
D14*
X68580000Y-80899000D03*
X68580000Y-85979000D03*
D13*
X68580000Y-94234000D03*
D14*
X68580000Y-99314000D03*
D23*
X106045000Y-99314000D03*
X106045000Y-96774000D03*
X106045000Y-94234000D03*
X98425000Y-94234000D03*
X98425000Y-96774000D03*
X98425000Y-99314000D03*
X116586000Y-60452000D03*
X116586000Y-62992000D03*
X124206000Y-62992000D03*
X124206000Y-60452000D03*
D31*
X109855000Y-130439160D03*
X113355120Y-130439160D03*
X106354880Y-130439160D03*
X108054140Y-133438900D03*
X111655860Y-133438900D03*
D32*
X179705000Y-82804000D03*
X179705000Y-85344000D03*
X179705000Y-87884000D03*
X179705000Y-90424000D03*
X179705000Y-92964000D03*
X179705000Y-95504000D03*
X179705000Y-98044000D03*
X179705000Y-100584000D03*
X179705000Y-103124000D03*
X179705000Y-105664000D03*
X179705000Y-108204000D03*
X179705000Y-110744000D03*
X179705000Y-113284000D03*
X179705000Y-115824000D03*
X187325000Y-115824000D03*
X187325000Y-113284000D03*
X187325000Y-110744000D03*
X187325000Y-108204000D03*
X187325000Y-105664000D03*
X187325000Y-103124000D03*
X187325000Y-100584000D03*
X187325000Y-98044000D03*
X187325000Y-95504000D03*
X187325000Y-92964000D03*
X187325000Y-90424000D03*
X187325000Y-87884000D03*
X187325000Y-85344000D03*
X187325000Y-82804000D03*
D30*
X226590000Y-132889000D03*
X226590000Y-127889000D03*
D33*
X219590000Y-135989000D03*
X219590000Y-124789000D03*
D30*
X212090000Y-132889000D03*
X212090000Y-130389000D03*
D34*
X212090000Y-127889000D03*
D17*
X108755000Y-118364000D03*
X110955000Y-118364000D03*
X153246000Y-99314000D03*
X151046000Y-99314000D03*
D35*
X151130000Y-117518000D03*
X151130000Y-119718000D03*
X97155000Y-124249000D03*
X97155000Y-126449000D03*
D17*
X113114000Y-79756000D03*
X110914000Y-79756000D03*
X190035000Y-132334000D03*
X192235000Y-132334000D03*
D36*
X114935000Y-86614000D03*
D37*
X117475000Y-84074000D03*
X112395000Y-84074000D03*
D38*
X123190000Y-111379000D03*
D39*
X123190000Y-108839000D03*
X123190000Y-106299000D03*
X123190000Y-103759000D03*
X123190000Y-101219000D03*
X123190000Y-98679000D03*
D38*
X153670000Y-68834000D03*
D39*
X153670000Y-71374000D03*
X153670000Y-73914000D03*
X153670000Y-76454000D03*
X153670000Y-78994000D03*
X153670000Y-81534000D03*
D16*
X183769000Y-121539000D03*
D40*
X181229000Y-121539000D03*
X183769000Y-124079000D03*
X181229000Y-124079000D03*
D38*
X194564000Y-68834000D03*
D39*
X194564000Y-71374000D03*
X194564000Y-73914000D03*
X194564000Y-76454000D03*
X194564000Y-78994000D03*
X194564000Y-81534000D03*
D16*
X194310000Y-110744000D03*
D40*
X191770000Y-110744000D03*
X194310000Y-113284000D03*
X191770000Y-113284000D03*
X194310000Y-115824000D03*
X191770000Y-115824000D03*
D34*
X152400000Y-92964000D03*
D30*
X152400000Y-95504000D03*
D34*
X151130000Y-125984000D03*
D30*
X151130000Y-123444000D03*
D34*
X97155000Y-132334000D03*
D30*
X97155000Y-129794000D03*
D34*
X114935000Y-76454000D03*
D30*
X112395000Y-76454000D03*
D41*
X185420000Y-131699000D03*
D42*
X185420000Y-134239000D03*
D43*
X211455000Y-95504000D03*
D42*
X208915000Y-95504000D03*
D44*
X131384000Y-115316000D03*
X133284000Y-115316000D03*
D45*
X120142000Y-111440000D03*
X120142000Y-109540000D03*
D37*
X171450000Y-80899000D03*
D36*
X168910000Y-83439000D03*
X168910000Y-78359000D03*
D46*
X174457360Y-124287280D03*
X176956720Y-129286000D03*
X171958000Y-129286000D03*
D47*
X104140000Y-84074000D03*
X104140000Y-76454000D03*
X88900000Y-76454000D03*
X83820000Y-76454000D03*
X78740000Y-76454000D03*
X88900000Y-84074000D03*
X83820000Y-84074000D03*
X78740000Y-84074000D03*
D48*
X127000000Y-131699000D03*
X124460000Y-131699000D03*
X124460000Y-124079000D03*
X127000000Y-124079000D03*
D30*
X130810000Y-127889000D03*
X120650000Y-127889000D03*
D12*
X99060000Y-64389000D03*
X76560000Y-64389000D03*
D49*
X130650000Y-109474000D03*
X130650000Y-110744000D03*
X130650000Y-112014000D03*
X130650000Y-113284000D03*
X136050000Y-113284000D03*
X136050000Y-112014000D03*
X136050000Y-110744000D03*
X136050000Y-109474000D03*
D50*
X77470000Y-129159000D03*
X77480160Y-124079000D03*
D51*
X153670000Y-109474000D03*
D52*
X153670000Y-106934000D03*
D17*
X108755000Y-99314000D03*
X110955000Y-99314000D03*
X117305000Y-89789000D03*
X115105000Y-89789000D03*
X136736000Y-73914000D03*
X134536000Y-73914000D03*
D53*
X125984000Y-119557800D03*
X125984000Y-136220200D03*
D54*
X167640000Y-106934000D03*
X179705000Y-105664000D03*
X120904000Y-118364000D03*
X127889000Y-107569000D03*
X213614000Y-120015000D03*
D55*
X123190000Y-111379000D02*
X120203000Y-111379000D01*
X120203000Y-111379000D02*
X120142000Y-111440000D01*
X130650000Y-110744000D02*
X123825000Y-110744000D01*
X123825000Y-110744000D02*
X123190000Y-111379000D01*
D56*
X120142000Y-109540000D02*
X120142000Y-109474000D01*
X120142000Y-109474000D02*
X120777000Y-108839000D01*
X120777000Y-108839000D02*
X123190000Y-108839000D01*
D55*
X130650000Y-112014000D02*
X129032000Y-112014000D01*
X121285000Y-108839000D02*
X123190000Y-108839000D01*
X120584000Y-109540000D02*
X121285000Y-108839000D01*
X118044000Y-109540000D02*
X120584000Y-109540000D01*
X117856000Y-109728000D02*
X118044000Y-109540000D01*
X117856000Y-112268000D02*
X117856000Y-109728000D01*
X120904000Y-115316000D02*
X117856000Y-112268000D01*
X125730000Y-115316000D02*
X120904000Y-115316000D01*
X129032000Y-112014000D02*
X125730000Y-115316000D01*
D57*
X125984000Y-136220200D02*
X125984000Y-132715000D01*
X125984000Y-132715000D02*
X127000000Y-131699000D01*
D55*
X146050000Y-71374000D02*
X148844000Y-71374000D01*
X151384000Y-68834000D02*
X153670000Y-68834000D01*
X148844000Y-71374000D02*
X151384000Y-68834000D01*
X139446000Y-73914000D02*
X139446000Y-121285000D01*
X139446000Y-121285000D02*
X141605000Y-123444000D01*
X131384000Y-115316000D02*
X131384000Y-117922000D01*
X131384000Y-117922000D02*
X136906000Y-123444000D01*
X136906000Y-123444000D02*
X141605000Y-123444000D01*
X130650000Y-113284000D02*
X130302000Y-113284000D01*
X130302000Y-113284000D02*
X131384000Y-114366000D01*
X131384000Y-114366000D02*
X131384000Y-115316000D01*
X141605000Y-123444000D02*
X142240000Y-123444000D01*
X142240000Y-123444000D02*
X148336000Y-117348000D01*
X148336000Y-117348000D02*
X151130000Y-117348000D01*
X136736000Y-73914000D02*
X139446000Y-73914000D01*
X139446000Y-73914000D02*
X141224000Y-73914000D01*
X143764000Y-71374000D02*
X146050000Y-71374000D01*
X141224000Y-73914000D02*
X143764000Y-71374000D01*
D56*
X108054140Y-133438900D02*
X108054140Y-134470140D01*
X108054140Y-134470140D02*
X109982000Y-136398000D01*
X119761000Y-136398000D02*
X124460000Y-131699000D01*
X109982000Y-136398000D02*
X119761000Y-136398000D01*
X123190000Y-103759000D02*
X124841000Y-103759000D01*
X127254000Y-109474000D02*
X130650000Y-109474000D01*
X125984000Y-108204000D02*
X127254000Y-109474000D01*
X125984000Y-104902000D02*
X125984000Y-108204000D01*
X124841000Y-103759000D02*
X125984000Y-104902000D01*
X133284000Y-115316000D02*
X133284000Y-114234000D01*
X133284000Y-114234000D02*
X132334000Y-113284000D01*
X132334000Y-113284000D02*
X132334000Y-109474000D01*
X132334000Y-109474000D02*
X130650000Y-109474000D01*
D55*
X130556000Y-109474000D02*
X130650000Y-109474000D01*
X130810000Y-71374000D02*
X125730000Y-71374000D01*
X125730000Y-71374000D02*
X124206000Y-69850000D01*
X117475000Y-84074000D02*
X118364000Y-84074000D01*
X118364000Y-84074000D02*
X124206000Y-78232000D01*
X124206000Y-78232000D02*
X124206000Y-69850000D01*
X124206000Y-69850000D02*
X124206000Y-62992000D01*
X106045000Y-96774000D02*
X108204000Y-96774000D01*
X114935000Y-81534000D02*
X117475000Y-84074000D01*
X111252000Y-81534000D02*
X114935000Y-81534000D01*
X109728000Y-83058000D02*
X111252000Y-81534000D01*
X109728000Y-95250000D02*
X109728000Y-83058000D01*
X108204000Y-96774000D02*
X109728000Y-95250000D01*
D58*
X123190000Y-103759000D02*
X104775000Y-103759000D01*
X104775000Y-103759000D02*
X104775000Y-108204000D01*
D59*
X104775000Y-108204000D02*
X104775000Y-102235000D01*
X104648000Y-96774000D02*
X106045000Y-96774000D01*
X103886000Y-97536000D02*
X104648000Y-96774000D01*
X103886000Y-101346000D02*
X103886000Y-97536000D01*
X104775000Y-102235000D02*
X103886000Y-101346000D01*
X107315000Y-113919000D02*
X107315000Y-110744000D01*
X107315000Y-110744000D02*
X104775000Y-108204000D01*
X106045000Y-125984000D02*
X106045000Y-115189000D01*
X106045000Y-115189000D02*
X107315000Y-113919000D01*
D56*
X106045000Y-125984000D02*
X106045000Y-120777000D01*
X106553000Y-120269000D02*
X108755000Y-120269000D01*
X106045000Y-120777000D02*
X106553000Y-120269000D01*
X226060000Y-89789000D02*
X226060000Y-102489000D01*
X213349840Y-68834000D02*
X213349840Y-69225160D01*
X213349840Y-69225160D02*
X208280000Y-74295000D01*
X197231000Y-76454000D02*
X194564000Y-76454000D01*
X199390000Y-74295000D02*
X197231000Y-76454000D01*
X208280000Y-74295000D02*
X199390000Y-74295000D01*
X179705000Y-105664000D02*
X182118000Y-105664000D01*
X194310000Y-117348000D02*
X194310000Y-115824000D01*
X193802000Y-117856000D02*
X194310000Y-117348000D01*
X185420000Y-117856000D02*
X193802000Y-117856000D01*
X184658000Y-117094000D02*
X185420000Y-117856000D01*
X184658000Y-108204000D02*
X184658000Y-117094000D01*
X182118000Y-105664000D02*
X184658000Y-108204000D01*
D55*
X167640000Y-114554000D02*
X167640000Y-112014000D01*
X167640000Y-112014000D02*
X167640000Y-109474000D01*
X167640000Y-109474000D02*
X167640000Y-106934000D01*
X194310000Y-115824000D02*
X194310000Y-110744000D01*
X212090000Y-130389000D02*
X224090000Y-130389000D01*
X224090000Y-130389000D02*
X226590000Y-132889000D01*
X226590000Y-132889000D02*
X226648000Y-132889000D01*
X226648000Y-132889000D02*
X229108000Y-130429000D01*
X229108000Y-130429000D02*
X229108000Y-125095000D01*
X229108000Y-125095000D02*
X226060000Y-122047000D01*
X226060000Y-122047000D02*
X226060000Y-110109000D01*
D56*
X194310000Y-114935000D02*
X194310000Y-115824000D01*
X194310000Y-114935000D02*
X194310000Y-113284000D01*
D55*
X226060000Y-110109000D02*
X226060000Y-89789000D01*
X226060000Y-89789000D02*
X226060000Y-82169000D01*
X226060000Y-82169000D02*
X226060000Y-69469000D01*
X226060000Y-69469000D02*
X226060000Y-61849000D01*
X179705000Y-105664000D02*
X170180000Y-105664000D01*
X170180000Y-106934000D02*
X167640000Y-106934000D01*
X170180000Y-105664000D02*
X170180000Y-106934000D01*
D56*
X194310000Y-113284000D02*
X194310000Y-110744000D01*
X184785000Y-134239000D02*
X182880000Y-132334000D01*
X187694000Y-125742000D02*
X187694000Y-121539000D01*
X186182000Y-127254000D02*
X187694000Y-125742000D01*
X185674000Y-127254000D02*
X186182000Y-127254000D01*
X182880000Y-130048000D02*
X185674000Y-127254000D01*
X182880000Y-132334000D02*
X182880000Y-130048000D01*
D55*
X179705000Y-103124000D02*
X177165000Y-103124000D01*
X174180500Y-100139500D02*
X174180500Y-97218500D01*
X177165000Y-103124000D02*
X174180500Y-100139500D01*
X171196000Y-94234000D02*
X167640000Y-94234000D01*
X174180500Y-97218500D02*
X171196000Y-94234000D01*
X174180500Y-97218500D02*
X174180500Y-82867500D01*
X188214000Y-68834000D02*
X194564000Y-68834000D01*
X174180500Y-82867500D02*
X188214000Y-68834000D01*
D56*
X97155000Y-124249000D02*
X87460000Y-124249000D01*
X87460000Y-124249000D02*
X86995000Y-124714000D01*
X97155000Y-129794000D02*
X97155000Y-126449000D01*
D55*
X134536000Y-73914000D02*
X130810000Y-73914000D01*
X151130000Y-123444000D02*
X151130000Y-119634000D01*
X152400000Y-95504000D02*
X152654000Y-95504000D01*
X152654000Y-95504000D02*
X153416000Y-96266000D01*
X153416000Y-96266000D02*
X153416000Y-99314000D01*
X146050000Y-99314000D02*
X150876000Y-99314000D01*
D56*
X130810000Y-96774000D02*
X129159000Y-96774000D01*
X120904000Y-118364000D02*
X110955000Y-118364000D01*
X127889000Y-98044000D02*
X127889000Y-107569000D01*
X129159000Y-96774000D02*
X127889000Y-98044000D01*
X110955000Y-120269000D02*
X110955000Y-118364000D01*
X108755000Y-118364000D02*
X108755000Y-117051000D01*
X109855000Y-115951000D02*
X109855000Y-113919000D01*
X108755000Y-117051000D02*
X109855000Y-115951000D01*
X194564000Y-71374000D02*
X189484000Y-71374000D01*
X189484000Y-71374000D02*
X183134000Y-77724000D01*
X183134000Y-104013000D02*
X187325000Y-108204000D01*
X183134000Y-77724000D02*
X183134000Y-104013000D01*
X188849000Y-73914000D02*
X194564000Y-73914000D01*
X184404000Y-78359000D02*
X188849000Y-73914000D01*
X187325000Y-103124000D02*
X186309000Y-103124000D01*
X186309000Y-103124000D02*
X184404000Y-101219000D01*
X184404000Y-101219000D02*
X184404000Y-78359000D01*
X187325000Y-103124000D02*
X192024000Y-103124000D01*
X193929000Y-132334000D02*
X192235000Y-132334000D01*
X196469000Y-129794000D02*
X193929000Y-132334000D01*
X196469000Y-107569000D02*
X196469000Y-129794000D01*
X192024000Y-103124000D02*
X196469000Y-107569000D01*
X190035000Y-132334000D02*
X186055000Y-132334000D01*
X186055000Y-132334000D02*
X185420000Y-131699000D01*
D57*
X83820000Y-76454000D02*
X83820000Y-73279000D01*
X72390000Y-71374000D02*
X68580000Y-67564000D01*
X81915000Y-71374000D02*
X72390000Y-71374000D01*
X83820000Y-73279000D02*
X81915000Y-71374000D01*
D55*
X109982000Y-64008000D02*
X109982000Y-64262000D01*
X109982000Y-64262000D02*
X107950000Y-66294000D01*
X107950000Y-66294000D02*
X102235000Y-66294000D01*
X102235000Y-66294000D02*
X96520000Y-72009000D01*
X96520000Y-72009000D02*
X84455000Y-72009000D01*
X84455000Y-72009000D02*
X83820000Y-72644000D01*
X83820000Y-72644000D02*
X83820000Y-76454000D01*
D56*
X114935000Y-76454000D02*
X114935000Y-78867000D01*
X114046000Y-79756000D02*
X113114000Y-79756000D01*
X114935000Y-78867000D02*
X114046000Y-79756000D01*
D57*
X125984000Y-119557800D02*
X125984000Y-122555000D01*
X125984000Y-122555000D02*
X124460000Y-124079000D01*
D56*
X186194000Y-121539000D02*
X183769000Y-121539000D01*
X183769000Y-124079000D02*
X186194000Y-124079000D01*
D55*
X114935000Y-86614000D02*
X114935000Y-89619000D01*
X114935000Y-89619000D02*
X115105000Y-89789000D01*
D56*
X110914000Y-79756000D02*
X108458000Y-79756000D01*
X108458000Y-79756000D02*
X104140000Y-84074000D01*
D55*
X108755000Y-99314000D02*
X106045000Y-99314000D01*
D56*
X130810000Y-91694000D02*
X123444000Y-91694000D01*
X115824000Y-99314000D02*
X110955000Y-99314000D01*
X123444000Y-91694000D02*
X115824000Y-99314000D01*
X136050000Y-113284000D02*
X134366000Y-113284000D01*
X132842000Y-86614000D02*
X130810000Y-86614000D01*
X133858000Y-87630000D02*
X132842000Y-86614000D01*
X133858000Y-112776000D02*
X133858000Y-87630000D01*
X134366000Y-113284000D02*
X133858000Y-112776000D01*
D55*
X153670000Y-71374000D02*
X154432000Y-71374000D01*
X154432000Y-71374000D02*
X156464000Y-69342000D01*
X156464000Y-69342000D02*
X156464000Y-67818000D01*
X156464000Y-67818000D02*
X154432000Y-65786000D01*
X154432000Y-65786000D02*
X151638000Y-65786000D01*
X151638000Y-65786000D02*
X148844000Y-62992000D01*
X148844000Y-62992000D02*
X148844000Y-59690000D01*
X148844000Y-59690000D02*
X147320000Y-58166000D01*
X147320000Y-58166000D02*
X137668000Y-58166000D01*
X137668000Y-58166000D02*
X133858000Y-61976000D01*
X133858000Y-61976000D02*
X133858000Y-67564000D01*
X133858000Y-67564000D02*
X132588000Y-68834000D01*
X132588000Y-68834000D02*
X130810000Y-68834000D01*
D56*
X130810000Y-84074000D02*
X132334000Y-84074000D01*
X134620000Y-112014000D02*
X136050000Y-112014000D01*
X134620000Y-86360000D02*
X134620000Y-112014000D01*
X132334000Y-84074000D02*
X134620000Y-86360000D01*
X136050000Y-110744000D02*
X137414000Y-110744000D01*
X132842000Y-81534000D02*
X130810000Y-81534000D01*
X137922000Y-86614000D02*
X132842000Y-81534000D01*
X137922000Y-110236000D02*
X137922000Y-86614000D01*
X137414000Y-110744000D02*
X137922000Y-110236000D01*
X187325000Y-98044000D02*
X191389000Y-98044000D01*
X213360000Y-120015000D02*
X213614000Y-120015000D01*
X191389000Y-98044000D02*
X213360000Y-120015000D01*
X117305000Y-89789000D02*
X126365000Y-89789000D01*
X127000000Y-89154000D02*
X130810000Y-89154000D01*
X126365000Y-89789000D02*
X127000000Y-89154000D01*
X219202000Y-127127000D02*
X225828000Y-127127000D01*
X191897000Y-100584000D02*
X218440000Y-127127000D01*
X218440000Y-127127000D02*
X219202000Y-127127000D01*
X187325000Y-100584000D02*
X191897000Y-100584000D01*
X225828000Y-127127000D02*
X226590000Y-127889000D01*
M02*
