solid ascii
  facet normal 0.000000e+000 1.000000e+000 0.000000e+000
    outer loop
      vertex   9.000000e+000 -5.469615e+001 1.000000e+001
      vertex   9.000000e+000 -5.469615e+001 0.000000e+000
      vertex   1.500000e+000 -5.469615e+001 1.000000e+001
    endloop
  endfacet
  facet normal 0.000000e+000 1.000000e+000 0.000000e+000
    outer loop
      vertex   1.500000e+000 -5.469615e+001 1.000000e+001
      vertex   9.000000e+000 -5.469615e+001 0.000000e+000
      vertex   1.500000e+000 -5.469615e+001 0.000000e+000
    endloop
  endfacet
  facet normal 1.000000e+000 -3.552714e-016 0.000000e+000
    outer loop
      vertex   1.500000e+000 -5.469615e+001 1.000000e+001
      vertex   1.500000e+000 -5.469615e+001 0.000000e+000
      vertex   1.500000e+000 -4.719615e+001 1.000000e+001
    endloop
  endfacet
  facet normal 1.000000e+000 -3.552714e-016 0.000000e+000
    outer loop
      vertex   1.500000e+000 -4.719615e+001 1.000000e+001
      vertex   1.500000e+000 -5.469615e+001 0.000000e+000
      vertex   1.500000e+000 -4.719615e+001 0.000000e+000
    endloop
  endfacet
  facet normal 0.000000e+000 0.000000e+000 -1.000000e+000
    outer loop
      vertex   3.314895e+000 -5.166830e+001 1.000000e+001
      vertex   1.500000e+000 -5.469615e+001 1.000000e+001
      vertex   3.250000e+000 -5.119615e+001 1.000000e+001
    endloop
  endfacet
  facet normal 0.000000e+000 0.000000e+000 -1.000000e+000
    outer loop
      vertex   3.314895e+000 -5.166830e+001 1.000000e+001
      vertex   3.504766e+000 -5.210542e+001 1.000000e+001
      vertex   1.500000e+000 -5.469615e+001 1.000000e+001
    endloop
  endfacet
  facet normal 0.000000e+000 0.000000e+000 -1.000000e+000
    outer loop
      vertex   1.500000e+000 -5.469615e+001 1.000000e+001
      vertex   3.504766e+000 -5.210542e+001 1.000000e+001
      vertex   3.805532e+000 -5.247512e+001 1.000000e+001
    endloop
  endfacet
  facet normal 0.000000e+000 0.000000e+000 -1.000000e+000
    outer loop
      vertex   4.194886e+000 -5.274995e+001 1.000000e+001
      vertex   1.500000e+000 -5.469615e+001 1.000000e+001
      vertex   3.805532e+000 -5.247512e+001 1.000000e+001
    endloop
  endfacet
  facet normal 0.000000e+000 0.000000e+000 -1.000000e+000
    outer loop
      vertex   4.194886e+000 -5.274995e+001 1.000000e+001
      vertex   4.643952e+000 -5.290955e+001 1.000000e+001
      vertex   1.500000e+000 -5.469615e+001 1.000000e+001
    endloop
  endfacet
  facet normal 0.000000e+000 0.000000e+000 -1.000000e+000
    outer loop
      vertex   1.500000e+000 -5.469615e+001 1.000000e+001
      vertex   4.643952e+000 -5.290955e+001 1.000000e+001
      vertex   5.119424e+000 -5.294207e+001 1.000000e+001
    endloop
  endfacet
  facet normal 0.000000e+000 0.000000e+000 -1.000000e+000
    outer loop
      vertex   9.000000e+000 -5.469615e+001 1.000000e+001
      vertex   5.119424e+000 -5.294207e+001 1.000000e+001
      vertex   5.586039e+000 -5.284511e+001 1.000000e+001
    endloop
  endfacet
  facet normal 0.000000e+000 0.000000e+000 -1.000000e+000
    outer loop
      vertex   6.009191e+000 -5.262585e+001 1.000000e+001
      vertex   9.000000e+000 -5.469615e+001 1.000000e+001
      vertex   5.586039e+000 -5.284511e+001 1.000000e+001
    endloop
  endfacet
  facet normal 0.000000e+000 0.000000e+000 -1.000000e+000
    outer loop
      vertex   6.009191e+000 -5.262585e+001 1.000000e+001
      vertex   6.357495e+000 -5.230056e+001 1.000000e+001
      vertex   9.000000e+000 -5.469615e+001 1.000000e+001
    endloop
  endfacet
  facet normal 0.000000e+000 0.000000e+000 -1.000000e+000
    outer loop
      vertex   9.000000e+000 -5.469615e+001 1.000000e+001
      vertex   6.357495e+000 -5.230056e+001 1.000000e+001
      vertex   6.605120e+000 -5.189335e+001 1.000000e+001
    endloop
  endfacet
  facet normal 0.000000e+000 0.000000e+000 -1.000000e+000
    outer loop
      vertex   6.733700e+000 -5.143444e+001 1.000000e+001
      vertex   9.000000e+000 -5.469615e+001 1.000000e+001
      vertex   6.605120e+000 -5.189335e+001 1.000000e+001
    endloop
  endfacet
  facet normal 0.000000e+000 0.000000e+000 -1.000000e+000
    outer loop
      vertex   6.733700e+000 -5.143444e+001 1.000000e+001
      vertex   9.000000e+000 -4.919615e+001 1.000000e+001
      vertex   9.000000e+000 -5.469615e+001 1.000000e+001
    endloop
  endfacet
  facet normal 0.000000e+000 0.000000e+000 -1.000000e+000
    outer loop
      vertex   6.733700e+000 -5.143444e+001 1.000000e+001
      vertex   6.733700e+000 -5.095786e+001 1.000000e+001
      vertex   9.000000e+000 -4.919615e+001 1.000000e+001
    endloop
  endfacet
  facet normal 0.000000e+000 0.000000e+000 -1.000000e+000
    outer loop
      vertex   9.000000e+000 -4.919615e+001 1.000000e+001
      vertex   6.733700e+000 -5.095786e+001 1.000000e+001
      vertex   6.605120e+000 -5.049895e+001 1.000000e+001
    endloop
  endfacet
  facet normal 0.000000e+000 0.000000e+000 -1.000000e+000
    outer loop
      vertex   6.357495e+000 -5.009175e+001 1.000000e+001
      vertex   9.000000e+000 -4.919615e+001 1.000000e+001
      vertex   6.605120e+000 -5.049895e+001 1.000000e+001
    endloop
  endfacet
  facet normal 0.000000e+000 0.000000e+000 -1.000000e+000
    outer loop
      vertex   6.357495e+000 -5.009175e+001 1.000000e+001
      vertex   8.949856e+000 -4.875111e+001 1.000000e+001
      vertex   9.000000e+000 -4.919615e+001 1.000000e+001
    endloop
  endfacet
  facet normal 0.000000e+000 0.000000e+000 -1.000000e+000
    outer loop
      vertex   6.357495e+000 -5.009175e+001 1.000000e+001
      vertex   8.801938e+000 -4.832838e+001 1.000000e+001
      vertex   8.949856e+000 -4.875111e+001 1.000000e+001
    endloop
  endfacet
  facet normal 0.000000e+000 0.000000e+000 -1.000000e+000
    outer loop
      vertex   6.357495e+000 -5.009175e+001 1.000000e+001
      vertex   8.563663e+000 -4.794917e+001 1.000000e+001
      vertex   8.801938e+000 -4.832838e+001 1.000000e+001
    endloop
  endfacet
  facet normal 0.000000e+000 0.000000e+000 -1.000000e+000
    outer loop
      vertex   6.357495e+000 -5.009175e+001 1.000000e+001
      vertex   8.246980e+000 -4.763249e+001 1.000000e+001
      vertex   8.563663e+000 -4.794917e+001 1.000000e+001
    endloop
  endfacet
  facet normal 0.000000e+000 0.000000e+000 -1.000000e+000
    outer loop
      vertex   6.357495e+000 -5.009175e+001 1.000000e+001
      vertex   7.867767e+000 -4.739421e+001 1.000000e+001
      vertex   8.246980e+000 -4.763249e+001 1.000000e+001
    endloop
  endfacet
  facet normal 0.000000e+000 0.000000e+000 -1.000000e+000
    outer loop
      vertex   6.357495e+000 -5.009175e+001 1.000000e+001
      vertex   6.009191e+000 -4.976646e+001 1.000000e+001
      vertex   7.867767e+000 -4.739421e+001 1.000000e+001
    endloop
  endfacet
  facet normal 0.000000e+000 0.000000e+000 -1.000000e+000
    outer loop
      vertex   7.867767e+000 -4.739421e+001 1.000000e+001
      vertex   6.009191e+000 -4.976646e+001 1.000000e+001
      vertex   7.445042e+000 -4.724630e+001 1.000000e+001
    endloop
  endfacet
  facet normal 0.000000e+000 0.000000e+000 -1.000000e+000
    outer loop
      vertex   7.445042e+000 -4.724630e+001 1.000000e+001
      vertex   6.009191e+000 -4.976646e+001 1.000000e+001
      vertex   7.000000e+000 -4.719615e+001 1.000000e+001
    endloop
  endfacet
  facet normal 0.000000e+000 0.000000e+000 -1.000000e+000
    outer loop
      vertex   7.000000e+000 -4.719615e+001 1.000000e+001
      vertex   6.009191e+000 -4.976646e+001 1.000000e+001
      vertex   5.586039e+000 -4.954720e+001 1.000000e+001
    endloop
  endfacet
  facet normal 0.000000e+000 0.000000e+000 -1.000000e+000
    outer loop
      vertex   5.119424e+000 -4.945023e+001 1.000000e+001
      vertex   7.000000e+000 -4.719615e+001 1.000000e+001
      vertex   5.586039e+000 -4.954720e+001 1.000000e+001
    endloop
  endfacet
  facet normal 0.000000e+000 0.000000e+000 -1.000000e+000
    outer loop
      vertex   5.119424e+000 -4.945023e+001 1.000000e+001
      vertex   4.643952e+000 -4.948276e+001 1.000000e+001
      vertex   7.000000e+000 -4.719615e+001 1.000000e+001
    endloop
  endfacet
  facet normal 0.000000e+000 0.000000e+000 -1.000000e+000
    outer loop
      vertex   7.000000e+000 -4.719615e+001 1.000000e+001
      vertex   4.643952e+000 -4.948276e+001 1.000000e+001
      vertex   1.500000e+000 -4.719615e+001 1.000000e+001
    endloop
  endfacet
  facet normal 0.000000e+000 0.000000e+000 -1.000000e+000
    outer loop
      vertex   1.500000e+000 -4.719615e+001 1.000000e+001
      vertex   4.643952e+000 -4.948276e+001 1.000000e+001
      vertex   4.194886e+000 -4.964235e+001 1.000000e+001
    endloop
  endfacet
  facet normal 0.000000e+000 0.000000e+000 -1.000000e+000
    outer loop
      vertex   3.805532e+000 -4.991719e+001 1.000000e+001
      vertex   1.500000e+000 -4.719615e+001 1.000000e+001
      vertex   4.194886e+000 -4.964235e+001 1.000000e+001
    endloop
  endfacet
  facet normal 0.000000e+000 0.000000e+000 -1.000000e+000
    outer loop
      vertex   3.805532e+000 -4.991719e+001 1.000000e+001
      vertex   3.504766e+000 -5.028688e+001 1.000000e+001
      vertex   1.500000e+000 -4.719615e+001 1.000000e+001
    endloop
  endfacet
  facet normal 0.000000e+000 0.000000e+000 -1.000000e+000
    outer loop
      vertex   1.500000e+000 -4.719615e+001 1.000000e+001
      vertex   3.504766e+000 -5.028688e+001 1.000000e+001
      vertex   3.314895e+000 -5.072401e+001 1.000000e+001
    endloop
  endfacet
  facet normal 0.000000e+000 0.000000e+000 -1.000000e+000
    outer loop
      vertex   3.250000e+000 -5.119615e+001 1.000000e+001
      vertex   1.500000e+000 -4.719615e+001 1.000000e+001
      vertex   3.314895e+000 -5.072401e+001 1.000000e+001
    endloop
  endfacet
  facet normal 0.000000e+000 0.000000e+000 -1.000000e+000
    outer loop
      vertex   3.250000e+000 -5.119615e+001 1.000000e+001
      vertex   1.500000e+000 -5.469615e+001 1.000000e+001
      vertex   1.500000e+000 -4.719615e+001 1.000000e+001
    endloop
  endfacet
  facet normal 0.000000e+000 0.000000e+000 -1.000000e+000
    outer loop
      vertex   1.500000e+000 -5.469615e+001 1.000000e+001
      vertex   5.119424e+000 -5.294207e+001 1.000000e+001
      vertex   9.000000e+000 -5.469615e+001 1.000000e+001
    endloop
  endfacet
  facet normal 1.000000e+000 0.000000e+000 0.000000e+000
    outer loop
      vertex   9.000000e+000 -5.469615e+001 0.000000e+000
      vertex   9.000000e+000 -5.469615e+001 1.000000e+001
      vertex   9.000000e+000 -5.719615e+001 0.000000e+000
    endloop
  endfacet
  facet normal 1.000000e+000 0.000000e+000 0.000000e+000
    outer loop
      vertex   9.000000e+000 -5.719615e+001 0.000000e+000
      vertex   9.000000e+000 -5.469615e+001 1.000000e+001
      vertex   9.000000e+000 -5.469615e+001 9.600000e+001
    endloop
  endfacet
  facet normal 1.000000e+000 0.000000e+000 0.000000e+000
    outer loop
      vertex   9.000000e+000 -5.719615e+001 1.060000e+002
      vertex   9.000000e+000 -5.469615e+001 9.600000e+001
      vertex   9.000000e+000 -5.469615e+001 1.060000e+002
    endloop
  endfacet
  facet normal 1.000000e+000 0.000000e+000 0.000000e+000
    outer loop
      vertex   9.000000e+000 -5.719615e+001 1.060000e+002
      vertex   9.000000e+000 -5.719615e+001 0.000000e+000
      vertex   9.000000e+000 -5.469615e+001 9.600000e+001
    endloop
  endfacet
  facet normal 1.000000e+000 0.000000e+000 0.000000e+000
    outer loop
      vertex   9.000000e+000 -4.919615e+001 1.000000e+001
      vertex   9.000000e+000 -4.919615e+001 9.600000e+001
      vertex   9.000000e+000 -5.469615e+001 1.000000e+001
    endloop
  endfacet
  facet normal 1.000000e+000 0.000000e+000 0.000000e+000
    outer loop
      vertex   9.000000e+000 -5.469615e+001 1.000000e+001
      vertex   9.000000e+000 -4.919615e+001 9.600000e+001
      vertex   9.000000e+000 -5.469615e+001 9.600000e+001
    endloop
  endfacet
  facet normal 9.937122e-001 1.119645e-001 0.000000e+000
    outer loop
      vertex   9.000000e+000 -4.919615e+001 9.600000e+001
      vertex   9.000000e+000 -4.919615e+001 1.000000e+001
      vertex   8.949856e+000 -4.875111e+001 9.600000e+001
    endloop
  endfacet
  facet normal 9.937122e-001 1.119645e-001 0.000000e+000
    outer loop
      vertex   8.949856e+000 -4.875111e+001 9.600000e+001
      vertex   9.000000e+000 -4.919615e+001 1.000000e+001
      vertex   8.949856e+000 -4.875111e+001 1.000000e+001
    endloop
  endfacet
  facet normal 9.438833e-001 3.302791e-001 0.000000e+000
    outer loop
      vertex   8.801938e+000 -4.832838e+001 1.000000e+001
      vertex   8.949856e+000 -4.875111e+001 9.600000e+001
      vertex   8.949856e+000 -4.875111e+001 1.000000e+001
    endloop
  endfacet
  facet normal 9.438833e-001 3.302791e-001 0.000000e+000
    outer loop
      vertex   8.801938e+000 -4.832838e+001 1.000000e+001
      vertex   8.801938e+000 -4.832838e+001 9.600000e+001
      vertex   8.949856e+000 -4.875111e+001 9.600000e+001
    endloop
  endfacet
  facet normal 8.467242e-001 5.320321e-001 0.000000e+000
    outer loop
      vertex   8.801938e+000 -4.832838e+001 1.000000e+001
      vertex   8.563663e+000 -4.794917e+001 1.000000e+001
      vertex   8.801938e+000 -4.832838e+001 9.600000e+001
    endloop
  endfacet
  facet normal 8.467242e-001 5.320321e-001 0.000000e+000
    outer loop
      vertex   8.801938e+000 -4.832838e+001 9.600000e+001
      vertex   8.563663e+000 -4.794917e+001 1.000000e+001
      vertex   8.563663e+000 -4.794917e+001 9.600000e+001
    endloop
  endfacet
  facet normal 7.071068e-001 7.071068e-001 0.000000e+000
    outer loop
      vertex   8.563663e+000 -4.794917e+001 9.600000e+001
      vertex   8.563663e+000 -4.794917e+001 1.000000e+001
      vertex   8.246980e+000 -4.763249e+001 1.000000e+001
    endloop
  endfacet
  facet normal 5.320321e-001 8.467242e-001 0.000000e+000
    outer loop
      vertex   8.246980e+000 -4.763249e+001 9.600000e+001
      vertex   8.246980e+000 -4.763249e+001 1.000000e+001
      vertex   7.867767e+000 -4.739421e+001 1.000000e+001
    endloop
  endfacet
  facet normal 3.302791e-001 9.438833e-001 0.000000e+000
    outer loop
      vertex   7.867767e+000 -4.739421e+001 9.600000e+001
      vertex   7.867767e+000 -4.739421e+001 1.000000e+001
      vertex   7.445042e+000 -4.724630e+001 1.000000e+001
    endloop
  endfacet
  facet normal 1.119645e-001 9.937122e-001 0.000000e+000
    outer loop
      vertex   7.445042e+000 -4.724630e+001 9.600000e+001
      vertex   7.445042e+000 -4.724630e+001 1.000000e+001
      vertex   7.000000e+000 -4.719615e+001 9.600000e+001
    endloop
  endfacet
  facet normal 3.302791e-001 9.438833e-001 0.000000e+000
    outer loop
      vertex   7.445042e+000 -4.724630e+001 9.600000e+001
      vertex   7.867767e+000 -4.739421e+001 9.600000e+001
      vertex   7.445042e+000 -4.724630e+001 1.000000e+001
    endloop
  endfacet
  facet normal 7.071068e-001 7.071068e-001 0.000000e+000
    outer loop
      vertex   8.563663e+000 -4.794917e+001 9.600000e+001
      vertex   8.246980e+000 -4.763249e+001 1.000000e+001
      vertex   8.246980e+000 -4.763249e+001 9.600000e+001
    endloop
  endfacet
  facet normal 5.320321e-001 8.467242e-001 0.000000e+000
    outer loop
      vertex   8.246980e+000 -4.763249e+001 9.600000e+001
      vertex   7.867767e+000 -4.739421e+001 1.000000e+001
      vertex   7.867767e+000 -4.739421e+001 9.600000e+001
    endloop
  endfacet
  facet normal 1.119645e-001 9.937122e-001 0.000000e+000
    outer loop
      vertex   7.445042e+000 -4.724630e+001 1.000000e+001
      vertex   7.000000e+000 -4.719615e+001 1.000000e+001
      vertex   7.000000e+000 -4.719615e+001 9.600000e+001
    endloop
  endfacet
  facet normal 1.000000e+000 1.480297e-016 0.000000e+000
    outer loop
      vertex   1.500000e+000 -4.719615e+001 9.600000e+001
      vertex   1.500000e+000 -4.719615e+001 1.060000e+002
      vertex   1.500000e+000 -5.469615e+001 9.600000e+001
    endloop
  endfacet
  facet normal 1.000000e+000 1.480297e-016 0.000000e+000
    outer loop
      vertex   1.500000e+000 -5.469615e+001 9.600000e+001
      vertex   1.500000e+000 -4.719615e+001 1.060000e+002
      vertex   1.500000e+000 -5.469615e+001 1.060000e+002
    endloop
  endfacet
  facet normal 1.894781e-015 1.000000e+000 0.000000e+000
    outer loop
      vertex   1.500000e+000 -5.469615e+001 9.600000e+001
      vertex   1.500000e+000 -5.469615e+001 1.060000e+002
      vertex   9.000000e+000 -5.469615e+001 9.600000e+001
    endloop
  endfacet
  facet normal 1.894781e-015 1.000000e+000 0.000000e+000
    outer loop
      vertex   9.000000e+000 -5.469615e+001 9.600000e+001
      vertex   1.500000e+000 -5.469615e+001 1.060000e+002
      vertex   9.000000e+000 -5.469615e+001 1.060000e+002
    endloop
  endfacet
  facet normal -1.821313e-014 2.759520e-014 1.000000e+000
    outer loop
      vertex   6.685105e+000 -5.072401e+001 9.600000e+001
      vertex   6.750000e+000 -5.119615e+001 9.600000e+001
      vertex   9.000000e+000 -4.919615e+001 9.600000e+001
    endloop
  endfacet
  facet normal 0.000000e+000 0.000000e+000 1.000000e+000
    outer loop
      vertex   6.495234e+000 -5.028688e+001 9.600000e+001
      vertex   9.000000e+000 -4.919615e+001 9.600000e+001
      vertex   6.194468e+000 -4.991719e+001 9.600000e+001
    endloop
  endfacet
  facet normal 0.000000e+000 0.000000e+000 1.000000e+000
    outer loop
      vertex   6.495234e+000 -5.028688e+001 9.600000e+001
      vertex   6.685105e+000 -5.072401e+001 9.600000e+001
      vertex   9.000000e+000 -4.919615e+001 9.600000e+001
    endloop
  endfacet
  facet normal 0.000000e+000 0.000000e+000 1.000000e+000
    outer loop
      vertex   6.495234e+000 -5.210542e+001 9.600000e+001
      vertex   9.000000e+000 -5.469615e+001 9.600000e+001
      vertex   6.685105e+000 -5.166830e+001 9.600000e+001
    endloop
  endfacet
  facet normal 0.000000e+000 0.000000e+000 1.000000e+000
    outer loop
      vertex   6.495234e+000 -5.210542e+001 9.600000e+001
      vertex   6.194468e+000 -5.247512e+001 9.600000e+001
      vertex   9.000000e+000 -5.469615e+001 9.600000e+001
    endloop
  endfacet
  facet normal 0.000000e+000 0.000000e+000 1.000000e+000
    outer loop
      vertex   9.000000e+000 -5.469615e+001 9.600000e+001
      vertex   6.194468e+000 -5.247512e+001 9.600000e+001
      vertex   5.805114e+000 -5.274995e+001 9.600000e+001
    endloop
  endfacet
  facet normal 0.000000e+000 0.000000e+000 1.000000e+000
    outer loop
      vertex   5.356048e+000 -5.290955e+001 9.600000e+001
      vertex   9.000000e+000 -5.469615e+001 9.600000e+001
      vertex   5.805114e+000 -5.274995e+001 9.600000e+001
    endloop
  endfacet
  facet normal 0.000000e+000 0.000000e+000 1.000000e+000
    outer loop
      vertex   5.356048e+000 -5.290955e+001 9.600000e+001
      vertex   4.880576e+000 -5.294207e+001 9.600000e+001
      vertex   9.000000e+000 -5.469615e+001 9.600000e+001
    endloop
  endfacet
  facet normal 0.000000e+000 0.000000e+000 1.000000e+000
    outer loop
      vertex   9.000000e+000 -5.469615e+001 9.600000e+001
      vertex   4.880576e+000 -5.294207e+001 9.600000e+001
      vertex   1.500000e+000 -5.469615e+001 9.600000e+001
    endloop
  endfacet
  facet normal 0.000000e+000 0.000000e+000 1.000000e+000
    outer loop
      vertex   1.500000e+000 -5.469615e+001 9.600000e+001
      vertex   4.880576e+000 -5.294207e+001 9.600000e+001
      vertex   4.413961e+000 -5.284511e+001 9.600000e+001
    endloop
  endfacet
  facet normal 0.000000e+000 0.000000e+000 1.000000e+000
    outer loop
      vertex   3.990809e+000 -5.262585e+001 9.600000e+001
      vertex   1.500000e+000 -5.469615e+001 9.600000e+001
      vertex   4.413961e+000 -5.284511e+001 9.600000e+001
    endloop
  endfacet
  facet normal 0.000000e+000 0.000000e+000 1.000000e+000
    outer loop
      vertex   3.990809e+000 -5.262585e+001 9.600000e+001
      vertex   3.642505e+000 -5.230056e+001 9.600000e+001
      vertex   1.500000e+000 -5.469615e+001 9.600000e+001
    endloop
  endfacet
  facet normal 0.000000e+000 0.000000e+000 1.000000e+000
    outer loop
      vertex   1.500000e+000 -5.469615e+001 9.600000e+001
      vertex   3.642505e+000 -5.230056e+001 9.600000e+001
      vertex   3.394880e+000 -5.189335e+001 9.600000e+001
    endloop
  endfacet
  facet normal 0.000000e+000 0.000000e+000 1.000000e+000
    outer loop
      vertex   3.266300e+000 -5.143444e+001 9.600000e+001
      vertex   1.500000e+000 -5.469615e+001 9.600000e+001
      vertex   3.394880e+000 -5.189335e+001 9.600000e+001
    endloop
  endfacet
  facet normal 0.000000e+000 0.000000e+000 1.000000e+000
    outer loop
      vertex   3.266300e+000 -5.143444e+001 9.600000e+001
      vertex   3.266300e+000 -5.095786e+001 9.600000e+001
      vertex   1.500000e+000 -5.469615e+001 9.600000e+001
    endloop
  endfacet
  facet normal 0.000000e+000 0.000000e+000 1.000000e+000
    outer loop
      vertex   1.500000e+000 -5.469615e+001 9.600000e+001
      vertex   3.266300e+000 -5.095786e+001 9.600000e+001
      vertex   1.500000e+000 -4.719615e+001 9.600000e+001
    endloop
  endfacet
  facet normal 0.000000e+000 0.000000e+000 1.000000e+000
    outer loop
      vertex   1.500000e+000 -4.719615e+001 9.600000e+001
      vertex   3.266300e+000 -5.095786e+001 9.600000e+001
      vertex   3.394880e+000 -5.049895e+001 9.600000e+001
    endloop
  endfacet
  facet normal 0.000000e+000 0.000000e+000 1.000000e+000
    outer loop
      vertex   3.642505e+000 -5.009175e+001 9.600000e+001
      vertex   1.500000e+000 -4.719615e+001 9.600000e+001
      vertex   3.394880e+000 -5.049895e+001 9.600000e+001
    endloop
  endfacet
  facet normal 0.000000e+000 0.000000e+000 1.000000e+000
    outer loop
      vertex   3.642505e+000 -5.009175e+001 9.600000e+001
      vertex   3.990809e+000 -4.976646e+001 9.600000e+001
      vertex   1.500000e+000 -4.719615e+001 9.600000e+001
    endloop
  endfacet
  facet normal 0.000000e+000 0.000000e+000 1.000000e+000
    outer loop
      vertex   1.500000e+000 -4.719615e+001 9.600000e+001
      vertex   3.990809e+000 -4.976646e+001 9.600000e+001
      vertex   4.413961e+000 -4.954720e+001 9.600000e+001
    endloop
  endfacet
  facet normal 0.000000e+000 0.000000e+000 1.000000e+000
    outer loop
      vertex   4.880576e+000 -4.945023e+001 9.600000e+001
      vertex   1.500000e+000 -4.719615e+001 9.600000e+001
      vertex   4.413961e+000 -4.954720e+001 9.600000e+001
    endloop
  endfacet
  facet normal 0.000000e+000 0.000000e+000 1.000000e+000
    outer loop
      vertex   4.880576e+000 -4.945023e+001 9.600000e+001
      vertex   7.000000e+000 -4.719615e+001 9.600000e+001
      vertex   1.500000e+000 -4.719615e+001 9.600000e+001
    endloop
  endfacet
  facet normal 0.000000e+000 0.000000e+000 1.000000e+000
    outer loop
      vertex   4.880576e+000 -4.945023e+001 9.600000e+001
      vertex   5.356048e+000 -4.948276e+001 9.600000e+001
      vertex   7.000000e+000 -4.719615e+001 9.600000e+001
    endloop
  endfacet
  facet normal 0.000000e+000 0.000000e+000 1.000000e+000
    outer loop
      vertex   7.000000e+000 -4.719615e+001 9.600000e+001
      vertex   5.356048e+000 -4.948276e+001 9.600000e+001
      vertex   5.805114e+000 -4.964235e+001 9.600000e+001
    endloop
  endfacet
  facet normal 0.000000e+000 0.000000e+000 1.000000e+000
    outer loop
      vertex   6.194468e+000 -4.991719e+001 9.600000e+001
      vertex   7.000000e+000 -4.719615e+001 9.600000e+001
      vertex   5.805114e+000 -4.964235e+001 9.600000e+001
    endloop
  endfacet
  facet normal 0.000000e+000 0.000000e+000 1.000000e+000
    outer loop
      vertex   6.194468e+000 -4.991719e+001 9.600000e+001
      vertex   7.445042e+000 -4.724630e+001 9.600000e+001
      vertex   7.000000e+000 -4.719615e+001 9.600000e+001
    endloop
  endfacet
  facet normal 0.000000e+000 0.000000e+000 1.000000e+000
    outer loop
      vertex   6.194468e+000 -4.991719e+001 9.600000e+001
      vertex   7.867767e+000 -4.739421e+001 9.600000e+001
      vertex   7.445042e+000 -4.724630e+001 9.600000e+001
    endloop
  endfacet
  facet normal 0.000000e+000 0.000000e+000 1.000000e+000
    outer loop
      vertex   6.194468e+000 -4.991719e+001 9.600000e+001
      vertex   8.246980e+000 -4.763249e+001 9.600000e+001
      vertex   7.867767e+000 -4.739421e+001 9.600000e+001
    endloop
  endfacet
  facet normal 0.000000e+000 0.000000e+000 1.000000e+000
    outer loop
      vertex   6.194468e+000 -4.991719e+001 9.600000e+001
      vertex   8.563663e+000 -4.794917e+001 9.600000e+001
      vertex   8.246980e+000 -4.763249e+001 9.600000e+001
    endloop
  endfacet
  facet normal 0.000000e+000 0.000000e+000 1.000000e+000
    outer loop
      vertex   6.194468e+000 -4.991719e+001 9.600000e+001
      vertex   8.801938e+000 -4.832838e+001 9.600000e+001
      vertex   8.563663e+000 -4.794917e+001 9.600000e+001
    endloop
  endfacet
  facet normal 0.000000e+000 0.000000e+000 1.000000e+000
    outer loop
      vertex   6.194468e+000 -4.991719e+001 9.600000e+001
      vertex   8.949856e+000 -4.875111e+001 9.600000e+001
      vertex   8.801938e+000 -4.832838e+001 9.600000e+001
    endloop
  endfacet
  facet normal 0.000000e+000 0.000000e+000 1.000000e+000
    outer loop
      vertex   6.194468e+000 -4.991719e+001 9.600000e+001
      vertex   9.000000e+000 -4.919615e+001 9.600000e+001
      vertex   8.949856e+000 -4.875111e+001 9.600000e+001
    endloop
  endfacet
  facet normal 0.000000e+000 0.000000e+000 1.000000e+000
    outer loop
      vertex   9.000000e+000 -5.469615e+001 9.600000e+001
      vertex   9.000000e+000 -4.919615e+001 9.600000e+001
      vertex   6.685105e+000 -5.166830e+001 9.600000e+001
    endloop
  endfacet
  facet normal 3.767287e-014 -3.527656e-014 1.000000e+000
    outer loop
      vertex   6.685105e+000 -5.166830e+001 9.600000e+001
      vertex   9.000000e+000 -4.919615e+001 9.600000e+001
      vertex   6.750000e+000 -5.119615e+001 9.600000e+001
    endloop
  endfacet
  facet normal 0.000000e+000 1.000000e+000 0.000000e+000
    outer loop
      vertex   1.500000e+000 -4.719615e+001 0.000000e+000
      vertex   -1.000000e+000 -4.719615e+001 0.000000e+000
      vertex   1.500000e+000 -4.719615e+001 1.000000e+001
    endloop
  endfacet
  facet normal 0.000000e+000 1.000000e+000 0.000000e+000
    outer loop
      vertex   1.500000e+000 -4.719615e+001 1.000000e+001
      vertex   -1.000000e+000 -4.719615e+001 0.000000e+000
      vertex   1.500000e+000 -4.719615e+001 9.600000e+001
    endloop
  endfacet
  facet normal 0.000000e+000 1.000000e+000 0.000000e+000
    outer loop
      vertex   7.000000e+000 -4.719615e+001 9.600000e+001
      vertex   1.500000e+000 -4.719615e+001 1.000000e+001
      vertex   1.500000e+000 -4.719615e+001 9.600000e+001
    endloop
  endfacet
  facet normal 0.000000e+000 1.000000e+000 0.000000e+000
    outer loop
      vertex   7.000000e+000 -4.719615e+001 9.600000e+001
      vertex   7.000000e+000 -4.719615e+001 1.000000e+001
      vertex   1.500000e+000 -4.719615e+001 1.000000e+001
    endloop
  endfacet
  facet normal 0.000000e+000 1.000000e+000 0.000000e+000
    outer loop
      vertex   -1.000000e+000 -4.719615e+001 0.000000e+000
      vertex   -1.000000e+000 -4.719615e+001 1.060000e+002
      vertex   1.500000e+000 -4.719615e+001 9.600000e+001
    endloop
  endfacet
  facet normal 0.000000e+000 1.000000e+000 0.000000e+000
    outer loop
      vertex   1.500000e+000 -4.719615e+001 9.600000e+001
      vertex   -1.000000e+000 -4.719615e+001 1.060000e+002
      vertex   1.500000e+000 -4.719615e+001 1.060000e+002
    endloop
  endfacet
  facet normal 0.000000e+000 0.000000e+000 -1.000000e+000
    outer loop
      vertex   9.000000e+000 -5.469615e+001 0.000000e+000
      vertex   7.000000e+000 -5.719615e+001 0.000000e+000
      vertex   1.500000e+000 -5.469615e+001 0.000000e+000
    endloop
  endfacet
  facet normal 0.000000e+000 0.000000e+000 -1.000000e+000
    outer loop
      vertex   9.000000e+000 -5.469615e+001 0.000000e+000
      vertex   9.000000e+000 -5.719615e+001 0.000000e+000
      vertex   7.000000e+000 -5.719615e+001 0.000000e+000
    endloop
  endfacet
  facet normal 0.000000e+000 0.000000e+000 -1.000000e+000
    outer loop
      vertex   7.000000e+000 -5.819615e+001 0.000000e+000
      vertex   5.291796e+000 -5.860883e+001 0.000000e+000
      vertex   7.000000e+000 -5.719615e+001 0.000000e+000
    endloop
  endfacet
  facet normal 0.000000e+000 0.000000e+000 -1.000000e+000
    outer loop
      vertex   7.000000e+000 -5.819615e+001 0.000000e+000
      vertex   6.505060e+000 -5.893392e+001 0.000000e+000
      vertex   5.291796e+000 -5.860883e+001 0.000000e+000
    endloop
  endfacet
  facet normal 0.000000e+000 0.000000e+000 -1.000000e+000
    outer loop
      vertex   7.000000e+000 -5.819615e+001 0.000000e+000
      vertex   7.745658e+000 -5.913042e+001 0.000000e+000
      vertex   6.505060e+000 -5.893392e+001 0.000000e+000
    endloop
  endfacet
  facet normal 0.000000e+000 0.000000e+000 -1.000000e+000
    outer loop
      vertex   7.000000e+000 -5.819615e+001 0.000000e+000
      vertex   9.000000e+000 -5.819615e+001 0.000000e+000
      vertex   7.745658e+000 -5.913042e+001 0.000000e+000
    endloop
  endfacet
  facet normal 0.000000e+000 0.000000e+000 -1.000000e+000
    outer loop
      vertex   7.745658e+000 -5.913042e+001 0.000000e+000
      vertex   9.000000e+000 -5.819615e+001 0.000000e+000
      vertex   9.000000e+000 -5.919615e+001 0.000000e+000
    endloop
  endfacet
  facet normal 0.000000e+000 0.000000e+000 -1.000000e+000
    outer loop
      vertex   5.291796e+000 -5.860883e+001 0.000000e+000
      vertex   4.119160e+000 -5.815870e+001 0.000000e+000
      vertex   7.000000e+000 -5.719615e+001 0.000000e+000
    endloop
  endfacet
  facet normal 0.000000e+000 0.000000e+000 -1.000000e+000
    outer loop
      vertex   7.000000e+000 -5.719615e+001 0.000000e+000
      vertex   4.119160e+000 -5.815870e+001 0.000000e+000
      vertex   3.000000e+000 -5.758846e+001 0.000000e+000
    endloop
  endfacet
  facet normal 0.000000e+000 0.000000e+000 -1.000000e+000
    outer loop
      vertex   1.500000e+000 -5.469615e+001 0.000000e+000
      vertex   3.000000e+000 -5.758846e+001 0.000000e+000
      vertex   1.946577e+000 -5.690436e+001 0.000000e+000
    endloop
  endfacet
  facet normal 0.000000e+000 0.000000e+000 -1.000000e+000
    outer loop
      vertex   9.704327e-001 -5.611389e+001 0.000000e+000
      vertex   1.500000e+000 -5.469615e+001 0.000000e+000
      vertex   1.946577e+000 -5.690436e+001 0.000000e+000
    endloop
  endfacet
  facet normal 0.000000e+000 0.000000e+000 -1.000000e+000
    outer loop
      vertex   9.704327e-001 -5.611389e+001 0.000000e+000
      vertex   8.226209e-002 -5.522572e+001 0.000000e+000
      vertex   1.500000e+000 -5.469615e+001 0.000000e+000
    endloop
  endfacet
  facet normal 0.000000e+000 0.000000e+000 -1.000000e+000
    outer loop
      vertex   1.500000e+000 -5.469615e+001 0.000000e+000
      vertex   8.226209e-002 -5.522572e+001 0.000000e+000
      vertex   -7.082039e-001 -5.424958e+001 0.000000e+000
    endloop
  endfacet
  facet normal 0.000000e+000 0.000000e+000 -1.000000e+000
    outer loop
      vertex   -1.392305e+000 -5.319615e+001 0.000000e+000
      vertex   1.500000e+000 -5.469615e+001 0.000000e+000
      vertex   -7.082039e-001 -5.424958e+001 0.000000e+000
    endloop
  endfacet
  facet normal 0.000000e+000 0.000000e+000 -1.000000e+000
    outer loop
      vertex   -1.392305e+000 -5.319615e+001 0.000000e+000
      vertex   -1.000000e+000 -4.919615e+001 0.000000e+000
      vertex   1.500000e+000 -5.469615e+001 0.000000e+000
    endloop
  endfacet
  facet normal 0.000000e+000 0.000000e+000 -1.000000e+000
    outer loop
      vertex   -1.392305e+000 -5.319615e+001 0.000000e+000
      vertex   -1.962545e+000 -5.207699e+001 0.000000e+000
      vertex   -1.000000e+000 -4.919615e+001 0.000000e+000
    endloop
  endfacet
  facet normal 0.000000e+000 0.000000e+000 -1.000000e+000
    outer loop
      vertex   -1.000000e+000 -4.919615e+001 0.000000e+000
      vertex   -1.962545e+000 -5.207699e+001 0.000000e+000
      vertex   -2.412678e+000 -5.090436e+001 0.000000e+000
    endloop
  endfacet
  facet normal 0.000000e+000 0.000000e+000 -1.000000e+000
    outer loop
      vertex   -2.000000e+000 -4.919615e+001 0.000000e+000
      vertex   -2.412678e+000 -5.090436e+001 0.000000e+000
      vertex   -2.737771e+000 -4.969109e+001 0.000000e+000
    endloop
  endfacet
  facet normal 0.000000e+000 0.000000e+000 -1.000000e+000
    outer loop
      vertex   -2.934263e+000 -4.845049e+001 0.000000e+000
      vertex   -2.000000e+000 -4.919615e+001 0.000000e+000
      vertex   -2.737771e+000 -4.969109e+001 0.000000e+000
    endloop
  endfacet
  facet normal 0.000000e+000 0.000000e+000 -1.000000e+000
    outer loop
      vertex   -2.934263e+000 -4.845049e+001 0.000000e+000
      vertex   -2.000000e+000 -4.719615e+001 0.000000e+000
      vertex   -2.000000e+000 -4.919615e+001 0.000000e+000
    endloop
  endfacet
  facet normal 0.000000e+000 0.000000e+000 -1.000000e+000
    outer loop
      vertex   -2.934263e+000 -4.845049e+001 0.000000e+000
      vertex   -3.000000e+000 -4.719615e+001 0.000000e+000
      vertex   -2.000000e+000 -4.719615e+001 0.000000e+000
    endloop
  endfacet
  facet normal 0.000000e+000 0.000000e+000 -1.000000e+000
    outer loop
      vertex   7.000000e+000 -5.719615e+001 0.000000e+000
      vertex   3.000000e+000 -5.758846e+001 0.000000e+000
      vertex   1.500000e+000 -5.469615e+001 0.000000e+000
    endloop
  endfacet
  facet normal 0.000000e+000 0.000000e+000 -1.000000e+000
    outer loop
      vertex   -1.000000e+000 -4.919615e+001 0.000000e+000
      vertex   -2.412678e+000 -5.090436e+001 0.000000e+000
      vertex   -2.000000e+000 -4.919615e+001 0.000000e+000
    endloop
  endfacet
  facet normal 0.000000e+000 0.000000e+000 -1.000000e+000
    outer loop
      vertex   -1.000000e+000 -4.719615e+001 0.000000e+000
      vertex   1.500000e+000 -4.719615e+001 0.000000e+000
      vertex   -1.000000e+000 -4.919615e+001 0.000000e+000
    endloop
  endfacet
  facet normal 0.000000e+000 0.000000e+000 -1.000000e+000
    outer loop
      vertex   -1.000000e+000 -4.919615e+001 0.000000e+000
      vertex   1.500000e+000 -4.719615e+001 0.000000e+000
      vertex   1.500000e+000 -5.469615e+001 0.000000e+000
    endloop
  endfacet
  facet normal 9.906859e-001 -1.361666e-001 1.895302e-004
    outer loop
      vertex   3.314895e+000 -5.072401e+001 1.000000e+001
      vertex   3.266300e+000 -5.095786e+001 9.600000e+001
      vertex   3.250000e+000 -5.119615e+001 1.000000e+001
    endloop
  endfacet
  facet normal 9.629173e-001 -2.697968e-001 -1.895302e-004
    outer loop
      vertex   3.314895e+000 -5.072401e+001 1.000000e+001
      vertex   3.394880e+000 -5.049895e+001 9.600000e+001
      vertex   3.266300e+000 -5.095786e+001 9.600000e+001
    endloop
  endfacet
  facet normal 9.172113e-001 -3.984011e-001 1.895302e-004
    outer loop
      vertex   3.314895e+000 -5.072401e+001 1.000000e+001
      vertex   3.504766e+000 -5.028688e+001 1.000000e+001
      vertex   3.394880e+000 -5.049895e+001 9.600000e+001
    endloop
  endfacet
  facet normal 8.544194e-001 -5.195839e-001 -1.895302e-004
    outer loop
      vertex   3.394880e+000 -5.049895e+001 9.600000e+001
      vertex   3.504766e+000 -5.028688e+001 1.000000e+001
      vertex   3.642505e+000 -5.009175e+001 9.600000e+001
    endloop
  endfacet
  facet normal 7.757113e-001 -6.310879e-001 1.895302e-004
    outer loop
      vertex   3.642505e+000 -5.009175e+001 9.600000e+001
      vertex   3.504766e+000 -5.028688e+001 1.000000e+001
      vertex   3.805532e+000 -4.991719e+001 1.000000e+001
    endloop
  endfacet
  facet normal 5.766803e-001 -8.169699e-001 1.895302e-004
    outer loop
      vertex   3.990809e+000 -4.976646e+001 9.600000e+001
      vertex   3.805532e+000 -4.991719e+001 1.000000e+001
      vertex   4.194886e+000 -4.964235e+001 1.000000e+001
    endloop
  endfacet
  facet normal 3.348796e-001 -9.422609e-001 1.895302e-004
    outer loop
      vertex   4.413961e+000 -4.954720e+001 9.600000e+001
      vertex   4.194886e+000 -4.964235e+001 1.000000e+001
      vertex   4.643952e+000 -4.948276e+001 1.000000e+001
    endloop
  endfacet
  facet normal 6.824241e-002 -9.976688e-001 1.895302e-004
    outer loop
      vertex   4.880576e+000 -4.945023e+001 9.600000e+001
      vertex   4.643952e+000 -4.948276e+001 1.000000e+001
      vertex   5.119424e+000 -4.945023e+001 1.000000e+001
    endloop
  endfacet
  facet normal -2.034560e-001 -9.790841e-001 1.895302e-004
    outer loop
      vertex   5.356048e+000 -4.948276e+001 9.600000e+001
      vertex   5.119424e+000 -4.945023e+001 1.000000e+001
      vertex   5.586039e+000 -4.954720e+001 1.000000e+001
    endloop
  endfacet
  facet normal -4.600650e-001 -8.878852e-001 1.895302e-004
    outer loop
      vertex   5.805114e+000 -4.964235e+001 9.600000e+001
      vertex   5.586039e+000 -4.954720e+001 1.000000e+001
      vertex   6.009191e+000 -4.976646e+001 1.000000e+001
    endloop
  endfacet
  facet normal -6.825531e-001 -7.308360e-001 1.895302e-004
    outer loop
      vertex   6.194468e+000 -4.991719e+001 9.600000e+001
      vertex   6.009191e+000 -4.976646e+001 1.000000e+001
      vertex   6.357495e+000 -5.009175e+001 1.000000e+001
    endloop
  endfacet
  facet normal -8.544194e-001 -5.195839e-001 1.895302e-004
    outer loop
      vertex   6.495234e+000 -5.028688e+001 9.600000e+001
      vertex   6.357495e+000 -5.009175e+001 1.000000e+001
      vertex   6.605120e+000 -5.049895e+001 1.000000e+001
    endloop
  endfacet
  facet normal -9.629173e-001 -2.697968e-001 1.895302e-004
    outer loop
      vertex   6.685105e+000 -5.072401e+001 9.600000e+001
      vertex   6.605120e+000 -5.049895e+001 1.000000e+001
      vertex   6.733700e+000 -5.095786e+001 1.000000e+001
    endloop
  endfacet
  facet normal -1.000000e+000 0.000000e+000 1.895302e-004
    outer loop
      vertex   6.750000e+000 -5.119615e+001 9.600000e+001
      vertex   6.733700e+000 -5.095786e+001 1.000000e+001
      vertex   6.733700e+000 -5.143444e+001 1.000000e+001
    endloop
  endfacet
  facet normal -9.629173e-001 2.697968e-001 1.895302e-004
    outer loop
      vertex   6.685105e+000 -5.166830e+001 9.600000e+001
      vertex   6.733700e+000 -5.143444e+001 1.000000e+001
      vertex   6.605120e+000 -5.189335e+001 1.000000e+001
    endloop
  endfacet
  facet normal -8.544194e-001 5.195839e-001 1.895302e-004
    outer loop
      vertex   6.495234e+000 -5.210542e+001 9.600000e+001
      vertex   6.605120e+000 -5.189335e+001 1.000000e+001
      vertex   6.357495e+000 -5.230056e+001 1.000000e+001
    endloop
  endfacet
  facet normal -6.825531e-001 7.308360e-001 1.895302e-004
    outer loop
      vertex   6.194468e+000 -5.247512e+001 9.600000e+001
      vertex   6.357495e+000 -5.230056e+001 1.000000e+001
      vertex   6.009191e+000 -5.262585e+001 1.000000e+001
    endloop
  endfacet
  facet normal -4.600650e-001 8.878852e-001 1.895302e-004
    outer loop
      vertex   5.805114e+000 -5.274995e+001 9.600000e+001
      vertex   6.009191e+000 -5.262585e+001 1.000000e+001
      vertex   5.586039e+000 -5.284511e+001 1.000000e+001
    endloop
  endfacet
  facet normal -2.034560e-001 9.790841e-001 1.895302e-004
    outer loop
      vertex   5.356048e+000 -5.290955e+001 9.600000e+001
      vertex   5.586039e+000 -5.284511e+001 1.000000e+001
      vertex   5.119424e+000 -5.294207e+001 1.000000e+001
    endloop
  endfacet
  facet normal 6.824241e-002 9.976688e-001 1.895302e-004
    outer loop
      vertex   4.880576e+000 -5.294207e+001 9.600000e+001
      vertex   5.119424e+000 -5.294207e+001 1.000000e+001
      vertex   4.643952e+000 -5.290955e+001 1.000000e+001
    endloop
  endfacet
  facet normal 3.348796e-001 9.422609e-001 1.895302e-004
    outer loop
      vertex   4.413961e+000 -5.284511e+001 9.600000e+001
      vertex   4.643952e+000 -5.290955e+001 1.000000e+001
      vertex   4.194886e+000 -5.274995e+001 1.000000e+001
    endloop
  endfacet
  facet normal 5.766803e-001 8.169699e-001 1.895302e-004
    outer loop
      vertex   3.990809e+000 -5.262585e+001 9.600000e+001
      vertex   4.194886e+000 -5.274995e+001 1.000000e+001
      vertex   3.805532e+000 -5.247512e+001 1.000000e+001
    endloop
  endfacet
  facet normal 7.757113e-001 6.310879e-001 1.895302e-004
    outer loop
      vertex   3.642505e+000 -5.230056e+001 9.600000e+001
      vertex   3.805532e+000 -5.247512e+001 1.000000e+001
      vertex   3.504766e+000 -5.210542e+001 1.000000e+001
    endloop
  endfacet
  facet normal 9.172113e-001 3.984011e-001 1.895302e-004
    outer loop
      vertex   3.394880e+000 -5.189335e+001 9.600000e+001
      vertex   3.504766e+000 -5.210542e+001 1.000000e+001
      vertex   3.314895e+000 -5.166830e+001 1.000000e+001
    endloop
  endfacet
  facet normal 9.906859e-001 1.361666e-001 1.895302e-004
    outer loop
      vertex   3.266300e+000 -5.143444e+001 9.600000e+001
      vertex   3.314895e+000 -5.166830e+001 1.000000e+001
      vertex   3.250000e+000 -5.119615e+001 1.000000e+001
    endloop
  endfacet
  facet normal 1.000000e+000 0.000000e+000 -1.895302e-004
    outer loop
      vertex   3.266300e+000 -5.095786e+001 9.600000e+001
      vertex   3.266300e+000 -5.143444e+001 9.600000e+001
      vertex   3.250000e+000 -5.119615e+001 1.000000e+001
    endloop
  endfacet
  facet normal 6.825531e-001 -7.308360e-001 -1.895302e-004
    outer loop
      vertex   3.642505e+000 -5.009175e+001 9.600000e+001
      vertex   3.805532e+000 -4.991719e+001 1.000000e+001
      vertex   3.990809e+000 -4.976646e+001 9.600000e+001
    endloop
  endfacet
  facet normal 4.600650e-001 -8.878852e-001 -1.895302e-004
    outer loop
      vertex   3.990809e+000 -4.976646e+001 9.600000e+001
      vertex   4.194886e+000 -4.964235e+001 1.000000e+001
      vertex   4.413961e+000 -4.954720e+001 9.600000e+001
    endloop
  endfacet
  facet normal 2.034560e-001 -9.790841e-001 -1.895302e-004
    outer loop
      vertex   4.413961e+000 -4.954720e+001 9.600000e+001
      vertex   4.643952e+000 -4.948276e+001 1.000000e+001
      vertex   4.880576e+000 -4.945023e+001 9.600000e+001
    endloop
  endfacet
  facet normal -6.824241e-002 -9.976688e-001 -1.895302e-004
    outer loop
      vertex   4.880576e+000 -4.945023e+001 9.600000e+001
      vertex   5.119424e+000 -4.945023e+001 1.000000e+001
      vertex   5.356048e+000 -4.948276e+001 9.600000e+001
    endloop
  endfacet
  facet normal -3.348796e-001 -9.422609e-001 -1.895302e-004
    outer loop
      vertex   5.356048e+000 -4.948276e+001 9.600000e+001
      vertex   5.586039e+000 -4.954720e+001 1.000000e+001
      vertex   5.805114e+000 -4.964235e+001 9.600000e+001
    endloop
  endfacet
  facet normal -5.766803e-001 -8.169699e-001 -1.895302e-004
    outer loop
      vertex   5.805114e+000 -4.964235e+001 9.600000e+001
      vertex   6.009191e+000 -4.976646e+001 1.000000e+001
      vertex   6.194468e+000 -4.991719e+001 9.600000e+001
    endloop
  endfacet
  facet normal -7.757113e-001 -6.310879e-001 -1.895302e-004
    outer loop
      vertex   6.194468e+000 -4.991719e+001 9.600000e+001
      vertex   6.357495e+000 -5.009175e+001 1.000000e+001
      vertex   6.495234e+000 -5.028688e+001 9.600000e+001
    endloop
  endfacet
  facet normal -9.172113e-001 -3.984011e-001 -1.895302e-004
    outer loop
      vertex   6.495234e+000 -5.028688e+001 9.600000e+001
      vertex   6.605120e+000 -5.049895e+001 1.000000e+001
      vertex   6.685105e+000 -5.072401e+001 9.600000e+001
    endloop
  endfacet
  facet normal -9.906859e-001 -1.361666e-001 -1.895302e-004
    outer loop
      vertex   6.685105e+000 -5.072401e+001 9.600000e+001
      vertex   6.733700e+000 -5.095786e+001 1.000000e+001
      vertex   6.750000e+000 -5.119615e+001 9.600000e+001
    endloop
  endfacet
  facet normal -9.906859e-001 1.361666e-001 -1.895302e-004
    outer loop
      vertex   6.750000e+000 -5.119615e+001 9.600000e+001
      vertex   6.733700e+000 -5.143444e+001 1.000000e+001
      vertex   6.685105e+000 -5.166830e+001 9.600000e+001
    endloop
  endfacet
  facet normal -9.172113e-001 3.984011e-001 -1.895302e-004
    outer loop
      vertex   6.685105e+000 -5.166830e+001 9.600000e+001
      vertex   6.605120e+000 -5.189335e+001 1.000000e+001
      vertex   6.495234e+000 -5.210542e+001 9.600000e+001
    endloop
  endfacet
  facet normal -7.757113e-001 6.310879e-001 -1.895302e-004
    outer loop
      vertex   6.495234e+000 -5.210542e+001 9.600000e+001
      vertex   6.357495e+000 -5.230056e+001 1.000000e+001
      vertex   6.194468e+000 -5.247512e+001 9.600000e+001
    endloop
  endfacet
  facet normal -5.766803e-001 8.169699e-001 -1.895302e-004
    outer loop
      vertex   6.194468e+000 -5.247512e+001 9.600000e+001
      vertex   6.009191e+000 -5.262585e+001 1.000000e+001
      vertex   5.805114e+000 -5.274995e+001 9.600000e+001
    endloop
  endfacet
  facet normal -3.348796e-001 9.422609e-001 -1.895302e-004
    outer loop
      vertex   5.805114e+000 -5.274995e+001 9.600000e+001
      vertex   5.586039e+000 -5.284511e+001 1.000000e+001
      vertex   5.356048e+000 -5.290955e+001 9.600000e+001
    endloop
  endfacet
  facet normal -6.824241e-002 9.976688e-001 -1.895302e-004
    outer loop
      vertex   5.356048e+000 -5.290955e+001 9.600000e+001
      vertex   5.119424e+000 -5.294207e+001 1.000000e+001
      vertex   4.880576e+000 -5.294207e+001 9.600000e+001
    endloop
  endfacet
  facet normal 2.034560e-001 9.790841e-001 -1.895302e-004
    outer loop
      vertex   4.880576e+000 -5.294207e+001 9.600000e+001
      vertex   4.643952e+000 -5.290955e+001 1.000000e+001
      vertex   4.413961e+000 -5.284511e+001 9.600000e+001
    endloop
  endfacet
  facet normal 4.600650e-001 8.878852e-001 -1.895302e-004
    outer loop
      vertex   4.413961e+000 -5.284511e+001 9.600000e+001
      vertex   4.194886e+000 -5.274995e+001 1.000000e+001
      vertex   3.990809e+000 -5.262585e+001 9.600000e+001
    endloop
  endfacet
  facet normal 6.825531e-001 7.308360e-001 -1.895302e-004
    outer loop
      vertex   3.990809e+000 -5.262585e+001 9.600000e+001
      vertex   3.805532e+000 -5.247512e+001 1.000000e+001
      vertex   3.642505e+000 -5.230056e+001 9.600000e+001
    endloop
  endfacet
  facet normal 8.544194e-001 5.195839e-001 -1.895302e-004
    outer loop
      vertex   3.642505e+000 -5.230056e+001 9.600000e+001
      vertex   3.504766e+000 -5.210542e+001 1.000000e+001
      vertex   3.394880e+000 -5.189335e+001 9.600000e+001
    endloop
  endfacet
  facet normal 9.629173e-001 2.697968e-001 -1.895302e-004
    outer loop
      vertex   3.394880e+000 -5.189335e+001 9.600000e+001
      vertex   3.314895e+000 -5.166830e+001 1.000000e+001
      vertex   3.266300e+000 -5.143444e+001 9.600000e+001
    endloop
  endfacet
  facet normal -7.105427e-015 -1.000000e+000 0.000000e+000
    outer loop
      vertex   7.000000e+000 -5.719615e+001 1.060000e+002
      vertex   7.000000e+000 -5.719615e+001 0.000000e+000
      vertex   9.000000e+000 -5.719615e+001 1.060000e+002
    endloop
  endfacet
  facet normal -7.105427e-015 -1.000000e+000 0.000000e+000
    outer loop
      vertex   9.000000e+000 -5.719615e+001 1.060000e+002
      vertex   7.000000e+000 -5.719615e+001 0.000000e+000
      vertex   9.000000e+000 -5.719615e+001 0.000000e+000
    endloop
  endfacet
  facet normal 1.000000e+000 0.000000e+000 0.000000e+000
    outer loop
      vertex   7.000000e+000 -5.819615e+001 1.060000e+002
      vertex   7.000000e+000 -5.819615e+001 0.000000e+000
      vertex   7.000000e+000 -5.719615e+001 1.060000e+002
    endloop
  endfacet
  facet normal 1.000000e+000 0.000000e+000 0.000000e+000
    outer loop
      vertex   7.000000e+000 -5.719615e+001 1.060000e+002
      vertex   7.000000e+000 -5.819615e+001 0.000000e+000
      vertex   7.000000e+000 -5.719615e+001 0.000000e+000
    endloop
  endfacet
  facet normal 3.552714e-015 1.000000e+000 0.000000e+000
    outer loop
      vertex   9.000000e+000 -5.819615e+001 1.060000e+002
      vertex   9.000000e+000 -5.819615e+001 0.000000e+000
      vertex   7.000000e+000 -5.819615e+001 1.060000e+002
    endloop
  endfacet
  facet normal 3.552714e-015 1.000000e+000 0.000000e+000
    outer loop
      vertex   7.000000e+000 -5.819615e+001 1.060000e+002
      vertex   9.000000e+000 -5.819615e+001 0.000000e+000
      vertex   7.000000e+000 -5.819615e+001 0.000000e+000
    endloop
  endfacet
  facet normal 1.000000e+000 0.000000e+000 0.000000e+000
    outer loop
      vertex   9.000000e+000 -5.919615e+001 1.060000e+002
      vertex   9.000000e+000 -5.919615e+001 0.000000e+000
      vertex   9.000000e+000 -5.819615e+001 1.060000e+002
    endloop
  endfacet
  facet normal 1.000000e+000 0.000000e+000 0.000000e+000
    outer loop
      vertex   9.000000e+000 -5.819615e+001 1.060000e+002
      vertex   9.000000e+000 -5.919615e+001 0.000000e+000
      vertex   9.000000e+000 -5.819615e+001 0.000000e+000
    endloop
  endfacet
  facet normal -5.233596e-002 -9.986295e-001 0.000000e+000
    outer loop
      vertex   9.000000e+000 -5.919615e+001 1.060000e+002
      vertex   7.745658e+000 -5.913042e+001 1.060000e+002
      vertex   9.000000e+000 -5.919615e+001 0.000000e+000
    endloop
  endfacet
  facet normal -5.233596e-002 -9.986295e-001 1.315575e-018
    outer loop
      vertex   9.000000e+000 -5.919615e+001 0.000000e+000
      vertex   7.745658e+000 -5.913042e+001 1.060000e+002
      vertex   7.745658e+000 -5.913042e+001 0.000000e+000
    endloop
  endfacet
  facet normal -1.564345e-001 -9.876883e-001 3.932313e-018
    outer loop
      vertex   7.745658e+000 -5.913042e+001 0.000000e+000
      vertex   7.745658e+000 -5.913042e+001 1.060000e+002
      vertex   6.505060e+000 -5.893392e+001 1.060000e+002
    endloop
  endfacet
  facet normal -2.588190e-001 -9.659258e-001 0.000000e+000
    outer loop
      vertex   6.505060e+000 -5.893392e+001 0.000000e+000
      vertex   6.505060e+000 -5.893392e+001 1.060000e+002
      vertex   5.291796e+000 -5.860883e+001 1.060000e+002
    endloop
  endfacet
  facet normal -3.583679e-001 -9.335804e-001 0.000000e+000
    outer loop
      vertex   5.291796e+000 -5.860883e+001 0.000000e+000
      vertex   5.291796e+000 -5.860883e+001 1.060000e+002
      vertex   4.119160e+000 -5.815870e+001 1.060000e+002
    endloop
  endfacet
  facet normal -4.539905e-001 -8.910065e-001 1.141202e-017
    outer loop
      vertex   4.119160e+000 -5.815870e+001 0.000000e+000
      vertex   4.119160e+000 -5.815870e+001 1.060000e+002
      vertex   3.000000e+000 -5.758846e+001 1.060000e+002
    endloop
  endfacet
  facet normal -5.446390e-001 -8.386706e-001 9.127106e-018
    outer loop
      vertex   3.000000e+000 -5.758846e+001 0.000000e+000
      vertex   3.000000e+000 -5.758846e+001 1.060000e+002
      vertex   1.946577e+000 -5.690436e+001 1.060000e+002
    endloop
  endfacet
  facet normal -6.293204e-001 -7.771460e-001 0.000000e+000
    outer loop
      vertex   1.946577e+000 -5.690436e+001 0.000000e+000
      vertex   1.946577e+000 -5.690436e+001 1.060000e+002
      vertex   9.704327e-001 -5.611389e+001 1.060000e+002
    endloop
  endfacet
  facet normal -7.071068e-001 -7.071068e-001 -4.739902e-017
    outer loop
      vertex   9.704327e-001 -5.611389e+001 0.000000e+000
      vertex   9.704327e-001 -5.611389e+001 1.060000e+002
      vertex   8.226209e-002 -5.522572e+001 1.060000e+002
    endloop
  endfacet
  facet normal -7.771460e-001 -6.293204e-001 1.302348e-017
    outer loop
      vertex   8.226209e-002 -5.522572e+001 0.000000e+000
      vertex   8.226209e-002 -5.522572e+001 1.060000e+002
      vertex   -7.082039e-001 -5.424958e+001 1.060000e+002
    endloop
  endfacet
  facet normal -8.386706e-001 -5.446390e-001 0.000000e+000
    outer loop
      vertex   -7.082039e-001 -5.424958e+001 0.000000e+000
      vertex   -7.082039e-001 -5.424958e+001 1.060000e+002
      vertex   -1.392305e+000 -5.319615e+001 1.060000e+002
    endloop
  endfacet
  facet normal -8.910065e-001 -4.539905e-001 0.000000e+000
    outer loop
      vertex   -1.392305e+000 -5.319615e+001 0.000000e+000
      vertex   -1.392305e+000 -5.319615e+001 1.060000e+002
      vertex   -1.962545e+000 -5.207699e+001 1.060000e+002
    endloop
  endfacet
  facet normal -9.335804e-001 -3.583679e-001 0.000000e+000
    outer loop
      vertex   -1.962545e+000 -5.207699e+001 0.000000e+000
      vertex   -1.962545e+000 -5.207699e+001 1.060000e+002
      vertex   -2.412678e+000 -5.090436e+001 1.060000e+002
    endloop
  endfacet
  facet normal -9.659258e-001 -2.588190e-001 0.000000e+000
    outer loop
      vertex   -2.412678e+000 -5.090436e+001 0.000000e+000
      vertex   -2.412678e+000 -5.090436e+001 1.060000e+002
      vertex   -2.737771e+000 -4.969109e+001 1.060000e+002
    endloop
  endfacet
  facet normal -9.876883e-001 -1.564345e-001 1.655176e-017
    outer loop
      vertex   -2.737771e+000 -4.969109e+001 0.000000e+000
      vertex   -2.737771e+000 -4.969109e+001 1.060000e+002
      vertex   -2.934263e+000 -4.845049e+001 1.060000e+002
    endloop
  endfacet
  facet normal -9.986295e-001 -5.233596e-002 -3.508201e-018
    outer loop
      vertex   -2.934263e+000 -4.845049e+001 0.000000e+000
      vertex   -2.934263e+000 -4.845049e+001 1.060000e+002
      vertex   -3.000000e+000 -4.719615e+001 1.060000e+002
    endloop
  endfacet
  facet normal -9.986295e-001 -5.233596e-002 0.000000e+000
    outer loop
      vertex   -3.000000e+000 -4.719615e+001 0.000000e+000
      vertex   -2.934263e+000 -4.845049e+001 0.000000e+000
      vertex   -3.000000e+000 -4.719615e+001 1.060000e+002
    endloop
  endfacet
  facet normal -1.564345e-001 -9.876883e-001 0.000000e+000
    outer loop
      vertex   7.745658e+000 -5.913042e+001 0.000000e+000
      vertex   6.505060e+000 -5.893392e+001 1.060000e+002
      vertex   6.505060e+000 -5.893392e+001 0.000000e+000
    endloop
  endfacet
  facet normal -2.588190e-001 -9.659258e-001 0.000000e+000
    outer loop
      vertex   6.505060e+000 -5.893392e+001 0.000000e+000
      vertex   5.291796e+000 -5.860883e+001 1.060000e+002
      vertex   5.291796e+000 -5.860883e+001 0.000000e+000
    endloop
  endfacet
  facet normal -3.583679e-001 -9.335804e-001 9.008340e-018
    outer loop
      vertex   5.291796e+000 -5.860883e+001 0.000000e+000
      vertex   4.119160e+000 -5.815870e+001 1.060000e+002
      vertex   4.119160e+000 -5.815870e+001 0.000000e+000
    endloop
  endfacet
  facet normal -4.539905e-001 -8.910065e-001 7.608011e-018
    outer loop
      vertex   4.119160e+000 -5.815870e+001 0.000000e+000
      vertex   3.000000e+000 -5.758846e+001 1.060000e+002
      vertex   3.000000e+000 -5.758846e+001 0.000000e+000
    endloop
  endfacet
  facet normal -5.446390e-001 -8.386706e-001 0.000000e+000
    outer loop
      vertex   3.000000e+000 -5.758846e+001 0.000000e+000
      vertex   1.946577e+000 -5.690436e+001 1.060000e+002
      vertex   1.946577e+000 -5.690436e+001 0.000000e+000
    endloop
  endfacet
  facet normal -6.293204e-001 -7.771460e-001 -5.209391e-017
    outer loop
      vertex   1.946577e+000 -5.690436e+001 0.000000e+000
      vertex   9.704327e-001 -5.611389e+001 1.060000e+002
      vertex   9.704327e-001 -5.611389e+001 0.000000e+000
    endloop
  endfacet
  facet normal -7.071068e-001 -7.071068e-001 1.184975e-017
    outer loop
      vertex   9.704327e-001 -5.611389e+001 0.000000e+000
      vertex   8.226209e-002 -5.522572e+001 1.060000e+002
      vertex   8.226209e-002 -5.522572e+001 0.000000e+000
    endloop
  endfacet
  facet normal -7.771460e-001 -6.293204e-001 0.000000e+000
    outer loop
      vertex   8.226209e-002 -5.522572e+001 0.000000e+000
      vertex   -7.082039e-001 -5.424958e+001 1.060000e+002
      vertex   -7.082039e-001 -5.424958e+001 0.000000e+000
    endloop
  endfacet
  facet normal -8.386706e-001 -5.446390e-001 0.000000e+000
    outer loop
      vertex   -7.082039e-001 -5.424958e+001 0.000000e+000
      vertex   -1.392305e+000 -5.319615e+001 1.060000e+002
      vertex   -1.392305e+000 -5.319615e+001 0.000000e+000
    endloop
  endfacet
  facet normal -8.910065e-001 -4.539905e-001 0.000000e+000
    outer loop
      vertex   -1.392305e+000 -5.319615e+001 0.000000e+000
      vertex   -1.962545e+000 -5.207699e+001 1.060000e+002
      vertex   -1.962545e+000 -5.207699e+001 0.000000e+000
    endloop
  endfacet
  facet normal -9.335804e-001 -3.583679e-001 0.000000e+000
    outer loop
      vertex   -1.962545e+000 -5.207699e+001 0.000000e+000
      vertex   -2.412678e+000 -5.090436e+001 1.060000e+002
      vertex   -2.412678e+000 -5.090436e+001 0.000000e+000
    endloop
  endfacet
  facet normal -9.659258e-001 -2.588190e-001 1.618707e-017
    outer loop
      vertex   -2.412678e+000 -5.090436e+001 0.000000e+000
      vertex   -2.737771e+000 -4.969109e+001 1.060000e+002
      vertex   -2.737771e+000 -4.969109e+001 0.000000e+000
    endloop
  endfacet
  facet normal -9.876883e-001 -1.564345e-001 -1.048617e-017
    outer loop
      vertex   -2.737771e+000 -4.969109e+001 0.000000e+000
      vertex   -2.934263e+000 -4.845049e+001 1.060000e+002
      vertex   -2.934263e+000 -4.845049e+001 0.000000e+000
    endloop
  endfacet
  facet normal 0.000000e+000 1.000000e+000 0.000000e+000
    outer loop
      vertex   -2.000000e+000 -4.719615e+001 1.060000e+002
      vertex   -2.000000e+000 -4.719615e+001 0.000000e+000
      vertex   -3.000000e+000 -4.719615e+001 1.060000e+002
    endloop
  endfacet
  facet normal 0.000000e+000 1.000000e+000 0.000000e+000
    outer loop
      vertex   -3.000000e+000 -4.719615e+001 1.060000e+002
      vertex   -2.000000e+000 -4.719615e+001 0.000000e+000
      vertex   -3.000000e+000 -4.719615e+001 0.000000e+000
    endloop
  endfacet
  facet normal 1.000000e+000 -3.996803e-015 0.000000e+000
    outer loop
      vertex   -2.000000e+000 -4.919615e+001 1.060000e+002
      vertex   -2.000000e+000 -4.919615e+001 0.000000e+000
      vertex   -2.000000e+000 -4.719615e+001 1.060000e+002
    endloop
  endfacet
  facet normal 1.000000e+000 -3.996803e-015 0.000000e+000
    outer loop
      vertex   -2.000000e+000 -4.719615e+001 1.060000e+002
      vertex   -2.000000e+000 -4.919615e+001 0.000000e+000
      vertex   -2.000000e+000 -4.719615e+001 0.000000e+000
    endloop
  endfacet
  facet normal 0.000000e+000 1.000000e+000 0.000000e+000
    outer loop
      vertex   -1.000000e+000 -4.919615e+001 1.060000e+002
      vertex   -1.000000e+000 -4.919615e+001 0.000000e+000
      vertex   -2.000000e+000 -4.919615e+001 1.060000e+002
    endloop
  endfacet
  facet normal 0.000000e+000 1.000000e+000 0.000000e+000
    outer loop
      vertex   -2.000000e+000 -4.919615e+001 1.060000e+002
      vertex   -1.000000e+000 -4.919615e+001 0.000000e+000
      vertex   -2.000000e+000 -4.919615e+001 0.000000e+000
    endloop
  endfacet
  facet normal -1.000000e+000 4.107825e-015 0.000000e+000
    outer loop
      vertex   -1.000000e+000 -4.719615e+001 1.060000e+002
      vertex   -1.000000e+000 -4.719615e+001 0.000000e+000
      vertex   -1.000000e+000 -4.919615e+001 1.060000e+002
    endloop
  endfacet
  facet normal -1.000000e+000 4.107825e-015 0.000000e+000
    outer loop
      vertex   -1.000000e+000 -4.919615e+001 1.060000e+002
      vertex   -1.000000e+000 -4.719615e+001 0.000000e+000
      vertex   -1.000000e+000 -4.919615e+001 0.000000e+000
    endloop
  endfacet
  facet normal 0.000000e+000 0.000000e+000 1.000000e+000
    outer loop
      vertex   1.500000e+000 -4.719615e+001 1.060000e+002
      vertex   -1.000000e+000 -4.919615e+001 1.060000e+002
      vertex   1.500000e+000 -5.469615e+001 1.060000e+002
    endloop
  endfacet
  facet normal 0.000000e+000 0.000000e+000 1.000000e+000
    outer loop
      vertex   1.500000e+000 -4.719615e+001 1.060000e+002
      vertex   -1.000000e+000 -4.719615e+001 1.060000e+002
      vertex   -1.000000e+000 -4.919615e+001 1.060000e+002
    endloop
  endfacet
  facet normal 0.000000e+000 0.000000e+000 1.000000e+000
    outer loop
      vertex   -2.000000e+000 -4.919615e+001 1.060000e+002
      vertex   -2.412678e+000 -5.090436e+001 1.060000e+002
      vertex   -1.000000e+000 -4.919615e+001 1.060000e+002
    endloop
  endfacet
  facet normal 0.000000e+000 0.000000e+000 1.000000e+000
    outer loop
      vertex   -2.000000e+000 -4.919615e+001 1.060000e+002
      vertex   -2.737771e+000 -4.969109e+001 1.060000e+002
      vertex   -2.412678e+000 -5.090436e+001 1.060000e+002
    endloop
  endfacet
  facet normal 0.000000e+000 0.000000e+000 1.000000e+000
    outer loop
      vertex   -2.000000e+000 -4.919615e+001 1.060000e+002
      vertex   -2.934263e+000 -4.845049e+001 1.060000e+002
      vertex   -2.737771e+000 -4.969109e+001 1.060000e+002
    endloop
  endfacet
  facet normal 0.000000e+000 0.000000e+000 1.000000e+000
    outer loop
      vertex   -2.000000e+000 -4.919615e+001 1.060000e+002
      vertex   -2.000000e+000 -4.719615e+001 1.060000e+002
      vertex   -2.934263e+000 -4.845049e+001 1.060000e+002
    endloop
  endfacet
  facet normal 0.000000e+000 0.000000e+000 1.000000e+000
    outer loop
      vertex   -2.934263e+000 -4.845049e+001 1.060000e+002
      vertex   -2.000000e+000 -4.719615e+001 1.060000e+002
      vertex   -3.000000e+000 -4.719615e+001 1.060000e+002
    endloop
  endfacet
  facet normal 0.000000e+000 0.000000e+000 1.000000e+000
    outer loop
      vertex   -2.412678e+000 -5.090436e+001 1.060000e+002
      vertex   -1.962545e+000 -5.207699e+001 1.060000e+002
      vertex   -1.000000e+000 -4.919615e+001 1.060000e+002
    endloop
  endfacet
  facet normal 0.000000e+000 0.000000e+000 1.000000e+000
    outer loop
      vertex   -1.000000e+000 -4.919615e+001 1.060000e+002
      vertex   -1.962545e+000 -5.207699e+001 1.060000e+002
      vertex   -1.392305e+000 -5.319615e+001 1.060000e+002
    endloop
  endfacet
  facet normal 0.000000e+000 0.000000e+000 1.000000e+000
    outer loop
      vertex   1.500000e+000 -5.469615e+001 1.060000e+002
      vertex   -1.392305e+000 -5.319615e+001 1.060000e+002
      vertex   -7.082039e-001 -5.424958e+001 1.060000e+002
    endloop
  endfacet
  facet normal 0.000000e+000 0.000000e+000 1.000000e+000
    outer loop
      vertex   8.226209e-002 -5.522572e+001 1.060000e+002
      vertex   1.500000e+000 -5.469615e+001 1.060000e+002
      vertex   -7.082039e-001 -5.424958e+001 1.060000e+002
    endloop
  endfacet
  facet normal 0.000000e+000 0.000000e+000 1.000000e+000
    outer loop
      vertex   8.226209e-002 -5.522572e+001 1.060000e+002
      vertex   9.704327e-001 -5.611389e+001 1.060000e+002
      vertex   1.500000e+000 -5.469615e+001 1.060000e+002
    endloop
  endfacet
  facet normal 0.000000e+000 0.000000e+000 1.000000e+000
    outer loop
      vertex   1.500000e+000 -5.469615e+001 1.060000e+002
      vertex   9.704327e-001 -5.611389e+001 1.060000e+002
      vertex   1.946577e+000 -5.690436e+001 1.060000e+002
    endloop
  endfacet
  facet normal 0.000000e+000 0.000000e+000 1.000000e+000
    outer loop
      vertex   3.000000e+000 -5.758846e+001 1.060000e+002
      vertex   1.500000e+000 -5.469615e+001 1.060000e+002
      vertex   1.946577e+000 -5.690436e+001 1.060000e+002
    endloop
  endfacet
  facet normal 0.000000e+000 0.000000e+000 1.000000e+000
    outer loop
      vertex   3.000000e+000 -5.758846e+001 1.060000e+002
      vertex   7.000000e+000 -5.719615e+001 1.060000e+002
      vertex   1.500000e+000 -5.469615e+001 1.060000e+002
    endloop
  endfacet
  facet normal 0.000000e+000 0.000000e+000 1.000000e+000
    outer loop
      vertex   3.000000e+000 -5.758846e+001 1.060000e+002
      vertex   4.119160e+000 -5.815870e+001 1.060000e+002
      vertex   7.000000e+000 -5.719615e+001 1.060000e+002
    endloop
  endfacet
  facet normal 0.000000e+000 0.000000e+000 1.000000e+000
    outer loop
      vertex   7.000000e+000 -5.719615e+001 1.060000e+002
      vertex   4.119160e+000 -5.815870e+001 1.060000e+002
      vertex   5.291796e+000 -5.860883e+001 1.060000e+002
    endloop
  endfacet
  facet normal 0.000000e+000 0.000000e+000 1.000000e+000
    outer loop
      vertex   7.000000e+000 -5.819615e+001 1.060000e+002
      vertex   5.291796e+000 -5.860883e+001 1.060000e+002
      vertex   6.505060e+000 -5.893392e+001 1.060000e+002
    endloop
  endfacet
  facet normal 0.000000e+000 0.000000e+000 1.000000e+000
    outer loop
      vertex   7.745658e+000 -5.913042e+001 1.060000e+002
      vertex   7.000000e+000 -5.819615e+001 1.060000e+002
      vertex   6.505060e+000 -5.893392e+001 1.060000e+002
    endloop
  endfacet
  facet normal 0.000000e+000 0.000000e+000 1.000000e+000
    outer loop
      vertex   7.745658e+000 -5.913042e+001 1.060000e+002
      vertex   9.000000e+000 -5.819615e+001 1.060000e+002
      vertex   7.000000e+000 -5.819615e+001 1.060000e+002
    endloop
  endfacet
  facet normal 0.000000e+000 0.000000e+000 1.000000e+000
    outer loop
      vertex   7.745658e+000 -5.913042e+001 1.060000e+002
      vertex   9.000000e+000 -5.919615e+001 1.060000e+002
      vertex   9.000000e+000 -5.819615e+001 1.060000e+002
    endloop
  endfacet
  facet normal 0.000000e+000 0.000000e+000 1.000000e+000
    outer loop
      vertex   -1.000000e+000 -4.919615e+001 1.060000e+002
      vertex   -1.392305e+000 -5.319615e+001 1.060000e+002
      vertex   1.500000e+000 -5.469615e+001 1.060000e+002
    endloop
  endfacet
  facet normal 0.000000e+000 0.000000e+000 1.000000e+000
    outer loop
      vertex   7.000000e+000 -5.719615e+001 1.060000e+002
      vertex   5.291796e+000 -5.860883e+001 1.060000e+002
      vertex   7.000000e+000 -5.819615e+001 1.060000e+002
    endloop
  endfacet
  facet normal 0.000000e+000 0.000000e+000 1.000000e+000
    outer loop
      vertex   9.000000e+000 -5.719615e+001 1.060000e+002
      vertex   9.000000e+000 -5.469615e+001 1.060000e+002
      vertex   7.000000e+000 -5.719615e+001 1.060000e+002
    endloop
  endfacet
  facet normal 0.000000e+000 0.000000e+000 1.000000e+000
    outer loop
      vertex   7.000000e+000 -5.719615e+001 1.060000e+002
      vertex   9.000000e+000 -5.469615e+001 1.060000e+002
      vertex   1.500000e+000 -5.469615e+001 1.060000e+002
    endloop
  endfacet
endsolid
